<svg xmlns="http://www.w3.org/2000/svg" xmlns:xlink="http://www.w3.org/1999/xlink" width="99" height="99" viewBox="0 0 99 99">
  <defs>
    <clipPath id="clip-path">
      <rect id="Rectángulo_401273" data-name="Rectángulo 401273" width="15.047" height="15.048" fill="#eef3bc"/>
    </clipPath>
    <clipPath id="clip-path-2">
      <path id="Trazado_873519" data-name="Trazado 873519" d="M15.047,7.524A7.524,7.524,0,1,1,7.524,0a7.524,7.524,0,0,1,7.524,7.524" fill="#eef3bc"/>
    </clipPath>
  </defs>
  <g id="Grupo_1120616" data-name="Grupo 1120616" transform="translate(-961.711 -1154)">
    <rect id="Rectángulo_409537" data-name="Rectángulo 409537" width="99" height="99" rx="49.5" transform="translate(961.711 1154)" fill="#f3f9ff"/>
    <g id="Grupo_1119771" data-name="Grupo 1119771" transform="translate(14.084 -7981.033)">
      <g id="Grupo_1099855" data-name="Grupo 1099855" transform="translate(948.664 9139)">
        <g id="Grupo_1099808" data-name="Grupo 1099808">
          <g id="Grupo_1101062" data-name="Grupo 1101062" transform="translate(-307.943 -6779.151)">
            <g id="Grupo_1101056" data-name="Grupo 1101056" transform="translate(330.953 6828.445) rotate(90)" opacity="0.998" style="isolation: isolate">
              <g id="Grupo_1099844" data-name="Grupo 1099844" transform="translate(0 0)">
                <g id="Grupo_1099843" data-name="Grupo 1099843" transform="translate(0 0)" clip-path="url(#clip-path)">
                  <g id="Grupo_1099842" data-name="Grupo 1099842" transform="translate(0 0)">
                    <g id="Grupo_1099841" data-name="Grupo 1099841" clip-path="url(#clip-path-2)">
                      <rect id="Rectángulo_401272" data-name="Rectángulo 401272" width="19.128" height="19.128" transform="translate(-4.634 13.451) rotate(-70.991)" fill="#eef3bc"/>
                    </g>
                  </g>
                </g>
              </g>
            </g>
            <g id="Grupo_1101057" data-name="Grupo 1101057" transform="translate(330.953 6843.492) rotate(90)" opacity="0.998" style="isolation: isolate">
              <g id="Grupo_1099844-2" data-name="Grupo 1099844" transform="translate(0 0)">
                <g id="Grupo_1099843-2" data-name="Grupo 1099843" transform="translate(0 0)" clip-path="url(#clip-path)">
                  <g id="Grupo_1099842-2" data-name="Grupo 1099842" transform="translate(0 0)">
                    <g id="Grupo_1099841-2" data-name="Grupo 1099841" clip-path="url(#clip-path-2)">
                      <rect id="Rectángulo_401272-2" data-name="Rectángulo 401272" width="19.128" height="19.128" transform="translate(-4.634 13.451) rotate(-70.991)" fill="#eef3bc"/>
                    </g>
                  </g>
                </g>
              </g>
            </g>
            <g id="Grupo_1101058" data-name="Grupo 1101058" transform="translate(330.953 6858.54) rotate(90)" opacity="0.998" style="isolation: isolate">
              <g id="Grupo_1099844-3" data-name="Grupo 1099844" transform="translate(0 0)">
                <g id="Grupo_1099843-3" data-name="Grupo 1099843" transform="translate(0 0)" clip-path="url(#clip-path)">
                  <g id="Grupo_1099842-3" data-name="Grupo 1099842" transform="translate(0 0)">
                    <g id="Grupo_1099841-3" data-name="Grupo 1099841" clip-path="url(#clip-path-2)">
                      <rect id="Rectángulo_401272-3" data-name="Rectángulo 401272" width="19.128" height="19.128" transform="translate(-4.634 13.451) rotate(-70.991)" fill="#eef3bc"/>
                    </g>
                  </g>
                </g>
              </g>
            </g>
            <g id="Grupo_1101059" data-name="Grupo 1101059" transform="translate(346 6858.676) rotate(90)" opacity="0.998" style="isolation: isolate">
              <g id="Grupo_1099844-4" data-name="Grupo 1099844" transform="translate(0 0)">
                <g id="Grupo_1099843-4" data-name="Grupo 1099843" transform="translate(0 0)" clip-path="url(#clip-path)">
                  <g id="Grupo_1099842-4" data-name="Grupo 1099842" transform="translate(0 0)">
                    <g id="Grupo_1099841-4" data-name="Grupo 1099841" clip-path="url(#clip-path-2)">
                      <rect id="Rectángulo_401272-4" data-name="Rectángulo 401272" width="19.128" height="19.128" transform="translate(-4.634 13.451) rotate(-70.991)" fill="#eef3bc"/>
                    </g>
                  </g>
                </g>
              </g>
            </g>
            <g id="Grupo_1101060" data-name="Grupo 1101060" transform="translate(346 6843.492) rotate(90)" opacity="0.998" style="isolation: isolate">
              <g id="Grupo_1099844-5" data-name="Grupo 1099844" transform="translate(0 0)">
                <g id="Grupo_1099843-5" data-name="Grupo 1099843" transform="translate(0 0)" clip-path="url(#clip-path)">
                  <g id="Grupo_1099842-5" data-name="Grupo 1099842" transform="translate(0 0)">
                    <g id="Grupo_1099841-5" data-name="Grupo 1099841" clip-path="url(#clip-path-2)">
                      <rect id="Rectángulo_401272-5" data-name="Rectángulo 401272" width="19.128" height="19.128" transform="translate(-4.634 13.451) rotate(-70.991)" fill="#eef3bc"/>
                    </g>
                  </g>
                </g>
              </g>
            </g>
            <g id="Grupo_1101061" data-name="Grupo 1101061" transform="translate(361.047 6858.676) rotate(90)" opacity="0.998" style="isolation: isolate">
              <g id="Grupo_1099844-6" data-name="Grupo 1099844" transform="translate(0 0)">
                <g id="Grupo_1099843-6" data-name="Grupo 1099843" transform="translate(0 0)" clip-path="url(#clip-path)">
                  <g id="Grupo_1099842-6" data-name="Grupo 1099842" transform="translate(0 0)">
                    <g id="Grupo_1099841-6" data-name="Grupo 1099841" clip-path="url(#clip-path-2)">
                      <rect id="Rectángulo_401272-6" data-name="Rectángulo 401272" width="19.128" height="19.128" transform="translate(-4.634 13.451) rotate(-70.991)" fill="#eef3bc"/>
                    </g>
                  </g>
                </g>
              </g>
            </g>
          </g>
          <g id="Grupo_1099776" data-name="Grupo 1099776" transform="translate(20.038 16.035)">
            <g id="Grupo_1099618" data-name="Grupo 1099618" transform="translate(0 0)">
              <rect id="Rectángulo_401104" data-name="Rectángulo 401104" width="57.823" height="58.52" transform="translate(0)" fill="none"/>
            </g>
            <g id="Grupo_1119758" data-name="Grupo 1119758" transform="translate(-59.932 0.273)">
              <path id="Trazado_906815" data-name="Trazado 906815" d="M100.344,182.646H77.86v-6.68a1.984,1.984,0,0,0-1.981-1.981H69.2V143.356a.849.849,0,1,0-1.7,0v31.008a1.968,1.968,0,0,0,.58,1.4l8,8a1.968,1.968,0,0,0,1.4.58h22.865a.849.849,0,0,0,0-1.7ZM70.4,175.683h5.479a.283.283,0,0,1,.283.283v5.479Z" transform="translate(0 -126.371)" fill="#4c5066"/>
              <path id="Trazado_906816" data-name="Trazado 906816" d="M108.206,0H69.481A1.984,1.984,0,0,0,67.5,1.981V13.022a.849.849,0,0,0,1.7,0V1.981a.283.283,0,0,1,.283-.283h38.724a.283.283,0,0,1,.283.283v54.01a.283.283,0,0,1-.283.283h-3.9a.849.849,0,1,0,0,1.7h3.9a1.984,1.984,0,0,0,1.981-1.981V1.981A1.984,1.984,0,0,0,108.206,0Z" fill="#4c5066"/>
              <path id="Trazado_906817" data-name="Trazado 906817" d="M231.78,38.208a2.451,2.451,0,0,1-1.8-.755.849.849,0,1,0-1.259,1.141,4.067,4.067,0,0,0,2.045,1.189v.659a.849.849,0,1,0,1.7,0v-.608a2.756,2.756,0,0,0,2.229-2.139c.172-.963-.267-2.222-2.013-2.867l-.308-.114a12.337,12.337,0,0,1-1.608-.658.388.388,0,0,1-.19-.408.777.777,0,0,1,.594-.643,2.346,2.346,0,0,1,1.94.448.849.849,0,0,0,1.089-1.3,4.4,4.4,0,0,0-1.731-.826V30.7a.849.849,0,1,0-1.7,0v.657l-.089.024a2.482,2.482,0,0,0-1.793,2.094,2.073,2.073,0,0,0,1.068,2.074,13.435,13.435,0,0,0,1.834.761l.307.113c.311.115,1.024.439.929.975A1.2,1.2,0,0,1,231.78,38.208Z" transform="translate(-142.77 -20.469)" fill="#4c5066"/>
              <path id="Trazado_906821" data-name="Trazado 906821" d="M146.671,270.556h-7.8a.849.849,0,1,0,0,1.7h7.8a.849.849,0,0,0,0-1.7Z" transform="translate(-62.537 -239.921)" fill="#4c5066"/>
              <path id="Trazado_906822" data-name="Trazado 906822" d="M146.671,316.519h-7.8a.849.849,0,1,0,0,1.7h7.8a.849.849,0,1,0,0-1.7Z" transform="translate(-62.537 -280.68)" fill="#4c5066"/>
              <path id="Trazado_906823" data-name="Trazado 906823" d="M146.671,362.482h-7.8a.849.849,0,1,0,0,1.7h7.8a.849.849,0,0,0,0-1.7Z" transform="translate(-62.537 -321.439)" fill="#4c5066"/>
              <path id="Trazado_906824" data-name="Trazado 906824" d="M298.744,270.556h-7.8a.849.849,0,1,0,0,1.7h7.8a.849.849,0,0,0,0-1.7Z" transform="translate(-197.391 -239.921)" fill="#4c5066"/>
              <path id="Trazado_906825" data-name="Trazado 906825" d="M298.744,316.519h-7.8a.849.849,0,1,0,0,1.7h7.8a.849.849,0,1,0,0-1.7Z" transform="translate(-197.391 -280.68)" fill="#4c5066"/>
              <path id="Trazado_906826" data-name="Trazado 906826" d="M298.744,362.482h-7.8a.849.849,0,1,0,0,1.7h7.8a.849.849,0,1,0,0-1.7Z" transform="translate(-197.391 -321.439)" fill="#4c5066"/>
              <path id="Trazado_907017" data-name="Trazado 907017" d="M146.671,270.556h-7.8a.849.849,0,1,0,0,1.7h7.8a.849.849,0,0,0,0-1.7Z" transform="translate(-62.537 -244.922)" fill="#4c5066"/>
              <path id="Trazado_907018" data-name="Trazado 907018" d="M298.744,270.556h-7.8a.849.849,0,1,0,0,1.7h7.8a.849.849,0,0,0,0-1.7Z" transform="translate(-197.392 -244.922)" fill="#4c5066"/>
            </g>
          </g>
        </g>
      </g>
    </g>
  </g>
</svg>
