<svg xmlns="http://www.w3.org/2000/svg" xmlns:xlink="http://www.w3.org/1999/xlink" width="85" height="85" viewBox="0 0 85 85">
  <defs>
    <clipPath id="clip-path">
      <rect id="Rectángulo_401273" data-name="Rectángulo 401273" width="12.919" height="12.92" fill="#eef3bc"/>
    </clipPath>
    <clipPath id="clip-path-2">
      <path id="Trazado_873519" data-name="Trazado 873519" d="M12.919,6.46A6.46,6.46,0,1,1,6.46,0a6.46,6.46,0,0,1,6.46,6.46" fill="#eef3bc"/>
    </clipPath>
  </defs>
  <g id="Grupo_1119792" data-name="Grupo 1119792" transform="translate(3870 6172)">
    <path id="Trazado_906868" data-name="Trazado 906868" d="M42.5,0A42.5,42.5,0,1,1,0,42.5,42.5,42.5,0,0,1,42.5,0Z" transform="translate(-3870 -6172)" fill="#fff"/>
    <g id="Grupo_1119330" data-name="Grupo 1119330" transform="translate(-3862.273 -6154.828)">
      <g id="Grupo_1099855" data-name="Grupo 1099855" transform="translate(0 0)">
        <g id="Grupo_1099808" data-name="Grupo 1099808" transform="translate(0 0)">
          <g id="Grupo_1101062" data-name="Grupo 1101062" transform="translate(0 28.556)">
            <g id="Grupo_1101056" data-name="Grupo 1101056" transform="translate(12.92) rotate(90)" opacity="0.998" style="isolation: isolate">
              <g id="Grupo_1099844" data-name="Grupo 1099844" transform="translate(0 0)">
                <g id="Grupo_1099843" data-name="Grupo 1099843" transform="translate(0 0)" clip-path="url(#clip-path)">
                  <g id="Grupo_1099842" data-name="Grupo 1099842" transform="translate(0 0)">
                    <g id="Grupo_1099841" data-name="Grupo 1099841" clip-path="url(#clip-path-2)">
                      <rect id="Rectángulo_401272" data-name="Rectángulo 401272" width="16.423" height="16.423" transform="translate(-3.979 11.549) rotate(-70.991)" fill="#eef3bc"/>
                    </g>
                  </g>
                </g>
              </g>
            </g>
            <g id="Grupo_1101057" data-name="Grupo 1101057" transform="translate(12.92 12.919) rotate(90)" opacity="0.998" style="isolation: isolate">
              <g id="Grupo_1099844-2" data-name="Grupo 1099844" transform="translate(0 0)">
                <g id="Grupo_1099843-2" data-name="Grupo 1099843" transform="translate(0 0)" clip-path="url(#clip-path)">
                  <g id="Grupo_1099842-2" data-name="Grupo 1099842" transform="translate(0 0)">
                    <g id="Grupo_1099841-2" data-name="Grupo 1099841" clip-path="url(#clip-path-2)">
                      <rect id="Rectángulo_401272-2" data-name="Rectángulo 401272" width="16.423" height="16.423" transform="translate(-3.979 11.549) rotate(-70.991)" fill="#eef3bc"/>
                    </g>
                  </g>
                </g>
              </g>
            </g>
            <g id="Grupo_1101058" data-name="Grupo 1101058" transform="translate(12.92 25.838) rotate(90)" opacity="0.998" style="isolation: isolate">
              <g id="Grupo_1099844-3" data-name="Grupo 1099844" transform="translate(0 0)">
                <g id="Grupo_1099843-3" data-name="Grupo 1099843" transform="translate(0 0)" clip-path="url(#clip-path)">
                  <g id="Grupo_1099842-3" data-name="Grupo 1099842" transform="translate(0 0)">
                    <g id="Grupo_1099841-3" data-name="Grupo 1099841" clip-path="url(#clip-path-2)">
                      <rect id="Rectángulo_401272-3" data-name="Rectángulo 401272" width="16.423" height="16.423" transform="translate(-3.979 11.549) rotate(-70.991)" fill="#eef3bc"/>
                    </g>
                  </g>
                </g>
              </g>
            </g>
            <g id="Grupo_1101059" data-name="Grupo 1101059" transform="translate(25.839 25.955) rotate(90)" opacity="0.998" style="isolation: isolate">
              <g id="Grupo_1099844-4" data-name="Grupo 1099844" transform="translate(0 0)">
                <g id="Grupo_1099843-4" data-name="Grupo 1099843" transform="translate(0 0)" clip-path="url(#clip-path)">
                  <g id="Grupo_1099842-4" data-name="Grupo 1099842" transform="translate(0 0)">
                    <g id="Grupo_1099841-4" data-name="Grupo 1099841" clip-path="url(#clip-path-2)">
                      <rect id="Rectángulo_401272-4" data-name="Rectángulo 401272" width="16.423" height="16.423" transform="translate(-3.979 11.549) rotate(-70.991)" fill="#eef3bc"/>
                    </g>
                  </g>
                </g>
              </g>
            </g>
            <g id="Grupo_1101060" data-name="Grupo 1101060" transform="translate(25.839 12.919) rotate(90)" opacity="0.998" style="isolation: isolate">
              <g id="Grupo_1099844-5" data-name="Grupo 1099844" transform="translate(0 0)">
                <g id="Grupo_1099843-5" data-name="Grupo 1099843" transform="translate(0 0)" clip-path="url(#clip-path)">
                  <g id="Grupo_1099842-5" data-name="Grupo 1099842" transform="translate(0 0)">
                    <g id="Grupo_1099841-5" data-name="Grupo 1099841" clip-path="url(#clip-path-2)">
                      <rect id="Rectángulo_401272-5" data-name="Rectángulo 401272" width="16.423" height="16.423" transform="translate(-3.979 11.549) rotate(-70.991)" fill="#eef3bc"/>
                    </g>
                  </g>
                </g>
              </g>
            </g>
            <g id="Grupo_1101061" data-name="Grupo 1101061" transform="translate(38.758 25.955) rotate(90)" opacity="0.998" style="isolation: isolate">
              <g id="Grupo_1099844-6" data-name="Grupo 1099844" transform="translate(0 0)">
                <g id="Grupo_1099843-6" data-name="Grupo 1099843" transform="translate(0 0)" clip-path="url(#clip-path)">
                  <g id="Grupo_1099842-6" data-name="Grupo 1099842" transform="translate(0 0)">
                    <g id="Grupo_1099841-6" data-name="Grupo 1099841" clip-path="url(#clip-path-2)">
                      <rect id="Rectángulo_401272-6" data-name="Rectángulo 401272" width="16.423" height="16.423" transform="translate(-3.979 11.549) rotate(-70.991)" fill="#eef3bc"/>
                    </g>
                  </g>
                </g>
              </g>
            </g>
          </g>
          <path id="Trazado_907901" data-name="Trazado 907901" d="M25.875,4.87h8.272a.716.716,0,0,1,.716.716V43.674a.716.716,0,0,1-.716.716H2.969a.716.716,0,0,1-.716-.716V5.586a.716.716,0,0,1,.716-.716h6.6a.716.716,0,1,0,0-1.431h-6.6A2.147,2.147,0,0,0,.822,5.586V43.674a2.147,2.147,0,0,0,2.147,2.147H34.147a2.147,2.147,0,0,0,2.147-2.147V5.586a2.147,2.147,0,0,0-2.147-2.147H25.823a1.593,1.593,0,0,0-1.539-1.186h0a.16.16,0,0,1-.16-.16h0A1.591,1.591,0,0,0,22.531.5H14.586a1.591,1.591,0,0,0-1.591,1.591h0a.16.16,0,0,1-.16.16h0a1.591,1.591,0,0,0-1.591,1.591v2.3a1.67,1.67,0,0,0,1.67,1.67H24.205a1.67,1.67,0,0,0,1.67-1.67Zm.554,30.415H24.759a1.67,1.67,0,0,0-1.67,1.67V40.59a1.67,1.67,0,0,0,1.67,1.67h3.635a1.67,1.67,0,0,0,1.67-1.67V38.92a.716.716,0,0,0-1.431,0v1.67a.239.239,0,0,1-.239.239H24.759a.238.238,0,0,1-.239-.239V36.955a.239.239,0,0,1,.239-.239H26.43a.716.716,0,0,0,0-1.431ZM6.55,40.375h7.174a.716.716,0,0,0,0-1.431H6.55a.716.716,0,0,0,0,1.431Zm20.532-1.1,4.242-4.242a.715.715,0,0,0-1.012-1.012L26.07,38.267a.715.715,0,0,0,1.012,1.012ZM6.55,36.716h12.7a.716.716,0,1,0,0-1.431H6.55a.716.716,0,1,0,0,1.431ZM26.43,23.669H24.759a1.67,1.67,0,0,0-1.67,1.67v3.635a1.669,1.669,0,0,0,1.67,1.67h3.635a1.67,1.67,0,0,0,1.67-1.67V27.3a.716.716,0,1,0-1.431,0v1.67a.239.239,0,0,1-.239.239H24.759a.238.238,0,0,1-.239-.239V25.338a.239.239,0,0,1,.239-.239H26.43a.716.716,0,0,0,0-1.431ZM6.55,28.759h7.174a.716.716,0,0,0,0-1.431H6.55a.716.716,0,0,0,0,1.431Zm20.532-1.1,4.242-4.242a.715.715,0,0,0-1.012-1.012L26.07,26.65a.715.715,0,0,0,1.012,1.012ZM6.55,25.1h12.7a.716.716,0,1,0,0-1.431H6.55a.716.716,0,1,0,0,1.431ZM26.43,12.052H24.759a1.67,1.67,0,0,0-1.67,1.67v3.635a1.669,1.669,0,0,0,1.67,1.67h3.635a1.67,1.67,0,0,0,1.67-1.67v-1.67a.716.716,0,1,0-1.431,0v1.67a.239.239,0,0,1-.239.239H24.759a.238.238,0,0,1-.239-.239V13.723a.239.239,0,0,1,.239-.239H26.43a.716.716,0,0,0,0-1.431ZM6.55,17.143h7.174a.716.716,0,0,0,0-1.431H6.55a.716.716,0,0,0,0,1.431Zm20.532-1.1L31.324,11.8a.715.715,0,0,0-1.012-1.012L26.07,15.034a.715.715,0,0,0,1.012,1.012ZM6.55,13.484h12.7a.716.716,0,0,0,0-1.431H6.55a.716.716,0,0,0,0,1.431Zm17.732-9.8h0a.16.16,0,0,1,.16.16v2.3a.238.238,0,0,1-.239.239H12.911a.238.238,0,0,1-.239-.239v-2.3a.16.16,0,0,1,.16-.16h0a1.591,1.591,0,0,0,1.591-1.591h0a.16.16,0,0,1,.16-.16h7.945a.16.16,0,0,1,.16.16h0A1.591,1.591,0,0,0,24.282,3.684Z" transform="translate(18.557 0.105)" fill="#474d41" fill-rule="evenodd"/>
        </g>
      </g>
    </g>
  </g>
</svg>
