<svg id="img-16" xmlns="http://www.w3.org/2000/svg" xmlns:xlink="http://www.w3.org/1999/xlink" width="291" height="190.748" viewBox="0 0 291 190.748">
  <defs>
    <clipPath id="clip-path">
      <rect id="Rectángulo_410273" data-name="Rectángulo 410273" width="291" height="190.748" fill="none"/>
    </clipPath>
    <clipPath id="clip-path-2">
      <rect id="Rectángulo_410272" data-name="Rectángulo 410272" width="257.806" height="190.747" transform="translate(0.289)" fill="none"/>
    </clipPath>
    <clipPath id="clip-path-3">
      <rect id="Rectángulo_410251" data-name="Rectángulo 410251" width="34.602" height="34.603" transform="translate(10.567 20.213)" fill="none"/>
    </clipPath>
    <clipPath id="clip-path-4">
      <rect id="Rectángulo_410250" data-name="Rectángulo 410250" width="34.594" height="34.595" transform="translate(10.575 20.213)" fill="none"/>
    </clipPath>
    <clipPath id="clip-path-5">
      <rect id="Rectángulo_410254" data-name="Rectángulo 410254" width="257.808" height="29.469" transform="translate(0.288 161.279)" fill="none"/>
    </clipPath>
    <clipPath id="clip-path-6">
      <rect id="Rectángulo_410253" data-name="Rectángulo 410253" width="257.806" height="29.464" transform="translate(0.289 161.284)" fill="none"/>
    </clipPath>
    <clipPath id="clip-path-7">
      <rect id="Rectángulo_410269" data-name="Rectángulo 410269" width="36.153" height="16.692" transform="translate(48.234 92.167)" fill="none"/>
    </clipPath>
    <clipPath id="clip-path-8">
      <rect id="Rectángulo_410268" data-name="Rectángulo 410268" width="36.152" height="16.688" transform="translate(48.235 92.167)" fill="none"/>
    </clipPath>
    <clipPath id="clip-path-9">
      <rect id="Rectángulo_410271" data-name="Rectángulo 410271" width="4.165" height="9.556" transform="translate(81.926 80.454)" fill="none"/>
    </clipPath>
    <clipPath id="clip-path-10">
      <rect id="Rectángulo_410270" data-name="Rectángulo 410270" width="4.16" height="9.556" transform="translate(81.931 80.454)" fill="none"/>
    </clipPath>
  </defs>
  <g id="Grupo_1120650" data-name="Grupo 1120650" clip-path="url(#clip-path)">
    <g id="Grupo_1120649" data-name="Grupo 1120649">
      <g id="Grupo_1120648" data-name="Grupo 1120648" clip-path="url(#clip-path-2)">
        <path id="Trazado_908018" data-name="Trazado 908018" d="M26.389,21.712A15.867,15.867,0,1,0,43.672,36.027,15.867,15.867,0,0,0,26.389,21.712h0" fill="#3d5ec4"/>
        <g id="Grupo_1120632" data-name="Grupo 1120632" opacity="0.1">
          <g id="Grupo_1120631" data-name="Grupo 1120631">
            <g id="Grupo_1120630" data-name="Grupo 1120630" clip-path="url(#clip-path-3)">
              <g id="Grupo_1120629" data-name="Grupo 1120629">
                <g id="Grupo_1120628" data-name="Grupo 1120628" clip-path="url(#clip-path-4)">
                  <path id="Trazado_908019" data-name="Trazado 908019" d="M26.255,20.29A17.3,17.3,0,1,0,45.093,35.9V35.89a17.3,17.3,0,0,0-18.837-15.6m2.962,31.548A14.391,14.391,0,1,1,42.2,36.165,14.391,14.391,0,0,1,29.217,51.838" fill="#272525"/>
                </g>
              </g>
            </g>
          </g>
        </g>
        <path id="Trazado_908020" data-name="Trazado 908020" d="M26.09,18.523a19.07,19.07,0,1,0,20.769,17.2v0a19.07,19.07,0,0,0-20.769-17.2m3.266,34.784A15.867,15.867,0,1,1,43.67,36.026,15.867,15.867,0,0,1,29.356,53.307" fill="#bfc9ff"/>
        <path id="Trazado_908021" data-name="Trazado 908021" d="M23.156,42.736c-.2-.118-.266-.4-.333-.648a1.009,1.009,0,0,1,.663-1.264,1.074,1.074,0,0,1,.161-.036c.956-.2,2.009.446,2.923.786a5.5,5.5,0,0,0,2.43.3A3.473,3.473,0,0,0,31.181,41a2.191,2.191,0,0,0,.687-1.861,1.819,1.819,0,0,0-.819-1.538,4.247,4.247,0,0,0-2.368-.27l-.725.064a6.485,6.485,0,0,1-4.2-.763,3.932,3.932,0,0,1-1.7-3.134,4.012,4.012,0,0,1,1.1-3.363,5.874,5.874,0,0,1,3.766-1.494,6.741,6.741,0,0,1,2.1.159c1.5.344,4.027,1.313,3.641,2.811-.439,1.708-3.207-.467-4.141-.775a4.692,4.692,0,0,0-1.888-.177,2.951,2.951,0,0,0-1.939.832,2.12,2.12,0,0,0-.611,1.735,1.5,1.5,0,0,0,.9,1.355,8.769,8.769,0,0,0,3.391.2,6.48,6.48,0,0,1,4.107.8,4.091,4.091,0,0,1,1.554,3.186,4.43,4.43,0,0,1-1.1,3.539A5.38,5.38,0,0,1,29.28,43.91a9.613,9.613,0,0,1-1.688-.019,11.434,11.434,0,0,1-4.441-1.152" fill="#fff"/>
        <path id="Trazado_908022" data-name="Trazado 908022" d="M29.1,47.7h-.02a1.078,1.078,0,0,1-1.089-1.056l-1.71-19.487a1.078,1.078,0,0,1,.888-1.23h.02a1.078,1.078,0,0,1,1.089,1.056l1.71,19.487A1.078,1.078,0,0,1,29.1,47.7" fill="#fff"/>
        <path id="Trazado_908023" data-name="Trazado 908023" d="M235.241,48.411l-25.681-5.2a1.5,1.5,0,0,1-1.107-1.806L215.8,5.155a1.5,1.5,0,0,1,1.722-1.232l25.678,5.2a1.5,1.5,0,0,1,1.107,1.806l-7.343,36.25a1.5,1.5,0,0,1-1.722,1.233" fill="#353a85"/>
        <path id="Trazado_908024" data-name="Trazado 908024" d="M223.22,28.389,216.5,27.012a.8.8,0,0,1-.592-.964v-.005l1.439-7.022a.8.8,0,0,1,.92-.659h0l6.722,1.377a.8.8,0,0,1,.592.964v0l-1.439,7.022a.8.8,0,0,1-.92.659h0" fill="#babcbe"/>
        <path id="Trazado_908025" data-name="Trazado 908025" d="M235.63,30.894,228.9,29.532a.8.8,0,0,1-.594-.963v0l1.423-7.026a.8.8,0,0,1,.918-.662h.005l6.725,1.361a.8.8,0,0,1,.594.963v0l-1.424,7.033a.8.8,0,0,1-.918.661h-.005" fill="#babcbe"/>
        <path id="Trazado_908026" data-name="Trazado 908026" d="M220.9,39.868l-6.725-1.362a.8.8,0,0,1-.594-.963v0l1.423-7.025a.8.8,0,0,1,.918-.661h.005l6.725,1.362a.8.8,0,0,1,.594.963v0l-1.423,7.026a.8.8,0,0,1-.918.661H220.9" fill="#babcbe"/>
        <path id="Trazado_908027" data-name="Trazado 908027" d="M233.3,42.38l-6.725-1.362a.8.8,0,0,1-.594-.963v0l1.423-7.025a.8.8,0,0,1,.918-.661h0l6.725,1.362a.8.8,0,0,1,.594.963v0l-1.423,7.026a.8.8,0,0,1-.918.661H233.3" fill="#d67086"/>
        <path id="Trazado_908028" data-name="Trazado 908028" d="M221.209,23.129l1.909.387a.4.4,0,0,1,.272.184.438.438,0,0,1,.057.329.4.4,0,0,1-.175.27.421.421,0,0,1-.323.052l-1.91-.387-.429,2.119a.5.5,0,0,1-.172.307.361.361,0,0,1-.309.067.365.365,0,0,1-.249-.192.476.476,0,0,1-.054-.34l.429-2.119-1.9-.385a.426.426,0,0,1-.28-.174.394.394,0,0,1-.058-.318.42.42,0,0,1,.186-.274.408.408,0,0,1,.321-.07l1.9.385.428-2.113a.484.484,0,0,1,.177-.305.372.372,0,0,1,.309-.067.36.36,0,0,1,.259.182.5.5,0,0,1,.039.349Z" fill="#353a85"/>
        <path id="Trazado_908029" data-name="Trazado 908029" d="M230.871,26.095a.212.212,0,0,1-.151-.1.3.3,0,0,1-.021-.207l.121-.6a.239.239,0,0,1,.095-.157.228.228,0,0,1,.178-.029l4.362.884a.277.277,0,0,1,.177.1.221.221,0,0,1,.034.183l-.121.6a.265.265,0,0,1-.116.168.247.247,0,0,1-.2.045Z" fill="#353a85"/>
        <path id="Trazado_908030" data-name="Trazado 908030" d="M228.8,35.957a.212.212,0,0,1-.151-.1.3.3,0,0,1-.021-.207l.121-.6a.239.239,0,0,1,.1-.157.228.228,0,0,1,.178-.029l4.362.884a.277.277,0,0,1,.177.1.221.221,0,0,1,.034.183l-.121.6a.264.264,0,0,1-.116.168.247.247,0,0,1-.2.045Z" fill="#353a85"/>
        <path id="Trazado_908031" data-name="Trazado 908031" d="M228.357,38.151a.209.209,0,0,1-.151-.1.3.3,0,0,1-.021-.207l.121-.6a.233.233,0,0,1,.1-.157.228.228,0,0,1,.178-.029l4.362.884a.277.277,0,0,1,.177.1.221.221,0,0,1,.034.183l-.121.6a.268.268,0,0,1-.116.168.247.247,0,0,1-.2.045Z" fill="#353a85"/>
        <path id="Trazado_908032" data-name="Trazado 908032" d="M216.162,34.754a.212.212,0,0,1-.151-.1.3.3,0,0,1-.021-.207l.121-.6a.233.233,0,0,1,.1-.157.228.228,0,0,1,.178-.029l4.362.884a.277.277,0,0,1,.177.1.221.221,0,0,1,.034.183l-.121.6a.265.265,0,0,1-.116.168.247.247,0,0,1-.2.046Z" fill="#353a85"/>
        <path id="Trazado_908033" data-name="Trazado 908033" d="M219.321,33.358a.579.579,0,1,1-.443-.723.6.6,0,0,1,.443.723" fill="#353a85"/>
        <path id="Trazado_908034" data-name="Trazado 908034" d="M218.75,36.174a.579.579,0,1,1-.443-.723.6.6,0,0,1,.443.723" fill="#353a85"/>
        <rect id="Rectángulo_410252" data-name="Rectángulo 410252" width="5.542" height="23.612" transform="matrix(0.198, -0.98, 0.98, 0.198, 217.057, 13.906)" fill="#fff"/>
        <g id="Grupo_1120637" data-name="Grupo 1120637">
          <g id="Grupo_1120636" data-name="Grupo 1120636">
            <g id="Grupo_1120635" data-name="Grupo 1120635" clip-path="url(#clip-path-5)">
              <g id="Grupo_1120634" data-name="Grupo 1120634">
                <g id="Grupo_1120633" data-name="Grupo 1120633" clip-path="url(#clip-path-6)">
                  <path id="Trazado_908035" data-name="Trazado 908035" d="M118.565,161.286a202.037,202.037,0,0,0-22.636,1.084c-2.842.329-5.624,1.052-8.472,1.343-5.689.582-11.276,1.669-16.985,2.171-4.6.4-9.214.642-13.8,1.154a46.726,46.726,0,0,1-13.321-.424,85.931,85.931,0,0,1-9.433-1.861,37.22,37.22,0,0,0-10.863-1.783c-5.159.039-10.184.043-15.121,1.906a14.75,14.75,0,0,0-5.171,3.1c-3.013,3.142-3.421,10.982-.412,14.24,5.067,5.485,15.881,7.637,22.984,7.738,7.783.111,15.344-.489,23.138-.843,7.243-.328,14.467-.8,21.722-.779,14.817.034,29.635,0,44.425-1.029,13.9-.967,27.826-.635,41.752-.635,14.28,0,28.464.117,42.642,2.09,6.177.86,12.471,1.161,18.679,1.764,5.56.54,10.9-.01,16.441-.509a38.077,38.077,0,0,0,13.494-3.76c3.344-1.662,9.306-6.825,10.331-10.792,2.875-11.122-40.517-10.854-47.18-10.83-7.453.028-14.965.283-22.413-.012a50.964,50.964,0,0,1-9.277-1.459c-3.045-.7-6.114-.518-9.2-.81-12.879-1.218-25.786-1.04-38.706-1.04-4.2,0-8.411-.038-12.617-.025" fill="#d2e9d1"/>
                </g>
              </g>
            </g>
          </g>
        </g>
        <rect id="Rectángulo_410255" data-name="Rectángulo 410255" width="70.107" height="34.601" transform="matrix(0.984, -0.177, 0.177, 0.984, 52.358, 17.91)" fill="#bfc9ff"/>
        <path id="Trazado_908036" data-name="Trazado 908036" d="M100.074,27.008c1.52,8.454-1.8,16.126-7.426,17.136s-11.41-5.023-12.93-13.477,1.8-16.126,7.426-17.136,11.41,5.023,12.93,13.477" fill="#bfc9ff"/>
        <path id="Trazado_908037" data-name="Trazado 908037" d="M120.142,7.118,54.277,18.9l-.239.043L59.5,50.48,125.581,38.6ZM64.059,48.57a4.336,4.336,0,0,1-3.5-3.226l-3.02-15.775c-.84-6.055,2.014-9.351,4.01-10.877l22.086-3.953a11.306,11.306,0,0,0-3.183,4.377,20.4,20.4,0,0,0-1.059,11.57,20.406,20.406,0,0,0,5.021,10.476,12.643,12.643,0,0,0,2.639,2.128l-5.565,1,.2,1.109Zm29.667-6.479L91,42.581c-4.5-.226-8.841-5.321-10.072-12.171-1.362-7.554,1.574-14.426,6.538-15.318s10.1,4.528,11.462,12.082c1.232,6.85-1.064,13.139-5.2,14.917m9.638-1.729-5.69,1.023a12.634,12.634,0,0,0,1.732-2.913A20.4,20.4,0,0,0,100.47,26.9a20.409,20.409,0,0,0-5.023-10.476,11.294,11.294,0,0,0-4.5-2.99l20.43-3.656c1.708.219,7.417,1.5,9.063,8.9l2.594,15.467a4.256,4.256,0,0,1-2.319,4.242l-17.146,3.078Z" fill="#353a85"/>
        <rect id="Rectángulo_410256" data-name="Rectángulo 410256" width="13.234" height="2.048" transform="translate(62.62 32.385) rotate(-10.114)" fill="#3d5ec4"/>
        <rect id="Rectángulo_410257" data-name="Rectángulo 410257" width="13.234" height="2.048" transform="translate(104.27 24.957) rotate(-10.114)" fill="#3d5ec4"/>
        <path id="Trazado_908038" data-name="Trazado 908038" d="M100.316,172.518l3.529,2.5,1.177,1.912a13.781,13.781,0,0,1-2.059.735,61.364,61.364,0,0,1-6.47-.735v-3.382Z" fill="#292949"/>
        <path id="Trazado_908039" data-name="Trazado 908039" d="M88.2,174.135l1.912,1.912s1.617,2.647.882,2.647-4.706.441-5,0-2.5-1.912-2.794-2.206-.158-2.873-.158-2.873Z" fill="#292949"/>
        <path id="Trazado_908040" data-name="Trazado 908040" d="M94.961,122.521l-2.5,25.146L88.2,174.136H83.049l-.588-27.646s-4.177-22.714-4.623-30.214Z" fill="#babcbe"/>
        <path id="Trazado_908041" data-name="Trazado 908041" d="M106.052,122.961l-4.411,50.586H96.347l-1.618-25.881-3.035-22.914L103.262,111.2Z" fill="#babcbe"/>
        <path id="Trazado_908042" data-name="Trazado 908042" d="M107.1,99.483c-.827-2.928-1.481-5.9-2.041-8.89-.488-2.607-.681-5.414-1.833-7.844S99.9,78.477,98.218,76.41a6.652,6.652,0,0,0-2.528-2.2,6.752,6.752,0,0,0-2.305-.334l-7.1-.2a5.837,5.837,0,0,0-2.548.307,5.713,5.713,0,0,0-2.429,2.879c-1.488,2.9-1.763,6.122-1.9,9.4,0,.031.683,8.836-.857,15.8-1.533,6.935-.99,25.4.479,24.626A20.351,20.351,0,0,1,85,124.855a59.086,59.086,0,0,1,8.8-.932l5.191.393h3.133c1.88.2,1.726.838,3.658.707,1.237-.084,2.086-22.809,1.315-25.541" fill="#3d5ec4"/>
        <path id="Trazado_908043" data-name="Trazado 908043" d="M90.967,75.2l-3.954-.172a19.746,19.746,0,0,1,.039-3.152c-1.114-.323-2.408-.83-2.662-1.961a3.269,3.269,0,0,1,0-1.09l.523-4.5a4.009,4.009,0,0,1,.38-1.509,3.355,3.355,0,0,1,2.274-1.4,8.155,8.155,0,0,1,6.681,1.24,3.564,3.564,0,0,1,1.195,1.407,4.841,4.841,0,0,1,0,2.833l-.531,2.6c-.2,1-.515,2.138-1.442,2.559-.493.224-1.09.2-1.53.515-.775.556-.6,1.745-.972,2.624" fill="#b97262"/>
        <path id="Trazado_908044" data-name="Trazado 908044" d="M98.274,56.139a3.905,3.905,0,0,1-.893-.246c-.955-.415-1.624-1.249-2.637-1.639a9.285,9.285,0,0,0-6.637.173c-1.928.811-4.558,1.123-6.284,2.212a5.257,5.257,0,0,0-1.7,1.874,7.924,7.924,0,0,0,.442,8.369,11.316,11.316,0,0,0,1.317,1.484A8.493,8.493,0,0,0,85.341,70.8c-.033-1.143-1.273-4.686-.448-5.67,1.094-1.305,3.241-1.272,4.779-1.128,1.833.172,3.342-.417,5.171-.325.931.047,1.984.234,2.7-.366a16.233,16.233,0,0,0,2.985-3.861,2.439,2.439,0,0,0-.509-2.559,2.7,2.7,0,0,0-1.743-.756" fill="#292949"/>
        <path id="Trazado_908045" data-name="Trazado 908045" d="M86.448,73.666,73.77,70.137,75.47,51l-4.321-.463L66.211,70.754l2.282,4.739,11.3,6.217,4.783-7.561Z" fill="#3d5ec4"/>
        <path id="Trazado_908046" data-name="Trazado 908046" d="M71.536,50.582l-.7-3.128,2.315-2.469,3.7,4.321-1.389,1.7Z" fill="#b97262"/>
        <path id="Trazado_908047" data-name="Trazado 908047" d="M99.319,101.261a3.106,3.106,0,0,0-.233-1.189c-.7-1.689-8.041-22.841-8.041-22.841a20.372,20.372,0,0,1-.434-2.06l-2.353-.147.387,2.4,1.1.946s4.513,23.294,4.539,23.7l3.346,4.138Z" fill="#fff"/>
        <path id="Trazado_908048" data-name="Trazado 908048" d="M107.47,114.165l-2.691,1.6-.89,1.805.568.379,1.027-.735-1.358,3.64,1.353,1.283,3.367-3.245,1.217-4.118Z" fill="#b97262"/>
        <path id="Trazado_908049" data-name="Trazado 908049" d="M98.921,75.074l-3.24-.926,11.713,22.327-1.342,18.559,4.227,1.25L114.5,95.211Z" fill="#3d5ec4"/>
        <path id="Trazado_908050" data-name="Trazado 908050" d="M212.047,0,177.4,9.755l8.376,8.478c-9.291,9.447-20.907,21.309-21.217,21.869-.518.937-9.533-17.493-9.533-17.493L130.683,49.5,121.8,37.744,102.365,59.463,120.507,47.1l9.8,12.783,21.879-22.226,9.329,19.067L194.039,26.6l9,9.112Z" fill="#3d5ec4"/>
        <path id="Trazado_908051" data-name="Trazado 908051" d="M161.861,56.78,194.976,27.1l-1.86-2.19Z" fill="#353a85"/>
        <path id="Trazado_908052" data-name="Trazado 908052" d="M130.68,59.756,153.649,39.8l-1.235-2.5Z" fill="#353a85"/>
        <path id="Trazado_908053" data-name="Trazado 908053" d="M120.929,46.971,102.888,59.412l19.1-10.858Z" fill="#353a85"/>
        <path id="Trazado_908054" data-name="Trazado 908054" d="M115.214,58.815l-.95-4.919L117.2,50.54l1.538,1.4-.708,3.478.762.842-.829,3.556s-2.76-1.067-2.75-1" fill="#efbfa5"/>
        <path id="Trazado_908055" data-name="Trazado 908055" d="M153.559,48.853l.361-5.132-4.151-3.211-1.741,2.276,1.875,3.348-.669,1.741,1.84,2.764Z" fill="#efbfa5"/>
        <path id="Trazado_908056" data-name="Trazado 908056" d="M120.667,107.137l-.336,29.038,3.1,37.381h4.207l5.035-34.487,5.758-34.546Z" fill="#353a85"/>
        <path id="Trazado_908057" data-name="Trazado 908057" d="M127.609,175.331l-4.55,2.275-2.275-2.275,2.275-2.275h4.55Z" fill="#292949"/>
        <path id="Trazado_908058" data-name="Trazado 908058" d="M149.514,107.137l.083,16.8-2.838,49.619h-4.207l-7.038-32.927-3.758-36.106Z" fill="#353a85"/>
        <path id="Trazado_908059" data-name="Trazado 908059" d="M142.576,175.331l4.55,2.275,2.275-2.275-2.275-2.275h-4.55Z" fill="#292949"/>
        <path id="Trazado_908060" data-name="Trazado 908060" d="M153.891,117.254c.09,2.665.032,6.231-1.09,6.364a1.1,1.1,0,0,1-.6-.158c-1.951-.948-3.342-2.288-5.266-3.2a23.759,23.759,0,0,0-6.546-1.809,68.089,68.089,0,0,0-10.1-.884c-2.889-.026-5.893,1.292-8.625,2.017a9.531,9.531,0,0,0-2.78,1.646c-1.29.888-1.855,1.239-1.68-.574.287-2.959.585-5.917.949-8.867a109.4,109.4,0,0,1,3.387-17.453c.639-2.176,1.376-4.322,2.112-6.468l2.691-7.837a9.8,9.8,0,0,1,6.291-6.67c2.848-.981,6.384-1.25,9.154.124,3.079,1.527,4.543,6.73,6.039,9.511,1.311,2.437,2.963,9.082,3.453,11.709.591,3.162,1.136,6.309,1.565,9.447a96.849,96.849,0,0,1,.908,10.387c.011.381.088,1.446.131,2.719" fill="#353a85"/>
        <path id="Trazado_908061" data-name="Trazado 908061" d="M138.678,73.939l-5.686.054s-6.1,21.323-6.326,25c-.22,3.608-1.762,18.236-1.762,18.236s6.3.149,13.552,1.032c7.093,1.518,7.689.62,7.689.62s-3.828-15.375-3.955-19.792c-.13-4.518-.708-19.441-.708-19.441Z" fill="#fff"/>
        <path id="Trazado_908062" data-name="Trazado 908062" d="M137.858,74.288h-2.8a.789.789,0,0,0-.627,1.268l1.149,1.506-3.058,28.2,3.763,3.7,2.587-4.392-.706-27.511.455-1.79a.788.788,0,0,0-.57-.959.75.75,0,0,0-.195-.025" fill="#bfc9ff"/>
        <path id="Trazado_908063" data-name="Trazado 908063" d="M135.234,74.05a.676.676,0,0,0,.233.133,1.29,1.29,0,0,0,.553.015l2.256-.267c-.248-2.3,1.1-2.824,2.411-4.306,1.33-1.5.92-3.527.846-5.365a3.923,3.923,0,0,0-.263-1.5,3.289,3.289,0,0,0-2.122-1.532,8,8,0,0,0-6.625.729,3.5,3.5,0,0,0-1.271,1.289,4.748,4.748,0,0,0-.2,2.772,9.342,9.342,0,0,0,1.42,4.054c.756,1.127,2.2,1.667,2.363,3.019a1.529,1.529,0,0,0,.4.961" fill="#efbfa5"/>
        <path id="Trazado_908064" data-name="Trazado 908064" d="M143.751,56.223a5.241,5.241,0,0,0-1.589-1.671c-1.492-.91-3.57-.994-5.178-1.618-2.261-.878-3.411-.086-5.546.6a3.625,3.625,0,0,0-2.287,1.32c-.25.447-.287,1-.539,1.443a4.187,4.187,0,0,1-1.475,1.233,2.061,2.061,0,0,0-.906,1.732c-.047,1.482,1.073,3.888,2.45,4.492a2.951,2.951,0,0,0,.877.22,3.277,3.277,0,0,0,1.811,2.113,3.928,3.928,0,0,0-.257-1.74,1.618,1.618,0,0,1-.029-.45,12.858,12.858,0,0,0,2.82-.889c1.572-.686,4.634-1.417,6.266-.607,1.291.641.895,2.685.829,3.978a3.524,3.524,0,0,0,.034.994c.106.449.446.7.513,1.157a6.178,6.178,0,0,0,2.293-2.635,10.049,10.049,0,0,0,.8-1.541,9.432,9.432,0,0,0-.888-8.13" fill="#292949"/>
        <path id="Trazado_908065" data-name="Trazado 908065" d="M131.245,73.838l-13.525-.193,1.312-14.5-4.363-1.582-5.256,17.474,2.466,5.271,15.1,4.413Z" fill="#353a85"/>
        <path id="Trazado_908066" data-name="Trazado 908066" d="M140.506,73.185l14.435-4.254L149.6,50.885l4.4-3.158,10.628,20.891-2.939,7.234L147.9,82.97Z" fill="#353a85"/>
        <path id="Trazado_908067" data-name="Trazado 908067" d="M235.337,50.2l.629-5.345-5.808-2.481-1.08,2.469,2.735,4.019.663,2.445Z" fill="#efbfa5"/>
        <path id="Trazado_908068" data-name="Trazado 908068" d="M208.839,82.481l-7.03,10.791-4.576,8.74,1.674,3.388,6.088-1.7Z" fill="#babcbe"/>
        <path id="Trazado_908069" data-name="Trazado 908069" d="M217.263,120.589v5.464l-7.287,23.678L211.8,174.32l-4.554.911-7.284-30.057.279-8.842L203.6,118.3Z" fill="#3d5ec4"/>
        <path id="Trazado_908070" data-name="Trazado 908070" d="M207.842,174.763l-3.476,3.679,1,1.865,7.172-3.443-1.321-2.726Z" fill="#292949"/>
        <path id="Trazado_908071" data-name="Trazado 908071" d="M218.865,176.444l-4.285,2.694.506,2.057,7.8-1.542-.6-2.969Z" fill="#292949"/>
        <path id="Trazado_908072" data-name="Trazado 908072" d="M208.816,82.448l10.843-4.3s3.852,9.568,8.231,24.894-2.034,34.836-2.034,34.836-24.831-5.9-29.789-6.875l6.219-28.016Z" fill="#babcbe"/>
        <path id="Trazado_908073" data-name="Trazado 908073" d="M211.483,127.058l7.32,50.088h3.328l2.1-27.321,4.554-27.321Z" fill="#3d5ec4"/>
        <path id="Trazado_908074" data-name="Trazado 908074" d="M208.457,67.81c2.951.217,5.711-2.206,8.615-1.6a5.623,5.623,0,0,1,3.956,3.954,4.727,4.727,0,0,1,.1,2.714,4.514,4.514,0,0,1-.856,1.534,6.418,6.418,0,0,1-1.773,1.5,11.511,11.511,0,0,0,1.263,1.676l-4.083,1.564-.9-2.346a6.173,6.173,0,0,1-1.217-.185,7.045,7.045,0,0,1-4.959-5.238,13.679,13.679,0,0,1-.145-3.569" fill="#efbfa5"/>
        <path id="Trazado_908075" data-name="Trazado 908075" d="M209.2,68.7l9.125-1.084,1.771,6.971,2.577-2.045-1.328-11.406-12.878-.277-5.576,3.271.236,3.278,4.986,3.356Z" fill="#292949"/>
        <path id="Trazado_908076" data-name="Trazado 908076" d="M212.744,80.425l10.839-4.3s3.852,9.568,8.231,24.894-2.031,34.837-2.031,34.837-22.212-10.975-27.171-11.949l3.6-22.941Z" fill="#fff"/>
        <path id="Trazado_908077" data-name="Trazado 908077" d="M231.978,100.761c-4.379-15.327-8.171-24.91-8.171-24.91l-10.9,4.316-.017.055c.24.626.491,1.249.709,1.884a43.639,43.639,0,0,1,1.883,7.7,78.612,78.612,0,0,1,.61,13.987,91.194,91.194,0,0,1-1.393,13.3,89.982,89.982,0,0,1-4.869,16.935c10.081,2.048,21.946,4.47,21.946,4.47s4.582-22.416.2-37.743" fill="#babcbe"/>
        <path id="Trazado_908078" data-name="Trazado 908078" d="M222.892,76.208l10.79-6.689-2.006-18.362,4.783-1.852,7.87,20.985-1.543,3.4L228,87.958Z" fill="#babcbe"/>
        <path id="Trazado_908079" data-name="Trazado 908079" d="M202.976,96.522l1.08-12.807H198.81l-4.012,17.59,2.777,5.4,4.466-2.183Z" fill="#babcbe"/>
        <path id="Trazado_908080" data-name="Trazado 908080" d="M199.426,83.715V79.394l3.24-1.234,2.932,2.315v2.006l-2.16,1.234Z" fill="#efbfa5"/>
        <path id="Trazado_908081" data-name="Trazado 908081" d="M23.868,60.767l.623-5.226,4.088-2.358L29.76,56l-1.952,3.2v2.623Z" fill="#efbfa5"/>
        <path id="Trazado_908082" data-name="Trazado 908082" d="M54.8,177.3l-3.658-3.378a7.2,7.2,0,0,0-3.093-.9,1.752,1.752,0,0,0-1.539.722,1.771,1.771,0,0,0-.166,1.629,2.222,2.222,0,0,0,.318.515c.109.136.228.266.347.393.076.081.159.168.248.259A20.973,20.973,0,0,0,49.782,179c.739.443,2.363,1.625,4.283.3l-.022-.019A1.852,1.852,0,0,0,54.8,177.3" fill="#292949"/>
        <path id="Trazado_908083" data-name="Trazado 908083" d="M51.927,147.876l-.3,4.24-1.449,20.64,1.449,2.4s.3,1.92-1.92,1.772c-.659-.044-2.993-3.012-2.993-3.012l.337-1.36-1.642-15.5.015-4.5-.786-5Z" fill="#efbfa5"/>
        <path id="Trazado_908084" data-name="Trazado 908084" d="M28.741,172.057a1.892,1.892,0,0,0-1.823.218,1.915,1.915,0,0,0-.719,1.616,3.485,3.485,0,0,0,.377,1.158c.883,1.915,3.361,6.243,6.2,5.45a2.135,2.135,0,0,0,1.4-2.63c-.365-1.623-3.165-5.1-5.441-5.816" fill="#292949"/>
        <path id="Trazado_908085" data-name="Trazado 908085" d="M43.064,145.4l-.495,6.1L30.588,173.082s1.723,3.009.63,3.271a3.944,3.944,0,0,1-4.286-3.568,4.045,4.045,0,0,1-.014-.48c1.26-4.115,6.213-18.09,6.213-18.09l2.319-3.606-.034-6.777Z" fill="#efbfa5"/>
        <path id="Trazado_908086" data-name="Trazado 908086" d="M29.528,124.965a32.719,32.719,0,0,1,1.072-8.178c2.156-6.135,2.571-9.158,2.571-14.152s-2.215-20.826-2.215-20.826l7.7-4.62,9.226.259,5.123,1.69s1.085,19.92,1.393,26.34c.22,4.582.538,8.55.957,13.858a120.539,120.539,0,0,1-.64,25.089s-.4,4.31-.587,4.688c-.024.128-.037.2-.037.2H33.5v-7.4q-1.025-3.561-1.954-7.15a50.492,50.492,0,0,1-2.016-9.8" fill="#292949"/>
        <path id="Trazado_908087" data-name="Trazado 908087" d="M33.868,78.584l-3.5,2.634s2.664,18.235,2.806,21.417-3.959,15.9-3.959,15.9L46.2,120.75s2.5-13.58,3.217-20.326S39.86,77.232,39.86,77.232Z" fill="#bfc9ff"/>
        <path id="Trazado_908088" data-name="Trazado 908088" d="M50.9,78.264l3.467,1.645s-.488,20.271.4,25.419c.542,3.138,2.651,13.3,2.651,13.3L51.929,120.5s-3.377-12.712-4.048-19.459.06-23.523.06-23.523Z" fill="#bfc9ff"/>
        <path id="Trazado_908089" data-name="Trazado 908089" d="M50.223,70.837c.45,1.742-.583,3.462-1.487,4.931-.369.6-.942,1.435-.465,2.12a1.734,1.734,0,0,0,2.442.04,3.556,3.556,0,0,0,.79-1.489c.787-2.4,1.886-5.759,1.671-8.28-.172-2.022-2.652-5.612-5.206-4.328a2.659,2.659,0,0,0-1.015,1.1,2.087,2.087,0,0,0-.329.82c-.12,1.171,1.009,1.472,1.75,2.1a5.918,5.918,0,0,1,1.85,2.982" fill="#292949"/>
        <path id="Trazado_908090" data-name="Trazado 908090" d="M45.961,77.1a5.324,5.324,0,0,0,3.9-2.845,9.554,9.554,0,0,0,.915-4.7c-.1-5.36-7.207-5.658-9.971-1.806-2.408,3.357.2,9.979,5.16,9.348" fill="#efbfa5"/>
        <path id="Trazado_908091" data-name="Trazado 908091" d="M41.109,70.277c-.059.649-.389,1.337-.48,2-.168,1.227.107,2.82-.342,3.942A7.568,7.568,0,0,1,36.6,74.413c-.943-.874-.773-2.172-.984-3.459a16.594,16.594,0,0,1-.375-3.59,8.568,8.568,0,0,1,12.746-7.223c2.193,1.125,3.152,3.984,1.539,5.863-1.735,2.021-5.259,1.144-7.337,2.644a3.547,3.547,0,0,0-1.081,1.625" fill="#292949"/>
        <path id="Trazado_908092" data-name="Trazado 908092" d="M46.1,76.538q-.131.6-.259,1.2c-.04.183-.025.707-.182.832a.419.419,0,0,1-.312.042,16.078,16.078,0,0,1-3.037-.565,9.614,9.614,0,0,1,.318-1.38,5.251,5.251,0,0,1,.383-1.321,4.961,4.961,0,0,0,1.5.675q.8.226,1.6.426l-.02.093" fill="#efbfa5"/>
        <path id="Trazado_908093" data-name="Trazado 908093" d="M39.1,77.824l-13.534.983L28.6,59.073l-4.94.027L16.413,79.787,18.93,86.3,34.7,87.762Z" fill="#bfc9ff"/>
        <path id="Trazado_908094" data-name="Trazado 908094" d="M52.89,79.113l3.467,1.645L64.844,101.9l9.665,3.512-3.649,2.526-10.025-.176-7.1-12.5Z" fill="#bfc9ff"/>
        <path id="Trazado_908095" data-name="Trazado 908095" d="M184.529,44.59l.6-3.792-3.714-1.79-3.106,3.885,2.787,2.545Z" fill="#b97262"/>
        <path id="Trazado_908096" data-name="Trazado 908096" d="M179.074,80.156l5.117-16.422L180.15,44.968l4.888-1.249,5.9,20.3L184.831,87.08l-4.645-6.72Z" fill="#d67086"/>
        <path id="Trazado_908097" data-name="Trazado 908097" d="M190.447,172.509l.013-.019h-.015l-.736-9.642-4.769,1.023,2.364,8.4-1.217,2.554s-.465,1.281-.031,1.149a23.365,23.365,0,0,0,2.464-.8c.125-.119,1.428-1.956,1.824-2.517Z" fill="#b97262"/>
        <path id="Trazado_908098" data-name="Trazado 908098" d="M169.192,165.424l.751,6.564-1.247,1.733.131,1.142,3.343-1.1,1.5-.75.1-9.263Z" fill="#b97262"/>
        <path id="Trazado_908099" data-name="Trazado 908099" d="M174.85,116.236,177.2,134.8l1.454,6.923,6.363,25.581,5.8-1.19-2.684-27.984,1.312-17.8.517-4.676,1.426-5.639Z" fill="#3b3387"/>
        <path id="Trazado_908100" data-name="Trazado 908100" d="M163.024,117.2l.937,18.9,4.765,31.549,5.708-.653.178-18.669,3.092-34.9-6.528-2.723-5.223-1.427Z" fill="#3b3387"/>
        <path id="Trazado_908101" data-name="Trazado 908101" d="M169.942,171.988l-4.411,4.408.339,1.7,3.568-.408,4.668-3.425.008-2.458-.477-.379s-4.322,2.663-4.623,2.553.929-1.986.929-1.986" fill="#292949"/>
        <path id="Trazado_908102" data-name="Trazado 908102" d="M187.3,172.307l-2.238,2.4-1.354,1.076.553,1.846,1.981.346,5.219-3.172-.479-2.27-.492-.523a26.018,26.018,0,0,1-3.963,2.662c-.543.276.773-2.362.773-2.362" fill="#292949"/>
        <path id="Trazado_908103" data-name="Trazado 908103" d="M170,79.137l-4.154,2.154L154.05,91.815l.236,5.393,15.006-6.437Z" fill="#d67086"/>
        <path id="Trazado_908104" data-name="Trazado 908104" d="M168.862,79.944s2.011-2.387,9.623-2.387,13.3,24.109,13.01,28.436.778,14.079.778,14.079l-17.81-4.468s-10.051.019-12.493,2.406,4.752-17.037,4.9-21.513-.447-14.315,2-16.553" fill="#d67086"/>
        <path id="Trazado_908105" data-name="Trazado 908105" d="M177.069,78.1l.7.031-2.255,19.211-3.921-8.151-.718-8.762.718-1.293Z" fill="#fff"/>
        <path id="Trazado_908106" data-name="Trazado 908106" d="M166.908,70.4c-.47-5.823,7.043-6.845,10.389-2.939,2.183,2.548,1.578,7.356-1.1,9.531a3.144,3.144,0,0,0,.114.326,10.621,10.621,0,0,1,.485,1.466,16.713,16.713,0,0,1-3.162.911.442.442,0,0,1-.335-.016c-.181-.12-.221-.69-.283-.884l-.219-.689a5.74,5.74,0,0,1-4.413-2.7,10.657,10.657,0,0,1-1.476-5.006" fill="#b97262"/>
        <path id="Trazado_908107" data-name="Trazado 908107" d="M169.271,63.92a2.9,2.9,0,0,1,1.2,1.1,2.321,2.321,0,0,1,.437.858c.254,1.258-.912,1.7-1.632,2.451a6.421,6.421,0,0,0-1.644,3.411c-.291,1.933.99,3.7,2.108,5.2.394.53,1.051,1.287.823,2.012s-1.341,1.124-2.018,1.092a6.421,6.421,0,0,0-1.838-.161c-.634.159-1.319.768-1.831.346-.142-.117-.23-.3-.387-.395-.53-.324-1.1.577-1.708.449-.371-.079-.558-.511-.611-.894a2.536,2.536,0,0,0-.262-1.118,3.747,3.747,0,0,0-.758-.629,1.731,1.731,0,0,1-.518-1.784c.36-1.16,1.838-1.615,2.271-2.748a3.743,3.743,0,0,0,.029-1.883,3.28,3.28,0,0,1,.1-1.874c.33-.706,1.14-.964,1.425-1.754a11.71,11.71,0,0,1,.412-1.421,7.622,7.622,0,0,1,1.556-1.7,2.74,2.74,0,0,1,2.853-.558" fill="#292949"/>
        <path id="Trazado_908108" data-name="Trazado 908108" d="M177.027,70.152c.759,1.653.718,3.816,2.126,4.947s3.469.565,5.148-.076c.276-.106,3.811-1.347,3.867-1.4,1.808-1.53-.124-2.582-.333-3.86-.3-1.836,2.572-1.549,1.937-3.151-.361.088-.709-.248-.821-.611a5.965,5.965,0,0,1-.111-1.131,2.546,2.546,0,0,0-1.632-2.078c-1.729-.609-3.749.84-5.377-.015-1.009-.531-1.448-1.747-2.225-2.594-1.5-1.637-3.787-1.119-5.742-1.3a8.234,8.234,0,0,0-5.63,1.148c-2.206,1.436-2.917,4.631-1,6.51,2.454,2.41,7.05.1,9.228,2.686a4,4,0,0,1,.57.919" fill="#292949"/>
        <path id="Trazado_908109" data-name="Trazado 908109" d="M185.749,99.655,181.649,89a2.929,2.929,0,0,0-5.649.389l-.279.019v11.039l.649-.863.718.954h.137l.718-.954.717.954h.138l.718-.954.717.954h.138l.717-.954.718.954h.137l.718-.954.717.954h.138l.717-.954.718.954h.137Z" fill="#babcbe"/>
        <path id="Trazado_908110" data-name="Trazado 908110" d="M175.887,87.013h-14.37a2.93,2.93,0,0,0-2.929,2.9v47.5h11.324a3.546,3.546,0,0,0,4.965,0,3.936,3.936,0,0,0,1.006-3.186l.062-44.284a2.931,2.931,0,0,1,2.931-2.931Z" fill="#f7f7f7"/>
        <path id="Trazado_908111" data-name="Trazado 908111" d="M169.069,134.99a3.568,3.568,0,0,1,.134-.958h-.134l-13.076,2.029.677.931a3.761,3.761,0,0,0,3.041,1.549h12.907a3.551,3.551,0,0,1-3.551-3.551" fill="#babcbe"/>
        <rect id="Rectángulo_410258" data-name="Rectángulo 410258" width="14.211" height="0.512" transform="translate(160.109 98.685)" fill="#d2cfca"/>
        <rect id="Rectángulo_410259" data-name="Rectángulo 410259" width="14.211" height="0.512" transform="translate(160.109 101.689)" fill="#d2cfca"/>
        <rect id="Rectángulo_410260" data-name="Rectángulo 410260" width="14.211" height="0.512" transform="translate(160.109 104.693)" fill="#d2cfca"/>
        <rect id="Rectángulo_410261" data-name="Rectángulo 410261" width="14.211" height="0.512" transform="translate(160.109 107.697)" fill="#d2cfca"/>
        <rect id="Rectángulo_410262" data-name="Rectángulo 410262" width="14.211" height="0.512" transform="translate(160.109 110.701)" fill="#d2cfca"/>
        <rect id="Rectángulo_410263" data-name="Rectángulo 410263" width="14.211" height="0.512" transform="translate(160.109 113.705)" fill="#d2cfca"/>
        <rect id="Rectángulo_410264" data-name="Rectángulo 410264" width="14.211" height="0.512" transform="translate(160.109 117.106)" fill="#d2cfca"/>
        <rect id="Rectángulo_410265" data-name="Rectángulo 410265" width="14.211" height="0.512" transform="translate(160.109 120.507)" fill="#d2cfca"/>
        <rect id="Rectángulo_410266" data-name="Rectángulo 410266" width="14.211" height="0.512" transform="translate(160.109 123.909)" fill="#d2cfca"/>
        <rect id="Rectángulo_410267" data-name="Rectángulo 410267" width="14.211" height="0.512" transform="translate(160.109 95.387)" fill="#d2cfca"/>
        <path id="Trazado_908112" data-name="Trazado 908112" d="M154.228,91.815l11.618,8.706L164,104.5l-10.82-4.66Z" fill="#d67086"/>
        <path id="Trazado_908113" data-name="Trazado 908113" d="M165.664,100.907s2.106.587,2.106.4v.908l1.339,1.216-1.229,1.995-3.551-1.637Z" fill="#b97262"/>
        <path id="Trazado_908114" data-name="Trazado 908114" d="M42.707,97.109a3.684,3.684,0,0,1-.827-1.015A3.527,3.527,0,0,1,41.459,94a.613.613,0,0,1,.617-.561.575.575,0,0,1,.557.592v.008A2.459,2.459,0,0,0,43.255,96a2.709,2.709,0,0,1,.36-.334c.476-.367,1.212-.847,1.793-.463a1.13,1.13,0,0,1-.006,1.777,2.107,2.107,0,0,1-1.47.673,1.09,1.09,0,0,0,1.245.907l.012,0c.435-.024,1.453-.269,1.641-.745.122-.309-.14-1.023-.176-1.366a13.267,13.267,0,0,1,.015-2.873,15.384,15.384,0,0,1,1.8-5.554,23.9,23.9,0,0,1,9.487-9.139q.319-.178.644-.351a23.856,23.856,0,0,1,8.253-2.644,8.269,8.269,0,0,1,1.416-3.049,7.212,7.212,0,0,1,6.678-2.868,27.965,27.965,0,0,0-1.5,6.18,18.248,18.248,0,0,1,8.23,4.086l.143.127,3.246-.6s3.176,5.522,3.1,7.55c0,0-2.066,1.8-3.387,2.7a17.618,17.618,0,0,1-3.143,8.261c-.119.173-.24.344-.365.515l2.364,4.468s-3.073,3.118-5.167,3.48l-2.732-2.579a25.94,25.94,0,0,1-2.71,1.654,29.7,29.7,0,0,1-3.407,1.541l.6,3.747c-1.476,1.527-5.783,2.314-5.783,2.314l-2.363-4.465c-5.868.224-11.057-2.146-13.872-7.464a15,15,0,0,1-.637-1.367,4.177,4.177,0,0,1-2.667.061,3.132,3.132,0,0,1-1.6-1.233,2.718,2.718,0,0,1-.6-1.833" fill="#d67086"/>
        <path id="Trazado_908115" data-name="Trazado 908115" d="M64.909,77.6l.238,1.927a25.935,25.935,0,0,0-10.615,5.617l-1.767-.521s3.29-6.2,12.143-7.022" fill="#fff"/>
        <g id="Grupo_1120642" data-name="Grupo 1120642" opacity="0.03">
          <g id="Grupo_1120641" data-name="Grupo 1120641">
            <g id="Grupo_1120640" data-name="Grupo 1120640" clip-path="url(#clip-path-7)">
              <g id="Grupo_1120639" data-name="Grupo 1120639">
                <g id="Grupo_1120638" data-name="Grupo 1120638" clip-path="url(#clip-path-8)">
                  <path id="Trazado_908116" data-name="Trazado 908116" d="M48.8,101.865c3.835,2.767,8.767,3.529,13.466,3.139a30.809,30.809,0,0,0,10.288-2.6c4.68-2.16,8.287-5.775,11.428-9.709.138-.173.271-.349.4-.526a18.559,18.559,0,0,1-2.756,6,24.073,24.073,0,0,1-8.61,7.538c-9.7,5.131-20.26,4.193-24.786-4.259.185.146.378.283.569.421"/>
                </g>
              </g>
            </g>
          </g>
        </g>
        <g id="Grupo_1120647" data-name="Grupo 1120647" opacity="0.03">
          <g id="Grupo_1120646" data-name="Grupo 1120646">
            <g id="Grupo_1120645" data-name="Grupo 1120645" clip-path="url(#clip-path-9)">
              <g id="Grupo_1120644" data-name="Grupo 1120644">
                <g id="Grupo_1120643" data-name="Grupo 1120643" clip-path="url(#clip-path-10)">
                  <path id="Trazado_908117" data-name="Trazado 908117" d="M81.931,80.454s4.427,4.906,2.856,9.556l1.3-.969s-.461-6-4.161-8.587"/>
                </g>
              </g>
            </g>
          </g>
        </g>
        <path id="Trazado_908118" data-name="Trazado 908118" d="M71.5,108.451l-2.42-.412,1.364-3.59,2.913-.632,1.729,1.856Z" fill="#efbfa5"/>
      </g>
    </g>
  </g>
</svg>
