<svg xmlns="http://www.w3.org/2000/svg" xmlns:xlink="http://www.w3.org/1999/xlink" width="295" height="194.162" viewBox="0 0 295 194.162">
  <defs>
    <linearGradient id="linear-gradient" y1="0.5" x2="1" y2="0.5" gradientUnits="objectBoundingBox">
      <stop offset="0" stop-color="#fed747"/>
      <stop offset="1" stop-color="#f94e43"/>
    </linearGradient>
    <linearGradient id="linear-gradient-4" xlink:href="#linear-gradient"/>
  </defs>
  <g id="img-14" transform="translate(-285.332 -3611.535)">
    <rect id="Rectángulo_401121" data-name="Rectángulo 401121" width="295" height="153.429" rx="30" transform="translate(285.332 3652.269)" fill="#bfc9ff"/>
    <g id="Слой_1" data-name="Слой 1" transform="translate(319.978 3611.535)">
      <g id="Grupo_1120569" data-name="Grupo 1120569">
        <g id="Grupo_1120560" data-name="Grupo 1120560" transform="translate(0 31.127)">
          <path id="Trazado_907577" data-name="Trazado 907577" d="M78.008,241.216,54.015,269.723l-38-31.989v0L0,224.255l23.993-28.5,29.9,25.165Z" transform="translate(0 -195.75)" fill="url(#linear-gradient)"/>
          <path id="Trazado_907578" data-name="Trazado 907578" d="M99,269.246,80.37,291.376,31.82,250.51l18.628-22.13ZM81.982,288.092,96.031,271.4a2.682,2.682,0,0,0-.324-3.778L52.643,231.379a2.731,2.731,0,0,0-3.847.331L34.8,248.333a2.707,2.707,0,0,0,.328,3.813l43.091,36.271a2.667,2.667,0,0,0,3.759-.323Z" transform="translate(-26.76 -223.191)" fill="#ff4a1e"/>
          <path id="Trazado_907579" data-name="Trazado 907579" d="M196.885,391.261a7.782,7.782,0,1,1,10.965-.943A7.783,7.783,0,0,1,196.885,391.261Z" transform="translate(-163.248 -348.62)" fill="#ff4a1e"/>
        </g>
        <g id="Grupo_1120561" data-name="Grupo 1120561" transform="translate(38.696)">
          <path id="Trazado_907580" data-name="Trazado 907580" d="M305.071,56.359,275.329,73.235l-22.5-39.651h0l-9.48-16.707L273.092,0l17.7,31.2Z" transform="translate(-243.35)" fill="url(#linear-gradient)"/>
          <path id="Trazado_907581" data-name="Trazado 907581" d="M324.953,78.117l-23.09,13.1L273.12,40.563l23.09-13.1,28.745,50.657ZM304.3,88.907l17.413-9.881a2.461,2.461,0,0,0,.925-3.355L297.142,30.742a2.506,2.506,0,0,0-3.416-.943L276.383,39.64a2.485,2.485,0,0,0-.935,3.387L300.96,87.986A2.447,2.447,0,0,0,304.3,88.907Z" transform="translate(-268.386 -23.094)" fill="#ff4a1e"/>
          <path id="Trazado_907582" data-name="Trazado 907582" d="M392.1,193.691a7.143,7.143,0,1,1,9.738,2.687A7.144,7.144,0,0,1,392.1,193.691Z" transform="translate(-367.666 -153.919)" fill="#ff4a1e"/>
        </g>
        <path id="Trazado_907583" data-name="Trazado 907583" d="M1069.184,574.77c-3-12.691-24.358-9.445-24.358-9.445s-15.125,21.549-19.336,21.939,9.336-20.95,9.336-20.95c-8.1-1.048-29.126,8.242-29.126,8.242s.48,25.727-3.7,25.067.736-22.8.736-22.8c-7.939,2.105-15.574,11.04-15.574,11.04-9.655,14.643,9.646,26.285,9.646,26.285a41.826,41.826,0,0,1-5.859,18.962h0a30.476,30.476,0,0,0-2.67,5.014l2.144.07c.194-.569.4-1.118.636-1.646a.012.012,0,0,1,0-.01l.01-.022c.157-.326.383-.79.665-1.356v0c.7-1.261,1.169-2.193,1.471-2.869,0,0,0,0,0-.006,2.093-3.961,5.089-9.113,7.009-10.151a4.212,4.212,0,0,1-.428-1c.137.318.278.65.428,1,3.416,7.981,21.72,9.884,32.009,8.118s5.926-4.793.574-9.65-16.924-4-20.272-5.941,1.69-3.619,8.488-2.873,9.984,7.669,20.958,9.072,20.029-19.031,20.029-19.031c-7.677,2.113-21.169-2.52-21.61-5.158s19.733-1.724,22.9-2.409,8.878-6.8,5.877-19.487Z" transform="translate(-827.92 -475.118)" fill="#41b8e1"/>
        <path id="Trazado_907584" data-name="Trazado 907584" d="M872.869,433.386c4.734-6.607,16.28.32,16.28.32s3.621,16.006,5.957,17.227-.423-14.289-.423-14.289c4.918,1.312,14.844,11.646,14.844,11.646s-6.367,14.721-3.8,15.329S910.7,450.3,910.7,450.3c4.079,3.093,6.367,10.053,6.367,10.053,2.1,10.729-11.784,12.874-11.784,12.874a26.086,26.086,0,0,0-1.11,12.322h0a18.8,18.8,0,0,1,.351,3.524l-1.253-.468c.024-.374.032-.741.024-1.1v-.022c-.014-.226-.033-.547-.062-.94h0v0c-.1-.892-.154-1.542-.17-2v0c-.269-2.78-.778-6.459-1.639-7.513a2.573,2.573,0,0,0,.482-.474c-.154.151-.315.308-.482.474-3.858,3.794-14.863.558-20.377-2.9s-2.283-4.168,1.953-5.7,10.7,1.7,13.1,1.372-.119-2.487-4.214-3.667-7.572,2.059-14.232.27-7.044-15.714-7.044-15.714c3.926,3.036,12.8,3.559,13.681,2.14s-10.97-5.666-12.637-6.81S868.136,439.993,872.869,433.386Z" transform="translate(-731.534 -362.071)" fill="#41b8e1"/>
        <path id="Trazado_907585" data-name="Trazado 907585" d="M458.579,441.32c-7.171-8.129-21.557,2.616-21.557,2.616s-2.649,21.724-5.583,23.658-1.363-19.016-1.363-19.016c-6.349,2.4-18.126,17.452-18.126,17.452s10.43,18.673,7.109,19.826-8.391-17.006-8.391-17.006c-5,4.653-7.094,14.2-7.094,14.2-1.344,14.518,17.367,15.493,17.367,15.493a34.776,34.776,0,0,1,3.131,16.2h0a25.218,25.218,0,0,0,.006,4.723l1.6-.789c-.081-.493-.142-.978-.178-1.455v-.029c-.013-.3-.029-.73-.043-1.255h0v0c.016-1.2,0-2.067-.045-2.679v-.006c-.017-3.724.161-8.674,1.162-10.188a3.514,3.514,0,0,1-.7-.564l.7.564c5.631,4.514,19.8-1.261,26.647-6.586s2.468-5.836-3.358-7.3-13.974,3.7-17.189,3.586-.178-3.315,5.1-5.432,10.325,1.711,18.919-1.558,7.23-21.8,7.23-21.8c-4.8,4.556-16.509,6.445-17.863,4.683s13.793-8.994,15.849-10.737,3.846-8.461-3.325-16.59Z" transform="translate(-339.343 -368.588)" fill="#41b8e1"/>
        <g id="Grupo_1120562" data-name="Grupo 1120562" transform="translate(121.614 32.515)">
          <path id="Trazado_907586" data-name="Trazado 907586" d="M772.341,221.861a13.151,13.151,0,1,1,16.68,8.226A13.152,13.152,0,0,1,772.341,221.861Z" transform="translate(-770.553 -204.479)" fill="#ff4a1e"/>
          <path id="Trazado_907587" data-name="Trazado 907587" d="M765.511,224.181a13.151,13.151,0,1,1,16.68,8.226A13.152,13.152,0,0,1,765.511,224.181Z" transform="translate(-764.809 -206.43)" fill="url(#linear-gradient)"/>
          <path id="Trazado_907588" data-name="Trazado 907588" d="M788.293,238.387a11.983,11.983,0,1,1,6.895-6.047,11.905,11.905,0,0,1-6.895,6.047Zm-7.474-22.015a11.268,11.268,0,1,0,14.292,7.047A11.28,11.28,0,0,0,780.819,216.372Z" transform="translate(-771.237 -213.371)" fill="#ff4a1e"/>
          <path id="Trazado_907589" data-name="Trazado 907589" d="M823.929,246.075a1.992,1.992,0,0,0-.251-.65,1.455,1.455,0,0,0-.464-.453,2.72,2.72,0,0,0-.724-.3,7.429,7.429,0,0,0-1.027-.191,18.888,18.888,0,0,1-1.892-.336,5.959,5.959,0,0,1-1.522-.566,3.5,3.5,0,0,1-1.105-.943,3.962,3.962,0,0,1-.66-2.939,3.334,3.334,0,0,1,.547-1.275,4.143,4.143,0,0,1,1.056-1.027,5.559,5.559,0,0,1,1.511-.716l-.413-1.945,1.566-.332.418,1.973a4.979,4.979,0,0,1,1.622.121,3.755,3.755,0,0,1,2.358,1.736,5,5,0,0,1,.607,1.585l-2.829.6a2.441,2.441,0,0,0-.83-1.53,1.7,1.7,0,0,0-1.412-.266,2.178,2.178,0,0,0-.733.283,1.459,1.459,0,0,0-.452.447,1.358,1.358,0,0,0-.2.569,2.006,2.006,0,0,0,.035.649,1.854,1.854,0,0,0,.227.588,1.336,1.336,0,0,0,.445.433,2.71,2.71,0,0,0,.728.3,9.286,9.286,0,0,0,1.073.215q1.023.153,1.881.361a6.045,6.045,0,0,1,1.519.576,3.388,3.388,0,0,1,1.74,2.409,3.6,3.6,0,0,1,.025,1.495,3.264,3.264,0,0,1-.555,1.267,3.993,3.993,0,0,1-1.07,1.007,5.946,5.946,0,0,1-1.523.7l.383,1.81-1.557.331-.382-1.8a6.7,6.7,0,0,1-1.646-.021,4.266,4.266,0,0,1-1.512-.5,3.824,3.824,0,0,1-1.215-1.1,4.632,4.632,0,0,1-.75-1.8l2.829-.6a2.822,2.822,0,0,0,.41,1.038,1.853,1.853,0,0,0,.631.588,1.8,1.8,0,0,0,.768.218,3.145,3.145,0,0,0,.809-.062,2.581,2.581,0,0,0,.782-.289,1.7,1.7,0,0,0,.514-.452,1.338,1.338,0,0,0,.246-.571,1.65,1.65,0,0,0-.014-.647Z" transform="translate(-808.045 -229.642)" fill="#ff4a1e"/>
        </g>
        <g id="Grupo_1120563" data-name="Grupo 1120563" transform="translate(153.985 13.315)">
          <path id="Trazado_907590" data-name="Trazado 907590" d="M974.316,97.427a10.36,10.36,0,1,1,13.141,6.48A10.361,10.361,0,0,1,974.316,97.427Z" transform="translate(-972.908 -83.733)" fill="#ff4a1e"/>
          <path id="Trazado_907591" data-name="Trazado 907591" d="M968.936,99.257a10.36,10.36,0,1,1,13.141,6.48A10.361,10.361,0,0,1,968.936,99.257Z" transform="translate(-968.383 -85.272)" fill="url(#linear-gradient-4)"/>
          <path id="Trazado_907592" data-name="Trazado 907592" d="M986.878,110.442a9.44,9.44,0,1,1,5.432-4.764,9.379,9.379,0,0,1-5.432,4.764ZM980.989,93.1a8.876,8.876,0,1,0,11.258,5.551A8.884,8.884,0,0,0,980.989,93.1Z" transform="translate(-973.442 -90.734)" fill="#ff4a1e"/>
          <path id="Trazado_907593" data-name="Trazado 907593" d="M1014.965,116.516a1.571,1.571,0,0,0-.2-.512,1.135,1.135,0,0,0-.366-.356,2.134,2.134,0,0,0-.571-.239,5.673,5.673,0,0,0-.809-.149,14.785,14.785,0,0,1-1.49-.264,4.71,4.71,0,0,1-1.2-.445,2.773,2.773,0,0,1-.871-.743,3.118,3.118,0,0,1-.518-2.315,2.63,2.63,0,0,1,.431-1,3.283,3.283,0,0,1,.832-.809,4.4,4.4,0,0,1,1.189-.563l-.326-1.533,1.234-.262.331,1.554a3.909,3.909,0,0,1,1.277.1,2.956,2.956,0,0,1,1.857,1.369,3.948,3.948,0,0,1,.479,1.25l-2.228.472a1.92,1.92,0,0,0-.655-1.205,1.33,1.33,0,0,0-1.111-.21,1.7,1.7,0,0,0-.577.224,1.16,1.16,0,0,0-.356.353,1.068,1.068,0,0,0-.154.448,1.6,1.6,0,0,0,.027.51,1.472,1.472,0,0,0,.178.463,1.048,1.048,0,0,0,.351.34,2.153,2.153,0,0,0,.574.237,7.2,7.2,0,0,0,.846.169c.537.081,1.032.175,1.482.285a4.8,4.8,0,0,1,1.2.453,2.67,2.67,0,0,1,1.369,1.9,2.87,2.87,0,0,1,.021,1.178,2.573,2.573,0,0,1-.437,1,3.179,3.179,0,0,1-.843.793,4.689,4.689,0,0,1-1.2.553l.3,1.425-1.226.261-.3-1.418a5.351,5.351,0,0,1-1.3-.016,3.363,3.363,0,0,1-1.191-.394,3,3,0,0,1-.957-.863,3.634,3.634,0,0,1-.59-1.417l2.228-.472a2.251,2.251,0,0,0,.323.819,1.4,1.4,0,0,0,1.1.634,2.452,2.452,0,0,0,.638-.049,2.037,2.037,0,0,0,.617-.227,1.36,1.36,0,0,0,.4-.355,1.052,1.052,0,0,0,.194-.45,1.317,1.317,0,0,0-.011-.51Z" transform="translate(-1002.451 -103.569)" fill="#ff4a1e"/>
        </g>
        <g id="Grupo_1120564" data-name="Grupo 1120564" transform="translate(52.244 22.586)">
          <path id="Trazado_907594" data-name="Trazado 907594" d="M468.684,402.292l-12.215,36.341a64.994,64.994,0,0,1-13.061,22.558,66.157,66.157,0,0,1-44.247,21.982,65.4,65.4,0,0,1-48.426-16.278,66.157,66.157,0,0,1-21.982-44.247,64.963,64.963,0,0,1,3.217-25.867l12.215-36.341,30.662,10.307-12.215,36.341a33.325,33.325,0,0,0,63.176,21.238l12.215-36.341,30.662,10.307Z" transform="translate(-328.555 -325.712)" fill="#ff4a1e"/>
          <rect id="Rectángulo_410185" data-name="Rectángulo 410185" width="32.37" height="36.64" transform="translate(27.304 0) rotate(18.58)" fill="#eaeaea"/>
          <rect id="Rectángulo_410186" data-name="Rectángulo 410186" width="32.37" height="36.64" transform="translate(121.121 31.538) rotate(18.58)" fill="#eaeaea"/>
          <path id="Trazado_907595" data-name="Trazado 907595" d="M383.6,449.294l-10.307,30.662a64.973,64.973,0,0,1-22.558-13.063,66.157,66.157,0,0,1-21.982-44.247,64.963,64.963,0,0,1,3.217-25.866l12.215-36.341,30.662,10.307-12.215,36.341A33.47,33.47,0,0,0,383.6,449.294Z" transform="translate(-328.555 -325.712)" fill="#1f5ca2"/>
        </g>
        <g id="Grupo_1120568" data-name="Grupo 1120568" transform="translate(111.322 90.732)">
          <g id="Grupo_1120565" data-name="Grupo 1120565">
            <path id="Trazado_907596" data-name="Trazado 907596" d="M866.172,1030.089a1.03,1.03,0,0,0-.183,1.1.005.005,0,0,0,0,0,6.832,6.832,0,0,0,2.161,2.369c.13.1.245.2.347.289l.078.07.06.054c.949.875.591,1.077,2.3,2.851,1.945,2.024,3.284,2.061,3.665,1.876.323-.158-.332-1.231-1.057-2.438-.035-.059-.07-.118-.107-.177-.1-.161-.192-.323-.288-.485-.851-1.452-.631-2.134-.431-4.293.164-1.755,2.732-9.809,2.732-9.809l-3.727-.642s-1.123,6.413-2.36,7.4c-.661.526-1.4.533-2.037.924-.045.027-.089.054-.132.083a4.859,4.859,0,0,0-1.019.821Z" transform="translate(-839.54 -949.263)" fill="#ffb792"/>
            <path id="Trazado_907597" data-name="Trazado 907597" d="M866.172,1074.115a1.031,1.031,0,0,0-.183,1.1.005.005,0,0,0,0,0,7.916,7.916,0,0,0,2.164,2.363c.129.107.242.205.344.3l.078.07.06.054c.949.875.592,1.077,2.3,2.851,1.945,2.024,3.284,2.061,3.665,1.876.323-.157-.332-1.231-1.057-2.438a8.273,8.273,0,0,1-3.466-2.555c-1.172-1.495-1.953-3.414-2.749-4.527-.045.027-.089.054-.132.083a4.859,4.859,0,0,0-1.019.82Z" transform="translate(-839.54 -993.289)" fill="#4f327a"/>
            <path id="Trazado_907598" data-name="Trazado 907598" d="M1040.82,1021.773c.231,1.151,1.87.959,3.7.51s1.4.084,4-.2,3.4-1.261,3.478-1.649c.071-.344-1.217-.466-2.6-.625-.173-.019-.348-.041-.523-.062-1.56-.2-2.7-1.2-4.12-2.029-1.342-.784-3.346-3.975-3.346-3.975l-3.576.283s1.876,2.851,2.6,4.09a4.338,4.338,0,0,1,.351,2.438,4.633,4.633,0,0,0,.027,1.223Z" transform="translate(-984.132 -943.275)" fill="#ffb792"/>
            <path id="Trazado_907599" data-name="Trazado 907599" d="M1060,1054.367c1.832-.448,1.4.084,4-.2s3.4-1.261,3.478-1.649c.072-.344-1.216-.466-2.6-.625l-.013.027a7.353,7.353,0,0,1-3.735,1.161c-1.77.043-3.643-.464-4.864-.444a4.633,4.633,0,0,0,.027,1.223C1056.525,1055.008,1058.164,1054.816,1060,1054.367Z" transform="translate(-999.607 -975.358)" fill="#4f327a"/>
            <path id="Trazado_907600" data-name="Trazado 907600" d="M905.5,890.129l-3.344,9-4.365,11.746a7.071,7.071,0,0,1-2.318-.211,10.063,10.063,0,0,1-2.242-1.091s1.212-12.613,3.473-19.853a12.893,12.893,0,0,1,1.945-4.207C902.152,881.366,905.5,890.129,905.5,890.129Z" transform="translate(-862.517 -834.498)" fill="#ff9f23"/>
            <path id="Trazado_907601" data-name="Trazado 907601" d="M778,821.1c-2.19-.706-8.437.2-14.712,1.43l-1.313-2.167L748.418,819.3s-4.473,9.919-2.024,16.238a2.291,2.291,0,0,0,2.295,1.544h.2s8.067,0,10.687,0c6.74,0,14.265-4.634,15.24-4.828,1.593-.318,2.231,2.869,3.824,6.214s14.977,14.818,14.977,14.818a11.742,11.742,0,0,0,2.907-.3,2.863,2.863,0,0,0,1.248-.789S782.94,822.689,778,821.1Z" transform="translate(-738.414 -779.753)" fill="#ffc22a"/>
            <path id="Trazado_907602" data-name="Trazado 907602" d="M723.379,571.735a14.292,14.292,0,0,0-4.807-1.092c-5.136-.69-8.227,6.774-8.409,9.035-.336,4.168-2.539,4.8-5.643,7.415-6.224,5.235-4.4,11.317-1,13.576,2.042,1.356,5.64,0,5.64,0,.051.035,9.843-5.473,14.669-8.132,7.235-1.029,3.971-18.477-.453-20.8Z" transform="translate(-700.354 -570.598)" fill="#4f327a"/>
            <path id="Trazado_907603" data-name="Trazado 907603" d="M787.362,654.208a6.378,6.378,0,0,1-3.977.122c-1.507-.666-2.649-3.145-2.627-3.147.685-.032,1.437-.631,2.018-4.564l.293.105,4.909,1.767s-.356,1.576-.585,3.075c-.194,1.259-.3,2.465-.03,2.643Z" transform="translate(-767.93 -634.531)" fill="#ffb792"/>
            <path id="Trazado_907604" data-name="Trazado 907604" d="M800.2,649.037s-.356,1.576-.585,3.075c-2.819-.507-3.926-3.317-4.324-4.842Z" transform="translate(-780.151 -635.078)" fill="#f2ac8c"/>
            <path id="Trazado_907605" data-name="Trazado 907605" d="M798.332,605.736s-6.717-.9-6.09-5.076.18-7.1,4.5-6.7,4.907,2.116,5.037,3.56-1.679,8.343-3.441,8.218Z" transform="translate(-777.553 -590.213)" fill="#ffb792"/>
            <path id="Trazado_907606" data-name="Trazado 907606" d="M791.335,593.274s-4.3,3.705-7.224,4-4.031-.641-4.031-.641a11.412,11.412,0,0,0,2.76-3.742,2.053,2.053,0,0,1,1.7-1.212C786.623,591.5,790.583,591.421,791.335,593.274Z" transform="translate(-767.359 -588.256)" fill="#4f327a"/>
            <path id="Trazado_907607" data-name="Trazado 907607" d="M833.952,595.808a10.619,10.619,0,0,1,1.891,2.422,8.127,8.127,0,0,1,.219,4.322s2.241-4.357.972-6.475c-1.345-2.245-3.083-.269-3.083-.269Z" transform="translate(-812.664 -591.123)" fill="#4f327a"/>
            <path id="Trazado_907608" data-name="Trazado 907608" d="M762.537,687.406c-.2,13.6-.056,10.754-1.542,12.045a5.714,5.714,0,0,1-2.692.584c-4.169.277-11.5-.41-11.776-1.18-.962-2.665-.283-3.493-1.084-7.575-.084-.434-.188-.9-.309-1.415-.669-2.8-1.32-3.756,1.053-8.261,2.151-4.079,4.387-7.389,4.589-7.27,5.678,3.371,6.136.537,6.136.537s5.726,5.9,5.626,12.537Z" transform="translate(-737.449 -657.836)" fill="#eaeaea"/>
            <path id="Trazado_907609" data-name="Trazado 907609" d="M902.165,927.259,897.8,939.005a7.071,7.071,0,0,1-2.318-.211,10.063,10.063,0,0,1-2.242-1.091s1.212-12.613,3.473-19.853l5.453,9.409Z" transform="translate(-862.526 -862.633)" fill="#ffc22a"/>
            <path id="Trazado_907610" data-name="Trazado 907610" d="M822.48,677.72s5.842.991,6.529,3.506,4.723,17.3,4.723,17.3-2.97.534-4.343-.838-4.774-12.729-4.774-12.729l-2.136-7.241Z" transform="translate(-803.017 -660.686)" fill="#eaeaea"/>
            <path id="Trazado_907611" data-name="Trazado 907611" d="M763.211,759.728c-4.169.277-11.5-.41-11.776-1.18-.962-2.665-.283-3.494-1.084-7.575l2.01-5.662s-.332,6.3,1.527,7.963,7.614,3.2,8.517,4.588a5.094,5.094,0,0,1,.806,1.867Z" transform="translate(-742.357 -717.529)" fill="#c8d1ce"/>
            <path id="Trazado_907612" data-name="Trazado 907612" d="M801.182,815.934s4.112-.916,4.777-.55a9.686,9.686,0,0,1,2.489,2.156c.2.463-1.477-.351-2.024-.5a4.847,4.847,0,0,0-1.748.383,5.811,5.811,0,0,1-3.131.315l-.364-1.8Z" transform="translate(-785.104 -776.387)" fill="#ffb792"/>
            <path id="Trazado_907613" data-name="Trazado 907613" d="M713.406,674.33s-5.522.34-7.434,3.007c-2.69,3.753-8.03,19.749-4.971,21.883,3.446,2.4,15.682.628,15.682.628a4.973,4.973,0,0,0-.159-2.824c-.566-.921-9.773-2.407-10.2-2.834s5.311-8.286,5.311-9.56S713.406,674.33,713.406,674.33Z" transform="translate(-700.083 -657.835)" fill="#eaeaea"/>
            <path id="Trazado_907614" data-name="Trazado 907614" d="M832.48,823.04a7.972,7.972,0,0,0,1.145,1.245.854.854,0,0,0,.464.1l-.58-1.045-1.029-.3Z" transform="translate(-811.427 -782.899)" fill="#ffb792"/>
            <path id="Trazado_907615" data-name="Trazado 907615" d="M831.23,815.84l2.506,1.216a.446.446,0,0,1-.415.161,5.981,5.981,0,0,1-1.086-.3l-1-1.078Z" transform="translate(-810.376 -776.844)" fill="#ffb792"/>
          </g>
          <g id="Grupo_1120567" data-name="Grupo 1120567" transform="translate(16.077 28.263)">
            <g id="Grupo_1120566" data-name="Grupo 1120566">
              <path id="Trazado_907616" data-name="Trazado 907616" d="M839.67,763.165h19.819l5.961-14.825H845.663Z" transform="translate(-833.551 -748.34)" fill="#636363"/>
              <path id="Trazado_907617" data-name="Trazado 907617" d="M827.36,837.94H801.19v.577h25.938Z" transform="translate(-801.19 -823.692)" fill="#636363"/>
            </g>
            <path id="Trazado_907618" data-name="Trazado 907618" d="M922.665,789.963a.686.686,0,0,0-.673-.943,1.355,1.355,0,0,0-1.215.943.686.686,0,0,0,.673.943A1.355,1.355,0,0,0,922.665,789.963Z" transform="translate(-901.73 -782.551)" fill="#fff"/>
          </g>
        </g>
      </g>
    </g>
  </g>
</svg>
