<svg xmlns="http://www.w3.org/2000/svg" xmlns:xlink="http://www.w3.org/1999/xlink" width="295" height="155.335" viewBox="0 0 295 155.335">
  <defs>
    <linearGradient id="linear-gradient" y1="0.5" x2="1" y2="0.5" gradientUnits="objectBoundingBox">
      <stop offset="0" stop-color="#fed747"/>
      <stop offset="1" stop-color="#f94e43"/>
    </linearGradient>
  </defs>
  <g id="Grupo_1119535" data-name="Grupo 1119535" transform="translate(-285.332 -3614.362)">
    <rect id="Rectángulo_401121" data-name="Rectángulo 401121" width="295" height="117.429" rx="30" transform="translate(285.332 3652.269)" fill="#bfc9ff"/>
    <g id="Слой_1" data-name="Слой 1" transform="translate(334.777 3614.362)">
      <g id="Grupo_1120559" data-name="Grupo 1120559" transform="translate(0.003)">
        <g id="Grupo_1120532" data-name="Grupo 1120532" transform="translate(89.513 28.274)">
          <path id="Trazado_907499" data-name="Trazado 907499" d="M460.67,126.588s4.152,7.033,7.958,7.132,9.6-3.261,9.6-3.261,3.495-9.374,1.126-13.043a4.38,4.38,0,0,0-4.864.961,8.362,8.362,0,0,0-1.287,1.483,4.137,4.137,0,0,1-2,1.63c-2.717,1-5.939-1.345-7.147.913a15.025,15.025,0,0,1-2.1,2.993A9.84,9.84,0,0,1,460.67,126.588Z" transform="translate(-438.918 -117.063)" fill="#7c409c"/>
          <path id="Trazado_907500" data-name="Trazado 907500" d="M451.923,281.758s10.2-89.446-46.521-95.728c0,0-44.012,10.48-33.034,95.728Z" transform="translate(-370.61 -169.372)" fill="#7c409c"/>
          <path id="Trazado_907501" data-name="Trazado 907501" d="M501.056,174.043s-10.589,2.833-13.857,1.169c0,0-.493-5.328,3.966-4.582,3.053.512,5.041-1.254,6.21-1.971C499.029,167.645,501.5,171.813,501.056,174.043Z" transform="translate(-459.027 -156.078)" fill="#4a2c6a"/>
          <path id="Trazado_907502" data-name="Trazado 907502" d="M504.767,131.135c.676.611,2.756-8.615,2.756-8.615A8.361,8.361,0,0,0,506.236,124a4.138,4.138,0,0,1-2,1.63C504.231,125.9,504.11,130.541,504.767,131.135Z" transform="translate(-471.953 -121.202)" fill="#4a2c6a"/>
          <path id="Trazado_907503" data-name="Trazado 907503" d="M466,142.173c.15.106,5.046,3.635,5.71,3.635s-3.611-6.628-3.611-6.628A15.025,15.025,0,0,1,466,142.173Z" transform="translate(-442.96 -133.838)" fill="#4a2c6a"/>
        </g>
        <g id="Grupo_1120533" data-name="Grupo 1120533" transform="translate(123.829 52.589)">
          <path id="Trazado_907504" data-name="Trazado 907504" d="M612.532,222.587s-2.546,3.584-4.879,3.633-5.884-1.662-5.884-1.662-2.142-4.775-.688-6.644a3.116,3.116,0,0,1,2.98.49,4.655,4.655,0,0,1,.79.756,2.5,2.5,0,0,0,1.225.831c1.664.507,3.642-.686,4.381.466a7.793,7.793,0,0,0,1.287,1.524,5.951,5.951,0,0,0,.79.606Z" transform="translate(-579.348 -217.733)" fill="#eaeaea"/>
          <path id="Trazado_907505" data-name="Trazado 907505" d="M512.69,275.083s9-21.8,25.189-22.214c0,0,14.948,1.662,15.779,22.214Z" transform="translate(-512.69 -244.383)" fill="#eaeaea"/>
          <path id="Trazado_907506" data-name="Trazado 907506" d="M598.52,246.761s6.49,1.444,8.495.594a2.006,2.006,0,0,0-2.432-2.333,5.734,5.734,0,0,1-3.807-1c-1.014-.517-2.526,1.606-2.256,2.741Z" transform="translate(-577.765 -237.61)" fill="#c8d1ce"/>
          <path id="Trazado_907507" data-name="Trazado 907507" d="M616.7,224.909c-.415.312-1.691-4.389-1.691-4.389a4.655,4.655,0,0,1,.79.756,2.5,2.5,0,0,0,1.225.831c0,.138.08,2.5-.324,2.8Z" transform="translate(-590.297 -219.847)" fill="#c8d1ce"/>
          <path id="Trazado_907508" data-name="Trazado 907508" d="M635.686,230.534a26.936,26.936,0,0,1-3.5,1.853c-.406,0,2.212-3.377,2.212-3.377A7.792,7.792,0,0,0,635.686,230.534Z" transform="translate(-603.292 -226.286)" fill="#c8d1ce"/>
          <path id="Trazado_907509" data-name="Trazado 907509" d="M549.07,289.2c-.167-.142,6.367-9.62,8.166-9.688s5.843,2.077,8.768,2.352,5.763-.553,6.318,1.176,2.075,7.864,1.142,8.845S552.662,292.27,549.07,289.2Z" transform="translate(-540.281 -264.591)" fill="#4ac6f0"/>
        </g>
        <g id="Grupo_1120556" data-name="Grupo 1120556" transform="translate(112.576 83.284)">
          <g id="Grupo_1120535" data-name="Grupo 1120535" transform="translate(7.557 65.433)">
            <path id="Trazado_907510" data-name="Trazado 907510" d="M571.489,617.169V620.9a1.278,1.278,0,0,1-.292.8,1.7,1.7,0,0,1-.8.536,1.92,1.92,0,0,1-.314.075,2.062,2.062,0,0,1-.3.022H499.1a1.614,1.614,0,0,1-1.708-1.362v-3.877a1.614,1.614,0,0,1,1.708-1.362h70.681a2.07,2.07,0,0,1,.3.022,1.92,1.92,0,0,1,.314.075,1.7,1.7,0,0,1,.8.536,1.264,1.264,0,0,1,.292.8Z" transform="translate(-497.39 -615.73)" fill="#ee8914"/>
            <path id="Trazado_907511" data-name="Trazado 907511" d="M536.781,622.331H498.914a1.493,1.493,0,0,1-1.524-1.362v-3.877a1.494,1.494,0,0,1,1.524-1.362h33.218a11.579,11.579,0,0,0,4.649,6.6Z" transform="translate(-497.39 -615.73)" fill="#ff7042"/>
            <g id="Grupo_1120534" data-name="Grupo 1120534" transform="translate(25.967 0.002)">
              <rect id="Rectángulo_410064" data-name="Rectángulo 410064" width="0.804" height="6.599" transform="translate(38.727)" fill="#ff7042"/>
              <rect id="Rectángulo_410065" data-name="Rectángulo 410065" width="0.804" height="6.599" transform="translate(36.01)" fill="#ff7042"/>
              <rect id="Rectángulo_410066" data-name="Rectángulo 410066" width="0.804" height="6.599" transform="translate(32.747)" fill="#ff7042"/>
              <rect id="Rectángulo_410067" data-name="Rectángulo 410067" width="0.804" height="6.599" transform="translate(27.749)" fill="#ff7042"/>
              <rect id="Rectángulo_410068" data-name="Rectángulo 410068" width="0.804" height="6.599" transform="translate(22.465)" fill="#ff7042"/>
              <rect id="Rectángulo_410069" data-name="Rectángulo 410069" width="0.804" height="6.599" transform="translate(14.361)" fill="#ff7042"/>
              <rect id="Rectángulo_410070" data-name="Rectángulo 410070" width="0.804" height="6.599" transform="translate(6.775)" fill="#ff7042"/>
              <rect id="Rectángulo_410071" data-name="Rectángulo 410071" width="0.804" height="6.599" fill="#ff7042"/>
              <rect id="Rectángulo_410072" data-name="Rectángulo 410072" width="0.804" height="6.599" transform="translate(41.316)" fill="#ff7042"/>
              <rect id="Rectángulo_410073" data-name="Rectángulo 410073" width="0.804" height="6.599" transform="translate(43.026)" fill="#ff7042"/>
              <rect id="Rectángulo_410074" data-name="Rectángulo 410074" width="0.804" height="6.599" transform="translate(44.678)" fill="#ff7042"/>
              <path id="Trazado_907512" data-name="Trazado 907512" d="M795.824,615.764v6.553a2.06,2.06,0,0,1-.3.022h-.5v-6.6h.5a2.06,2.06,0,0,1,.3.022Z" transform="translate(-749.1 -615.74)" fill="#ff7042"/>
              <path id="Trazado_907513" data-name="Trazado 907513" d="M800.452,616.679v5.331a1.7,1.7,0,0,1-.8.536V616.14a1.7,1.7,0,0,1,.8.536Z" transform="translate(-752.612 -616.043)" fill="#ff7042"/>
            </g>
          </g>
          <g id="Grupo_1120537" data-name="Grupo 1120537" transform="translate(0 58.834)">
            <path id="Trazado_907514" data-name="Trazado 907514" d="M540.2,589.865v3.727a1.278,1.278,0,0,1-.292.8,1.7,1.7,0,0,1-.8.539,1.924,1.924,0,0,1-.314.075,2.076,2.076,0,0,1-.3.024H467.808a1.614,1.614,0,0,1-1.708-1.362v-3.877a1.614,1.614,0,0,1,1.708-1.362h70.681a1.23,1.23,0,0,1,.135,0,.236.236,0,0,1,.058,0,.494.494,0,0,1,.063.007.353.353,0,0,1,.046.007,1.918,1.918,0,0,1,.314.075l.043.014a.319.319,0,0,1,.043.017l.087.036a.3.3,0,0,1,.048.024l.043.022.08.044a.774.774,0,0,1,.087.055c.022.014.043.029.065.046a.007.007,0,0,1,0,0l.044.031c.043.034.085.07.123.106a.453.453,0,0,1,.034.034.452.452,0,0,0,.034.034c.022.024.043.048.063.073a1.264,1.264,0,0,1,.292.8Z" transform="translate(-466.1 -588.425)" fill="#ee8914"/>
            <path id="Trazado_907515" data-name="Trazado 907515" d="M505.491,595.011H467.624a1.493,1.493,0,0,1-1.524-1.362v-3.877a1.493,1.493,0,0,1,1.524-1.362h33.215c.015.053.029.109.046.162a11.546,11.546,0,0,0,4.606,6.437Z" transform="translate(-466.1 -588.41)" fill="#ff7042"/>
            <g id="Grupo_1120536" data-name="Grupo 1120536" transform="translate(25.967 0.002)">
              <rect id="Rectángulo_410075" data-name="Rectángulo 410075" width="0.804" height="6.599" transform="translate(38.727)" fill="#ff7042"/>
              <rect id="Rectángulo_410076" data-name="Rectángulo 410076" width="0.804" height="6.599" transform="translate(36.01)" fill="#ff7042"/>
              <rect id="Rectángulo_410077" data-name="Rectángulo 410077" width="0.804" height="6.599" transform="translate(32.749)" fill="#ff7042"/>
              <rect id="Rectángulo_410078" data-name="Rectángulo 410078" width="0.804" height="6.599" transform="translate(27.749)" fill="#ff7042"/>
              <rect id="Rectángulo_410079" data-name="Rectángulo 410079" width="0.804" height="6.599" transform="translate(22.465)" fill="#ff7042"/>
              <rect id="Rectángulo_410080" data-name="Rectángulo 410080" width="0.804" height="6.599" transform="translate(14.361)" fill="#ff7042"/>
              <rect id="Rectángulo_410081" data-name="Rectángulo 410081" width="0.804" height="6.599" transform="translate(6.775)" fill="#ff7042"/>
              <rect id="Rectángulo_410082" data-name="Rectángulo 410082" width="0.804" height="6.599" fill="#ff7042"/>
              <rect id="Rectángulo_410083" data-name="Rectángulo 410083" width="0.804" height="6.599" transform="translate(41.316)" fill="#ff7042"/>
              <rect id="Rectángulo_410084" data-name="Rectángulo 410084" width="0.804" height="6.599" transform="translate(43.026)" fill="#ff7042"/>
              <rect id="Rectángulo_410085" data-name="Rectángulo 410085" width="0.804" height="6.599" transform="translate(44.678)" fill="#ff7042"/>
              <path id="Trazado_907516" data-name="Trazado 907516" d="M764.534,588.442v6.553a2.069,2.069,0,0,1-.3.024h-.5v-6.6h.5a1.777,1.777,0,0,1,.3.024Z" transform="translate(-717.81 -588.42)" fill="#ff7042"/>
              <path id="Trazado_907517" data-name="Trazado 907517" d="M769.162,589.356v5.331a1.7,1.7,0,0,1-.8.539V588.82A1.7,1.7,0,0,1,769.162,589.356Z" transform="translate(-721.322 -588.723)" fill="#ff7042"/>
            </g>
          </g>
          <g id="Grupo_1120539" data-name="Grupo 1120539" transform="translate(3.652 52.397)">
            <path id="Trazado_907518" data-name="Trazado 907518" d="M555.334,563.215v3.727a1.278,1.278,0,0,1-.292.8,1.7,1.7,0,0,1-.8.539,1.96,1.96,0,0,1-.312.075,2.078,2.078,0,0,1-.3.024H482.945a1.953,1.953,0,0,1-.787-.162,1.463,1.463,0,0,1-.913-1.135.6.6,0,0,1,0-.065v-3.877a1.614,1.614,0,0,1,1.708-1.362h70.681a1.777,1.777,0,0,1,.3.024,1.834,1.834,0,0,1,.312.075,1.7,1.7,0,0,1,.8.536,1.264,1.264,0,0,1,.292.8Z" transform="translate(-481.235 -561.775)" fill="#ee8914"/>
            <path id="Trazado_907519" data-name="Trazado 907519" d="M520.611,568.361H482.744a1.583,1.583,0,0,1-.7-.162,1.445,1.445,0,0,1-.816-1.135.6.6,0,0,1,0-.065v-3.877a1.494,1.494,0,0,1,1.524-1.362h33.218a11.6,11.6,0,0,0,4.418,6.437c.077.056.155.109.232.162Z" transform="translate(-481.22 -561.76)" fill="#ff7042"/>
            <g id="Grupo_1120538" data-name="Grupo 1120538" transform="translate(25.967 0.002)">
              <rect id="Rectángulo_410086" data-name="Rectángulo 410086" width="0.804" height="6.599" transform="translate(38.729)" fill="#ff7042"/>
              <rect id="Rectángulo_410087" data-name="Rectángulo 410087" width="0.804" height="6.599" transform="translate(36.01)" fill="#ff7042"/>
              <rect id="Rectángulo_410088" data-name="Rectángulo 410088" width="0.804" height="6.599" transform="translate(32.749)" fill="#ff7042"/>
              <rect id="Rectángulo_410089" data-name="Rectángulo 410089" width="0.804" height="6.599" transform="translate(27.749)" fill="#ff7042"/>
              <rect id="Rectángulo_410090" data-name="Rectángulo 410090" width="0.804" height="6.599" transform="translate(22.465)" fill="#ff7042"/>
              <rect id="Rectángulo_410091" data-name="Rectángulo 410091" width="0.804" height="6.599" transform="translate(14.361)" fill="#ff7042"/>
              <rect id="Rectángulo_410092" data-name="Rectángulo 410092" width="0.804" height="6.599" transform="translate(6.775)" fill="#ff7042"/>
              <rect id="Rectángulo_410093" data-name="Rectángulo 410093" width="0.804" height="6.599" fill="#ff7042"/>
              <rect id="Rectángulo_410094" data-name="Rectángulo 410094" width="0.804" height="6.599" transform="translate(41.316)" fill="#ff7042"/>
              <rect id="Rectángulo_410095" data-name="Rectángulo 410095" width="0.804" height="6.599" transform="translate(43.026)" fill="#ff7042"/>
              <rect id="Rectángulo_410096" data-name="Rectángulo 410096" width="0.804" height="6.599" transform="translate(44.678)" fill="#ff7042"/>
              <path id="Trazado_907520" data-name="Trazado 907520" d="M779.654,561.794v6.553a2.061,2.061,0,0,1-.3.022h-.5v-6.6h.5a2.07,2.07,0,0,1,.3.022Z" transform="translate(-732.93 -561.77)" fill="#ff7042"/>
              <path id="Trazado_907521" data-name="Trazado 907521" d="M784.282,562.709v5.331a1.711,1.711,0,0,1-.8.536V562.17A1.691,1.691,0,0,1,784.282,562.709Z" transform="translate(-736.442 -562.073)" fill="#ff7042"/>
            </g>
          </g>
          <g id="Grupo_1120541" data-name="Grupo 1120541" transform="translate(5.345 45.799)">
            <path id="Trazado_907522" data-name="Trazado 907522" d="M562.337,535.887v3.727a1.278,1.278,0,0,1-.292.8,1.7,1.7,0,0,1-.8.539,1.884,1.884,0,0,1-.312.075,2.062,2.062,0,0,1-.3.022H489.948a1.614,1.614,0,0,1-1.708-1.362v-3.877a1.577,1.577,0,0,1,1.507-1.353,1.853,1.853,0,0,1,.2-.01h70.681a1.77,1.77,0,0,1,.3.024,1.831,1.831,0,0,1,.312.072,1.7,1.7,0,0,1,.8.536,1.264,1.264,0,0,1,.292.8Z" transform="translate(-488.238 -534.448)" fill="#ee8914"/>
            <path id="Trazado_907523" data-name="Trazado 907523" d="M527.621,541.041H489.754a1.493,1.493,0,0,1-1.524-1.362V535.8a1.483,1.483,0,0,1,1.345-1.353,1.462,1.462,0,0,1,.181-.01h33.218s0,.007,0,.01a11.561,11.561,0,0,0,4.647,6.589Z" transform="translate(-488.23 -534.44)" fill="#ff7042"/>
            <g id="Grupo_1120540" data-name="Grupo 1120540" transform="translate(25.967 0.002)">
              <rect id="Rectángulo_410097" data-name="Rectángulo 410097" width="0.804" height="6.599" transform="translate(38.729)" fill="#ff7042"/>
              <rect id="Rectángulo_410098" data-name="Rectángulo 410098" width="0.804" height="6.599" transform="translate(36.01)" fill="#ff7042"/>
              <rect id="Rectángulo_410099" data-name="Rectángulo 410099" width="0.804" height="6.599" transform="translate(32.749)" fill="#ff7042"/>
              <rect id="Rectángulo_410100" data-name="Rectángulo 410100" width="0.804" height="6.599" transform="translate(27.749)" fill="#ff7042"/>
              <rect id="Rectángulo_410101" data-name="Rectángulo 410101" width="0.804" height="6.599" transform="translate(22.465)" fill="#ff7042"/>
              <rect id="Rectángulo_410102" data-name="Rectángulo 410102" width="0.804" height="6.599" transform="translate(14.361)" fill="#ff7042"/>
              <rect id="Rectángulo_410103" data-name="Rectángulo 410103" width="0.804" height="6.599" transform="translate(6.775)" fill="#ff7042"/>
              <rect id="Rectángulo_410104" data-name="Rectángulo 410104" width="0.804" height="6.599" fill="#ff7042"/>
              <rect id="Rectángulo_410105" data-name="Rectángulo 410105" width="0.804" height="6.599" transform="translate(41.316)" fill="#ff7042"/>
              <rect id="Rectángulo_410106" data-name="Rectángulo 410106" width="0.804" height="6.599" transform="translate(43.026)" fill="#ff7042"/>
              <rect id="Rectángulo_410107" data-name="Rectángulo 410107" width="0.804" height="6.599" transform="translate(44.678)" fill="#ff7042"/>
              <path id="Trazado_907524" data-name="Trazado 907524" d="M786.664,534.482v6.553a2.068,2.068,0,0,1-.3.024h-.5v-6.6h.5a1.777,1.777,0,0,1,.3.024Z" transform="translate(-739.94 -534.458)" fill="#ff7042"/>
              <path id="Trazado_907525" data-name="Trazado 907525" d="M791.292,535.389v5.331a1.7,1.7,0,0,1-.8.536V534.85A1.691,1.691,0,0,1,791.292,535.389Z" transform="translate(-743.452 -534.753)" fill="#ff7042"/>
            </g>
          </g>
          <g id="Grupo_1120543" data-name="Grupo 1120543" transform="translate(0.147 39.208)">
            <path id="Trazado_907526" data-name="Trazado 907526" d="M540.819,508.592v3.727a1.278,1.278,0,0,1-.292.8,1.7,1.7,0,0,1-.8.536,1.918,1.918,0,0,1-.314.075c-.034,0-.065.01-.1.012a.439.439,0,0,0-.056,0,.423.423,0,0,0-.056,0H468.428a1.614,1.614,0,0,1-1.708-1.362v-3.877a.51.51,0,0,1,0-.06,1.552,1.552,0,0,1,1.283-1.258.415.415,0,0,1,.053-.01,2.042,2.042,0,0,1,.37-.034h70.681c.053,0,.1,0,.152,0l.068.007h0c.027,0,.053.007.08.012a1.92,1.92,0,0,1,.314.075,1.7,1.7,0,0,1,.8.536,1.264,1.264,0,0,1,.292.8Z" transform="translate(-466.718 -507.15)" fill="#ee8914"/>
            <path id="Trazado_907527" data-name="Trazado 907527" d="M506.1,513.779H468.234a1.493,1.493,0,0,1-1.524-1.362V508.54a.5.5,0,0,1,0-.06,1.475,1.475,0,0,1,1.183-1.266.628.628,0,0,1,.065-.012,1.66,1.66,0,0,1,.271-.022h33.218a.43.43,0,0,1,.012.046,11.558,11.558,0,0,0,4.623,6.541l.014.01Z" transform="translate(-466.71 -507.173)" fill="#ff7042"/>
            <g id="Grupo_1120542" data-name="Grupo 1120542" transform="translate(25.967 0.007)">
              <rect id="Rectángulo_410108" data-name="Rectángulo 410108" width="0.804" height="6.599" transform="translate(38.729 0)" fill="#ff7042"/>
              <rect id="Rectángulo_410109" data-name="Rectángulo 410109" width="0.804" height="6.599" transform="translate(36.01 0)" fill="#ff7042"/>
              <rect id="Rectángulo_410110" data-name="Rectángulo 410110" width="0.804" height="6.599" transform="translate(32.749 0)" fill="#ff7042"/>
              <rect id="Rectángulo_410111" data-name="Rectángulo 410111" width="0.804" height="6.599" transform="translate(27.752 0)" fill="#ff7042"/>
              <rect id="Rectángulo_410112" data-name="Rectángulo 410112" width="0.804" height="6.599" transform="translate(22.465 0)" fill="#ff7042"/>
              <rect id="Rectángulo_410113" data-name="Rectángulo 410113" width="0.804" height="6.599" transform="translate(14.361 0)" fill="#ff7042"/>
              <rect id="Rectángulo_410114" data-name="Rectángulo 410114" width="0.804" height="6.599" transform="translate(6.775 0)" fill="#ff7042"/>
              <rect id="Rectángulo_410115" data-name="Rectángulo 410115" width="0.804" height="6.599" transform="translate(0 0)" fill="#ff7042"/>
              <rect id="Rectángulo_410116" data-name="Rectángulo 410116" width="0.804" height="6.599" transform="translate(41.319 0)" fill="#ff7042"/>
              <rect id="Rectángulo_410117" data-name="Rectángulo 410117" width="0.804" height="6.599" transform="translate(43.029 0)" fill="#ff7042"/>
              <rect id="Rectángulo_410118" data-name="Rectángulo 410118" width="0.804" height="6.599" transform="translate(44.678 0)" fill="#ff7042"/>
              <path id="Trazado_907528" data-name="Trazado 907528" d="M765.144,507.2v6.553a2.06,2.06,0,0,1-.3.024h-.5v-6.6h.5a1.774,1.774,0,0,1,.3.024Z" transform="translate(-718.42 -507.18)" fill="#ff7042"/>
              <path id="Trazado_907529" data-name="Trazado 907529" d="M769.772,508.109v5.331a1.7,1.7,0,0,1-.8.536V507.57A1.691,1.691,0,0,1,769.772,508.109Z" transform="translate(-721.932 -507.476)" fill="#ff7042"/>
            </g>
          </g>
          <g id="Grupo_1120545" data-name="Grupo 1120545" transform="translate(0 32.662)">
            <path id="Trazado_907530" data-name="Trazado 907530" d="M540.2,481.487v3.727a1.278,1.278,0,0,1-.292.8,1.7,1.7,0,0,1-.8.536,2.137,2.137,0,0,1-.244.063h0a.571.571,0,0,1-.068.012,2.068,2.068,0,0,1-.3.024H467.81c-.075,0-.15,0-.222-.012a.476.476,0,0,1-.085-.012,1.555,1.555,0,0,1-1.4-1.338v-3.877a1.614,1.614,0,0,1,1.708-1.362h70.681a1.244,1.244,0,0,1,.135,0,.476.476,0,0,1,.058,0,.5.5,0,0,1,.063.007.361.361,0,0,1,.046.007,1.92,1.92,0,0,1,.314.075l.043.014a.325.325,0,0,1,.044.017l.087.034.092.043.08.043a.757.757,0,0,1,.087.056c.022.014.044.029.065.046a.008.008,0,0,1,0,0l.044.031c.043.034.084.07.123.106a.453.453,0,0,1,.034.034l.034.034c.022.024.043.048.063.072a1.264,1.264,0,0,1,.292.8Z" transform="translate(-466.1 -480.05)" fill="#ee8914"/>
            <path id="Trazado_907531" data-name="Trazado 907531" d="M505.491,486.649H467.535a.617.617,0,0,1-.1-.01,1.482,1.482,0,0,1-1.338-1.35v-3.877a1.493,1.493,0,0,1,1.524-1.362h33.215c.015.053.029.109.046.162a11.558,11.558,0,0,0,4.536,6.388c.022.017.046.031.068.046Z" transform="translate(-466.1 -480.05)" fill="#ff7042"/>
            <g id="Grupo_1120544" data-name="Grupo 1120544" transform="translate(25.967)">
              <rect id="Rectángulo_410119" data-name="Rectángulo 410119" width="0.804" height="6.599" transform="translate(38.727)" fill="#ff7042"/>
              <rect id="Rectángulo_410120" data-name="Rectángulo 410120" width="0.804" height="6.599" transform="translate(36.01)" fill="#ff7042"/>
              <rect id="Rectángulo_410121" data-name="Rectángulo 410121" width="0.804" height="6.599" transform="translate(32.749)" fill="#ff7042"/>
              <rect id="Rectángulo_410122" data-name="Rectángulo 410122" width="0.804" height="6.599" transform="translate(27.749)" fill="#ff7042"/>
              <rect id="Rectángulo_410123" data-name="Rectángulo 410123" width="0.804" height="6.599" transform="translate(22.465)" fill="#ff7042"/>
              <rect id="Rectángulo_410124" data-name="Rectángulo 410124" width="0.804" height="6.599" transform="translate(14.361)" fill="#ff7042"/>
              <rect id="Rectángulo_410125" data-name="Rectángulo 410125" width="0.804" height="6.599" transform="translate(6.775)" fill="#ff7042"/>
              <rect id="Rectángulo_410126" data-name="Rectángulo 410126" width="0.804" height="6.599" fill="#ff7042"/>
              <rect id="Rectángulo_410127" data-name="Rectángulo 410127" width="0.804" height="6.599" transform="translate(41.316)" fill="#ff7042"/>
              <rect id="Rectángulo_410128" data-name="Rectángulo 410128" width="0.804" height="6.599" transform="translate(43.026)" fill="#ff7042"/>
              <rect id="Rectángulo_410129" data-name="Rectángulo 410129" width="0.804" height="6.599" transform="translate(44.678)" fill="#ff7042"/>
              <path id="Trazado_907532" data-name="Trazado 907532" d="M764.534,480.074v6.553a2.062,2.062,0,0,1-.3.022h-.5v-6.6h.5A1.777,1.777,0,0,1,764.534,480.074Z" transform="translate(-717.81 -480.05)" fill="#ff7042"/>
              <path id="Trazado_907533" data-name="Trazado 907533" d="M769.162,480.989v5.331a1.7,1.7,0,0,1-.8.536V480.45a1.687,1.687,0,0,1,.8.536Z" transform="translate(-721.322 -480.353)" fill="#ff7042"/>
            </g>
          </g>
          <g id="Grupo_1120547" data-name="Grupo 1120547" transform="translate(3.652 26.223)">
            <path id="Trazado_907534" data-name="Trazado 907534" d="M555.334,454.83v3.727a1.278,1.278,0,0,1-.292.8,1.7,1.7,0,0,1-.8.536,1.953,1.953,0,0,1-.312.075,2.067,2.067,0,0,1-.3.022H482.945a1.952,1.952,0,0,1-.787-.162,1.463,1.463,0,0,1-.913-1.135.6.6,0,0,1,0-.065v-3.877a1.614,1.614,0,0,1,1.708-1.362h70.681a2.061,2.061,0,0,1,.3.022,1.832,1.832,0,0,1,.312.075,1.7,1.7,0,0,1,.8.536,1.264,1.264,0,0,1,.292.8Z" transform="translate(-481.235 -453.39)" fill="#ee8914"/>
            <path id="Trazado_907535" data-name="Trazado 907535" d="M520.611,459.991H482.744a1.583,1.583,0,0,1-.7-.162,1.445,1.445,0,0,1-.816-1.135.6.6,0,0,1,0-.065v-3.877a1.494,1.494,0,0,1,1.524-1.362h33.218a11.6,11.6,0,0,0,4.418,6.437c.077.056.155.109.232.162Z" transform="translate(-481.22 -453.39)" fill="#ff7042"/>
            <g id="Grupo_1120546" data-name="Grupo 1120546" transform="translate(25.967 0.005)">
              <rect id="Rectángulo_410130" data-name="Rectángulo 410130" width="0.804" height="6.599" transform="translate(38.729)" fill="#ff7042"/>
              <rect id="Rectángulo_410131" data-name="Rectángulo 410131" width="0.804" height="6.599" transform="translate(36.01)" fill="#ff7042"/>
              <rect id="Rectángulo_410132" data-name="Rectángulo 410132" width="0.804" height="6.599" transform="translate(32.749)" fill="#ff7042"/>
              <rect id="Rectángulo_410133" data-name="Rectángulo 410133" width="0.804" height="6.599" transform="translate(27.749)" fill="#ff7042"/>
              <rect id="Rectángulo_410134" data-name="Rectángulo 410134" width="0.804" height="6.599" transform="translate(22.465)" fill="#ff7042"/>
              <rect id="Rectángulo_410135" data-name="Rectángulo 410135" width="0.804" height="6.599" transform="translate(14.361)" fill="#ff7042"/>
              <rect id="Rectángulo_410136" data-name="Rectángulo 410136" width="0.804" height="6.599" transform="translate(6.775)" fill="#ff7042"/>
              <rect id="Rectángulo_410137" data-name="Rectángulo 410137" width="0.804" height="6.599" fill="#ff7042"/>
              <rect id="Rectángulo_410138" data-name="Rectángulo 410138" width="0.804" height="6.599" transform="translate(41.316)" fill="#ff7042"/>
              <rect id="Rectángulo_410139" data-name="Rectángulo 410139" width="0.804" height="6.599" transform="translate(43.026)" fill="#ff7042"/>
              <rect id="Rectángulo_410140" data-name="Rectángulo 410140" width="0.804" height="6.599" transform="translate(44.678)" fill="#ff7042"/>
              <path id="Trazado_907536" data-name="Trazado 907536" d="M779.654,453.432v6.553a2.068,2.068,0,0,1-.3.024h-.5v-6.6h.5A2.07,2.07,0,0,1,779.654,453.432Z" transform="translate(-732.93 -453.41)" fill="#ff7042"/>
              <path id="Trazado_907537" data-name="Trazado 907537" d="M784.282,454.339v5.331a1.711,1.711,0,0,1-.8.536V453.8a1.7,1.7,0,0,1,.8.536Z" transform="translate(-736.442 -453.706)" fill="#ff7042"/>
            </g>
          </g>
          <g id="Grupo_1120549" data-name="Grupo 1120549" transform="translate(9.427 19.624)">
            <path id="Trazado_907538" data-name="Trazado 907538" d="M579.229,427.517v3.727a1.278,1.278,0,0,1-.292.8,1.7,1.7,0,0,1-.8.536,1.924,1.924,0,0,1-.314.075,2.068,2.068,0,0,1-.3.024H506.838a1.614,1.614,0,0,1-1.708-1.362v-3.877a1.579,1.579,0,0,1,1.507-1.353,1.876,1.876,0,0,1,.2-.01h70.681a1.781,1.781,0,0,1,.3.024,1.92,1.92,0,0,1,.314.075,1.691,1.691,0,0,1,.8.539,1.264,1.264,0,0,1,.292.8Z" transform="translate(-505.13 -426.078)" fill="#ee8914"/>
            <path id="Trazado_907539" data-name="Trazado 907539" d="M544.521,432.671H506.654a1.493,1.493,0,0,1-1.524-1.362v-3.877a1.484,1.484,0,0,1,1.345-1.353,1.462,1.462,0,0,1,.181-.01h33.218s0,.007,0,.01a11.56,11.56,0,0,0,4.647,6.589Z" transform="translate(-505.13 -426.07)" fill="#ff7042"/>
            <g id="Grupo_1120548" data-name="Grupo 1120548" transform="translate(25.967 0.002)">
              <rect id="Rectángulo_410141" data-name="Rectángulo 410141" width="0.804" height="6.599" transform="translate(38.729 0.002)" fill="#ff7042"/>
              <rect id="Rectángulo_410142" data-name="Rectángulo 410142" width="0.804" height="6.599" transform="translate(36.01 0.002)" fill="#ff7042"/>
              <rect id="Rectángulo_410143" data-name="Rectángulo 410143" width="0.804" height="6.599" transform="translate(32.749 0.002)" fill="#ff7042"/>
              <rect id="Rectángulo_410144" data-name="Rectángulo 410144" width="0.804" height="6.599" transform="translate(27.752 0.002)" fill="#ff7042"/>
              <rect id="Rectángulo_410145" data-name="Rectángulo 410145" width="0.804" height="6.599" transform="translate(22.465 0.002)" fill="#ff7042"/>
              <rect id="Rectángulo_410146" data-name="Rectángulo 410146" width="0.804" height="6.599" transform="translate(14.361 0.002)" fill="#ff7042"/>
              <rect id="Rectángulo_410147" data-name="Rectángulo 410147" width="0.804" height="6.599" transform="translate(6.775 0.002)" fill="#ff7042"/>
              <rect id="Rectángulo_410148" data-name="Rectángulo 410148" width="0.804" height="6.599" transform="translate(0 0.002)" fill="#ff7042"/>
              <rect id="Rectángulo_410149" data-name="Rectángulo 410149" width="0.804" height="6.599" transform="translate(41.319 0.002)" fill="#ff7042"/>
              <rect id="Rectángulo_410150" data-name="Rectángulo 410150" width="0.804" height="6.599" transform="translate(43.029 0.002)" fill="#ff7042"/>
              <rect id="Rectángulo_410151" data-name="Rectángulo 410151" width="0.804" height="6.599" transform="translate(44.678 0.002)" fill="#ff7042"/>
              <path id="Trazado_907540" data-name="Trazado 907540" d="M803.564,426.1v6.553a2.07,2.07,0,0,1-.3.022h-.5v-6.6h.5A1.78,1.78,0,0,1,803.564,426.1Z" transform="translate(-756.84 -426.08)" fill="#ff7042"/>
              <path id="Trazado_907541" data-name="Trazado 907541" d="M808.192,427.019v5.331a1.7,1.7,0,0,1-.8.536V426.48A1.691,1.691,0,0,1,808.192,427.019Z" transform="translate(-760.352 -426.383)" fill="#ff7042"/>
            </g>
          </g>
          <g id="Grupo_1120551" data-name="Grupo 1120551" transform="translate(0.147 13.033)">
            <path id="Trazado_907542" data-name="Trazado 907542" d="M540.819,400.222v3.727a1.278,1.278,0,0,1-.292.8,1.7,1.7,0,0,1-.8.536,1.919,1.919,0,0,1-.314.075c-.034,0-.065.01-.1.012l-.08.007h-70.8a1.614,1.614,0,0,1-1.708-1.362v-3.877a1.614,1.614,0,0,1,1.708-1.362h70.681c.031,0,.06,0,.092,0a1.468,1.468,0,0,1,.21.022,1.916,1.916,0,0,1,.314.075,1.33,1.33,0,0,1,.147.056c.031.012.06.027.087.039a.01.01,0,0,1,.01,0c.029.014.058.029.087.046,0,0,.01,0,.014.007.027.014.051.029.077.046a1.5,1.5,0,0,1,.172.126c.017.014.034.027.048.041s0,0,.01.007l.029.027,0,0c.017.017.034.034.051.053s.046.051.068.077a1.264,1.264,0,0,1,.292.8Z" transform="translate(-466.718 -398.78)" fill="#ee8914"/>
            <path id="Trazado_907543" data-name="Trazado 907543" d="M506.1,405.4H468.234a1.493,1.493,0,0,1-1.524-1.362v-3.877a1.494,1.494,0,0,1,1.524-1.362h33.218q.018.076.043.152a11.546,11.546,0,0,0,4.592,6.437l.014.01Z" transform="translate(-466.71 -398.795)" fill="#ff7042"/>
            <g id="Grupo_1120550" data-name="Grupo 1120550" transform="translate(25.967 0.007)">
              <rect id="Rectángulo_410152" data-name="Rectángulo 410152" width="0.804" height="6.599" transform="translate(38.729)" fill="#ff7042"/>
              <rect id="Rectángulo_410153" data-name="Rectángulo 410153" width="0.804" height="6.599" transform="translate(36.01)" fill="#ff7042"/>
              <rect id="Rectángulo_410154" data-name="Rectángulo 410154" width="0.804" height="6.599" transform="translate(32.749)" fill="#ff7042"/>
              <rect id="Rectángulo_410155" data-name="Rectángulo 410155" width="0.804" height="6.599" transform="translate(27.752)" fill="#ff7042"/>
              <rect id="Rectángulo_410156" data-name="Rectángulo 410156" width="0.804" height="6.599" transform="translate(22.465)" fill="#ff7042"/>
              <rect id="Rectángulo_410157" data-name="Rectángulo 410157" width="0.804" height="6.599" transform="translate(14.361)" fill="#ff7042"/>
              <rect id="Rectángulo_410158" data-name="Rectángulo 410158" width="0.804" height="6.599" transform="translate(6.775)" fill="#ff7042"/>
              <rect id="Rectángulo_410159" data-name="Rectángulo 410159" width="0.804" height="6.599" fill="#ff7042"/>
              <rect id="Rectángulo_410160" data-name="Rectángulo 410160" width="0.804" height="6.599" transform="translate(41.319)" fill="#ff7042"/>
              <rect id="Rectángulo_410161" data-name="Rectángulo 410161" width="0.804" height="6.599" transform="translate(43.029)" fill="#ff7042"/>
              <rect id="Rectángulo_410162" data-name="Rectángulo 410162" width="0.804" height="6.599" transform="translate(44.678)" fill="#ff7042"/>
              <path id="Trazado_907544" data-name="Trazado 907544" d="M765.144,398.832v6.553a2.06,2.06,0,0,1-.3.024h-.5v-6.6h.5a1.778,1.778,0,0,1,.3.024Z" transform="translate(-718.42 -398.81)" fill="#ff7042"/>
              <path id="Trazado_907545" data-name="Trazado 907545" d="M769.772,399.739v5.331a1.7,1.7,0,0,1-.8.536V399.2A1.691,1.691,0,0,1,769.772,399.739Z" transform="translate(-721.932 -399.106)" fill="#ff7042"/>
            </g>
          </g>
          <g id="Grupo_1120553" data-name="Grupo 1120553" transform="translate(5.345 6.594)">
            <path id="Trazado_907546" data-name="Trazado 907546" d="M562.337,373.555v3.727a1.278,1.278,0,0,1-.292.8,1.7,1.7,0,0,1-.8.536,1.893,1.893,0,0,1-.312.075,2.069,2.069,0,0,1-.3.024H489.948a1.964,1.964,0,0,1-.763-.152,1.471,1.471,0,0,1-.94-1.15c0-.019,0-.039,0-.058v-3.877a1.579,1.579,0,0,1,1.507-1.353,1.846,1.846,0,0,1,.2-.01h70.681a1.776,1.776,0,0,1,.3.024,1.833,1.833,0,0,1,.312.075,1.691,1.691,0,0,1,.8.539,1.264,1.264,0,0,1,.292.8Z" transform="translate(-488.238 -372.12)" fill="#ee8914"/>
            <path id="Trazado_907547" data-name="Trazado 907547" d="M527.621,378.719H489.754a1.6,1.6,0,0,1-.681-.152,1.444,1.444,0,0,1-.838-1.15c0-.019,0-.039,0-.058v-3.877a1.483,1.483,0,0,1,1.345-1.353,1.468,1.468,0,0,1,.181-.01h33.218s0,.007,0,.01a11.573,11.573,0,0,0,4.43,6.437c.07.051.145.1.217.152Z" transform="translate(-488.23 -372.12)" fill="#ff7042"/>
            <g id="Grupo_1120552" data-name="Grupo 1120552" transform="translate(25.967)">
              <rect id="Rectángulo_410163" data-name="Rectángulo 410163" width="0.804" height="6.599" transform="translate(38.729)" fill="#ff7042"/>
              <rect id="Rectángulo_410164" data-name="Rectángulo 410164" width="0.804" height="6.599" transform="translate(36.01)" fill="#ff7042"/>
              <rect id="Rectángulo_410165" data-name="Rectángulo 410165" width="0.804" height="6.599" transform="translate(32.749)" fill="#ff7042"/>
              <rect id="Rectángulo_410166" data-name="Rectángulo 410166" width="0.804" height="6.599" transform="translate(27.749)" fill="#ff7042"/>
              <rect id="Rectángulo_410167" data-name="Rectángulo 410167" width="0.804" height="6.599" transform="translate(22.465)" fill="#ff7042"/>
              <rect id="Rectángulo_410168" data-name="Rectángulo 410168" width="0.804" height="6.599" transform="translate(14.361)" fill="#ff7042"/>
              <rect id="Rectángulo_410169" data-name="Rectángulo 410169" width="0.804" height="6.599" transform="translate(6.775)" fill="#ff7042"/>
              <rect id="Rectángulo_410170" data-name="Rectángulo 410170" width="0.804" height="6.599" fill="#ff7042"/>
              <rect id="Rectángulo_410171" data-name="Rectángulo 410171" width="0.804" height="6.599" transform="translate(41.316)" fill="#ff7042"/>
              <rect id="Rectángulo_410172" data-name="Rectángulo 410172" width="0.804" height="6.599" transform="translate(43.026)" fill="#ff7042"/>
              <rect id="Rectángulo_410173" data-name="Rectángulo 410173" width="0.804" height="6.599" transform="translate(44.678)" fill="#ff7042"/>
              <path id="Trazado_907548" data-name="Trazado 907548" d="M786.664,372.142v6.553a2.068,2.068,0,0,1-.3.024h-.5v-6.6h.5a1.777,1.777,0,0,1,.3.024Z" transform="translate(-739.94 -372.12)" fill="#ff7042"/>
              <path id="Trazado_907549" data-name="Trazado 907549" d="M791.292,373.049v5.331a1.682,1.682,0,0,1-.8.536V372.51A1.691,1.691,0,0,1,791.292,373.049Z" transform="translate(-743.452 -372.416)" fill="#ff7042"/>
            </g>
          </g>
          <g id="Grupo_1120555" data-name="Grupo 1120555" transform="translate(7.557)">
            <path id="Trazado_907550" data-name="Trazado 907550" d="M571.489,346.262v3.727a1.278,1.278,0,0,1-.292.8,1.7,1.7,0,0,1-.8.536,1.921,1.921,0,0,1-.314.075c-.034,0-.065.01-.1.012a.472.472,0,0,0-.056,0,.446.446,0,0,0-.056,0H499.1a1.614,1.614,0,0,1-1.708-1.362v-3.877a1.614,1.614,0,0,1,1.708-1.362h70.681a2.064,2.064,0,0,1,.3.022,1.923,1.923,0,0,1,.314.075,1.692,1.692,0,0,1,.8.539,1.264,1.264,0,0,1,.292.8Z" transform="translate(-497.39 -344.82)" fill="#ee8914"/>
            <path id="Trazado_907551" data-name="Trazado 907551" d="M536.781,351.431H498.914a1.493,1.493,0,0,1-1.524-1.362v-3.877a1.494,1.494,0,0,1,1.524-1.362h33.218a11.57,11.57,0,0,0,4.635,6.589l.015.01Z" transform="translate(-497.39 -344.828)" fill="#ff7042"/>
            <g id="Grupo_1120554" data-name="Grupo 1120554" transform="translate(25.967 0.005)">
              <rect id="Rectángulo_410174" data-name="Rectángulo 410174" width="0.804" height="6.599" transform="translate(38.727)" fill="#ff7042"/>
              <rect id="Rectángulo_410175" data-name="Rectángulo 410175" width="0.804" height="6.599" transform="translate(36.01)" fill="#ff7042"/>
              <rect id="Rectángulo_410176" data-name="Rectángulo 410176" width="0.804" height="6.599" transform="translate(32.747)" fill="#ff7042"/>
              <rect id="Rectángulo_410177" data-name="Rectángulo 410177" width="0.804" height="6.599" transform="translate(27.749)" fill="#ff7042"/>
              <rect id="Rectángulo_410178" data-name="Rectángulo 410178" width="0.804" height="6.599" transform="translate(22.465)" fill="#ff7042"/>
              <rect id="Rectángulo_410179" data-name="Rectángulo 410179" width="0.804" height="6.599" transform="translate(14.361)" fill="#ff7042"/>
              <rect id="Rectángulo_410180" data-name="Rectángulo 410180" width="0.804" height="6.599" transform="translate(6.775)" fill="#ff7042"/>
              <rect id="Rectángulo_410181" data-name="Rectángulo 410181" width="0.804" height="6.599" fill="#ff7042"/>
              <rect id="Rectángulo_410182" data-name="Rectángulo 410182" width="0.804" height="6.599" transform="translate(41.316)" fill="#ff7042"/>
              <rect id="Rectángulo_410183" data-name="Rectángulo 410183" width="0.804" height="6.599" transform="translate(43.026)" fill="#ff7042"/>
              <rect id="Rectángulo_410184" data-name="Rectángulo 410184" width="0.804" height="6.599" transform="translate(44.678)" fill="#ff7042"/>
              <path id="Trazado_907552" data-name="Trazado 907552" d="M795.824,344.872v6.553a2.063,2.063,0,0,1-.3.024h-.5v-6.6h.5A2.064,2.064,0,0,1,795.824,344.872Z" transform="translate(-749.1 -344.848)" fill="#ff7042"/>
              <path id="Trazado_907553" data-name="Trazado 907553" d="M800.452,345.779v5.331a1.681,1.681,0,0,1-.8.536V345.24A1.691,1.691,0,0,1,800.452,345.779Z" transform="translate(-752.612 -345.143)" fill="#ff7042"/>
            </g>
          </g>
        </g>
        <g id="Grupo_1120557" data-name="Grupo 1120557" transform="translate(79.509 88.151)">
          <path id="Trazado_907554" data-name="Trazado 907554" d="M341.32,398.562a33.592,33.592,0,1,1,33.592,33.592A33.593,33.593,0,0,1,341.32,398.562Z" transform="translate(-338.39 -364.97)" fill="#ff4a1e"/>
          <path id="Trazado_907555" data-name="Trazado 907555" d="M329.19,398.562a33.592,33.592,0,1,1,33.592,33.592A33.593,33.593,0,0,1,329.19,398.562Z" transform="translate(-329.19 -364.97)" fill="url(#linear-gradient)"/>
          <path id="Trazado_907556" data-name="Trazado 907556" d="M372.157,440.183a30.61,30.61,0,1,1,21.641-8.966A30.4,30.4,0,0,1,372.157,440.183Zm0-59.387a28.781,28.781,0,1,0,28.781,28.781A28.813,28.813,0,0,0,372.157,380.8Z" transform="translate(-338.565 -375.589)" fill="#ff4a1e"/>
          <path id="Trazado_907557" data-name="Trazado 907557" d="M430.405,443.588a5.1,5.1,0,0,0-.072-1.778,3.683,3.683,0,0,0-.751-1.476,6.938,6.938,0,0,0-1.5-1.326,18.422,18.422,0,0,0-2.328-1.3,47.979,47.979,0,0,1-4.3-2.362,15.239,15.239,0,0,1-3.215-2.616,8.961,8.961,0,0,1-1.9-3.191,10.114,10.114,0,0,1,.819-7.649,8.479,8.479,0,0,1,2.372-2.635,10.657,10.657,0,0,1,3.4-1.618,14.116,14.116,0,0,1,4.239-.488l.6-5.046,4.06.483-.606,5.116a12.709,12.709,0,0,1,3.821,1.626,9.6,9.6,0,0,1,4.277,6.137,12.814,12.814,0,0,1,.167,4.335l-7.333-.87a6.218,6.218,0,0,0-.754-4.381,4.325,4.325,0,0,0-3.2-1.8,5.515,5.515,0,0,0-2,.085,3.739,3.739,0,0,0-1.461.71,3.492,3.492,0,0,0-.942,1.215,5.114,5.114,0,0,0-.447,1.6,4.642,4.642,0,0,0,.068,1.609,3.468,3.468,0,0,0,.72,1.413,7.022,7.022,0,0,0,1.514,1.326,23.52,23.52,0,0,0,2.42,1.4q2.351,1.21,4.256,2.418a15.454,15.454,0,0,1,3.2,2.637,8.651,8.651,0,0,1,2.227,7.258,9.271,9.271,0,0,1-1.164,3.637,8.412,8.412,0,0,1-2.381,2.611,10.225,10.225,0,0,1-3.415,1.555,15.19,15.19,0,0,1-4.261.449l-.556,4.691-4.036-.478.553-4.669a17,17,0,0,1-3.964-1.4,10.873,10.873,0,0,1-3.249-2.454,9.712,9.712,0,0,1-2.039-3.649,11.851,11.851,0,0,1-.338-4.963l7.333.87a7.281,7.281,0,0,0,.138,2.848,4.735,4.735,0,0,0,1.043,1.942,4.557,4.557,0,0,0,1.676,1.155,7.8,7.8,0,0,0,2.012.512,6.56,6.56,0,0,0,2.13-.058,4.355,4.355,0,0,0,1.611-.669,3.472,3.472,0,0,0,1.065-1.176,4.283,4.283,0,0,0,.5-1.58Z" transform="translate(-392.599 -400.717)" fill="#ff4a1e"/>
        </g>
        <g id="Grupo_1120558" data-name="Grupo 1120558">
          <path id="Trazado_907558" data-name="Trazado 907558" d="M317.76,23.251c.1-.4-8.777,4.012-9.226,4.512-4.164,4.618-2.976,10.644-.594,10.7,1.529.036,1.232,2.577,1.232,2.577l17.021-7.2s-2.048-11.951-8.432-10.591Z" transform="translate(-231.923 -17.554)" fill="#ff4a1e"/>
          <path id="Trazado_907559" data-name="Trazado 907559" d="M289.52,6.63s.609-6.63-6.8-6.63a8.705,8.705,0,0,1,3.406,1.826S281.4-.947,276.26,3.314s-1.947,14.951-3.509,16.982-7.652,2.435-6.908,9S285.168,44.074,283.975,49.5c0,0,7.282-10.7,2.075-15.588,0,0,2.538,2.391,2.8,5.232,0,0,.688-5.548-2.84-7.323-3.123-1.57-5.683-7.314-5.413-8.34s8.929-16.859,8.929-16.859Z" transform="translate(-201.587)" fill="#ff4a1e"/>
          <path id="Trazado_907560" data-name="Trazado 907560" d="M295.82,140a6.577,6.577,0,0,0-11.649-2.715A5.971,5.971,0,0,0,283,140.176c-.77,6.244,9.212,31.677,10.642,33.978,2.6,4.193,17.929,18.564,17.929,18.564l2.826-1.712s-10.871-18.4-12.555-20.127c-1.947-1.993-3.852-20.436-6.019-30.88Z" transform="translate(-214.613 -102.179)" fill="#f2ad8d"/>
          <path id="Trazado_907561" data-name="Trazado 907561" d="M396.98,359.828s4.123-2.708,5.683-2.534,6.077,1.473,6.132,2.138-5.033,1.077-5.374,1.442-3.8,2.669-5.048,1.947-1.394-2.993-1.394-2.993Z" transform="translate(-301.098 -270.991)" fill="#f2ad8d"/>
          <path id="Trazado_907562" data-name="Trazado 907562" d="M146.2,329.126l-3.683-.541a43.541,43.541,0,0,1-14.229-28.2,32.724,32.724,0,0,1-.087-5.678.983.983,0,0,0-.128-.626s0,0,0,0c-.4-.606-1.384-2.13-2.717-4.294-1.316-2.133-3.57-6.164-6.048-10.69-4.466-8.149-9.664-17.893-11.446-21-5.681-9.893-2.942-16.545-2.942-16.545s15.849-1.568,20.194-5.367l1.565,2.41s3.435,15.2,3.273,15.274q.254.775.514,1.58a264.535,264.535,0,0,1,7.528,27.336c.956,4.792,1.461,8.966,1.188,11.811a20.588,20.588,0,0,0,.28,4.326c1.534,10.912,6.746,30.213,6.746,30.213Z" transform="translate(-79.077 -179.135)" fill="#eaeaea"/>
          <path id="Trazado_907563" data-name="Trazado 907563" d="M261.383,613.45H246.017a8.447,8.447,0,0,1,.435-4.118c.768-1.705,1.865-1.758.14-4.432.976,1,4.116,1.42,6.335,1.123.273.442,1.756,3.4,2.664,4.055C256.6,610.8,261.074,610.542,261.383,613.45Z" transform="translate(-186.533 -458.799)" fill="#4f327a"/>
          <path id="Trazado_907564" data-name="Trazado 907564" d="M130.459,255.444c-1.343,7.4-4.512,19.723-11.154,23.643-4.466-8.149-9.664-17.893-11.446-21-5.681-9.893-2.942-16.545-2.942-16.545s15.849-1.568,20.194-5.367l1.565,2.41s3.435,15.2,3.273,15.274q.254.775.514,1.58Z" transform="translate(-79.077 -179.135)" fill="#c8d1ce"/>
          <path id="Trazado_907565" data-name="Trazado 907565" d="M303.03,142.47a16.4,16.4,0,0,1,3.164,4.966s-3.466,9.953-11.564,11.2C294.63,158.636,301.038,142.465,303.03,142.47Z" transform="translate(-223.469 -108.059)" fill="#56309e"/>
          <path id="Trazado_907566" data-name="Trazado 907566" d="M47,232.617l.053-2.874c-5.727.722-19.743-6.843-19.743-6.843s-5.99,3.985-6.811,15.361c-.4,5.553-2.932,29.042-3.212,36.053-.1,2.541-.135,4.355-.147,5.082v.007A.985.985,0,0,1,16.9,280a32.978,32.978,0,0,0-3.1,4.756C5.055,301.006,9.623,323.1,9.623,323.1l2.029-.517s7.388-22.9,12.217-32.8a20.753,20.753,0,0,1,2.186-3.744c1.816-2.205,3.729-5.949,5.618-10.456a273.388,273.388,0,0,0,9.5-28.469c.174.031,5.826-14.492,5.826-14.492Z" transform="translate(-6.394 -169.063)" fill="#eaeaea"/>
          <path id="Trazado_907567" data-name="Trazado 907567" d="M290.466,114.449c-9.359-2.147-3.381-15.3-2.838-15.069,1.3-.263,4.145-2.541,6.693-6.99l.345.3,5.748,5.041s-1.328,1.961-2.447,3.881c-.874,1.5-1.616,2.985-1.5,3.493.464.365-3.507,9.92-6,9.347Z" transform="translate(-216.353 -70.075)" fill="#ffb792"/>
          <path id="Trazado_907568" data-name="Trazado 907568" d="M329.654,98.671s-1.328,1.959-2.447,3.881c-3.575-2.2-3.577-6.628-3.3-8.922l5.751,5.041Z" transform="translate(-245.593 -71.016)" fill="#f2ad8d"/>
          <path id="Trazado_907569" data-name="Trazado 907569" d="M329.061,68.922s-8.678-4.831-5.589-10.188S327.525,49.143,333.2,52s5.56,5.517,4.963,7.557S331.4,70.041,329.061,68.922Z" transform="translate(-244.84 -38.743)" fill="#ffb792"/>
          <path id="Trazado_907570" data-name="Trazado 907570" d="M336.761,54.149c-.4-2.379-1.606-2.606-2.449-2.447a6.939,6.939,0,0,0-8.441-3.232,11.818,11.818,0,0,1-6.84,4.108s1.007,1.874,5.157,3.034a7.093,7.093,0,0,0,4.094-.326,23.116,23.116,0,0,1-5.889,2.22c5.468.5,10.671-4.5,11.212-5.033a7.784,7.784,0,0,1,.43,3.582c-.36,1.611-1.79,4.531-.918,4.908,0,0,4.244-3.244,3.647-6.814Z" transform="translate(-241.975 -36.461)" fill="#ff4a1e"/>
          <path id="Trazado_907571" data-name="Trazado 907571" d="M15.453,613.1H.087a8.447,8.447,0,0,1,.435-4.118c.768-1.705,1.973-2.481,1.686-4.543A5.539,5.539,0,0,0,7,606.273a16.853,16.853,0,0,0,2.666,3.456c1,.722,5.483.464,5.792,3.372Z" transform="translate(-0.003 -458.45)" fill="#4f327a"/>
          <path id="Trazado_907572" data-name="Trazado 907572" d="M140.891,138.848a37.4,37.4,0,0,1-7.591,1.377c-4.041.442-8.212.744-10.4,1.613a2.351,2.351,0,0,0-1.5,1.212c-.947,2.848-5.12,7.243-5.12,7.243-26.757-1.217-29.694-12.41-29.694-12.41,18-20.933,48.482-26.991,48.482-26.991s2.176-.923,7.659,3.435c3.659,2.91,3.176,4.026,3.176,4.026s.8,18.465-5.019,20.5Z" transform="translate(-65.677 -84.048)" fill="#7b1fa2"/>
          <path id="Trazado_907573" data-name="Trazado 907573" d="M247.055,164.229c-4.041.442-8.212.744-10.4,1.613a42.6,42.6,0,0,1,5.405-23.383s4.108,16.716,4.992,21.767Z" transform="translate(-179.432 -108.052)" fill="#4a2c76"/>
          <path id="Trazado_907574" data-name="Trazado 907574" d="M262.709,131.77s-10.127,1-10.939,7.579,9.71,33.379,11.214,35.807c2.744,4.418,18.895,19.561,18.895,19.561l2.978-1.8S273.4,173.518,271.626,171.7c-2.785-2.85-5.49-37.657-8.917-39.935Z" transform="translate(-190.927 -99.944)" fill="#ffb792"/>
          <path id="Trazado_907575" data-name="Trazado 907575" d="M246.451,138.363c.027.15,9.345,3.043,15.342,0,0,0,1.283-13.837-5.876-13.086s-11.4,3.007-11.579,6.434A12.1,12.1,0,0,0,246.451,138.363Z" transform="translate(-185.316 -94.997)" fill="#7b1fa2"/>
          <path id="Trazado_907576" data-name="Trazado 907576" d="M372.76,373.691s3.633-3.336,5.2-3.415,6.236.476,6.4,1.121-4.794,1.874-5.072,2.29-3.316,3.246-4.669,2.734S372.76,373.691,372.76,373.691Z" transform="translate(-282.728 -280.838)" fill="#ffb792"/>
        </g>
      </g>
    </g>
  </g>
</svg>
