<svg xmlns="http://www.w3.org/2000/svg" xmlns:xlink="http://www.w3.org/1999/xlink" width="299.711" height="134.359" viewBox="0 0 299.711 134.359">
  <defs>
    <clipPath id="clip-path">
      <rect id="Rect치ngulo_410225" data-name="Rect치ngulo 410225" width="291.964" height="134.359" fill="none"/>
    </clipPath>
  </defs>
  <g id="Grupo_1119535" data-name="Grupo 1119535" transform="translate(-280.621 -3635.338)">
    <rect id="Rect치ngulo_401121" data-name="Rect치ngulo 401121" width="295" height="117.429" rx="30" transform="translate(285.332 3652.269)" fill="#bfc9ff"/>
    <g id="Grupo_1120597" data-name="Grupo 1120597" transform="translate(280.621 3635.335)">
      <g id="Grupo_1120596" data-name="Grupo 1120596" transform="translate(0 0.003)" clip-path="url(#clip-path)">
        <path id="Trazado_907847" data-name="Trazado 907847" d="M1140.65,179.162a14.743,14.743,0,0,1-6.708,4.474q-.631.2-1.286.353a15.263,15.263,0,0,1-6.254.106c-.182-.035-.363-.073-.543-.115a14.911,14.911,0,0,1-5.54-2.552q-.38-.28-.745-.587a15.166,15.166,0,0,1-1.647-1.607,14.685,14.685,0,0,1-3.619-8.476q-.04-.467-.051-.932a14.528,14.528,0,0,1,3.515-9.845,14.763,14.763,0,0,1,7.994-4.828l.023-.005q.631-.143,1.272-.231a15.257,15.257,0,0,1,4.959.132q.272.052.543.115a14.937,14.937,0,0,1,6.285,3.138,15.132,15.132,0,0,1,1.922,1.929,14.691,14.691,0,0,1,3.344,8.154q.04.468.051.933a14.527,14.527,0,0,1-3.514,9.846" transform="translate(-965.94 -134.173)" fill="#ffc800"/>
        <path id="Trazado_907848" data-name="Trazado 907848" d="M1190.724,196.7a4.843,4.843,0,0,0-.824-2.8,6.554,6.554,0,0,0-2.521-2.053,14.251,14.251,0,0,0-1.62-.691h0c-.272-.1-.535-.2-.783-.3l-.2-.079-.043-4.922.321,0a9.773,9.773,0,0,1,3.911.773l.794-2.977a12.082,12.082,0,0,0-4.659-.818l-.038,0h-.027l-.329.013-.013-1.474-1.119.01.015,1.56-.267.047a6.961,6.961,0,0,0-3.954,1.974,5.04,5.04,0,0,0-1.365,3.558,4.536,4.536,0,0,0,.906,2.739,7.036,7.036,0,0,0,2.492,1.97,14.023,14.023,0,0,0,1.856.77l.215.076.219.079.046,5.061v.3l-.3.023a.39.39,0,0,1-.077,0,11.705,11.705,0,0,1-4.729-1.045l-.725,3.067a13.159,13.159,0,0,0,5.229,1l.254-.008.376-.012.014,1.478,1.118-.011-.014-1.572.27-.045a8.738,8.738,0,0,0,2.511-.788,5.91,5.91,0,0,0,1.735-1.3,5.2,5.2,0,0,0,1.331-3.614m-7.563-6.662a2.175,2.175,0,0,1-1.3-1.927,2.046,2.046,0,0,1,1.3-1.879l.453-.213.039,4.307Zm2.128,9.168-.44.184-.043-4.788.483.275a2.446,2.446,0,0,1,1.511,2.182,2.234,2.234,0,0,1-1.511,2.148" transform="translate(-1021.117 -157.233)" fill="#ed5569"/>
        <path id="Trazado_907849" data-name="Trazado 907849" d="M259.795,596.181c-16.254,21.56-42.591,32.078-42.591,32.078s-.372-.329-.407-.357a70.313,70.313,0,0,0-7.548-5.126q-.432-.266-.9-.548c9.349-9.343,19.918-26.778,30.646-40.192Z" transform="translate(-180.621 -504.565)" fill="#d43146"/>
        <path id="Trazado_907850" data-name="Trazado 907850" d="M105.348,942.722c-.023,1.46-.148,2.847-6.125,4.295s-20.143,1.535-17.37-3.509c1.186-2.155,7.265-.852,11.515-3.86l-.03.031,0,0a5.314,5.314,0,0,0-.52.512c-.035.032-.067.064-.1.095a1.556,1.556,0,0,0-.359.635.412.412,0,0,0-.011.08c0,.009,0,.021,0,.03a.329.329,0,0,0,.14.271.621.621,0,0,0,.117.068,1.14,1.14,0,0,0,.237.074c.941.192,4.239-1.01,7.194-1.76a13.849,13.849,0,0,1,3.712-.564,2.16,2.16,0,0,1,1.349.466l.006-.007c.429.45.27,1.682.247,3.142" transform="translate(-70.649 -814.115)" fill="#8a124a"/>
        <path id="Trazado_907851" data-name="Trazado 907851" d="M177.475,893.2l-1.725,2.128-.006.007a2.16,2.16,0,0,0-1.349-.466,13.847,13.847,0,0,0-3.712.564c-2.955.751-6.253,1.952-7.194,1.76a1.13,1.13,0,0,1-.237-.074.617.617,0,0,1-.117-.068.344.344,0,0,1-.14-.271c0-.009,0-.021,0-.03a.4.4,0,0,1,.011-.08,1.674,1.674,0,0,1,.358-.613c.033-.04.067-.08.1-.117.171-.164.345-.333.52-.512l0,0,.049-.043a.2.2,0,0,0-.02.012c.012-.011.022-.023.034-.034a70.343,70.343,0,0,0,5.877-7.293,69.75,69.75,0,0,1,7.547,5.133" transform="translate(-141.298 -769.858)" fill="#e6624c"/>
        <path id="Trazado_907852" data-name="Trazado 907852" d="M702.79,57.394s-.791,1.388.6,4.713,2,2.358,1.993,3.831-.845,3.505.552,3.709,1.5.4,1.738,1.183,2.134,1.974,2.879,3.178,1.533,1.826,2.864,1.272l11.448.85,4.034-7.267L716.848,53.6Z" transform="translate(-609.052 -46.469)" fill="#ffa191"/>
        <path id="Trazado_907853" data-name="Trazado 907853" d="M746.1,270.518c-12.331-1.721-42.3-20.754-42.3-20.754s4.023-11.235,4.612-19.917-3.74-12.5-3.74-12.5c-.817.033-6.4,1.7-7.454.389a36.016,36.016,0,0,1-2.156-3.074l-.073-.112c-2.064-3.214-5.5-5.792-5.413-8.348.086-.061,0-.009,0-.009.047-1.331,1.05-2.66,3.7-4.07.083-.045.168-.089.25-.136a.136.136,0,0,0,.027-.013l.052-.026c1.71-.917,3.146-1.741,4.4-2.51,1.031-.63,1.936-1.154,2.752-1.718h0c4.233-2.634,6.293-4.045,12.163-3.834.982.034,2.073.1,3.295.226,6.492.65,14.44,7.775,20.658,19.436a92.422,92.422,0,0,1,10.05,36.693,84.987,84.987,0,0,1-.829,20.281" transform="translate(-597.786 -168.059)" fill="#7b1fa2"/>
        <path id="Trazado_907854" data-name="Trazado 907854" d="M258.283,502.528c-3.195,18.7-12.825,28.267-19.638,30.927-8.942,3.489-24.992-3-32.666-13s-27.25-28.747-27.25-28.747c-16.213,21.951-43.022,32.658-43.022,32.658s-.373-.329-.407-.357a70.333,70.333,0,0,0-7.547-5.127q-.433-.266-.9-.548c10.324-10.318,22.135-30.5,34-44.24.4-.466.8-.921,1.2-1.371a3.211,3.211,0,0,0,.9-.7,50.305,50.305,0,0,1,7.833-7.568s-.005-.006-.007-.01c.2-.15.392-.294.588-.435.166-.119.334-.235.506-.348,0,0,.008,0,.012-.007a14.95,14.95,0,0,1,10.347-1.978,25.706,25.706,0,0,1,3.193.626c14.525,3.759,30.545,19.477,30.545,19.477s29.97,19.033,42.3,20.754" transform="translate(-109.971 -400.069)" fill="#ed5569"/>
        <path id="Trazado_907855" data-name="Trazado 907855" d="M389.854,491.513l.163-.182a61.83,61.83,0,0,1,8.735-8.286l.053-.04.023.056a.056.056,0,0,1,.009.014l.018.038-.034.025A49.767,49.767,0,0,0,391,490.7a3.271,3.271,0,0,1-.919.715Zm3.458-3.533q-1.461,1.465-3,3.181a4.1,4.1,0,0,0,.612-.533q1.232-1.426,2.393-2.648" transform="translate(-337.963 -418.714)" fill="#231f20"/>
        <path id="Trazado_907856" data-name="Trazado 907856" d="M734.01,45.484c-6.218-11.66-14.165-18.79-20.657-19.439-1.222-.122-2.31-.2-3.292-.235l-.007-.006s-6.839-.6-6.164-4.626c1.734-10.356-1.718-4.384-3.825-7.333-1.443-2.019-9.351,2.341-12.312.032a.006.006,0,0,1,0,0,2.017,2.017,0,0,1-.325-.309c-2.484-2.955-.972-4.854,4.35-9.381s16-6.985,23.015,1.2,13.024,12.493,16.541,19.826c3.528,7.355,3.406,11.558,2.679,20.278" transform="translate(-594.917 -0.003)" fill="#8f2a59"/>
        <path id="Trazado_907857" data-name="Trazado 907857" d="M474.109,298.083c-8.932,5.262-20.409,10.693-27.153,11.926l0,0a14.946,14.946,0,0,0-10.347,1.979s-.007.005-.011.005c-.171.115-.341.229-.506.35q-.293.209-.589.435c-.89-1.095-3.014-1.055-3.29-2.673,0-.008.2-.467.2-.474-.1-.579-.085-1.417.354-1.72,5.561-2.094,11.246-6.242,15.762-8.991l.071-.045c7.234-4.41,12.616-8.737,14.567-10.037l.011-.007c.034-.023.066-.043.1-.066a.029.029,0,0,0,.01-.007q.787-.528,1.4-.952s0,0,.006,0c.839-.577,1.43-1,1.757-1.24l.019-.015c-.083,2.557,3.351,5.134,5.413,8.349.024.038.051.073.073.111a36.925,36.925,0,0,0,2.156,3.074" transform="translate(-374.681 -248.408)" fill="#ffa191"/>
        <path id="Trazado_907858" data-name="Trazado 907858" d="M391.788,451.928a50.3,50.3,0,0,0-7.833,7.568,3.207,3.207,0,0,1-.9.7c-1.119.512-1.577-1.051-1.072-5.321.556-4.708,5.652-7.218,7.063-7.825a.079.079,0,0,0,0,.021c.276,1.619,1.843,3.753,2.734,4.846,0,0,.005.006.007.01" transform="translate(-330.961 -387.547)" fill="#ffa191"/>
        <path id="Trazado_907859" data-name="Trazado 907859" d="M668.1,254.874c-.081.047-.166.092-.248.138-2.654,1.409-3.659,2.739-3.706,4.069l-.019.024c-.327.235-.918.663-1.757,1.24,0,0,0,0-.006,0q-.615.423-1.4.952l-.011.005-.1.068-.011.007a3.934,3.934,0,0,1-.6-1.665,1.955,1.955,0,0,1,0-.3.793.793,0,0,1,.007-.094,1.656,1.656,0,0,1,1.133-1.355c2.043-.85,6.1-2.8,6.714-3.1" transform="translate(-572.356 -220.949)" fill="#ff7b00"/>
        <path id="Trazado_907860" data-name="Trazado 907860" d="M23.85,947.22c-.023,1.46-.149,2.848-6.126,4.295s-20.143,1.535-17.37-3.509c1.186-2.155,7.265-.852,11.516-3.86l-.03.03,0,0a5.214,5.214,0,0,0-.52.512c-.036.032-.067.064-.1.095a1.554,1.554,0,0,0-.359.635.394.394,0,0,0-.011.08c0,.009,0,.021,0,.03a.329.329,0,0,0,.14.271.605.605,0,0,0,.117.068,1.134,1.134,0,0,0,.237.074c.941.192,4.239-1.009,7.194-1.76a13.843,13.843,0,0,1,3.712-.564,2.161,2.161,0,0,1,1.349.465l.006-.007c.429.45.27,1.682.247,3.142" transform="translate(0.001 -818.014)" fill="#8f2a59"/>
        <path id="Trazado_907861" data-name="Trazado 907861" d="M95.979,897.693l-1.725,2.128-.006.007a2.161,2.161,0,0,0-1.349-.465,13.844,13.844,0,0,0-3.712.564c-2.955.751-6.253,1.952-7.194,1.76a1.123,1.123,0,0,1-.237-.075.606.606,0,0,1-.117-.068.344.344,0,0,1-.14-.271c0-.009,0-.021,0-.03a.392.392,0,0,1,.011-.08,1.668,1.668,0,0,1,.358-.613c.032-.04.066-.08.1-.117.171-.164.345-.333.52-.512l0,0,.049-.043a.221.221,0,0,0-.02.012c.012-.011.022-.023.034-.034a70.3,70.3,0,0,0,5.877-7.293,69.746,69.746,0,0,1,7.547,5.133" transform="translate(-70.65 -773.757)" fill="#ffa191"/>
        <path id="Trazado_907862" data-name="Trazado 907862" d="M664.954,303.2a0,0,0,0,1,0,0c-.032.023-.064.044-.1.066Z" transform="translate(-576.362 -262.842)" fill="#fa9584"/>
        <path id="Trazado_907863" data-name="Trazado 907863" d="M548.694,125.512s-4.121,5.264-4.5,6.1c-7.659,16.81-1.949,13.544-.835,12.8a3.935,3.935,0,0,0,.6,1.665c-1.951,1.3-7.333,5.627-14.567,10.037a3.711,3.711,0,0,1-3.966-3.392c-.643-4.123,16.17-26.134,19.577-30.856a4.161,4.161,0,0,1,3.7,3.644" transform="translate(-455.469 -105.647)" fill="#fa9584"/>
        <path id="Trazado_907864" data-name="Trazado 907864" d="M678.547,62.961c-.58,1.194-.984,1.086-1.186,2.576-.282,2.085,1.342,4.83-1.049,6.891a4.176,4.176,0,0,0-3.7-3.653s1.573-7.2,4.3-8.018c2.057-.615,2.208,1.01,1.628,2.2" transform="translate(-583.088 -52.553)" fill="#fa9584"/>
        <path id="Trazado_907865" data-name="Trazado 907865" d="M730.964,118.1a.294.294,0,0,1,.033-.038c.024-.026.056-.059.1-.1a2.034,2.034,0,0,1,.408-.276,2.5,2.5,0,0,1,.3-.132,2.636,2.636,0,0,1,.354-.1,3.486,3.486,0,0,1,.388-.062c.132-.006.269-.017.4-.011a3.614,3.614,0,0,1,.4.034l.193.032a1.351,1.351,0,0,1,.186.041c.12.032.236.065.345.1s.2.083.3.122c.045.019.089.036.129.056l.111.062c.071.038.13.075.179.1.1.059.152.1.152.1a.144.144,0,0,1,.035.2.147.147,0,0,1-.132.06l-.011,0s-.064-.007-.172-.025c-.054-.01-.119-.02-.192-.037s-.156-.031-.246-.046-.187-.031-.288-.053-.209-.028-.32-.046-.223-.023-.338-.04a1.573,1.573,0,0,0-.173-.014l-.174-.01c-.117-.01-.232,0-.347-.007s-.226.006-.333.017-.214.018-.312.035-.191.032-.279.045-.167.036-.235.057-.13.036-.182.052l-.112.038a.385.385,0,0,0-.041.015.1.1,0,0,1-.136-.052.1.1,0,0,1,.006-.1Z" transform="translate(-633.651 -101.75)" fill="#8f2a59"/>
        <path id="Trazado_907866" data-name="Trazado 907866" d="M738.939,134.98a1.141,1.141,0,0,0-1.212.747c-.2.533-1.052-.358-.93-.9a1.3,1.3,0,0,1,1.469-.977c.559.1,1.232,1.151.674,1.133" transform="translate(-638.715 -116.017)" fill="#8f2a59"/>
        <path id="Trazado_907867" data-name="Trazado 907867" d="M763.909,181.3h-.018a.258.258,0,0,1-.24-.275,2.341,2.341,0,0,1,.845-1.61,2.221,2.221,0,0,1,1.92-.233.258.258,0,1,1-.128.5,1.737,1.737,0,0,0-1.49.151,1.826,1.826,0,0,0-.633,1.227.258.258,0,0,1-.257.241" transform="translate(-662.005 -155.234)" fill="#8f2a59"/>
        <path id="Trazado_907868" data-name="Trazado 907868" d="M1437.58,281.292l5.209,3.068,8.306,1.851,4.486-8.156,7.653-1.189s20.134,25.137,21.126,26.984-24.224,36.342-24.224,36.342l-22.065,8.96-11.3-18.167Z" transform="translate(-1236.863 -240.015)" fill="#d1416c"/>
        <path id="Trazado_907869" data-name="Trazado 907869" d="M1426.853,694.8a.282.282,0,0,0-.079,0l1.244,4.943c.325.995.609,1.971.859,2.924.367,1.388.476,2.777.889,4.028,4.639,14.071-.447,24.984,7.416,24.727,6.115-.2-3.245.125,6.115-.192,7.557-.257,4.655-16.4,11.837-16.014,1.152.155-4.14-.676-4.137-.676,6.464.363-20.166-19.371-24.144-19.734" transform="translate(-1236.863 -602.317)" fill="#f24b7e"/>
        <path id="Trazado_907870" data-name="Trazado 907870" d="M1187.466,473.853s6.123-8.769,16.381-4.4a23.242,23.242,0,0,1,5.887,3.672q.831-1.2,1.724-2.335a48.955,48.955,0,0,0-8.48,17.685c.167-.723.348-1.445.551-2.163a10.246,10.246,0,0,0-4.259-5.268,6.509,6.509,0,0,0-3.267-.751c-5.717.128-7.289,8.432-7.481,9.593-.013.079-.02.126-.022.129a1.567,1.567,0,0,1-.125-.1c-.023-.021-.05-.044-.078-.071-1.211-1.05-7.172-6.919-.832-15.992" transform="translate(-1026.92 -405.908)" fill="#f24b7e"/>
        <path id="Trazado_907871" data-name="Trazado 907871" d="M1279.943,523.044c-.036.133-.075.282-.115.437.039-.145.074-.292.115-.437" transform="translate(-1109.477 -453.425)" fill="#ea4881"/>
        <path id="Trazado_907872" data-name="Trazado 907872" d="M1461.381,843.115q2.015.381,4.123.674h0c1.12.15-3.847-.629-4.125-.674" transform="translate(-1266.865 -730.893)" fill="#ff91a0"/>
        <path id="Trazado_907873" data-name="Trazado 907873" d="M1636.439,857.945l.617.009a4.277,4.277,0,0,0-.617-.009" transform="translate(-1418.621 -743.742)" fill="#ff91a0"/>
        <path id="Trazado_907874" data-name="Trazado 907874" d="M1295.1,753.907c.366,1.389.476,2.777.888,4.028,4.64,14.071-.446,24.985,7.417,24.727,1.677-.055,2.191-.07,2.245-.07-.13.009-2.594.1,3.871-.122,7.556-.257,4.656-16.4,11.835-16.015h0c1.12.15-3.847-.629-4.124-.674h-.02c-9.958-1.873-18.108-5.386-22.072-11.808l-.041-.064" transform="translate(-1122.715 -653.559)" fill="#ff91a0"/>
        <path id="Trazado_907875" data-name="Trazado 907875" d="M1370.29,969.532c-.086,0-.155.007-.172.009l.194-.005-.021,0" transform="translate(-1187.749 -840.483)" fill="#f24b7e"/>
        <path id="Trazado_907876" data-name="Trazado 907876" d="M1295.1,753.907c.366,1.389.476,2.777.888,4.028,4.64,14.071-.446,24.985,7.417,24.727l1.82-.058c-6.054-.882-1.974-11.06-6.04-24.071a18.433,18.433,0,0,1-4.044-4.561l-.041-.064" transform="translate(-1122.715 -653.559)" fill="#f24b7e"/>
        <path id="Trazado_907877" data-name="Trazado 907877" d="M1371.168,969.423l.033,0,.392-.016-.424.012" transform="translate(-1188.659 -840.378)" fill="#f24b7e"/>
        <path id="Trazado_907878" data-name="Trazado 907878" d="M1663.187,858.058c.057,0,.114.011.17.018l.73-.006-.9-.012" transform="translate(-1441.809 -743.847)" fill="#f24b7e"/>
        <path id="Trazado_907879" data-name="Trazado 907879" d="M1636.148,857.985h0" transform="translate(-1418.369 -743.784)" fill="#ff91a0"/>
        <path id="Trazado_907880" data-name="Trazado 907880" d="M1273.5,671.679l.772,3.079,1.244,4.943,1.747,6.951.019.068c-.129-.881-.458-2.349-.866-4.032-.628-2.579-1.453-5.669-2.065-7.927-.443-1.626-.776-2.821-.851-3.082" transform="translate(-1103.992 -582.276)" fill="#ea4881"/>
        <path id="Trazado_907881" data-name="Trazado 907881" d="M1793.566,805.328c4.967,2.188,3.222,15.483,10.074,15.716,9.36.317,0-.008,6.115.192,7.506.246,3.212-9.688,6.843-22.832-2.551,3.929-7.868,4.966-14.939,5.937-2.506.344-5.231.685-8.093.986" transform="translate(-1554.834 -692.134)" fill="#ff91a0"/>
        <path id="Trazado_907882" data-name="Trazado 907882" d="M1269.586,306.062a.018.018,0,0,0,0,.009v.008l.01.041.775,3.079h0l1.245,4.943s0,0,0,.006,0,0,0,.006c.324.991.6,1.96.854,2.911l0,0c.012.021.024.038.038.06l0,0q.277.448.582.878h0c.068.1.137.191.207.285h0a.935.935,0,0,0,.062.08.846.846,0,0,0,.066.087c.033.048.069.095.108.143a.382.382,0,0,0,.024.032l.031.041c.026.034.052.067.083.1.05.065.1.129.155.194s.085.1.127.155v0c.03.037.062.074.093.109a.388.388,0,0,0,.042.048c.032.038.063.075.1.111l.135.155.063.069c.006.007.013.014.02.021.021.024.045.046.066.071.159.174.321.347.488.516l.093.095.123.123c.083.081.164.161.248.24s.164.155.248.231.191.174.288.261q.29.259.594.509h0q.543.446,1.124.863.908.655,1.9,1.243c.111.064.222.13.335.195l.338.191a34.374,34.374,0,0,0,4.4,2.039l.393.149q.4.148.8.29l.059.021q.777.272,1.582.522.626.2,1.268.377.856.243,1.737.464l.443.109c.147.036.3.072.446.107.207.05.416.1.624.143.092.021.183.042.275.061.453.1.91.2,1.372.29.147.03.294.059.443.087a.208.208,0,0,0,.043.009q.221.045.441.085h.006l.014,0h.015a.078.078,0,0,0,.019,0,.051.051,0,0,0,.017,0h.007l.03,0,.077.012.042.006c.03.006.064.012.1.017l.057.009c.039.007.08.013.123.019.021,0,.043.007.068.01.114.02.241.039.38.06l.084.013.085.014.089.013.111.018c.114.018.231.038.351.055l.288.047h0l.1.015c.065.012.129.021.194.032h0l.1.015.192.031.1.015.279.045.093.015c.06.009.119.018.176.028h0l.249.041h0c.053.007.1.016.153.025l.075.012.135.022.066.011c.081.014.153.027.215.036h0c.015,0,.03.006.044.007.083.015.138.026.161.032,0,0,.007,0,.009,0s0,0,0,0l-.049,0q2.083.29,4.24.5c3.954.4,8.067.621,12.219.731h0q1.281.036,2.564.055h.04c.089,0,.176-.007.26-.007l.168,0c.052,0,.1.006.156.012h.049c.356.006.71.01,1.066.014.207,0,.416,0,.624,0,.4,0,.8,0,1.195,0h.576l.3,0h.05c.27,0,.54-.007.81-.012l.572-.012c.38-.006.761-.016,1.141-.028l.572-.018q1.844-.061,3.679-.165c.291-.015.583-.033.872-.051.33-.019.661-.04.989-.063.249-.017.5-.033.746-.051l.518-.038q1.156-.083,2.3-.182c1.45-.123,2.878-.26,4.274-.407h0l.239-.027c.272-.029.54-.057.807-.087h.017l.033,0,.5-.054.5-.057.624-.072.437-.051.144-.017c.125-.015.248-.028.369-.045l.129-.015.494-.06.014,0c.126-.015.252-.032.377-.048.033,0,.066-.007.1-.012.32-.04.635-.079.947-.12l.931-.122c.243-.031.483-.063.722-.1s.476-.063.71-.1c.111-.015.221-.03.33-.047.056-.006.11-.013.164-.022.164-.022.327-.045.489-.069l.594-.085q.524-.077,1.033-.156l.572-.092.605-.1c.082-.013.163-.027.245-.042.215-.038.428-.075.638-.116.194-.036.386-.072.575-.111s.377-.075.563-.116c.093-.019.186-.039.278-.06.177-.038.353-.078.526-.119.276-.065.548-.132.813-.2.087-.022.173-.045.258-.069l.2-.054c.359-.1.707-.206,1.046-.318.159-.053.318-.108.474-.164s.309-.113.461-.173.3-.119.447-.182.291-.125.434-.191c.072-.033.143-.066.213-.1s.14-.068.207-.1l.2-.1c.072-.038.144-.077.215-.116.089-.049.177-.1.264-.15.07-.041.14-.083.209-.125.047-.029.095-.059.141-.089s.1-.061.147-.094c.2-.128.389-.263.572-.4.048-.036.1-.072.143-.11.113-.089.224-.18.332-.275,0,0,0,0,0,0,.108-.093.213-.189.317-.288.161-.155.315-.314.462-.481.041-.045.081-.09.12-.137a.06.06,0,0,0,.012-.015c.04-.048.081-.1.12-.144a8.046,8.046,0,0,0,.523-.718s0,0,0,0a8.776,8.776,0,0,0,.822-1.611c.018-.038.036-.068.056-.1a.187.187,0,0,1,.027-.048.555.555,0,0,1,.03-.061c2.626-5.213,11.49-13.518,18.4-13.483,0,0,0,0,0,0,3.465.019,4.394-1,4.394-2.145l-.012-.068-2.408-13.112a8.853,8.853,0,0,0,3.921-.643c.821-.488.728-1.285-1.837-2.5l-.012-.006c-4.925-2.343-6.29-6.36-8.5-12.051-.735-1.893-1.564-3.97-2.648-6.234-.638-1.331-1.365-2.727-2.213-4.187-.04-.072-.083-.143-.125-.215a0,0,0,0,1,0,0q-.678-1.157-1.464-2.367a14.417,14.417,0,0,0-1.151-1.536v0a18.467,18.467,0,0,0-2.245-2.2,30.671,30.671,0,0,0-7.187-4.316c-1.438-.643-2.953-1.225-4.515-1.755a77.323,77.323,0,0,0-7.89-2.183c-.606-.137-1.211-.266-1.818-.39h0c-2.664-.545-5.323-.979-7.87-1.322h0c-1.28-.174-2.531-.323-3.741-.453l-6.283,2.986-1.473.779-4.637,8.074,2.873,8.248-7.786,10.475,5.363,17.387-4.012,11.257-10.73,11.015-.926.95-.158-.6h0l-.4-1.512h0l-4.17-15.709,5.4-4.595-5.4-12.408V273.213l-2.194-8.412h0l-2.576-9.867a51.14,51.14,0,0,0-12.039,8.415c-.444.413-.874.832-1.3,1.262a48.307,48.307,0,0,0-6.088,7.541,46.485,46.485,0,0,0-4.1,7.021q-.754,1.6-1.385,3.253c-.347.919-.668,1.848-.956,2.794l-.024.066c-.006.026-.014.051-.023.078s-.021.072-.033.11c-.015.053-.033.11-.048.162a.591.591,0,0,0-.021.062,1.753,1.753,0,0,1-.053.185c-.037.132-.081.285-.128.455-.009.033-.018.068-.027.1s-.016.062-.026.093a43.735,43.735,0,0,0-.932,4.568,48.927,48.927,0,0,0,.012,14.963" transform="translate(-1100.093 -216.716)" fill="#ff91a0"/>
        <path id="Trazado_907883" data-name="Trazado 907883" d="M1821.927,411.261c.829,2.514,2.485.511,5.063-.338s5.1-.225,4.271-2.738a4.916,4.916,0,0,0-9.334,3.076" transform="translate(-1579.216 -351.021)" fill="#cf2d5f"/>
        <path id="Trazado_907884" data-name="Trazado 907884" d="M2017.433,410.579c-.877,2.5-2.495.464-5.056-.434s-5.1-.321-4.219-2.819a4.916,4.916,0,0,1,9.275,3.253" transform="translate(-1740.71 -350.352)" fill="#cf2d5f"/>
        <path id="Trazado_907885" data-name="Trazado 907885" d="M1875.033,674.632s-10.773-6.96-15.666,2.743" transform="translate(-1611.877 -582.741)" fill="none" stroke="#cf2d5f" stroke-linecap="round" stroke-miterlimit="10" stroke-width="17"/>
        <path id="Trazado_907886" data-name="Trazado 907886" d="M2016.885,547.172c-.527,5.252,3.748,9.9,9.548,10.372s10.929-3.393,11.457-8.644-3.748-9.9-9.548-10.373-10.93,3.393-11.457,8.645" transform="translate(-1748.39 -466.813)" fill="#f24b7e"/>
        <path id="Trazado_907887" data-name="Trazado 907887" d="M2035.073,548.67c-.527,5.251,3.748,9.9,9.548,10.373s10.93-3.393,11.457-8.645-3.747-9.9-9.548-10.373-10.93,3.393-11.457,8.644" transform="translate(-1764.158 -468.112)" fill="#ff7d8d"/>
        <path id="Trazado_907888" data-name="Trazado 907888" d="M2140.454,598.329a1.76,1.76,0,1,0,1.717-2.15,1.97,1.97,0,0,0-1.717,2.15" transform="translate(-1855.55 -516.825)" fill="#cf2d5f"/>
        <path id="Trazado_907889" data-name="Trazado 907889" d="M2076.861,598.3a1.76,1.76,0,1,0,1.716-2.15,1.969,1.969,0,0,0-1.716,2.15" transform="translate(-1800.421 -516.804)" fill="#cf2d5f"/>
        <path id="Trazado_907890" data-name="Trazado 907890" d="M2150.792,600.444a1.436,1.436,0,0,0,.333.041,2.2,2.2,0,0,0,0-4.3,1.447,1.447,0,0,0-.341.041,2.293,2.293,0,0,1,.008,4.217" transform="translate(-1864.505 -516.83)" fill="#ad2650"/>
        <path id="Trazado_907891" data-name="Trazado 907891" d="M2087.257,600.414a1.189,1.189,0,0,0,.325.041,2.2,2.2,0,0,0,0-4.3,1.393,1.393,0,0,0-.333.042,2.3,2.3,0,0,1,.008,4.217" transform="translate(-1809.427 -516.804)" fill="#ad2650"/>
        <path id="Trazado_907892" data-name="Trazado 907892" d="M1642.161,851.281q-.542,0-1.084-.013c6.239.527,1.435,14.9,8.763,14.9,3.724,0,5.488,0,6.259,0,6.119,0,4.4-6.447,5.516-15.934l-.242.026a170.166,170.166,0,0,1-19.213,1.03" transform="translate(-1422.642 -737.057)" fill="#ff91a0"/>
        <path id="Trazado_907893" data-name="Trazado 907893" d="M1641.077,858.058c6.239.527,1.435,14.9,8.763,14.9h2.87c-7.156-.095-2.56-14.106-8.52-14.878q-1.018.007-2.029,0-.542,0-1.084-.013" transform="translate(-1422.642 -743.847)" fill="#f24b7e"/>
        <path id="Trazado_907894" data-name="Trazado 907894" d="M1921.984,268.73c-.479,2.545.992,4.342,3.374,7.081.08.035.159.071.233.109,4.822-6.914,15.722-6.6,15.722-6.6a17.063,17.063,0,0,0-15.521-2.511,15.3,15.3,0,0,0-3.637,1.685c-.061.079-.119.16-.171.24" transform="translate(-1666.081 -230.546)" fill="#f24b7e"/>
        <path id="Trazado_907895" data-name="Trazado 907895" d="M1959.271,300.031s4.571-7.818,6.125-8.772c0,0-10.9-.311-15.722,6.6,3.4,1.611,9.161.972,9.6,2.169" transform="translate(-1690.163 -252.489)" fill="#ff7d8e"/>
        <path id="Trazado_907896" data-name="Trazado 907896" d="M1691.3,244.615h0c.064,0,.13.008.2.01,3.347.138,10.676-.95,13.726-.362.923-3.727,2.436-8.385,4.719-10.967l0,0a7.5,7.5,0,0,0,.615-2.772c-2.292-2.415-13.232-2.243-19.325,5.312-2.774,3.436-2.034,6.393.06,8.78" transform="translate(-1464.562 -198.644)" fill="#f24b7e"/>
        <path id="Trazado_907897" data-name="Trazado 907897" d="M1703.465,253.6h0c.064,0,.13.008.2.01,3.347.138,10.676-.95,13.726-.362a4.616,4.616,0,0,1,.506.126c1.043-4.326,2.616-6,4.214-11.093v0a7.51,7.51,0,0,0,.616-2.772,33.74,33.74,0,0,0-18.614,13.1c-.237.339-.453.672-.651,1" transform="translate(-1476.726 -207.629)" fill="#ff7d8e"/>
        <path id="Trazado_907898" data-name="Trazado 907898" d="M1756.905,372.054s0,0,0,.005h0l.033-.024-.037.019" transform="translate(-1523.053 -322.516)" fill="#ff91a0"/>
        <path id="Trazado_907899" data-name="Trazado 907899" d="M1793.566,847.212c4.967,2.188,3.222,15.483,10.074,15.716,9.36.317,0-.008,6.115.192a6.416,6.416,0,0,0,1.34-.083l-3.232-.109c-5.63-.191-6.946-11.107-9.991-16.209-1.391.172-2.83.338-4.306.492" transform="translate(-1554.834 -734.018)" fill="#f24b7e"/>
        <path id="Trazado_907900" data-name="Trazado 907900" d="M1477.489,280.885l4.772,18.28v13.122l5.4,12.408-5.4,4.595,4.57,17.222.189-15.939,4.2-4.251-7.4-14.035s1.548-14.008,1.18-14.11-4.346-18.25-4.346-18.25Z" transform="translate(-1280.828 -242.668)" fill="#f24b7e"/>
      </g>
    </g>
  </g>
</svg>
