<svg xmlns="http://www.w3.org/2000/svg" xmlns:xlink="http://www.w3.org/1999/xlink" width="127" height="127" viewBox="0 0 127 127">
  <defs>
    <clipPath id="clip-path">
      <rect id="Rectángulo_400938" data-name="Rectángulo 400938" width="127" height="127" transform="translate(0 -0.434)" fill="none"/>
    </clipPath>
    <clipPath id="clip-path-3">
      <rect id="Rectángulo_401301" data-name="Rectángulo 401301" width="68.069" height="204.378" fill="#d4e157"/>
    </clipPath>
    <clipPath id="clip-path-5">
      <rect id="Rectángulo_401247" data-name="Rectángulo 401247" width="16.85" height="16.849" fill="#d4e157"/>
    </clipPath>
    <clipPath id="clip-path-6">
      <path id="Trazado_873506" data-name="Trazado 873506" d="M16.85,8.425A8.425,8.425,0,1,1,8.425,0,8.425,8.425,0,0,1,16.85,8.425" fill="#d4e157"/>
    </clipPath>
    <clipPath id="clip-path-13">
      <rect id="Rectángulo_401261" data-name="Rectángulo 401261" width="16.849" height="16.849" fill="#d4e157"/>
    </clipPath>
    <clipPath id="clip-path-14">
      <path id="Trazado_873513" data-name="Trazado 873513" d="M16.849,8.425A8.425,8.425,0,1,1,8.425,0a8.425,8.425,0,0,1,8.425,8.425" fill="#d4e157"/>
    </clipPath>
    <clipPath id="clip-path-15">
      <rect id="Rectángulo_401263" data-name="Rectángulo 401263" width="16.85" height="16.85" fill="#d4e157"/>
    </clipPath>
    <clipPath id="clip-path-21">
      <rect id="Rectángulo_401273" data-name="Rectángulo 401273" width="16.849" height="16.85" fill="#d4e157"/>
    </clipPath>
    <clipPath id="clip-path-22">
      <path id="Trazado_873519" data-name="Trazado 873519" d="M16.849,8.425A8.425,8.425,0,1,1,8.425,0a8.424,8.424,0,0,1,8.425,8.425" fill="#d4e157"/>
    </clipPath>
    <clipPath id="clip-path-24">
      <path id="Trazado_873521" data-name="Trazado 873521" d="M16.85,8.425A8.425,8.425,0,1,1,8.425,0,8.424,8.424,0,0,1,16.85,8.425" fill="#d4e157"/>
    </clipPath>
  </defs>
  <g id="Grupo_1120610" data-name="Grupo 1120610" transform="translate(-811.664 -916)">
    <g id="Grupo_1101088" data-name="Grupo 1101088" transform="translate(811.664 916.434)">
      <g id="Grupo_1099379" data-name="Grupo 1099379" transform="translate(0 0)">
        <rect id="Rectángulo_401103" data-name="Rectángulo 401103" width="127" height="127" transform="translate(0 -0.434)" fill="none"/>
        <path id="Trazado_873425" data-name="Trazado 873425" d="M52.647,0A52.647,52.647,0,1,1,0,52.647,52.647,52.647,0,0,1,52.647,0Z" transform="translate(15.677 19.149)" fill="#b9bfe2"/>
        <g id="Enmascarar_grupo_1100032" data-name="Enmascarar grupo 1100032" transform="translate(0 0)" clip-path="url(#clip-path)">
          <g id="Grupo_1101051" data-name="Grupo 1101051" transform="translate(157.109 -30.031) rotate(90)" style="isolation: isolate">
            <g id="Grupo_1099913" data-name="Grupo 1099913" transform="translate(0 0)" clip-path="url(#clip-path-3)" style="isolation: isolate">
              <g id="Grupo_1099912" data-name="Grupo 1099912">
                <g id="Grupo_1099911" data-name="Grupo 1099911" clip-path="url(#clip-path-3)">
                  <g id="Grupo_1099780" data-name="Grupo 1099780" transform="translate(51.22 85.896)" style="isolation: isolate">
                    <g id="Grupo_1099779" data-name="Grupo 1099779" transform="translate(0 0)">
                      <g id="Grupo_1099778" data-name="Grupo 1099778" transform="translate(0 0)" clip-path="url(#clip-path-5)">
                        <g id="Grupo_1099777" data-name="Grupo 1099777" transform="translate(0 0)">
                          <g id="Grupo_1099776" data-name="Grupo 1099776" clip-path="url(#clip-path-6)">
                            <rect id="Rectángulo_401246" data-name="Rectángulo 401246" width="21.418" height="21.419" transform="translate(-5.189 15.062) rotate(-70.991)" fill="#d4e157"/>
                          </g>
                        </g>
                      </g>
                    </g>
                  </g>
                  <g id="Grupo_1099785" data-name="Grupo 1099785" transform="translate(51.22 102.745)" style="isolation: isolate">
                    <g id="Grupo_1099784" data-name="Grupo 1099784">
                      <g id="Grupo_1099783" data-name="Grupo 1099783" clip-path="url(#clip-path-5)">
                        <g id="Grupo_1099782" data-name="Grupo 1099782" transform="translate(0)">
                          <g id="Grupo_1099781" data-name="Grupo 1099781" clip-path="url(#clip-path-6)">
                            <rect id="Rectángulo_401248" data-name="Rectángulo 401248" width="21.418" height="21.419" transform="translate(-5.189 15.062) rotate(-70.991)" fill="#d4e157"/>
                          </g>
                        </g>
                      </g>
                    </g>
                  </g>
                  <g id="Grupo_1099790" data-name="Grupo 1099790" transform="translate(51.22 119.647)" style="isolation: isolate">
                    <g id="Grupo_1099789" data-name="Grupo 1099789" transform="translate(0 0)">
                      <g id="Grupo_1099788" data-name="Grupo 1099788" transform="translate(0 0)" clip-path="url(#clip-path-5)">
                        <g id="Grupo_1099787" data-name="Grupo 1099787" transform="translate(0 0)">
                          <g id="Grupo_1099786" data-name="Grupo 1099786" clip-path="url(#clip-path-6)">
                            <rect id="Rectángulo_401250" data-name="Rectángulo 401250" width="21.418" height="21.419" transform="translate(-5.189 15.062) rotate(-70.991)" fill="#d4e157"/>
                          </g>
                        </g>
                      </g>
                    </g>
                  </g>
                  <g id="Grupo_1099795" data-name="Grupo 1099795" transform="translate(51.22 136.496)" style="isolation: isolate">
                    <g id="Grupo_1099794" data-name="Grupo 1099794" transform="translate(0 0)">
                      <g id="Grupo_1099793" data-name="Grupo 1099793" transform="translate(0 0)" clip-path="url(#clip-path-5)">
                        <g id="Grupo_1099792" data-name="Grupo 1099792" transform="translate(0 0)">
                          <g id="Grupo_1099791" data-name="Grupo 1099791" clip-path="url(#clip-path-6)">
                            <rect id="Rectángulo_401252" data-name="Rectángulo 401252" width="21.418" height="21.419" transform="translate(-5.189 15.062) rotate(-70.991)" fill="#d4e157"/>
                          </g>
                        </g>
                      </g>
                    </g>
                  </g>
                  <g id="Grupo_1099815" data-name="Grupo 1099815" transform="translate(34.37 85.896)" style="isolation: isolate">
                    <g id="Grupo_1099814" data-name="Grupo 1099814" transform="translate(0 0)">
                      <g id="Grupo_1099813" data-name="Grupo 1099813" transform="translate(0 0)" clip-path="url(#clip-path-13)">
                        <g id="Grupo_1099812" data-name="Grupo 1099812" transform="translate(0 0)">
                          <g id="Grupo_1099811" data-name="Grupo 1099811" clip-path="url(#clip-path-14)">
                            <rect id="Rectángulo_401260" data-name="Rectángulo 401260" width="21.418" height="21.418" transform="translate(-5.189 15.062) rotate(-70.991)" fill="#d4e157"/>
                          </g>
                        </g>
                      </g>
                    </g>
                  </g>
                  <g id="Grupo_1099820" data-name="Grupo 1099820" transform="translate(51.22 68.499)" style="isolation: isolate">
                    <g id="Grupo_1099819" data-name="Grupo 1099819" transform="translate(0 0)">
                      <g id="Grupo_1099818" data-name="Grupo 1099818" transform="translate(0 0)" clip-path="url(#clip-path-15)">
                        <g id="Grupo_1099817" data-name="Grupo 1099817" transform="translate(0 0)">
                          <g id="Grupo_1099816" data-name="Grupo 1099816" clip-path="url(#clip-path-6)">
                            <rect id="Rectángulo_401262" data-name="Rectángulo 401262" width="21.419" height="21.419" transform="matrix(0.326, -0.945, 0.945, 0.326, -5.189, 15.062)" fill="#d4e157"/>
                          </g>
                        </g>
                      </g>
                    </g>
                  </g>
                  <g id="Grupo_1099825" data-name="Grupo 1099825" transform="translate(51.22 51.557)" style="isolation: isolate">
                    <g id="Grupo_1099824" data-name="Grupo 1099824" transform="translate(0 0)">
                      <g id="Grupo_1099823" data-name="Grupo 1099823" transform="translate(0 0)" clip-path="url(#clip-path-5)">
                        <g id="Grupo_1099822" data-name="Grupo 1099822" transform="translate(0 0)">
                          <g id="Grupo_1099821" data-name="Grupo 1099821" clip-path="url(#clip-path-6)">
                            <rect id="Rectángulo_401264" data-name="Rectángulo 401264" width="21.418" height="21.419" transform="translate(-5.189 15.062) rotate(-70.991)" fill="#d4e157"/>
                          </g>
                        </g>
                      </g>
                    </g>
                  </g>
                  <g id="Grupo_1099830" data-name="Grupo 1099830" transform="translate(51.22 34.397)" style="isolation: isolate">
                    <g id="Grupo_1099829" data-name="Grupo 1099829" transform="translate(0 0)">
                      <g id="Grupo_1099828" data-name="Grupo 1099828" transform="translate(0 0)" clip-path="url(#clip-path-15)">
                        <g id="Grupo_1099827" data-name="Grupo 1099827" transform="translate(0 0)">
                          <g id="Grupo_1099826" data-name="Grupo 1099826" clip-path="url(#clip-path-6)">
                            <rect id="Rectángulo_401266" data-name="Rectángulo 401266" width="21.419" height="21.419" transform="translate(-5.189 15.062) rotate(-70.991)" fill="#d4e157"/>
                          </g>
                        </g>
                      </g>
                    </g>
                  </g>
                  <g id="Grupo_1099845" data-name="Grupo 1099845" transform="translate(34.37 68.499)" style="isolation: isolate">
                    <g id="Grupo_1099844" data-name="Grupo 1099844" transform="translate(0 0)">
                      <g id="Grupo_1099843" data-name="Grupo 1099843" transform="translate(0 0)" clip-path="url(#clip-path-21)">
                        <g id="Grupo_1099842" data-name="Grupo 1099842" transform="translate(0 0)">
                          <g id="Grupo_1099841" data-name="Grupo 1099841" clip-path="url(#clip-path-22)">
                            <rect id="Rectángulo_401272" data-name="Rectángulo 401272" width="21.419" height="21.418" transform="translate(-5.189 15.062) rotate(-70.991)" fill="#d4e157"/>
                          </g>
                        </g>
                      </g>
                    </g>
                  </g>
                  <g id="Grupo_1099855" data-name="Grupo 1099855" transform="translate(33.983 102.745)" style="isolation: isolate">
                    <g id="Grupo_1099854" data-name="Grupo 1099854">
                      <g id="Grupo_1099853" data-name="Grupo 1099853" clip-path="url(#clip-path-13)">
                        <g id="Grupo_1099852" data-name="Grupo 1099852" transform="translate(0)">
                          <g id="Grupo_1099851" data-name="Grupo 1099851" transform="translate(0)" clip-path="url(#clip-path-24)">
                            <rect id="Rectángulo_401276" data-name="Rectángulo 401276" width="21.418" height="21.419" transform="translate(-5.189 15.062) rotate(-70.991)" fill="#d4e157"/>
                          </g>
                        </g>
                      </g>
                    </g>
                  </g>
                  <g id="Grupo_1099870" data-name="Grupo 1099870" transform="translate(33.983 119.647)" style="isolation: isolate">
                    <g id="Grupo_1099869" data-name="Grupo 1099869" transform="translate(0 0)">
                      <g id="Grupo_1099868" data-name="Grupo 1099868" transform="translate(0 0)" clip-path="url(#clip-path-13)">
                        <g id="Grupo_1099867" data-name="Grupo 1099867" transform="translate(0 0)">
                          <g id="Grupo_1099866" data-name="Grupo 1099866" transform="translate(0)" clip-path="url(#clip-path-6)">
                            <rect id="Rectángulo_401282" data-name="Rectángulo 401282" width="21.418" height="21.419" transform="translate(-5.189 15.062) rotate(-70.991)" fill="#d4e157"/>
                          </g>
                        </g>
                      </g>
                    </g>
                  </g>
                  <g id="Grupo_1099885" data-name="Grupo 1099885" transform="translate(33.983 136.496)" style="isolation: isolate">
                    <g id="Grupo_1099884" data-name="Grupo 1099884" transform="translate(0 0)">
                      <g id="Grupo_1099883" data-name="Grupo 1099883" transform="translate(0 0)" clip-path="url(#clip-path-13)">
                        <g id="Grupo_1099882" data-name="Grupo 1099882" transform="translate(0 0)">
                          <g id="Grupo_1099881" data-name="Grupo 1099881" transform="translate(0)" clip-path="url(#clip-path-24)">
                            <rect id="Rectángulo_401288" data-name="Rectángulo 401288" width="21.418" height="21.419" transform="translate(-5.189 15.062) rotate(-70.991)" fill="#d4e157"/>
                          </g>
                        </g>
                      </g>
                    </g>
                  </g>
                  <g id="Grupo_1099900" data-name="Grupo 1099900" transform="translate(34.37 51.634)" style="isolation: isolate">
                    <g id="Grupo_1099899" data-name="Grupo 1099899" transform="translate(0 0)">
                      <g id="Grupo_1099898" data-name="Grupo 1099898" transform="translate(0 0)" clip-path="url(#clip-path-21)">
                        <g id="Grupo_1099897" data-name="Grupo 1099897" transform="translate(0 0)">
                          <g id="Grupo_1099896" data-name="Grupo 1099896" clip-path="url(#clip-path-22)">
                            <rect id="Rectángulo_401294" data-name="Rectángulo 401294" width="21.419" height="21.418" transform="translate(-5.189 15.062) rotate(-70.991)" fill="#d4e157"/>
                          </g>
                        </g>
                      </g>
                    </g>
                  </g>
                  <g id="Grupo_1099910" data-name="Grupo 1099910" transform="translate(33.983 34.397)" style="isolation: isolate">
                    <g id="Grupo_1099909" data-name="Grupo 1099909" transform="translate(0 0)">
                      <g id="Grupo_1099908" data-name="Grupo 1099908" transform="translate(0 0)" clip-path="url(#clip-path-21)">
                        <g id="Grupo_1099907" data-name="Grupo 1099907" transform="translate(0 0)">
                          <g id="Grupo_1099906" data-name="Grupo 1099906" transform="translate(0)" clip-path="url(#clip-path-6)">
                            <rect id="Rectángulo_401298" data-name="Rectángulo 401298" width="21.419" height="21.419" transform="matrix(0.326, -0.945, 0.945, 0.326, -5.189, 15.062)" fill="#d4e157"/>
                          </g>
                        </g>
                      </g>
                    </g>
                  </g>
                </g>
              </g>
            </g>
          </g>
        </g>
        <circle id="Elipse_11503" data-name="Elipse 11503" cx="55" cy="55" r="55" transform="translate(8 8.566)" fill="#f3f9ff"/>
      </g>
    </g>
    <g id="Grupo_1101089" data-name="Grupo 1101089" transform="translate(838.371 943.141)">
      <g id="Grupo_1099389" data-name="Grupo 1099389" transform="translate(0 0)">
        <rect id="Rectángulo_401104" data-name="Rectángulo 401104" width="71" height="72" transform="translate(0.293 -0.141)" fill="none"/>
      </g>
      <path id="Trazado_907915" data-name="Trazado 907915" d="M47.533,53.9a2.893,2.893,0,1,0,2.893-2.893A2.9,2.9,0,0,0,47.533,53.9Zm4.229,0a1.338,1.338,0,1,1-1.338-1.338A1.339,1.339,0,0,1,51.762,53.9Zm28.479-2.741H54.616l-1.957-3.39a2.578,2.578,0,0,0-4.466,0l-1.957,3.39H20.608a.778.778,0,0,0-.778.778v3.927a.778.778,0,0,0,.778.778h22.46L34.836,70.9H30.578a3.552,3.552,0,0,0-3.549,3.549v2.237a.778.778,0,0,0,.778.778H73.044a.778.778,0,0,0,.778-.778V74.453A3.552,3.552,0,0,0,70.273,70.9H66.016L57.783,56.646h22.46a.778.778,0,0,0,.778-.778V51.941A.782.782,0,0,0,80.241,51.162ZM21.385,55.091V52.719H45.335l-1.37,2.372ZM70.272,72.46a2,2,0,0,1,1.993,1.993v1.458H28.583V74.453a2,2,0,0,1,1.993-1.993h39.7ZM64.218,70.9H36.632L49.538,48.551a1.024,1.024,0,0,1,1.773,0ZM79.463,55.091H56.882l-1.37-2.372H79.462v2.372ZM32.807,50.122h.023c8.024-.121,10.9-3.19,11.9-5.743.969-2.472.653-5.6-.914-9.04A30.619,30.619,0,0,0,37.63,26.7a1.742,1.742,0,0,0,.426-1.144V25.41a1.753,1.753,0,0,0-.889-1.523c.027-.04.057-.08.084-.119,2.329-3.3,2.374-3.455,2.374-7.993a.778.778,0,0,0-1.4-.47c-.912,1.2-1.751,1.8-2.5,1.787-.715-.017-1.476-.608-2.263-1.756a.777.777,0,0,0-1.283,0c-.787,1.148-1.547,1.739-2.263,1.756-.752.017-1.592-.583-2.5-1.787a.779.779,0,0,0-1.4.476c0,4.534.044,4.683,2.374,7.989l.083.118a1.753,1.753,0,0,0-.889,1.523v.145a1.747,1.747,0,0,0,.426,1.144,30.575,30.575,0,0,0-6.19,8.639c-1.567,3.444-1.883,6.568-.914,9.04C21.906,46.932,24.783,50,32.807,50.122ZM27.584,17.744a3.6,3.6,0,0,0,2.369.9,4,4,0,0,0,2.867-1.6,4,4,0,0,0,2.867,1.6,3.593,3.593,0,0,0,2.369-.9c-.062,2.272-.385,2.731-2.075,5.128-.171.242-.354.5-.552.785H30.211c-.2-.283-.381-.543-.552-.784C27.969,20.475,27.645,20.016,27.584,17.744ZM36.5,25.41v.145a.2.2,0,0,1-.2.2H29.325a.2.2,0,0,1-.188-.2v-.145a.2.2,0,0,1,.2-.2H36.3A.2.2,0,0,1,36.5,25.41Zm-6.895,1.9h6.428c5.954,5.782,8.866,12.386,7.253,16.5C42.1,46.835,38.48,48.48,32.819,48.566c-5.661-.087-9.281-1.732-10.467-4.755-1.614-4.115,1.3-10.72,7.253-16.5Zm-.7,7.708a3.692,3.692,0,0,1,3.133-3.5V30.01a.779.779,0,0,1,1.558,0V31.5a4.032,4.032,0,0,1,2.539,1.49.778.778,0,0,1-1.235.945,2.546,2.546,0,0,0-2.03-.941,2.244,2.244,0,0,0-2.409,2.023c0,1.328.756,1.656,2.612,2.138,1.544.4,3.656.95,3.656,3.463a3.692,3.692,0,0,1-3.133,3.5v1.824a.779.779,0,0,1-1.558,0v-1.8a4.035,4.035,0,0,1-2.539-1.49.778.778,0,0,1,1.235-.945,2.548,2.548,0,0,0,2.03.941,2.244,2.244,0,0,0,2.409-2.023c0-1.191-.722-1.5-2.492-1.957C31.09,38.247,28.907,37.68,28.907,35.016ZM78.747,30.8H77.134c-.13-.362-.277-.718-.442-1.065l1.141-1.141a2.3,2.3,0,0,0,0-3.253L75.517,23.02a2.3,2.3,0,0,0-3.253,0l-1.141,1.141c-.347-.165-.7-.312-1.065-.442V22.107a2.3,2.3,0,0,0-2.3-2.3H64.481a2.3,2.3,0,0,0-2.3,2.3V23.72c-.362.13-.718.277-1.065.442l-1.141-1.141a2.3,2.3,0,0,0-3.253,0L54.4,25.338a2.3,2.3,0,0,0,0,3.253l1.141,1.141c-.165.347-.312.7-.442,1.065H53.491a2.3,2.3,0,0,0-2.3,2.3v3.276a2.3,2.3,0,0,0,2.3,2.3H55.1c.13.362.277.718.442,1.065L54.406,40.88a2.3,2.3,0,0,0,0,3.253l2.316,2.316a2.3,2.3,0,0,0,3.253,0l1.141-1.141c.347.165.7.312,1.065.442v1.614a2.3,2.3,0,0,0,2.3,2.3h3.276a2.3,2.3,0,0,0,2.3-2.3V45.75c.362-.13.718-.277,1.065-.442l1.141,1.141a2.3,2.3,0,0,0,3.253,0l2.316-2.316a2.3,2.3,0,0,0,0-3.253l-1.141-1.141c.165-.347.312-.7.442-1.065h1.612a2.3,2.3,0,0,0,2.3-2.3V33.1A2.3,2.3,0,0,0,78.747,30.8Zm.745,5.576a.746.746,0,0,1-.745.745H76.572a.775.775,0,0,0-.744.553,10.043,10.043,0,0,1-.769,1.852.778.778,0,0,0,.135.918l1.538,1.538a.748.748,0,0,1,0,1.052l-2.316,2.316a.746.746,0,0,1-1.054,0l-1.538-1.538a.776.776,0,0,0-.918-.135,10.132,10.132,0,0,1-1.852.769.778.778,0,0,0-.553.744v2.175a.746.746,0,0,1-.745.745H64.48a.746.746,0,0,1-.745-.745V45.186a.775.775,0,0,0-.553-.744,10.042,10.042,0,0,1-1.852-.769.776.776,0,0,0-.916.136l-1.538,1.538a.746.746,0,0,1-1.054,0L55.5,43.032a.748.748,0,0,1,0-1.052l1.538-1.538a.776.776,0,0,0,.135-.918,10.133,10.133,0,0,1-.769-1.852.777.777,0,0,0-.744-.552H53.491a.746.746,0,0,1-.745-.745V33.1a.746.746,0,0,1,.745-.745h2.175a.775.775,0,0,0,.744-.553,10.042,10.042,0,0,1,.769-1.852.778.778,0,0,0-.135-.918L55.5,27.492a.746.746,0,0,1,0-1.054l2.316-2.316a.746.746,0,0,1,1.054,0l1.538,1.538a.776.776,0,0,0,.918.135,10.117,10.117,0,0,1,1.852-.769.778.778,0,0,0,.553-.744V22.107a.746.746,0,0,1,.745-.745h3.276a.746.746,0,0,1,.745.745v2.175a.775.775,0,0,0,.553.744,10.042,10.042,0,0,1,1.852.769.778.778,0,0,0,.918-.135l1.538-1.538a.746.746,0,0,1,1.054,0l2.316,2.316a.746.746,0,0,1,0,1.054L75.2,29.029a.776.776,0,0,0-.135.918,10.132,10.132,0,0,1,.769,1.852.777.777,0,0,0,.744.552h2.175a.746.746,0,0,1,.745.745v3.276ZM66.119,26.814a7.921,7.921,0,1,0,7.921,7.921A7.931,7.931,0,0,0,66.119,26.814Zm0,14.286a6.366,6.366,0,1,1,6.366-6.366A6.373,6.373,0,0,1,66.119,41.1Z" transform="translate(-14.646 -10.373)" fill="#474d41"/>
    </g>
  </g>
</svg>
