<svg xmlns="http://www.w3.org/2000/svg" width="70" height="70" viewBox="0 0 70 70">
  <g id="Grupo_1072267" data-name="Grupo 1072267" transform="translate(-269 -958)">
    <circle id="Elipse_5614" data-name="Elipse 5614" cx="35" cy="35" r="35" transform="translate(269 958)" fill="#fff"/>
    <path id="Trazado_907833" data-name="Trazado 907833" d="M46.64,28.889l4.524,5.329a.328.328,0,0,1-.25.541H48.806V48.7l-2.4-2.4-2.432,1.081V34.759H41.865a.328.328,0,0,1-.25-.541l4.524-5.329a.329.329,0,0,1,.5,0ZM27.068,61.549h-1.11a8.764,8.764,0,0,1,.992-2.987c.338.2.683.395,1.024.591a.623.623,0,1,0,.623-1.079l-.972-.561a8.871,8.871,0,0,1,2.3-2.147l.582,1.009a.623.623,0,1,0,1.079-.623l-.568-.984a8.771,8.771,0,0,1,3.051-.778v1.15a.623.623,0,0,0,1.246,0V53.99a8.771,8.771,0,0,1,3.052.778l-.569.984a.623.623,0,1,0,1.079.623l.582-1.009a8.873,8.873,0,0,1,2.3,2.147l-.972.561a.623.623,0,1,0,.623,1.079c.341-.2.686-.391,1.024-.591a8.764,8.764,0,0,1,.991,2.987H42.325a.623.623,0,1,0,0,1.246l11.068,0v-2.53l-3.1-1.192A15.954,15.954,0,0,0,48.358,54.4l1.348-3.035-3.578-3.579-3.036,1.348A15.957,15.957,0,0,0,38.42,47.2l-1.193-3.1h-5.06l-1.193,3.1A15.957,15.957,0,0,0,26.3,49.132l-3.036-1.348-3.578,3.578L21.035,54.4A15.957,15.957,0,0,0,19.1,59.071L16,60.264v2.53l11.068,0a.623.623,0,1,0,0-1.246Zm7.629-.138a1.376,1.376,0,0,1,.759.227l3.321-1.918A.621.621,0,1,1,39.4,60.8l-3.319,1.916c0,.026,0,.053,0,.08A1.382,1.382,0,1,1,34.7,61.412ZM23.255,36.853l4.524,5.329a.328.328,0,0,1-.25.541H25.421v4.655L22.989,46.3l-2.4,2.4V42.723H18.48a.328.328,0,0,1-.25-.541l4.524-5.329a.329.329,0,0,1,.5,0Zm11.692-3.983L39.471,38.2a.328.328,0,0,1-.251.541H37.114v4.11H32.28v-4.11H30.172a.328.328,0,0,1-.25-.541l4.524-5.329a.329.329,0,0,1,.5,0Z" transform="translate(269.303 946.526)" fill="#474d41" fill-rule="evenodd"/>
  </g>
</svg>
