<svg xmlns="http://www.w3.org/2000/svg" width="70" height="70" viewBox="0 0 70 70">
  <g id="Grupo_1071455" data-name="Grupo 1071455" transform="translate(-269 -958)">
    <circle id="Elipse_5614" data-name="Elipse 5614" cx="35" cy="35" r="35" transform="translate(269 958)" fill="#fff"/>
    <g id="Grupo_1120593" data-name="Grupo 1120593" transform="translate(279.5 968.403)">
      <path id="Trazado_907826" data-name="Trazado 907826" d="M7.649,40.324C5.7,42.08,2,46.01,2,48.94a5.649,5.649,0,1,0,11.3,0C13.3,46.01,9.6,42.08,7.649,40.324Zm2.1,4.984a.807.807,0,0,1-1.4.807.807.807,0,1,0-.7,1.211,2.415,2.415,0,0,1,.807,4.694v.148a.807.807,0,0,1-1.614,0v-.161a2.415,2.415,0,0,1-1.291-1.049.807.807,0,0,1,1.4-.807.807.807,0,1,0,.7-1.211,2.415,2.415,0,0,1-.807-4.694V44.1a.807.807,0,0,1,1.614,0v.161a2.415,2.415,0,0,1,1.291,1.049Z" transform="translate(0 -7.395)" fill="#474d41"/>
      <path id="Trazado_907827" data-name="Trazado 907827" d="M33.815,9.228c.271,0,.541.012.807.031V6H33.008V9.259C33.276,9.24,33.544,9.228,33.815,9.228Z" transform="translate(-5.983 -0.772)" fill="#474d41"/>
      <rect id="Rect치ngulo_410223" data-name="Rect치ngulo 410223" width="8" height="3" rx="1" transform="translate(4 28.194)" fill="#474d41"/>
      <path id="Trazado_907828" data-name="Trazado 907828" d="M36.885,3.614a.807.807,0,0,0,0-1.614h-8.07a.807.807,0,0,0,0,1.614Z" transform="translate(-5.018)" fill="#474d41"/>
      <rect id="Rect치ngulo_410224" data-name="Rect치ngulo 410224" width="3" height="8" rx="1" transform="translate(44 16.194)" fill="#474d41"/>
      <path id="Trazado_907829" data-name="Trazado 907829" d="M32.464,16a6.456,6.456,0,1,0,6.456,6.456A6.456,6.456,0,0,0,32.464,16Zm.807,10.343v.148a.807.807,0,0,1-1.614,0V26.33a2.415,2.415,0,0,1-1.291-1.049.807.807,0,0,1,1.4-.807.807.807,0,1,0,.7-1.211,2.415,2.415,0,0,1-.807-4.694v-.148a.807.807,0,1,1,1.614,0v.161a2.411,2.411,0,0,1,1.291,1.049.807.807,0,1,1-1.4.807.807.807,0,1,0-.7,1.211,2.415,2.415,0,0,1,.807,4.694Z" transform="translate(-4.633 -2.701)" fill="#474d41"/>
      <path id="Trazado_907830" data-name="Trazado 907830" d="M37.818,18.7a9.684,9.684,0,0,0-18.43,0,.807.807,0,0,1-.768.559H9.228A3.228,3.228,0,0,0,6,22.491v6.456h4.842V25.719a1.614,1.614,0,0,1,1.614-1.614h6.164a.807.807,0,0,1,.768.559,9.685,9.685,0,0,0,18.43,0,.807.807,0,0,1,.768-.559h4.537V19.263H38.587a.807.807,0,0,1-.768-.559ZM28.6,29.755a8.07,8.07,0,1,1,8.07-8.07,8.07,8.07,0,0,1-8.07,8.07Z" transform="translate(-0.772 -1.929)" fill="#474d41"/>
    </g>
  </g>
</svg>
