<svg xmlns="http://www.w3.org/2000/svg" xmlns:xlink="http://www.w3.org/1999/xlink" width="99" height="99" viewBox="0 0 99 99">
  <defs>
    <clipPath id="clip-path">
      <rect id="Rectángulo_401273" data-name="Rectángulo 401273" width="15.047" height="15.048" fill="#eef3bc"/>
    </clipPath>
    <clipPath id="clip-path-2">
      <path id="Trazado_873519" data-name="Trazado 873519" d="M15.047,7.524A7.524,7.524,0,1,1,7.524,0a7.524,7.524,0,0,1,7.524,7.524" fill="#eef3bc"/>
    </clipPath>
  </defs>
  <g id="Grupo_1120617" data-name="Grupo 1120617" transform="translate(-732.711 -1154)">
    <rect id="Rectángulo_409535" data-name="Rectángulo 409535" width="99" height="99" rx="49.5" transform="translate(732.711 1154)" fill="#f3f9ff"/>
    <g id="Grupo_1119770" data-name="Grupo 1119770" transform="translate(-214.916 -7981.033)">
      <g id="Grupo_1099855" data-name="Grupo 1099855" transform="translate(948.664 9139)">
        <g id="Grupo_1099808" data-name="Grupo 1099808">
          <g id="Grupo_1101062" data-name="Grupo 1101062" transform="translate(-307.943 -6779.151)">
            <g id="Grupo_1101056" data-name="Grupo 1101056" transform="translate(330.953 6828.445) rotate(90)" opacity="0.998" style="isolation: isolate">
              <g id="Grupo_1099844" data-name="Grupo 1099844" transform="translate(0 0)">
                <g id="Grupo_1099843" data-name="Grupo 1099843" transform="translate(0 0)" clip-path="url(#clip-path)">
                  <g id="Grupo_1099842" data-name="Grupo 1099842" transform="translate(0 0)">
                    <g id="Grupo_1099841" data-name="Grupo 1099841" clip-path="url(#clip-path-2)">
                      <rect id="Rectángulo_401272" data-name="Rectángulo 401272" width="19.128" height="19.128" transform="translate(-4.634 13.451) rotate(-70.991)" fill="#eef3bc"/>
                    </g>
                  </g>
                </g>
              </g>
            </g>
            <g id="Grupo_1101057" data-name="Grupo 1101057" transform="translate(330.953 6843.492) rotate(90)" opacity="0.998" style="isolation: isolate">
              <g id="Grupo_1099844-2" data-name="Grupo 1099844" transform="translate(0 0)">
                <g id="Grupo_1099843-2" data-name="Grupo 1099843" transform="translate(0 0)" clip-path="url(#clip-path)">
                  <g id="Grupo_1099842-2" data-name="Grupo 1099842" transform="translate(0 0)">
                    <g id="Grupo_1099841-2" data-name="Grupo 1099841" clip-path="url(#clip-path-2)">
                      <rect id="Rectángulo_401272-2" data-name="Rectángulo 401272" width="19.128" height="19.128" transform="translate(-4.634 13.451) rotate(-70.991)" fill="#eef3bc"/>
                    </g>
                  </g>
                </g>
              </g>
            </g>
            <g id="Grupo_1101058" data-name="Grupo 1101058" transform="translate(330.953 6858.54) rotate(90)" opacity="0.998" style="isolation: isolate">
              <g id="Grupo_1099844-3" data-name="Grupo 1099844" transform="translate(0 0)">
                <g id="Grupo_1099843-3" data-name="Grupo 1099843" transform="translate(0 0)" clip-path="url(#clip-path)">
                  <g id="Grupo_1099842-3" data-name="Grupo 1099842" transform="translate(0 0)">
                    <g id="Grupo_1099841-3" data-name="Grupo 1099841" clip-path="url(#clip-path-2)">
                      <rect id="Rectángulo_401272-3" data-name="Rectángulo 401272" width="19.128" height="19.128" transform="translate(-4.634 13.451) rotate(-70.991)" fill="#eef3bc"/>
                    </g>
                  </g>
                </g>
              </g>
            </g>
            <g id="Grupo_1101059" data-name="Grupo 1101059" transform="translate(346 6858.676) rotate(90)" opacity="0.998" style="isolation: isolate">
              <g id="Grupo_1099844-4" data-name="Grupo 1099844" transform="translate(0 0)">
                <g id="Grupo_1099843-4" data-name="Grupo 1099843" transform="translate(0 0)" clip-path="url(#clip-path)">
                  <g id="Grupo_1099842-4" data-name="Grupo 1099842" transform="translate(0 0)">
                    <g id="Grupo_1099841-4" data-name="Grupo 1099841" clip-path="url(#clip-path-2)">
                      <rect id="Rectángulo_401272-4" data-name="Rectángulo 401272" width="19.128" height="19.128" transform="translate(-4.634 13.451) rotate(-70.991)" fill="#eef3bc"/>
                    </g>
                  </g>
                </g>
              </g>
            </g>
            <g id="Grupo_1101060" data-name="Grupo 1101060" transform="translate(346 6843.492) rotate(90)" opacity="0.998" style="isolation: isolate">
              <g id="Grupo_1099844-5" data-name="Grupo 1099844" transform="translate(0 0)">
                <g id="Grupo_1099843-5" data-name="Grupo 1099843" transform="translate(0 0)" clip-path="url(#clip-path)">
                  <g id="Grupo_1099842-5" data-name="Grupo 1099842" transform="translate(0 0)">
                    <g id="Grupo_1099841-5" data-name="Grupo 1099841" clip-path="url(#clip-path-2)">
                      <rect id="Rectángulo_401272-5" data-name="Rectángulo 401272" width="19.128" height="19.128" transform="translate(-4.634 13.451) rotate(-70.991)" fill="#eef3bc"/>
                    </g>
                  </g>
                </g>
              </g>
            </g>
            <g id="Grupo_1101061" data-name="Grupo 1101061" transform="translate(361.047 6858.676) rotate(90)" opacity="0.998" style="isolation: isolate">
              <g id="Grupo_1099844-6" data-name="Grupo 1099844" transform="translate(0 0)">
                <g id="Grupo_1099843-6" data-name="Grupo 1099843" transform="translate(0 0)" clip-path="url(#clip-path)">
                  <g id="Grupo_1099842-6" data-name="Grupo 1099842" transform="translate(0 0)">
                    <g id="Grupo_1099841-6" data-name="Grupo 1099841" clip-path="url(#clip-path-2)">
                      <rect id="Rectángulo_401272-6" data-name="Rectángulo 401272" width="19.128" height="19.128" transform="translate(-4.634 13.451) rotate(-70.991)" fill="#eef3bc"/>
                    </g>
                  </g>
                </g>
              </g>
            </g>
          </g>
          <g id="Grupo_1099776" data-name="Grupo 1099776" transform="translate(14.032 18.035)">
            <g id="Grupo_1099618" data-name="Grupo 1099618" transform="translate(0 0)">
              <rect id="Rectángulo_401104" data-name="Rectángulo 401104" width="57.823" height="58.52" transform="translate(0)" fill="none"/>
            </g>
            <g id="Grupo_1119761" data-name="Grupo 1119761" transform="translate(3.931 -7.075)">
              <path id="Trazado_906840" data-name="Trazado 906840" d="M30,19h4a1,1,0,0,0,1-1V14a1,1,0,0,0-1-1H30a1,1,0,0,0-1,1v4A1,1,0,0,0,30,19Zm1-4h2v2H31Z" fill="#4c5066"/>
              <path id="Trazado_906841" data-name="Trazado 906841" d="M38,19h4a1,1,0,0,0,1-1V14a1,1,0,0,0-1-1H38a1,1,0,0,0-1,1v4A1,1,0,0,0,38,19Zm1-4h2v2H39Z" fill="#4c5066"/>
              <path id="Trazado_906842" data-name="Trazado 906842" d="M30,27h4a1,1,0,0,0,1-1V22a1,1,0,0,0-1-1H30a1,1,0,0,0-1,1v4A1,1,0,0,0,30,27Zm1-4h2v2H31Z" fill="#4c5066"/>
              <path id="Trazado_906843" data-name="Trazado 906843" d="M30,35h4a1,1,0,0,0,1-1V30a1,1,0,0,0-1-1H30a1,1,0,0,0-1,1v4A1,1,0,0,0,30,35Zm1-4h2v2H31Z" fill="#4c5066"/>
              <path id="Trazado_906844" data-name="Trazado 906844" d="M38,35h4a1,1,0,0,0,1-1V30a1,1,0,0,0-1-1H38a1,1,0,0,0-1,1v4A1,1,0,0,0,38,35Zm1-4h2v2H39Z" fill="#4c5066"/>
              <path id="Trazado_906845" data-name="Trazado 906845" d="M46,27h4a1,1,0,0,0,1-1V22a1,1,0,0,0-1-1H46a1,1,0,0,0-1,1v4A1,1,0,0,0,46,27Zm1-4h2v2H47Z" fill="#4c5066"/>
              <path id="Trazado_906846" data-name="Trazado 906846" d="M46,35h4a1,1,0,0,0,1-1V30a1,1,0,0,0-1-1H46a1,1,0,0,0-1,1v4A1,1,0,0,0,46,35Zm1-4h2v2H47Z" fill="#4c5066"/>
              <path id="Trazado_906847" data-name="Trazado 906847" d="M38,27h4a1,1,0,0,0,1-1V22a1,1,0,0,0-1-1H38a1,1,0,0,0-1,1v4A1,1,0,0,0,38,27Zm1-4h2v2H39Z" fill="#4c5066"/>
              <path id="Trazado_906848" data-name="Trazado 906848" d="M46,19h4a1,1,0,0,0,1-1V14a1,1,0,0,0-1-1H46a1,1,0,0,0-1,1v4A1,1,0,0,0,46,19Zm1-4h2v2H47Z" fill="#4c5066"/>
              <path id="Trazado_906849" data-name="Trazado 906849" d="M21,28h2v2H21Z" fill="#4c5066"/>
              <path id="Trazado_906850" data-name="Trazado 906850" d="M17,28h2v2H17Z" fill="#4c5066"/>
              <path id="Trazado_906851" data-name="Trazado 906851" d="M13,32h2v2H13Z" fill="#4c5066"/>
              <path id="Trazado_906852" data-name="Trazado 906852" d="M17,32h2v2H17Z" fill="#4c5066"/>
              <path id="Trazado_906853" data-name="Trazado 906853" d="M21,32h2v2H21Z" fill="#4c5066"/>
              <path id="Trazado_906854" data-name="Trazado 906854" d="M13,36h2v2H13Z" fill="#4c5066"/>
              <path id="Trazado_906855" data-name="Trazado 906855" d="M17,36h2v2H17Z" fill="#4c5066"/>
              <path id="Trazado_906856" data-name="Trazado 906856" d="M21,36h2v2H21Z" fill="#4c5066"/>
              <path id="Trazado_906857" data-name="Trazado 906857" d="M13,40h2v2H13Z" fill="#4c5066"/>
              <path id="Trazado_906858" data-name="Trazado 906858" d="M17,40h2v2H17Z" fill="#4c5066"/>
              <path id="Trazado_906859" data-name="Trazado 906859" d="M21,40h2v2H21Z" fill="#4c5066"/>
              <path id="Trazado_906860" data-name="Trazado 906860" d="M62,55H55V10a1,1,0,0,0-1-1H52V2a1,1,0,0,0-1-1H29a1,1,0,0,0-1,1V9H26a1,1,0,0,0-1,1v7H21.786A11,11,0,1,0,9,22.574V55H2a1,1,0,0,0-1,1v6a1,1,0,0,0,1,1H62a1,1,0,0,0,1-1V56A1,1,0,0,0,62,55ZM30,3H50V9H30Zm23,8V55H49V40a1,1,0,0,0-1-1H32a1,1,0,0,0-1,1V55H27V11ZM33,55V41h6V55Zm8-14h6V55H41ZM3,12a9,9,0,1,1,9,9,9,9,0,0,1-9-9Zm8,10.949c.33.03.662.051,1,.051a10.986,10.986,0,0,0,8.479-4H25V55H11ZM61,61H3V57H61Z" fill="#4c5066"/>
              <path id="Trazado_906861" data-name="Trazado 906861" d="M13,19V18a3,3,0,0,0,3-3V14a3,3,0,0,0-3-3V8a1,1,0,0,1,1,1v1h2V9a3,3,0,0,0-3-3V5H11V6A3,3,0,0,0,8,9v1a3,3,0,0,0,3,3v3a1,1,0,0,1-1-1H8a3,3,0,0,0,3,3v1Zm-3-9V9a1,1,0,0,1,1-1v3A1,1,0,0,1,10,10Zm3,3a1,1,0,0,1,1,1v1a1,1,0,0,1-1,1Z" fill="#4c5066"/>
              <path id="Trazado_906862" data-name="Trazado 906862" d="M13,28h2v2H13Z" fill="#4c5066"/>
            </g>
          </g>
        </g>
      </g>
    </g>
  </g>
</svg>
