<svg xmlns="http://www.w3.org/2000/svg" xmlns:xlink="http://www.w3.org/1999/xlink" width="120" height="120" viewBox="0 0 120 120">
  <defs>
    <clipPath id="clip-path">
      <rect id="Rectángulo_400938" data-name="Rectángulo 400938" width="113" height="113" fill="none"/>
    </clipPath>
    <clipPath id="clip-path-2">
      <rect id="Rectángulo_401742" data-name="Rectángulo 401742" width="120" height="120" fill="none"/>
    </clipPath>
    <clipPath id="clip-path-3">
      <rect id="Rectángulo_401301" data-name="Rectángulo 401301" width="64.317" height="193.113" fill="#d4e157"/>
    </clipPath>
    <clipPath id="clip-path-5">
      <rect id="Rectángulo_401247" data-name="Rectángulo 401247" width="15.921" height="15.92" fill="#d4e157"/>
    </clipPath>
    <clipPath id="clip-path-6">
      <path id="Trazado_873506" data-name="Trazado 873506" d="M15.921,7.96A7.96,7.96,0,1,1,7.96,0a7.961,7.961,0,0,1,7.961,7.96" fill="#d4e157"/>
    </clipPath>
    <clipPath id="clip-path-8">
      <path id="Trazado_873507" data-name="Trazado 873507" d="M15.921,7.96A7.96,7.96,0,1,1,7.96,0a7.96,7.96,0,0,1,7.961,7.96" fill="#d4e157"/>
    </clipPath>
    <clipPath id="clip-path-13">
      <rect id="Rectángulo_401261" data-name="Rectángulo 401261" width="15.92" height="15.92" fill="#d4e157"/>
    </clipPath>
    <clipPath id="clip-path-14">
      <path id="Trazado_873513" data-name="Trazado 873513" d="M15.92,7.96A7.96,7.96,0,1,1,7.96,0a7.96,7.96,0,0,1,7.96,7.96" fill="#d4e157"/>
    </clipPath>
    <clipPath id="clip-path-15">
      <rect id="Rectángulo_401263" data-name="Rectángulo 401263" width="15.921" height="15.921" fill="#d4e157"/>
    </clipPath>
    <clipPath id="clip-path-16">
      <path id="Trazado_873514" data-name="Trazado 873514" d="M15.921,7.961A7.96,7.96,0,1,1,7.96,0a7.961,7.961,0,0,1,7.961,7.961" fill="#d4e157"/>
    </clipPath>
    <clipPath id="clip-path-21">
      <rect id="Rectángulo_401273" data-name="Rectángulo 401273" width="15.92" height="15.921" fill="#d4e157"/>
    </clipPath>
    <clipPath id="clip-path-22">
      <path id="Trazado_873519" data-name="Trazado 873519" d="M15.92,7.961A7.96,7.96,0,1,1,7.96,0a7.96,7.96,0,0,1,7.96,7.961" fill="#d4e157"/>
    </clipPath>
    <clipPath id="clip-path-24">
      <path id="Trazado_873521" data-name="Trazado 873521" d="M15.921,7.96A7.96,7.96,0,1,1,7.961,0a7.96,7.96,0,0,1,7.96,7.96" fill="#d4e157"/>
    </clipPath>
    <clipPath id="clip-path-32">
      <path id="Trazado_873532" data-name="Trazado 873532" d="M15.921,7.961A7.96,7.96,0,1,1,7.961,0a7.96,7.96,0,0,1,7.96,7.961" fill="#d4e157"/>
    </clipPath>
  </defs>
  <g id="Grupo_1120614" data-name="Grupo 1120614" transform="translate(-810.711 -20471.281)">
    <g id="Grupo_1119769" data-name="Grupo 1119769" transform="translate(0 18637.953)">
      <g id="Grupo_1101280" data-name="Grupo 1101280" transform="translate(810.711 1833.763)">
        <g id="Grupo_1099379" data-name="Grupo 1099379" transform="translate(0 -0.434)">
          <rect id="Rectángulo_401103" data-name="Rectángulo 401103" width="120" height="120" transform="translate(0 0)" fill="none"/>
          <path id="Trazado_873425" data-name="Trazado 873425" d="M49.147,0C76.29,0,98.293,23.571,98.293,52.647s-22,52.647-49.147,52.647S0,81.723,0,52.647,22,0,49.147,0Z" transform="translate(15.677 12.583)" fill="#b9bfe2"/>
          <g id="Enmascarar_grupo_1100032" data-name="Enmascarar grupo 1100032" transform="translate(0 0)" clip-path="url(#clip-path-2)">
            <g id="Grupo_1101051" data-name="Grupo 1101051" transform="translate(148.45 -27.966) rotate(90)" style="isolation: isolate">
              <g id="Grupo_1099913" data-name="Grupo 1099913" clip-path="url(#clip-path-3)" style="isolation: isolate">
                <g id="Grupo_1099912" data-name="Grupo 1099912">
                  <g id="Grupo_1099911" data-name="Grupo 1099911" clip-path="url(#clip-path-3)">
                    <g id="Grupo_1099780" data-name="Grupo 1099780" transform="translate(48.396 81.162)" style="isolation: isolate">
                      <g id="Grupo_1099779" data-name="Grupo 1099779">
                        <g id="Grupo_1099778" data-name="Grupo 1099778" transform="translate(0 0)" clip-path="url(#clip-path-5)">
                          <g id="Grupo_1099777" data-name="Grupo 1099777" transform="translate(0 0)">
                            <g id="Grupo_1099776" data-name="Grupo 1099776" clip-path="url(#clip-path-6)">
                              <path id="Trazado_875145" data-name="Trazado 875145" d="M0,0H20.238V20.238H0Z" transform="translate(-4.903 14.231) rotate(-70.991)" fill="#d4e157"/>
                            </g>
                          </g>
                        </g>
                      </g>
                    </g>
                    <g id="Grupo_1099785" data-name="Grupo 1099785" transform="translate(48.396 97.082)" style="isolation: isolate">
                      <g id="Grupo_1099784" data-name="Grupo 1099784">
                        <g id="Grupo_1099783" data-name="Grupo 1099783" clip-path="url(#clip-path-5)">
                          <g id="Grupo_1099782" data-name="Grupo 1099782" transform="translate(0)">
                            <g id="Grupo_1099781" data-name="Grupo 1099781" clip-path="url(#clip-path-8)">
                              <path id="Trazado_875146" data-name="Trazado 875146" d="M0,0H20.238V20.238H0Z" transform="translate(-4.903 14.231) rotate(-70.991)" fill="#d4e157"/>
                            </g>
                          </g>
                        </g>
                      </g>
                    </g>
                    <g id="Grupo_1099790" data-name="Grupo 1099790" transform="translate(48.396 113.052)" style="isolation: isolate">
                      <g id="Grupo_1099789" data-name="Grupo 1099789">
                        <g id="Grupo_1099788" data-name="Grupo 1099788" transform="translate(0 0)" clip-path="url(#clip-path-5)">
                          <g id="Grupo_1099787" data-name="Grupo 1099787" transform="translate(0 0)">
                            <g id="Grupo_1099786" data-name="Grupo 1099786" clip-path="url(#clip-path-6)">
                              <path id="Trazado_875147" data-name="Trazado 875147" d="M0,0H20.238V20.238H0Z" transform="translate(-4.903 14.231) rotate(-70.991)" fill="#d4e157"/>
                            </g>
                          </g>
                        </g>
                      </g>
                    </g>
                    <g id="Grupo_1099795" data-name="Grupo 1099795" transform="translate(48.396 128.972)" style="isolation: isolate">
                      <g id="Grupo_1099794" data-name="Grupo 1099794">
                        <g id="Grupo_1099793" data-name="Grupo 1099793" transform="translate(0 0)" clip-path="url(#clip-path-5)">
                          <g id="Grupo_1099792" data-name="Grupo 1099792" transform="translate(0 0)">
                            <g id="Grupo_1099791" data-name="Grupo 1099791" clip-path="url(#clip-path-8)">
                              <path id="Trazado_875148" data-name="Trazado 875148" d="M0,0H20.238V20.238H0Z" transform="translate(-4.903 14.231) rotate(-70.991)" fill="#d4e157"/>
                            </g>
                          </g>
                        </g>
                      </g>
                    </g>
                    <g id="Grupo_1099815" data-name="Grupo 1099815" transform="translate(32.476 81.162)" style="isolation: isolate">
                      <g id="Grupo_1099814" data-name="Grupo 1099814">
                        <g id="Grupo_1099813" data-name="Grupo 1099813" transform="translate(0 0)" clip-path="url(#clip-path-13)">
                          <g id="Grupo_1099812" data-name="Grupo 1099812" transform="translate(0 0)">
                            <g id="Grupo_1099811" data-name="Grupo 1099811" clip-path="url(#clip-path-14)">
                              <path id="Trazado_875149" data-name="Trazado 875149" d="M0,0H20.238V20.238H0Z" transform="translate(-4.903 14.231) rotate(-70.991)" fill="#d4e157"/>
                            </g>
                          </g>
                        </g>
                      </g>
                    </g>
                    <g id="Grupo_1099820" data-name="Grupo 1099820" transform="translate(48.396 64.723)" style="isolation: isolate">
                      <g id="Grupo_1099819" data-name="Grupo 1099819">
                        <g id="Grupo_1099818" data-name="Grupo 1099818" transform="translate(0 0)" clip-path="url(#clip-path-15)">
                          <g id="Grupo_1099817" data-name="Grupo 1099817" transform="translate(0 0)">
                            <g id="Grupo_1099816" data-name="Grupo 1099816" clip-path="url(#clip-path-16)">
                              <path id="Trazado_875150" data-name="Trazado 875150" d="M0,0H20.238V20.238H0Z" transform="matrix(0.326, -0.945, 0.945, 0.326, -4.903, 14.232)" fill="#d4e157"/>
                            </g>
                          </g>
                        </g>
                      </g>
                    </g>
                    <g id="Grupo_1099825" data-name="Grupo 1099825" transform="translate(48.396 48.715)" style="isolation: isolate">
                      <g id="Grupo_1099824" data-name="Grupo 1099824">
                        <g id="Grupo_1099823" data-name="Grupo 1099823" transform="translate(0 0)" clip-path="url(#clip-path-5)">
                          <g id="Grupo_1099822" data-name="Grupo 1099822" transform="translate(0 0)">
                            <g id="Grupo_1099821" data-name="Grupo 1099821" clip-path="url(#clip-path-6)">
                              <path id="Trazado_875151" data-name="Trazado 875151" d="M0,0H20.238V20.238H0Z" transform="translate(-4.903 14.231) rotate(-70.991)" fill="#d4e157"/>
                            </g>
                          </g>
                        </g>
                      </g>
                    </g>
                    <g id="Grupo_1099830" data-name="Grupo 1099830" transform="translate(48.396 32.501)" style="isolation: isolate">
                      <g id="Grupo_1099829" data-name="Grupo 1099829">
                        <g id="Grupo_1099828" data-name="Grupo 1099828" transform="translate(0 0)" clip-path="url(#clip-path-15)">
                          <g id="Grupo_1099827" data-name="Grupo 1099827" transform="translate(0 0)">
                            <g id="Grupo_1099826" data-name="Grupo 1099826" clip-path="url(#clip-path-16)">
                              <path id="Trazado_875152" data-name="Trazado 875152" d="M0,0H20.238V20.238H0Z" transform="translate(-4.903 14.232) rotate(-70.991)" fill="#d4e157"/>
                            </g>
                          </g>
                        </g>
                      </g>
                    </g>
                    <g id="Grupo_1099845" data-name="Grupo 1099845" transform="translate(32.476 64.723)" style="isolation: isolate">
                      <g id="Grupo_1099844" data-name="Grupo 1099844">
                        <g id="Grupo_1099843" data-name="Grupo 1099843" transform="translate(0 0)" clip-path="url(#clip-path-21)">
                          <g id="Grupo_1099842" data-name="Grupo 1099842" transform="translate(0 0)">
                            <g id="Grupo_1099841" data-name="Grupo 1099841" clip-path="url(#clip-path-22)">
                              <path id="Trazado_875153" data-name="Trazado 875153" d="M0,0H20.238V20.238H0Z" transform="translate(-4.903 14.232) rotate(-70.991)" fill="#d4e157"/>
                            </g>
                          </g>
                        </g>
                      </g>
                    </g>
                    <g id="Grupo_1099855" data-name="Grupo 1099855" transform="translate(32.11 97.082)" style="isolation: isolate">
                      <g id="Grupo_1099854" data-name="Grupo 1099854">
                        <g id="Grupo_1099853" data-name="Grupo 1099853" clip-path="url(#clip-path-5)">
                          <g id="Grupo_1099852" data-name="Grupo 1099852" transform="translate(0)">
                            <g id="Grupo_1099851" data-name="Grupo 1099851" clip-path="url(#clip-path-24)">
                              <path id="Trazado_875154" data-name="Trazado 875154" d="M0,0H20.238V20.238H0Z" transform="translate(-4.903 14.231) rotate(-70.991)" fill="#d4e157"/>
                            </g>
                          </g>
                        </g>
                      </g>
                    </g>
                    <g id="Grupo_1099870" data-name="Grupo 1099870" transform="translate(32.11 113.052)" style="isolation: isolate">
                      <g id="Grupo_1099869" data-name="Grupo 1099869">
                        <g id="Grupo_1099868" data-name="Grupo 1099868" transform="translate(0 0)" clip-path="url(#clip-path-5)">
                          <g id="Grupo_1099867" data-name="Grupo 1099867" transform="translate(0 0)">
                            <g id="Grupo_1099866" data-name="Grupo 1099866" clip-path="url(#clip-path-24)">
                              <path id="Trazado_875155" data-name="Trazado 875155" d="M0,0H20.238V20.238H0Z" transform="translate(-4.903 14.231) rotate(-70.991)" fill="#d4e157"/>
                            </g>
                          </g>
                        </g>
                      </g>
                    </g>
                    <g id="Grupo_1099885" data-name="Grupo 1099885" transform="translate(32.11 128.972)" style="isolation: isolate">
                      <g id="Grupo_1099884" data-name="Grupo 1099884">
                        <g id="Grupo_1099883" data-name="Grupo 1099883" transform="translate(0 0)" clip-path="url(#clip-path-5)">
                          <g id="Grupo_1099882" data-name="Grupo 1099882" transform="translate(0 0)">
                            <g id="Grupo_1099881" data-name="Grupo 1099881" clip-path="url(#clip-path-24)">
                              <path id="Trazado_875156" data-name="Trazado 875156" d="M0,0H20.238V20.238H0Z" transform="translate(-4.903 14.231) rotate(-70.991)" fill="#d4e157"/>
                            </g>
                          </g>
                        </g>
                      </g>
                    </g>
                    <g id="Grupo_1099900" data-name="Grupo 1099900" transform="translate(32.476 48.788)" style="isolation: isolate">
                      <g id="Grupo_1099899" data-name="Grupo 1099899">
                        <g id="Grupo_1099898" data-name="Grupo 1099898" transform="translate(0 0)" clip-path="url(#clip-path-21)">
                          <g id="Grupo_1099897" data-name="Grupo 1099897" transform="translate(0 0)">
                            <g id="Grupo_1099896" data-name="Grupo 1099896" clip-path="url(#clip-path-22)">
                              <path id="Trazado_875157" data-name="Trazado 875157" d="M0,0H20.238V20.238H0Z" transform="translate(-4.903 14.232) rotate(-70.991)" fill="#d4e157"/>
                            </g>
                          </g>
                        </g>
                      </g>
                    </g>
                    <g id="Grupo_1099910" data-name="Grupo 1099910" transform="translate(32.11 32.501)" style="isolation: isolate">
                      <g id="Grupo_1099909" data-name="Grupo 1099909">
                        <g id="Grupo_1099908" data-name="Grupo 1099908" transform="translate(0 0)" clip-path="url(#clip-path-15)">
                          <g id="Grupo_1099907" data-name="Grupo 1099907" transform="translate(0 0)">
                            <g id="Grupo_1099906" data-name="Grupo 1099906" clip-path="url(#clip-path-32)">
                              <path id="Trazado_875158" data-name="Trazado 875158" d="M0,0H20.238V20.238H0Z" transform="matrix(0.326, -0.945, 0.945, 0.326, -4.903, 14.232)" fill="#d4e157"/>
                            </g>
                          </g>
                        </g>
                      </g>
                    </g>
                  </g>
                </g>
              </g>
            </g>
          </g>
          <circle id="Elipse_11503" data-name="Elipse 11503" cx="51.5" cy="51.5" r="51.5" transform="translate(8 9)" fill="#f3f9ff"/>
        </g>
      </g>
      <g id="Grupo_1101282" data-name="Grupo 1101282" transform="translate(837.504 1858.585)">
        <g id="Grupo_1099389" data-name="Grupo 1099389" transform="translate(0.293 -0.141)">
          <rect id="Rectángulo_401104" data-name="Rectángulo 401104" width="67" height="68" transform="translate(-0.086 -0.116)" fill="none"/>
        </g>
        <g id="g4114" transform="translate(-77.898 1.499)">
          <path id="path8990" d="M109.922,4.058l-3.016.9a9.94,9.94,0,0,1-5.687,0l-2.4-.715a1.8,1.8,0,0,0-1.8.344A1.826,1.826,0,0,0,96.5,6.42c.681,1.957,1.7,3.9,1.971,5.717a3.36,3.36,0,0,0-1.141,5.881,12.4,12.4,0,0,1-3.225,5.291c-3.779,3.769-10.037,8.081-10.037,18.2,0,10.434,8.344,18.492,20,18.492a21.926,21.926,0,0,0,10.621-2.59,1,1,0,0,0-.965-1.754A19.907,19.907,0,0,1,104.07,58c-10.754,0-18-7.107-18-16.492,0-9.316,5.436-12.777,9.451-16.781a14.472,14.472,0,0,0,3.678-5.99c3.219.012,6.524.021,9.742,0a14.471,14.471,0,0,0,3.678,5.99c1.136,1.133,2.393,2.231,3.6,3.436a1,1,0,0,0,1.412-1.418c-1.267-1.263-2.529-2.368-3.6-3.436a12.4,12.4,0,0,1-3.225-5.291,3.36,3.36,0,0,0-1.2-5.9,30.533,30.533,0,0,1,2.139-5.98,1.557,1.557,0,0,0-1.828-2.082ZM98.594,6.264l2.055.611a11.941,11.941,0,0,0,6.828,0l2.051-.611A20.586,20.586,0,0,0,107.6,12h-7.127A20.514,20.514,0,0,0,98.594,6.264ZM99.41,14h9.32a1.372,1.372,0,1,1,0,2.744H99.41a1.372,1.372,0,1,1,0-2.744Z" fill="#474d41"/>
          <path id="path8987" d="M104.07,28.09a1,1,0,0,0-1,1v2.1h-.43a3.515,3.515,0,0,0-3.5,3.5v1.7a3.515,3.515,0,0,0,3.5,3.5h.43v4.693h-.43a1.357,1.357,0,0,1-1.51-1.043,1,1,0,1,0-1.982.264,3.733,3.733,0,0,0,3.922,2.779v2.1a1,1,0,1,0,2,0v-2.1h.43a3.515,3.515,0,0,0,3.5-3.5V41.389a3.515,3.515,0,0,0-3.5-3.5h-.43v-4.7h.43a1.339,1.339,0,0,1,1.508,1.045,1,1,0,0,0,1.984-.264,3.242,3.242,0,0,0-3.531-2.781h-.391v-2.1A1,1,0,0,0,104.07,28.09Zm-1.43,5.1h.43v4.7h-.43a1.485,1.485,0,0,1-1.5-1.5v-1.7A1.485,1.485,0,0,1,102.64,33.193Zm2.43,6.7h.43a1.485,1.485,0,0,1,1.5,1.5v1.693a1.485,1.485,0,0,1-1.5,1.5h-.43Z" fill="#474d41"/>
          <path id="path8984" d="M119.047,29.434a2.555,2.555,0,0,0-2.539,2.539v2.434a2.557,2.557,0,0,0,2.539,2.541h.146A3.009,3.009,0,0,0,119,38v1.406a3.008,3.008,0,0,0,.193,1.053h-.146A2.557,2.557,0,0,0,116.508,43v2.434a2.555,2.555,0,0,0,2.539,2.539h.156a3.01,3.01,0,0,0-.2,1.08v1.406a3.009,3.009,0,0,0,.193,1.053h-.166a2.531,2.531,0,0,0-2.514,2.514v2.486a2.531,2.531,0,0,0,2.514,2.514H135a2.531,2.531,0,0,0,2.514-2.514V54.025a2.456,2.456,0,0,0-.064-.557A3.072,3.072,0,0,0,140,50.459V49.053a3.068,3.068,0,0,0-2.57-3.01,2.481,2.481,0,0,0,.078-.609V43a2.484,2.484,0,0,0-.072-.584A3.069,3.069,0,0,0,140,39.406V38a3.069,3.069,0,0,0-2.564-3.01,2.484,2.484,0,0,0,.072-.584V31.973a2.557,2.557,0,0,0-2.541-2.539Zm0,2h15.92a.518.518,0,0,1,.541.539v2.434a.52.52,0,0,1-.541.541h-15.92a.518.518,0,0,1-.539-.541V31.973a.517.517,0,0,1,.539-.539Zm3.006,5.514h14.895A1.029,1.029,0,0,1,138,38v1.406a1.029,1.029,0,0,1-1.053,1.053H122.053A1.029,1.029,0,0,1,121,39.406V38A1.029,1.029,0,0,1,122.053,36.947Zm-3.006,5.512h15.92a.52.52,0,0,1,.541.541v2.434a.518.518,0,0,1-.541.539h-15.92a.517.517,0,0,1-.539-.539V43a.518.518,0,0,1,.539-.541ZM122.053,48h14.895A1.029,1.029,0,0,1,138,49.053v1.406a1.03,1.03,0,0,1-1.053,1.055q-7.456,0-14.914,0A1.028,1.028,0,0,1,121,50.459V49.053A1.029,1.029,0,0,1,122.053,48Zm-3.025,5.512q8,0,15.994,0a.49.49,0,0,1,.492.512v2.486a.492.492,0,0,1-.514.514H119.027a.492.492,0,0,1-.514-.514V54.025a.492.492,0,0,1,.514-.514Z" fill="#474d41"/>
          <path id="path8981" d="M123,15.041a1,1,0,0,0-.721.307l-2.994,3.111a1,1,0,0,0,1.439,1.387L122,18.521v6.6a1,1,0,1,0,2,0v-6.6l1.275,1.324a1,1,0,0,0,1.439-1.387l-2.994-3.111a1,1,0,0,0-.721-.307Z" fill="#474d41"/>
          <path id="path8978" d="M133,15.041a1,1,0,0,0-.721.307l-2.994,3.111a1,1,0,0,0,1.439,1.387L132,18.521V25a1,1,0,1,0,2,0V18.521l1.275,1.324a1,1,0,0,0,1.439-1.387l-2.994-3.111a1,1,0,0,0-.721-.307Z" fill="#474d41"/>
        </g>
      </g>
    </g>
  </g>
</svg>
