<svg xmlns="http://www.w3.org/2000/svg" xmlns:xlink="http://www.w3.org/1999/xlink" width="127" height="127" viewBox="0 0 127 127">
  <defs>
    <clipPath id="clip-path">
      <rect id="Rectángulo_400938" data-name="Rectángulo 400938" width="127" height="127" transform="translate(0 -0.434)" fill="none"/>
    </clipPath>
    <clipPath id="clip-path-3">
      <rect id="Rectángulo_401301" data-name="Rectángulo 401301" width="68.069" height="204.378" fill="#d4e157"/>
    </clipPath>
    <clipPath id="clip-path-5">
      <rect id="Rectángulo_401247" data-name="Rectángulo 401247" width="16.85" height="16.849" fill="#d4e157"/>
    </clipPath>
    <clipPath id="clip-path-6">
      <path id="Trazado_873506" data-name="Trazado 873506" d="M16.85,8.425A8.425,8.425,0,1,1,8.425,0,8.425,8.425,0,0,1,16.85,8.425" fill="#d4e157"/>
    </clipPath>
    <clipPath id="clip-path-13">
      <rect id="Rectángulo_401261" data-name="Rectángulo 401261" width="16.849" height="16.849" fill="#d4e157"/>
    </clipPath>
    <clipPath id="clip-path-14">
      <path id="Trazado_873513" data-name="Trazado 873513" d="M16.849,8.425A8.425,8.425,0,1,1,8.425,0a8.425,8.425,0,0,1,8.425,8.425" fill="#d4e157"/>
    </clipPath>
    <clipPath id="clip-path-15">
      <rect id="Rectángulo_401263" data-name="Rectángulo 401263" width="16.85" height="16.85" fill="#d4e157"/>
    </clipPath>
    <clipPath id="clip-path-21">
      <rect id="Rectángulo_401273" data-name="Rectángulo 401273" width="16.849" height="16.85" fill="#d4e157"/>
    </clipPath>
    <clipPath id="clip-path-22">
      <path id="Trazado_873519" data-name="Trazado 873519" d="M16.849,8.425A8.425,8.425,0,1,1,8.425,0a8.424,8.424,0,0,1,8.425,8.425" fill="#d4e157"/>
    </clipPath>
    <clipPath id="clip-path-24">
      <path id="Trazado_873521" data-name="Trazado 873521" d="M16.85,8.425A8.425,8.425,0,1,1,8.425,0,8.424,8.424,0,0,1,16.85,8.425" fill="#d4e157"/>
    </clipPath>
  </defs>
  <g id="Grupo_1120611" data-name="Grupo 1120611" transform="translate(-180 -916)">
    <g id="Grupo_1120520" data-name="Grupo 1120520" transform="translate(180 916.434)">
      <g id="Grupo_1099379" data-name="Grupo 1099379" transform="translate(0 0)">
        <rect id="Rectángulo_401103" data-name="Rectángulo 401103" width="127" height="127" transform="translate(0 -0.434)" fill="none"/>
        <path id="Trazado_873425" data-name="Trazado 873425" d="M52.647,0A52.647,52.647,0,1,1,0,52.647,52.647,52.647,0,0,1,52.647,0Z" transform="translate(15.677 19.149)" fill="#b9bfe2"/>
        <g id="Enmascarar_grupo_1100032" data-name="Enmascarar grupo 1100032" transform="translate(0 0)" clip-path="url(#clip-path)">
          <g id="Grupo_1101051" data-name="Grupo 1101051" transform="translate(157.109 -30.031) rotate(90)" style="isolation: isolate">
            <g id="Grupo_1099913" data-name="Grupo 1099913" transform="translate(0 0)" clip-path="url(#clip-path-3)" style="isolation: isolate">
              <g id="Grupo_1099912" data-name="Grupo 1099912">
                <g id="Grupo_1099911" data-name="Grupo 1099911" clip-path="url(#clip-path-3)">
                  <g id="Grupo_1099780" data-name="Grupo 1099780" transform="translate(51.22 85.896)" style="isolation: isolate">
                    <g id="Grupo_1099779" data-name="Grupo 1099779" transform="translate(0 0)">
                      <g id="Grupo_1099778" data-name="Grupo 1099778" transform="translate(0 0)" clip-path="url(#clip-path-5)">
                        <g id="Grupo_1099777" data-name="Grupo 1099777" transform="translate(0 0)">
                          <g id="Grupo_1099776" data-name="Grupo 1099776" clip-path="url(#clip-path-6)">
                            <rect id="Rectángulo_401246" data-name="Rectángulo 401246" width="21.418" height="21.419" transform="translate(-5.189 15.062) rotate(-70.991)" fill="#d4e157"/>
                          </g>
                        </g>
                      </g>
                    </g>
                  </g>
                  <g id="Grupo_1099785" data-name="Grupo 1099785" transform="translate(51.22 102.745)" style="isolation: isolate">
                    <g id="Grupo_1099784" data-name="Grupo 1099784">
                      <g id="Grupo_1099783" data-name="Grupo 1099783" clip-path="url(#clip-path-5)">
                        <g id="Grupo_1099782" data-name="Grupo 1099782" transform="translate(0)">
                          <g id="Grupo_1099781" data-name="Grupo 1099781" clip-path="url(#clip-path-6)">
                            <rect id="Rectángulo_401248" data-name="Rectángulo 401248" width="21.418" height="21.419" transform="translate(-5.189 15.062) rotate(-70.991)" fill="#d4e157"/>
                          </g>
                        </g>
                      </g>
                    </g>
                  </g>
                  <g id="Grupo_1099790" data-name="Grupo 1099790" transform="translate(51.22 119.647)" style="isolation: isolate">
                    <g id="Grupo_1099789" data-name="Grupo 1099789" transform="translate(0 0)">
                      <g id="Grupo_1099788" data-name="Grupo 1099788" transform="translate(0 0)" clip-path="url(#clip-path-5)">
                        <g id="Grupo_1099787" data-name="Grupo 1099787" transform="translate(0 0)">
                          <g id="Grupo_1099786" data-name="Grupo 1099786" clip-path="url(#clip-path-6)">
                            <rect id="Rectángulo_401250" data-name="Rectángulo 401250" width="21.418" height="21.419" transform="translate(-5.189 15.062) rotate(-70.991)" fill="#d4e157"/>
                          </g>
                        </g>
                      </g>
                    </g>
                  </g>
                  <g id="Grupo_1099795" data-name="Grupo 1099795" transform="translate(51.22 136.496)" style="isolation: isolate">
                    <g id="Grupo_1099794" data-name="Grupo 1099794" transform="translate(0 0)">
                      <g id="Grupo_1099793" data-name="Grupo 1099793" transform="translate(0 0)" clip-path="url(#clip-path-5)">
                        <g id="Grupo_1099792" data-name="Grupo 1099792" transform="translate(0 0)">
                          <g id="Grupo_1099791" data-name="Grupo 1099791" clip-path="url(#clip-path-6)">
                            <rect id="Rectángulo_401252" data-name="Rectángulo 401252" width="21.418" height="21.419" transform="translate(-5.189 15.062) rotate(-70.991)" fill="#d4e157"/>
                          </g>
                        </g>
                      </g>
                    </g>
                  </g>
                  <g id="Grupo_1099815" data-name="Grupo 1099815" transform="translate(34.37 85.896)" style="isolation: isolate">
                    <g id="Grupo_1099814" data-name="Grupo 1099814" transform="translate(0 0)">
                      <g id="Grupo_1099813" data-name="Grupo 1099813" transform="translate(0 0)" clip-path="url(#clip-path-13)">
                        <g id="Grupo_1099812" data-name="Grupo 1099812" transform="translate(0 0)">
                          <g id="Grupo_1099811" data-name="Grupo 1099811" clip-path="url(#clip-path-14)">
                            <rect id="Rectángulo_401260" data-name="Rectángulo 401260" width="21.418" height="21.418" transform="translate(-5.189 15.062) rotate(-70.991)" fill="#d4e157"/>
                          </g>
                        </g>
                      </g>
                    </g>
                  </g>
                  <g id="Grupo_1099820" data-name="Grupo 1099820" transform="translate(51.22 68.499)" style="isolation: isolate">
                    <g id="Grupo_1099819" data-name="Grupo 1099819" transform="translate(0 0)">
                      <g id="Grupo_1099818" data-name="Grupo 1099818" transform="translate(0 0)" clip-path="url(#clip-path-15)">
                        <g id="Grupo_1099817" data-name="Grupo 1099817" transform="translate(0 0)">
                          <g id="Grupo_1099816" data-name="Grupo 1099816" clip-path="url(#clip-path-6)">
                            <rect id="Rectángulo_401262" data-name="Rectángulo 401262" width="21.419" height="21.419" transform="matrix(0.326, -0.945, 0.945, 0.326, -5.189, 15.062)" fill="#d4e157"/>
                          </g>
                        </g>
                      </g>
                    </g>
                  </g>
                  <g id="Grupo_1099825" data-name="Grupo 1099825" transform="translate(51.22 51.557)" style="isolation: isolate">
                    <g id="Grupo_1099824" data-name="Grupo 1099824" transform="translate(0 0)">
                      <g id="Grupo_1099823" data-name="Grupo 1099823" transform="translate(0 0)" clip-path="url(#clip-path-5)">
                        <g id="Grupo_1099822" data-name="Grupo 1099822" transform="translate(0 0)">
                          <g id="Grupo_1099821" data-name="Grupo 1099821" clip-path="url(#clip-path-6)">
                            <rect id="Rectángulo_401264" data-name="Rectángulo 401264" width="21.418" height="21.419" transform="translate(-5.189 15.062) rotate(-70.991)" fill="#d4e157"/>
                          </g>
                        </g>
                      </g>
                    </g>
                  </g>
                  <g id="Grupo_1099830" data-name="Grupo 1099830" transform="translate(51.22 34.397)" style="isolation: isolate">
                    <g id="Grupo_1099829" data-name="Grupo 1099829" transform="translate(0 0)">
                      <g id="Grupo_1099828" data-name="Grupo 1099828" transform="translate(0 0)" clip-path="url(#clip-path-15)">
                        <g id="Grupo_1099827" data-name="Grupo 1099827" transform="translate(0 0)">
                          <g id="Grupo_1099826" data-name="Grupo 1099826" clip-path="url(#clip-path-6)">
                            <rect id="Rectángulo_401266" data-name="Rectángulo 401266" width="21.419" height="21.419" transform="translate(-5.189 15.062) rotate(-70.991)" fill="#d4e157"/>
                          </g>
                        </g>
                      </g>
                    </g>
                  </g>
                  <g id="Grupo_1099845" data-name="Grupo 1099845" transform="translate(34.37 68.499)" style="isolation: isolate">
                    <g id="Grupo_1099844" data-name="Grupo 1099844" transform="translate(0 0)">
                      <g id="Grupo_1099843" data-name="Grupo 1099843" transform="translate(0 0)" clip-path="url(#clip-path-21)">
                        <g id="Grupo_1099842" data-name="Grupo 1099842" transform="translate(0 0)">
                          <g id="Grupo_1099841" data-name="Grupo 1099841" clip-path="url(#clip-path-22)">
                            <rect id="Rectángulo_401272" data-name="Rectángulo 401272" width="21.419" height="21.418" transform="translate(-5.189 15.062) rotate(-70.991)" fill="#d4e157"/>
                          </g>
                        </g>
                      </g>
                    </g>
                  </g>
                  <g id="Grupo_1099855" data-name="Grupo 1099855" transform="translate(33.983 102.745)" style="isolation: isolate">
                    <g id="Grupo_1099854" data-name="Grupo 1099854">
                      <g id="Grupo_1099853" data-name="Grupo 1099853" clip-path="url(#clip-path-13)">
                        <g id="Grupo_1099852" data-name="Grupo 1099852" transform="translate(0)">
                          <g id="Grupo_1099851" data-name="Grupo 1099851" transform="translate(0)" clip-path="url(#clip-path-24)">
                            <rect id="Rectángulo_401276" data-name="Rectángulo 401276" width="21.418" height="21.419" transform="translate(-5.189 15.062) rotate(-70.991)" fill="#d4e157"/>
                          </g>
                        </g>
                      </g>
                    </g>
                  </g>
                  <g id="Grupo_1099870" data-name="Grupo 1099870" transform="translate(33.983 119.647)" style="isolation: isolate">
                    <g id="Grupo_1099869" data-name="Grupo 1099869" transform="translate(0 0)">
                      <g id="Grupo_1099868" data-name="Grupo 1099868" transform="translate(0 0)" clip-path="url(#clip-path-13)">
                        <g id="Grupo_1099867" data-name="Grupo 1099867" transform="translate(0 0)">
                          <g id="Grupo_1099866" data-name="Grupo 1099866" transform="translate(0)" clip-path="url(#clip-path-6)">
                            <rect id="Rectángulo_401282" data-name="Rectángulo 401282" width="21.418" height="21.419" transform="translate(-5.189 15.062) rotate(-70.991)" fill="#d4e157"/>
                          </g>
                        </g>
                      </g>
                    </g>
                  </g>
                  <g id="Grupo_1099885" data-name="Grupo 1099885" transform="translate(33.983 136.496)" style="isolation: isolate">
                    <g id="Grupo_1099884" data-name="Grupo 1099884" transform="translate(0 0)">
                      <g id="Grupo_1099883" data-name="Grupo 1099883" transform="translate(0 0)" clip-path="url(#clip-path-13)">
                        <g id="Grupo_1099882" data-name="Grupo 1099882" transform="translate(0 0)">
                          <g id="Grupo_1099881" data-name="Grupo 1099881" transform="translate(0)" clip-path="url(#clip-path-24)">
                            <rect id="Rectángulo_401288" data-name="Rectángulo 401288" width="21.418" height="21.419" transform="translate(-5.189 15.062) rotate(-70.991)" fill="#d4e157"/>
                          </g>
                        </g>
                      </g>
                    </g>
                  </g>
                  <g id="Grupo_1099900" data-name="Grupo 1099900" transform="translate(34.37 51.634)" style="isolation: isolate">
                    <g id="Grupo_1099899" data-name="Grupo 1099899" transform="translate(0 0)">
                      <g id="Grupo_1099898" data-name="Grupo 1099898" transform="translate(0 0)" clip-path="url(#clip-path-21)">
                        <g id="Grupo_1099897" data-name="Grupo 1099897" transform="translate(0 0)">
                          <g id="Grupo_1099896" data-name="Grupo 1099896" clip-path="url(#clip-path-22)">
                            <rect id="Rectángulo_401294" data-name="Rectángulo 401294" width="21.419" height="21.418" transform="translate(-5.189 15.062) rotate(-70.991)" fill="#d4e157"/>
                          </g>
                        </g>
                      </g>
                    </g>
                  </g>
                  <g id="Grupo_1099910" data-name="Grupo 1099910" transform="translate(33.983 34.397)" style="isolation: isolate">
                    <g id="Grupo_1099909" data-name="Grupo 1099909" transform="translate(0 0)">
                      <g id="Grupo_1099908" data-name="Grupo 1099908" transform="translate(0 0)" clip-path="url(#clip-path-21)">
                        <g id="Grupo_1099907" data-name="Grupo 1099907" transform="translate(0 0)">
                          <g id="Grupo_1099906" data-name="Grupo 1099906" transform="translate(0)" clip-path="url(#clip-path-6)">
                            <rect id="Rectángulo_401298" data-name="Rectángulo 401298" width="21.419" height="21.419" transform="matrix(0.326, -0.945, 0.945, 0.326, -5.189, 15.062)" fill="#d4e157"/>
                          </g>
                        </g>
                      </g>
                    </g>
                  </g>
                </g>
              </g>
            </g>
          </g>
        </g>
        <circle id="Elipse_11503" data-name="Elipse 11503" cx="55" cy="55" r="55" transform="translate(8 8.566)" fill="#f3f9ff"/>
      </g>
    </g>
    <g id="Grupo_1120521" data-name="Grupo 1120521" transform="translate(206.707 943.141)">
      <g id="Grupo_1099389" data-name="Grupo 1099389" transform="translate(0 0)">
        <rect id="Rectángulo_401104" data-name="Rectángulo 401104" width="71" height="72" transform="translate(0.293 -0.141)" fill="none"/>
      </g>
      <g id="Grupo_1120599" data-name="Grupo 1120599" transform="translate(-15.707 -42.907)">
        <path id="Trazado_907907" data-name="Trazado 907907" d="M440.283,144h-7.1A1.183,1.183,0,0,0,432,145.183V190.15a1.183,1.183,0,0,0,1.183,1.183h7.1a1.183,1.183,0,0,0,1.183-1.183V145.183A1.183,1.183,0,0,0,440.283,144ZM439.1,188.967h-4.733v-42.6H439.1Z" transform="translate(-354.467 -81.8)" fill="#474d41"/>
        <path id="Trazado_907908" data-name="Trazado 907908" d="M360.283,245.867a1.183,1.183,0,0,0,1.183-1.183v-35.5A1.183,1.183,0,0,0,360.283,208h-7.1A1.183,1.183,0,0,0,352,209.183v35.5a1.183,1.183,0,0,0,1.183,1.183Zm-5.917-35.5H359.1V243.5h-4.733Z" transform="translate(-286.3 -136.333)" fill="#474d41"/>
        <path id="Trazado_907909" data-name="Trazado 907909" d="M280.283,293.583a1.183,1.183,0,0,0,1.183-1.183V265.183A1.183,1.183,0,0,0,280.283,264h-7.1A1.183,1.183,0,0,0,272,265.183V292.4a1.183,1.183,0,0,0,1.183,1.183Zm-5.917-27.217H279.1v24.85h-4.733Z" transform="translate(-218.134 -184.05)" fill="#474d41"/>
        <path id="Trazado_907910" data-name="Trazado 907910" d="M200.283,348.117a1.183,1.183,0,0,0,1.183-1.183v-17.75A1.183,1.183,0,0,0,200.283,328h-7.1A1.183,1.183,0,0,0,192,329.183v17.75a1.183,1.183,0,0,0,1.183,1.183Zm-5.917-17.75H199.1V345.75h-4.733Z" transform="translate(-149.967 -238.583)" fill="#474d41"/>
        <path id="Trazado_907911" data-name="Trazado 907911" d="M120.283,375.383a1.183,1.183,0,0,0,1.183-1.183V361.183A1.183,1.183,0,0,0,120.283,360h-7.1A1.183,1.183,0,0,0,112,361.183V374.2a1.183,1.183,0,0,0,1.183,1.183Zm-5.917-13.017H119.1v10.65h-4.733Z" transform="translate(-81.8 -265.85)" fill="#474d41"/>
        <path id="Trazado_907912" data-name="Trazado 907912" d="M40.283,409.467a1.183,1.183,0,0,0,1.183-1.183v-7.1A1.183,1.183,0,0,0,40.283,400h-7.1A1.183,1.183,0,0,0,32,401.183v7.1a1.183,1.183,0,0,0,1.183,1.183Zm-5.917-7.1H39.1V407.1H34.367Z" transform="translate(-13.634 -299.934)" fill="#474d41"/>
        <path id="Trazado_907913" data-name="Trazado 907913" d="M195.55,116.733h2.367a1.183,1.183,0,0,0,0-2.367h-1.183v-1.183a1.183,1.183,0,1,0-2.367,0v1.387a3.55,3.55,0,0,0,1.183,6.9,1.183,1.183,0,0,1,0,2.367h-2.367a1.183,1.183,0,0,0,0,2.367h1.183v1.183a1.183,1.183,0,0,0,2.367,0V126a3.55,3.55,0,0,0-1.183-6.9,1.183,1.183,0,1,1,0-2.367Z" transform="translate(-149.967 -54.533)" fill="#474d41"/>
        <path id="Trazado_907914" data-name="Trazado 907914" d="M85.816,48h-7.1a1.183,1.183,0,1,0,0,2.367h4.243L66.393,66.933H59.733c.032-.39.05-.785.05-1.183A14.2,14.2,0,1,0,42.968,79.708l-4.975,4.976H29.016a1.183,1.183,0,0,0-.837.347L16.346,96.863a1.183,1.183,0,0,0,1.674,1.674L29.506,87.05h8.977a1.183,1.183,0,0,0,.837-.347l6.763-6.763A14.228,14.228,0,0,0,59.334,69.3h7.549a1.183,1.183,0,0,0,.837-.347L84.633,52.04v4.243a1.183,1.183,0,0,0,2.367,0v-7.1A1.183,1.183,0,0,0,85.816,48ZM45.583,77.583A11.833,11.833,0,1,1,57.416,65.75,11.833,11.833,0,0,1,45.583,77.583Z" fill="#474d41"/>
      </g>
    </g>
  </g>
</svg>
