<svg xmlns="http://www.w3.org/2000/svg" xmlns:xlink="http://www.w3.org/1999/xlink" width="99" height="99" viewBox="0 0 99 99">
  <defs>
    <clipPath id="clip-path">
      <rect id="Rectángulo_401273" data-name="Rectángulo 401273" width="15.047" height="15.048" fill="#eef3bc"/>
    </clipPath>
    <clipPath id="clip-path-2">
      <path id="Trazado_873519" data-name="Trazado 873519" d="M15.047,7.524A7.524,7.524,0,1,1,7.524,0a7.524,7.524,0,0,1,7.524,7.524" fill="#eef3bc"/>
    </clipPath>
  </defs>
  <g id="Grupo_1120615" data-name="Grupo 1120615" transform="translate(-1190.711 -1154)">
    <rect id="Rectángulo_409539" data-name="Rectángulo 409539" width="99" height="99" rx="49.5" transform="translate(1190.711 1154)" fill="#f3f9ff"/>
    <g id="Grupo_1119772" data-name="Grupo 1119772" transform="translate(243.084 -7981.033)">
      <g id="Grupo_1099855" data-name="Grupo 1099855" transform="translate(948.664 9139)">
        <g id="Grupo_1099808" data-name="Grupo 1099808">
          <g id="Grupo_1101062" data-name="Grupo 1101062" transform="translate(-307.943 -6779.151)">
            <g id="Grupo_1101056" data-name="Grupo 1101056" transform="translate(330.953 6828.445) rotate(90)" opacity="0.998" style="isolation: isolate">
              <g id="Grupo_1099844" data-name="Grupo 1099844" transform="translate(0 0)">
                <g id="Grupo_1099843" data-name="Grupo 1099843" transform="translate(0 0)" clip-path="url(#clip-path)">
                  <g id="Grupo_1099842" data-name="Grupo 1099842" transform="translate(0 0)">
                    <g id="Grupo_1099841" data-name="Grupo 1099841" clip-path="url(#clip-path-2)">
                      <rect id="Rectángulo_401272" data-name="Rectángulo 401272" width="19.128" height="19.128" transform="translate(-4.634 13.451) rotate(-70.991)" fill="#eef3bc"/>
                    </g>
                  </g>
                </g>
              </g>
            </g>
            <g id="Grupo_1101057" data-name="Grupo 1101057" transform="translate(330.953 6843.492) rotate(90)" opacity="0.998" style="isolation: isolate">
              <g id="Grupo_1099844-2" data-name="Grupo 1099844" transform="translate(0 0)">
                <g id="Grupo_1099843-2" data-name="Grupo 1099843" transform="translate(0 0)" clip-path="url(#clip-path)">
                  <g id="Grupo_1099842-2" data-name="Grupo 1099842" transform="translate(0 0)">
                    <g id="Grupo_1099841-2" data-name="Grupo 1099841" clip-path="url(#clip-path-2)">
                      <rect id="Rectángulo_401272-2" data-name="Rectángulo 401272" width="19.128" height="19.128" transform="translate(-4.634 13.451) rotate(-70.991)" fill="#eef3bc"/>
                    </g>
                  </g>
                </g>
              </g>
            </g>
            <g id="Grupo_1101058" data-name="Grupo 1101058" transform="translate(330.953 6858.54) rotate(90)" opacity="0.998" style="isolation: isolate">
              <g id="Grupo_1099844-3" data-name="Grupo 1099844" transform="translate(0 0)">
                <g id="Grupo_1099843-3" data-name="Grupo 1099843" transform="translate(0 0)" clip-path="url(#clip-path)">
                  <g id="Grupo_1099842-3" data-name="Grupo 1099842" transform="translate(0 0)">
                    <g id="Grupo_1099841-3" data-name="Grupo 1099841" clip-path="url(#clip-path-2)">
                      <rect id="Rectángulo_401272-3" data-name="Rectángulo 401272" width="19.128" height="19.128" transform="translate(-4.634 13.451) rotate(-70.991)" fill="#eef3bc"/>
                    </g>
                  </g>
                </g>
              </g>
            </g>
            <g id="Grupo_1101059" data-name="Grupo 1101059" transform="translate(346 6858.676) rotate(90)" opacity="0.998" style="isolation: isolate">
              <g id="Grupo_1099844-4" data-name="Grupo 1099844" transform="translate(0 0)">
                <g id="Grupo_1099843-4" data-name="Grupo 1099843" transform="translate(0 0)" clip-path="url(#clip-path)">
                  <g id="Grupo_1099842-4" data-name="Grupo 1099842" transform="translate(0 0)">
                    <g id="Grupo_1099841-4" data-name="Grupo 1099841" clip-path="url(#clip-path-2)">
                      <rect id="Rectángulo_401272-4" data-name="Rectángulo 401272" width="19.128" height="19.128" transform="translate(-4.634 13.451) rotate(-70.991)" fill="#eef3bc"/>
                    </g>
                  </g>
                </g>
              </g>
            </g>
            <g id="Grupo_1101060" data-name="Grupo 1101060" transform="translate(346 6843.492) rotate(90)" opacity="0.998" style="isolation: isolate">
              <g id="Grupo_1099844-5" data-name="Grupo 1099844" transform="translate(0 0)">
                <g id="Grupo_1099843-5" data-name="Grupo 1099843" transform="translate(0 0)" clip-path="url(#clip-path)">
                  <g id="Grupo_1099842-5" data-name="Grupo 1099842" transform="translate(0 0)">
                    <g id="Grupo_1099841-5" data-name="Grupo 1099841" clip-path="url(#clip-path-2)">
                      <rect id="Rectángulo_401272-5" data-name="Rectángulo 401272" width="19.128" height="19.128" transform="translate(-4.634 13.451) rotate(-70.991)" fill="#eef3bc"/>
                    </g>
                  </g>
                </g>
              </g>
            </g>
            <g id="Grupo_1101061" data-name="Grupo 1101061" transform="translate(361.047 6858.676) rotate(90)" opacity="0.998" style="isolation: isolate">
              <g id="Grupo_1099844-6" data-name="Grupo 1099844" transform="translate(0 0)">
                <g id="Grupo_1099843-6" data-name="Grupo 1099843" transform="translate(0 0)" clip-path="url(#clip-path)">
                  <g id="Grupo_1099842-6" data-name="Grupo 1099842" transform="translate(0 0)">
                    <g id="Grupo_1099841-6" data-name="Grupo 1099841" clip-path="url(#clip-path-2)">
                      <rect id="Rectángulo_401272-6" data-name="Rectángulo 401272" width="19.128" height="19.128" transform="translate(-4.634 13.451) rotate(-70.991)" fill="#eef3bc"/>
                    </g>
                  </g>
                </g>
              </g>
            </g>
          </g>
          <g id="Grupo_1099776" data-name="Grupo 1099776" transform="translate(20.038 16.035)">
            <g id="Grupo_1099618" data-name="Grupo 1099618" transform="translate(0 0)">
              <rect id="Rectángulo_401104" data-name="Rectángulo 401104" width="57.823" height="58.52" transform="translate(0)" fill="none"/>
            </g>
            <g id="Grupo_1119759" data-name="Grupo 1119759" transform="translate(-14.983 -1.445)">
              <path id="Trazado_906827" data-name="Trazado 906827" d="M269.806,120.916a.925.925,0,0,0,1.247-.239l10.788-15.893a.9.9,0,1,0-1.486-1.008l-10.788,15.893A.9.9,0,0,0,269.806,120.916Z" transform="translate(-223.971 -91.006)" fill="#4c5066"/>
              <path id="Trazado_906828" data-name="Trazado 906828" d="M345.861,190.035c1.868,0,3.389-1.868,3.389-4.165-.191-5.528-6.586-5.526-6.777,0C342.472,188.167,343.992,190.035,345.861,190.035Zm0-6.534c.863,0,1.593,1.085,1.593,2.369s-.729,2.369-1.593,2.369-1.593-1.085-1.593-2.369S345,183.5,345.861,183.5Z" transform="translate(-288.285 -159.97)" fill="#4c5066"/>
              <path id="Trazado_906829" data-name="Trazado 906829" d="M250.631,107.548c0-2.3-1.52-4.165-3.389-4.165-4.494.222-4.492,8.109,0,8.33C249.111,111.713,250.631,109.845,250.631,107.548Zm-4.981,0c0-1.284.73-2.369,1.593-2.369s1.593,1.085,1.593,2.369-.729,2.369-1.593,2.369S245.65,108.832,245.65,107.548Z" transform="translate(-201.489 -91.007)" fill="#4c5066"/>
              <path id="Trazado_906830" data-name="Trazado 906830" d="M45.29,41.413c22.036,6.568,37.291-21.02,20.133-36.261A.9.9,0,0,0,64.25,6.513C80.179,20.7,65.567,46.2,45.29,39.52v-6.1c0-.77-.466-1.853-2.684-2.645a17.368,17.368,0,0,0-8.091-.61C26.048,13.638,43.376-4.263,60.122,3.79a.9.9,0,0,0,.788-1.613C42.847-6.53,23.975,12.5,32.692,30.534c-.268.074-.526.153-.77.24-2.218.792-2.684,1.875-2.684,2.645V39.4a14.527,14.527,0,0,0-6.219-1.174.9.9,0,0,0,0,1.8,14.642,14.642,0,0,1,4.731.694c1.23.44,1.489.883,1.489.953s-.259.514-1.492.954a15.053,15.053,0,0,1-9.476,0c-1.232-.44-1.492-.884-1.492-.954s.315-.593,1.813-1.06a.9.9,0,0,0-.534-1.714c-2.541.792-3.074,1.946-3.074,2.774V57.9c0,.77.466,1.853,2.684,2.645a16.854,16.854,0,0,0,10.684,0,5.858,5.858,0,0,0,1.786-.951,5.857,5.857,0,0,0,1.786.951,16.854,16.854,0,0,0,10.684,0,5.858,5.858,0,0,0,1.786-.951,5.857,5.857,0,0,0,1.786.951,16.854,16.854,0,0,0,10.684,0c2.218-.792,2.684-1.875,2.684-2.645V49.78c0-.77-.466-1.853-2.684-2.645a16.854,16.854,0,0,0-10.684,0,7.79,7.79,0,0,0-.888.376c0-1.17,0-4.644,0-5.865,0-.032,0-.2,0-.233ZM57.75,53.838c0,.069-.259.514-1.492.954a15.053,15.053,0,0,1-9.476,0c-1.232-.44-1.492-.884-1.492-.954V52.048a7.81,7.81,0,0,0,.888.376,16.854,16.854,0,0,0,10.684,0,7.788,7.788,0,0,0,.888-.376ZM43.494,37.477c0,.069-.259.514-1.492.954a15.053,15.053,0,0,1-9.477,0c-1.232-.44-1.492-.884-1.492-.954V35.688a7.811,7.811,0,0,0,.888.376,16.854,16.854,0,0,0,10.684,0,7.789,7.789,0,0,0,.888-.376ZM31.922,40.122a16.371,16.371,0,0,0,11.572-.376V41.6c0,.069-.259.514-1.492.954a15.055,15.055,0,0,1-9.477,0c-1.232-.44-1.492-.884-1.492-.954V39.746A7.8,7.8,0,0,0,31.922,40.122ZM29.238,49.78c0,.069-.259.514-1.492.954a15.053,15.053,0,0,1-9.476,0c-1.232-.44-1.492-.884-1.492-.954V47.99a7.81,7.81,0,0,0,.888.376,16.854,16.854,0,0,0,10.684,0,7.788,7.788,0,0,0,.888-.376Zm-12.46,2.269a7.812,7.812,0,0,0,.888.376,16.854,16.854,0,0,0,10.684,0,7.788,7.788,0,0,0,.888-.376v1.789c0,.069-.259.514-1.492.954a15.053,15.053,0,0,1-9.476,0c-1.232-.44-1.492-.884-1.492-.954Zm14.256,0a7.812,7.812,0,0,0,.888.376,16.854,16.854,0,0,0,10.684,0,7.788,7.788,0,0,0,.888-.376v1.789c0,.069-.259.514-1.492.954a15.053,15.053,0,0,1-9.477,0c-1.232-.44-1.492-.884-1.492-.954ZM42,50.733a15.055,15.055,0,0,1-9.477,0c-1.232-.44-1.492-.884-1.492-.954V47.99a7.81,7.81,0,0,0,.888.376,16.854,16.854,0,0,0,10.684,0,7.788,7.788,0,0,0,.888-.376V49.78C43.494,49.849,43.235,50.294,42,50.733Zm1.492-5.012c0,.069-.259.514-1.492.954a15.055,15.055,0,0,1-9.477,0c-1.232-.44-1.492-.884-1.492-.954V43.868a7.811,7.811,0,0,0,.888.376,16.854,16.854,0,0,0,10.684,0,7.787,7.787,0,0,0,.888-.376ZM32.526,32.466a15.059,15.059,0,0,1,9.477,0c1.232.44,1.492.884,1.492.954s-.259.514-1.492.954a15.055,15.055,0,0,1-9.477,0c-1.232-.44-1.492-.884-1.492-.954S31.293,32.906,32.526,32.466ZM17.667,44.309a16.371,16.371,0,0,0,11.572-.376v1.789c0,.069-.259.514-1.492.954a15.053,15.053,0,0,1-9.476,0c-1.232-.44-1.492-.884-1.492-.954V43.933A7.794,7.794,0,0,0,17.667,44.309Zm10.08,14.541a15.053,15.053,0,0,1-9.476,0c-1.232-.44-1.492-.884-1.492-.954V56.106a16.049,16.049,0,0,0,12.46,0V57.9C29.238,57.965,28.979,58.409,27.747,58.849Zm14.256,0a15.055,15.055,0,0,1-9.477,0c-1.232-.44-1.492-.884-1.492-.954V56.106a16.049,16.049,0,0,0,12.46,0V57.9C43.494,57.965,43.235,58.409,42,58.849Zm14.256,0a15.053,15.053,0,0,1-9.476,0c-1.232-.44-1.492-.884-1.492-.954V56.106a16.049,16.049,0,0,0,12.46,0V57.9C57.75,57.965,57.49,58.409,56.258,58.849ZM46.781,48.826a15.053,15.053,0,0,1,9.476,0c1.232.44,1.492.884,1.492.954s-.259.514-1.492.954a15.053,15.053,0,0,1-9.476,0c-1.232-.44-1.492-.884-1.492-.954S45.549,49.266,46.781,48.826Z" transform="translate(0 0)" fill="#4c5066"/>
            </g>
          </g>
        </g>
      </g>
    </g>
  </g>
</svg>
