<svg xmlns="http://www.w3.org/2000/svg" xmlns:xlink="http://www.w3.org/1999/xlink" width="127" height="127" viewBox="0 0 127 127">
  <defs>
    <clipPath id="clip-path">
      <rect id="Rectángulo_400938" data-name="Rectángulo 400938" width="127" height="127" transform="translate(0 -0.434)" fill="none"/>
    </clipPath>
    <clipPath id="clip-path-3">
      <rect id="Rectángulo_401301" data-name="Rectángulo 401301" width="68.069" height="204.378" fill="#d4e157"/>
    </clipPath>
    <clipPath id="clip-path-5">
      <rect id="Rectángulo_401247" data-name="Rectángulo 401247" width="16.85" height="16.849" fill="#d4e157"/>
    </clipPath>
    <clipPath id="clip-path-6">
      <path id="Trazado_873506" data-name="Trazado 873506" d="M16.85,8.425A8.425,8.425,0,1,1,8.425,0,8.425,8.425,0,0,1,16.85,8.425" fill="#d4e157"/>
    </clipPath>
    <clipPath id="clip-path-13">
      <rect id="Rectángulo_401261" data-name="Rectángulo 401261" width="16.849" height="16.849" fill="#d4e157"/>
    </clipPath>
    <clipPath id="clip-path-14">
      <path id="Trazado_873513" data-name="Trazado 873513" d="M16.849,8.425A8.425,8.425,0,1,1,8.425,0a8.425,8.425,0,0,1,8.425,8.425" fill="#d4e157"/>
    </clipPath>
    <clipPath id="clip-path-15">
      <rect id="Rectángulo_401263" data-name="Rectángulo 401263" width="16.85" height="16.85" fill="#d4e157"/>
    </clipPath>
    <clipPath id="clip-path-21">
      <rect id="Rectángulo_401273" data-name="Rectángulo 401273" width="16.849" height="16.85" fill="#d4e157"/>
    </clipPath>
    <clipPath id="clip-path-22">
      <path id="Trazado_873519" data-name="Trazado 873519" d="M16.849,8.425A8.425,8.425,0,1,1,8.425,0a8.424,8.424,0,0,1,8.425,8.425" fill="#d4e157"/>
    </clipPath>
    <clipPath id="clip-path-24">
      <path id="Trazado_873521" data-name="Trazado 873521" d="M16.85,8.425A8.425,8.425,0,1,1,8.425,0,8.424,8.424,0,0,1,16.85,8.425" fill="#d4e157"/>
    </clipPath>
  </defs>
  <g id="Grupo_1120601" data-name="Grupo 1120601" transform="translate(-811.711 -3568.323)">
    <g id="Grupo_1101088" data-name="Grupo 1101088" transform="translate(811.711 3568.757)">
      <g id="Grupo_1099379" data-name="Grupo 1099379" transform="translate(0 0)">
        <rect id="Rectángulo_401103" data-name="Rectángulo 401103" width="127" height="127" transform="translate(0 -0.434)" fill="none"/>
        <path id="Trazado_873425" data-name="Trazado 873425" d="M52.647,0A52.647,52.647,0,1,1,0,52.647,52.647,52.647,0,0,1,52.647,0Z" transform="translate(15.677 19.149)" fill="#b9bfe2"/>
        <g id="Enmascarar_grupo_1100032" data-name="Enmascarar grupo 1100032" transform="translate(0 0)" clip-path="url(#clip-path)">
          <g id="Grupo_1101051" data-name="Grupo 1101051" transform="translate(157.109 -30.031) rotate(90)" style="isolation: isolate">
            <g id="Grupo_1099913" data-name="Grupo 1099913" transform="translate(0 0)" clip-path="url(#clip-path-3)" style="isolation: isolate">
              <g id="Grupo_1099912" data-name="Grupo 1099912">
                <g id="Grupo_1099911" data-name="Grupo 1099911" clip-path="url(#clip-path-3)">
                  <g id="Grupo_1099780" data-name="Grupo 1099780" transform="translate(51.22 85.896)" style="isolation: isolate">
                    <g id="Grupo_1099779" data-name="Grupo 1099779" transform="translate(0 0)">
                      <g id="Grupo_1099778" data-name="Grupo 1099778" transform="translate(0 0)" clip-path="url(#clip-path-5)">
                        <g id="Grupo_1099777" data-name="Grupo 1099777" transform="translate(0 0)">
                          <g id="Grupo_1099776" data-name="Grupo 1099776" clip-path="url(#clip-path-6)">
                            <rect id="Rectángulo_401246" data-name="Rectángulo 401246" width="21.418" height="21.419" transform="translate(-5.189 15.062) rotate(-70.991)" fill="#d4e157"/>
                          </g>
                        </g>
                      </g>
                    </g>
                  </g>
                  <g id="Grupo_1099785" data-name="Grupo 1099785" transform="translate(51.22 102.745)" style="isolation: isolate">
                    <g id="Grupo_1099784" data-name="Grupo 1099784">
                      <g id="Grupo_1099783" data-name="Grupo 1099783" clip-path="url(#clip-path-5)">
                        <g id="Grupo_1099782" data-name="Grupo 1099782" transform="translate(0)">
                          <g id="Grupo_1099781" data-name="Grupo 1099781" clip-path="url(#clip-path-6)">
                            <rect id="Rectángulo_401248" data-name="Rectángulo 401248" width="21.418" height="21.419" transform="translate(-5.189 15.062) rotate(-70.991)" fill="#d4e157"/>
                          </g>
                        </g>
                      </g>
                    </g>
                  </g>
                  <g id="Grupo_1099790" data-name="Grupo 1099790" transform="translate(51.22 119.647)" style="isolation: isolate">
                    <g id="Grupo_1099789" data-name="Grupo 1099789" transform="translate(0 0)">
                      <g id="Grupo_1099788" data-name="Grupo 1099788" transform="translate(0 0)" clip-path="url(#clip-path-5)">
                        <g id="Grupo_1099787" data-name="Grupo 1099787" transform="translate(0 0)">
                          <g id="Grupo_1099786" data-name="Grupo 1099786" clip-path="url(#clip-path-6)">
                            <rect id="Rectángulo_401250" data-name="Rectángulo 401250" width="21.418" height="21.419" transform="translate(-5.189 15.062) rotate(-70.991)" fill="#d4e157"/>
                          </g>
                        </g>
                      </g>
                    </g>
                  </g>
                  <g id="Grupo_1099795" data-name="Grupo 1099795" transform="translate(51.22 136.496)" style="isolation: isolate">
                    <g id="Grupo_1099794" data-name="Grupo 1099794" transform="translate(0 0)">
                      <g id="Grupo_1099793" data-name="Grupo 1099793" transform="translate(0 0)" clip-path="url(#clip-path-5)">
                        <g id="Grupo_1099792" data-name="Grupo 1099792" transform="translate(0 0)">
                          <g id="Grupo_1099791" data-name="Grupo 1099791" clip-path="url(#clip-path-6)">
                            <rect id="Rectángulo_401252" data-name="Rectángulo 401252" width="21.418" height="21.419" transform="translate(-5.189 15.062) rotate(-70.991)" fill="#d4e157"/>
                          </g>
                        </g>
                      </g>
                    </g>
                  </g>
                  <g id="Grupo_1099815" data-name="Grupo 1099815" transform="translate(34.37 85.896)" style="isolation: isolate">
                    <g id="Grupo_1099814" data-name="Grupo 1099814" transform="translate(0 0)">
                      <g id="Grupo_1099813" data-name="Grupo 1099813" transform="translate(0 0)" clip-path="url(#clip-path-13)">
                        <g id="Grupo_1099812" data-name="Grupo 1099812" transform="translate(0 0)">
                          <g id="Grupo_1099811" data-name="Grupo 1099811" clip-path="url(#clip-path-14)">
                            <rect id="Rectángulo_401260" data-name="Rectángulo 401260" width="21.418" height="21.418" transform="translate(-5.189 15.062) rotate(-70.991)" fill="#d4e157"/>
                          </g>
                        </g>
                      </g>
                    </g>
                  </g>
                  <g id="Grupo_1099820" data-name="Grupo 1099820" transform="translate(51.22 68.499)" style="isolation: isolate">
                    <g id="Grupo_1099819" data-name="Grupo 1099819" transform="translate(0 0)">
                      <g id="Grupo_1099818" data-name="Grupo 1099818" transform="translate(0 0)" clip-path="url(#clip-path-15)">
                        <g id="Grupo_1099817" data-name="Grupo 1099817" transform="translate(0 0)">
                          <g id="Grupo_1099816" data-name="Grupo 1099816" clip-path="url(#clip-path-6)">
                            <rect id="Rectángulo_401262" data-name="Rectángulo 401262" width="21.419" height="21.419" transform="matrix(0.326, -0.945, 0.945, 0.326, -5.189, 15.062)" fill="#d4e157"/>
                          </g>
                        </g>
                      </g>
                    </g>
                  </g>
                  <g id="Grupo_1099825" data-name="Grupo 1099825" transform="translate(51.22 51.557)" style="isolation: isolate">
                    <g id="Grupo_1099824" data-name="Grupo 1099824" transform="translate(0 0)">
                      <g id="Grupo_1099823" data-name="Grupo 1099823" transform="translate(0 0)" clip-path="url(#clip-path-5)">
                        <g id="Grupo_1099822" data-name="Grupo 1099822" transform="translate(0 0)">
                          <g id="Grupo_1099821" data-name="Grupo 1099821" clip-path="url(#clip-path-6)">
                            <rect id="Rectángulo_401264" data-name="Rectángulo 401264" width="21.418" height="21.419" transform="translate(-5.189 15.062) rotate(-70.991)" fill="#d4e157"/>
                          </g>
                        </g>
                      </g>
                    </g>
                  </g>
                  <g id="Grupo_1099830" data-name="Grupo 1099830" transform="translate(51.22 34.397)" style="isolation: isolate">
                    <g id="Grupo_1099829" data-name="Grupo 1099829" transform="translate(0 0)">
                      <g id="Grupo_1099828" data-name="Grupo 1099828" transform="translate(0 0)" clip-path="url(#clip-path-15)">
                        <g id="Grupo_1099827" data-name="Grupo 1099827" transform="translate(0 0)">
                          <g id="Grupo_1099826" data-name="Grupo 1099826" clip-path="url(#clip-path-6)">
                            <rect id="Rectángulo_401266" data-name="Rectángulo 401266" width="21.419" height="21.419" transform="translate(-5.189 15.062) rotate(-70.991)" fill="#d4e157"/>
                          </g>
                        </g>
                      </g>
                    </g>
                  </g>
                  <g id="Grupo_1099845" data-name="Grupo 1099845" transform="translate(34.37 68.499)" style="isolation: isolate">
                    <g id="Grupo_1099844" data-name="Grupo 1099844" transform="translate(0 0)">
                      <g id="Grupo_1099843" data-name="Grupo 1099843" transform="translate(0 0)" clip-path="url(#clip-path-21)">
                        <g id="Grupo_1099842" data-name="Grupo 1099842" transform="translate(0 0)">
                          <g id="Grupo_1099841" data-name="Grupo 1099841" clip-path="url(#clip-path-22)">
                            <rect id="Rectángulo_401272" data-name="Rectángulo 401272" width="21.419" height="21.418" transform="translate(-5.189 15.062) rotate(-70.991)" fill="#d4e157"/>
                          </g>
                        </g>
                      </g>
                    </g>
                  </g>
                  <g id="Grupo_1099855" data-name="Grupo 1099855" transform="translate(33.983 102.745)" style="isolation: isolate">
                    <g id="Grupo_1099854" data-name="Grupo 1099854">
                      <g id="Grupo_1099853" data-name="Grupo 1099853" clip-path="url(#clip-path-13)">
                        <g id="Grupo_1099852" data-name="Grupo 1099852" transform="translate(0)">
                          <g id="Grupo_1099851" data-name="Grupo 1099851" transform="translate(0)" clip-path="url(#clip-path-24)">
                            <rect id="Rectángulo_401276" data-name="Rectángulo 401276" width="21.418" height="21.419" transform="translate(-5.189 15.062) rotate(-70.991)" fill="#d4e157"/>
                          </g>
                        </g>
                      </g>
                    </g>
                  </g>
                  <g id="Grupo_1099870" data-name="Grupo 1099870" transform="translate(33.983 119.647)" style="isolation: isolate">
                    <g id="Grupo_1099869" data-name="Grupo 1099869" transform="translate(0 0)">
                      <g id="Grupo_1099868" data-name="Grupo 1099868" transform="translate(0 0)" clip-path="url(#clip-path-13)">
                        <g id="Grupo_1099867" data-name="Grupo 1099867" transform="translate(0 0)">
                          <g id="Grupo_1099866" data-name="Grupo 1099866" transform="translate(0)" clip-path="url(#clip-path-6)">
                            <rect id="Rectángulo_401282" data-name="Rectángulo 401282" width="21.418" height="21.419" transform="translate(-5.189 15.062) rotate(-70.991)" fill="#d4e157"/>
                          </g>
                        </g>
                      </g>
                    </g>
                  </g>
                  <g id="Grupo_1099885" data-name="Grupo 1099885" transform="translate(33.983 136.496)" style="isolation: isolate">
                    <g id="Grupo_1099884" data-name="Grupo 1099884" transform="translate(0 0)">
                      <g id="Grupo_1099883" data-name="Grupo 1099883" transform="translate(0 0)" clip-path="url(#clip-path-13)">
                        <g id="Grupo_1099882" data-name="Grupo 1099882" transform="translate(0 0)">
                          <g id="Grupo_1099881" data-name="Grupo 1099881" transform="translate(0)" clip-path="url(#clip-path-24)">
                            <rect id="Rectángulo_401288" data-name="Rectángulo 401288" width="21.418" height="21.419" transform="translate(-5.189 15.062) rotate(-70.991)" fill="#d4e157"/>
                          </g>
                        </g>
                      </g>
                    </g>
                  </g>
                  <g id="Grupo_1099900" data-name="Grupo 1099900" transform="translate(34.37 51.634)" style="isolation: isolate">
                    <g id="Grupo_1099899" data-name="Grupo 1099899" transform="translate(0 0)">
                      <g id="Grupo_1099898" data-name="Grupo 1099898" transform="translate(0 0)" clip-path="url(#clip-path-21)">
                        <g id="Grupo_1099897" data-name="Grupo 1099897" transform="translate(0 0)">
                          <g id="Grupo_1099896" data-name="Grupo 1099896" clip-path="url(#clip-path-22)">
                            <rect id="Rectángulo_401294" data-name="Rectángulo 401294" width="21.419" height="21.418" transform="translate(-5.189 15.062) rotate(-70.991)" fill="#d4e157"/>
                          </g>
                        </g>
                      </g>
                    </g>
                  </g>
                  <g id="Grupo_1099910" data-name="Grupo 1099910" transform="translate(33.983 34.397)" style="isolation: isolate">
                    <g id="Grupo_1099909" data-name="Grupo 1099909" transform="translate(0 0)">
                      <g id="Grupo_1099908" data-name="Grupo 1099908" transform="translate(0 0)" clip-path="url(#clip-path-21)">
                        <g id="Grupo_1099907" data-name="Grupo 1099907" transform="translate(0 0)">
                          <g id="Grupo_1099906" data-name="Grupo 1099906" transform="translate(0)" clip-path="url(#clip-path-6)">
                            <rect id="Rectángulo_401298" data-name="Rectángulo 401298" width="21.419" height="21.419" transform="matrix(0.326, -0.945, 0.945, 0.326, -5.189, 15.062)" fill="#d4e157"/>
                          </g>
                        </g>
                      </g>
                    </g>
                  </g>
                </g>
              </g>
            </g>
          </g>
        </g>
        <circle id="Elipse_11503" data-name="Elipse 11503" cx="55" cy="55" r="55" transform="translate(8 8.566)" fill="#f3f9ff"/>
      </g>
    </g>
    <g id="Grupo_1101089" data-name="Grupo 1101089" transform="translate(838.418 3595.464)">
      <g id="Grupo_1099389" data-name="Grupo 1099389" transform="translate(0 0)">
        <rect id="Rectángulo_401104" data-name="Rectángulo 401104" width="71" height="72" transform="translate(0.293 -0.141)" fill="none"/>
      </g>
      <g id="Grupo_1120595" data-name="Grupo 1120595" transform="translate(4.293 3.54)">
        <path id="Trazado_907845" data-name="Trazado 907845" d="M18,25v-.382l.624.312A11.357,11.357,0,0,0,29.378,40h1.244a11.362,11.362,0,0,0,8.256-19.185A2.935,2.935,0,0,0,38.234,18a2.994,2.994,0,0,0,0-4A3,3,0,0,0,36,9a.964.964,0,0,0-.152.012l-1.374.211,1.5-5.98a1,1,0,0,0-1.525-1.075L32.277,3.613,30.831,1.445a1,1,0,0,0-1.7.051L27.6,4.124,25.428,3.1a1,1,0,0,0-1.4,1.146L24.6,6.527,18,9.461V9a1,1,0,0,0-1-1H9A1,1,0,0,0,8,9H1v2H8V23H1v2H8a1,1,0,0,0,1,1h8A1,1,0,0,0,18,25Zm22,3.622A9.389,9.389,0,0,1,30.622,38H29.378a9.365,9.365,0,0,1-8.949-12.167L22.553,26.9A1,1,0,0,0,23,27h4a3,3,0,0,0,3,3,1,1,0,1,1-1,1H27a3,3,0,0,0,2,2.816V36h2V33.816A2.993,2.993,0,0,0,30,28a1,1,0,0,1-1-1h5a3,3,0,0,0,2.789-4.1,2.994,2.994,0,0,0,.909-.426A9.413,9.413,0,0,1,40,28.622ZM27.572,6.324a1,1,0,0,0,1.291-.4l1.192-2.039,1.113,1.669a1,1,0,0,0,1.387.277l.847-.565L32.331,9.553l-4.732.728L26.482,5.808ZM18,11.65,25.093,8.5l.522,2.089-2.767.426.3,1.976L36.063,11A1,1,0,0,1,36,13H33v2h3a1,1,0,0,1,0,2H33v2h3a1,1,0,0,1,0,2H33v2h1a1,1,0,0,1,0,2H23.236L18,22.382ZM16,24H10V10h6Z" fill="#474d41"/>
        <path id="Trazado_907846" data-name="Trazado 907846" d="M63,48V46H58a1,1,0,0,0-1-1H49a1,1,0,0,0-1,1v1.6A9.313,9.313,0,0,0,41.529,45H40.236a4.587,4.587,0,0,0-3.8,2H30a2.992,2.992,0,0,0-2.528,1.4l-4.951-4.18A3.752,3.752,0,0,0,16,46.751v.193a3.749,3.749,0,0,0,.963,2.51l6.287,6.985A7.713,7.713,0,0,0,28.945,59h0L48,59.951V62a1,1,0,0,0,1,1h8a1,1,0,0,0,1-1h5V60H58V48ZM48,57.949,29,57a5.745,5.745,0,0,1-4.264-1.9L18.45,48.116A1.752,1.752,0,0,1,18,46.944v-.193A1.751,1.751,0,0,1,21.069,45.6a1.091,1.091,0,0,0,.109.106l5.911,4.988A3,3,0,0,0,30,53h7V51H30a1,1,0,0,1,0-2h7a1,1,0,0,0,.9-.553A2.6,2.6,0,0,1,40.236,47h1.293a7.323,7.323,0,0,1,5.207,2.149A22.033,22.033,0,0,1,48,51.256ZM56,61H50V47h6Z" fill="#474d41"/>
      </g>
    </g>
  </g>
</svg>
