<svg xmlns="http://www.w3.org/2000/svg" width="70" height="70" viewBox="0 0 70 70">
  <g id="Grupo_1072265" data-name="Grupo 1072265" transform="translate(-269 -958)">
    <circle id="Elipse_5614" data-name="Elipse 5614" cx="35" cy="35" r="35" transform="translate(269 958)" fill="#fff"/>
    <path id="Trazado_907831" data-name="Trazado 907831" d="M47.313,34.429a10.871,10.871,0,1,1-3.244,21.249,13.316,13.316,0,0,0-.747-2.91A8.467,8.467,0,1,0,38.847,45.3c0,.125,0,.25.009.374-.709-.882-1.446-1.745-2.188-2.583a10.874,10.874,0,0,1,10.646-8.662ZM34.752,43.067a3.362,3.362,0,0,1-.955.138H24.989a3.365,3.365,0,0,1-.955-.138A49.793,49.793,0,0,0,17.66,51.4c-5.041,8.851,2.13,17.84,11.733,17.678,9.6.162,16.774-8.827,11.733-17.678a49.8,49.8,0,0,0-6.375-8.334Zm-9.63-6.623L23.3,34.617a2.029,2.029,0,0,1,2.532-3.141,1.043,1.043,0,0,0,1.583-.656,2.029,2.029,0,0,1,3.965,0,1.043,1.043,0,0,0,1.583.656,2.029,2.029,0,0,1,2.532,3.141l-1.826,1.826Zm4.769,23.512c.958-.116,2.218-.6,2.19-1.754,0-.044-.006-.1-.015-.179-.165-1.357-1.678-1.743-2.814-1.93-1.764-.29-3.569-1.092-3.668-3.133a3.386,3.386,0,0,1,3.068-3.411v-.87a.7.7,0,0,1,1.406,0v.859a3.9,3.9,0,0,1,3.09,2.384.7.7,0,0,1-1.3.544,2.493,2.493,0,0,0-1.726-1.483c-1.325-.336-3.22.3-3.141,1.911.061,1.259,1.464,1.646,2.493,1.815,1.84.3,3.728,1.043,3.984,3.149.011.092.018.2.021.311.046,1.945-1.7,2.972-3.424,3.182V62.2a.7.7,0,1,1-1.406,0v-.862a3.9,3.9,0,0,1-3.405-2.858.7.7,0,0,1,1.362-.335,2.218,2.218,0,0,0,.947,1.329A3.445,3.445,0,0,0,29.892,59.956ZM24.989,41.8H33.8a1.974,1.974,0,1,0,0-3.949H24.989a1.974,1.974,0,1,0,0,3.949ZM40.572,46H41.3a.7.7,0,1,0,0-1.406h-.731a.7.7,0,0,0,0,1.406Zm7.444,6.038V51.31a.7.7,0,1,0-1.406,0v.731a.7.7,0,0,0,1.406,0ZM54.054,44.6h-.731a.7.7,0,1,0,0,1.406h.731a.7.7,0,0,0,0-1.406Zm-12-3.566.517.517a.7.7,0,0,0,.994-.994l-.517-.517a.7.7,0,0,0-.994.994Zm.994,9.533.517-.517a.7.7,0,1,0-.994-.994l-.517.517a.7.7,0,0,0-.183.321c.174.283.343.568.506.858a.7.7,0,0,0,.671-.184Zm9.533-.994-.517-.517a.7.7,0,1,0-.994.994l.517.517a.7.7,0,1,0,.994-.994Zm-.994-9.533-.517.517a.7.7,0,0,0,.994.994l.517-.517a.7.7,0,0,0-.994-.994ZM46.61,38.559v.731a.7.7,0,1,0,1.406,0v-.731a.7.7,0,0,0-1.406,0Zm0,3.538v3.2a.7.7,0,0,0,.411.64l2.082,1.2a.7.7,0,0,0,.7-1.214L48.016,44.9V42.1a.7.7,0,1,0-1.406,0Z" transform="translate(266.908 943.848)" fill="#474d41" fill-rule="evenodd"/>
  </g>
</svg>
