<svg xmlns="http://www.w3.org/2000/svg" xmlns:xlink="http://www.w3.org/1999/xlink" width="127" height="127" viewBox="0 0 127 127">
  <defs>
    <clipPath id="clip-path">
      <rect id="Rectángulo_400938" data-name="Rectángulo 400938" width="127" height="127" transform="translate(0 -0.434)" fill="none"/>
    </clipPath>
    <clipPath id="clip-path-3">
      <rect id="Rectángulo_401301" data-name="Rectángulo 401301" width="68.069" height="204.378" fill="#d4e157"/>
    </clipPath>
    <clipPath id="clip-path-5">
      <rect id="Rectángulo_401247" data-name="Rectángulo 401247" width="16.85" height="16.849" fill="#d4e157"/>
    </clipPath>
    <clipPath id="clip-path-6">
      <path id="Trazado_873506" data-name="Trazado 873506" d="M16.85,8.425A8.425,8.425,0,1,1,8.425,0,8.425,8.425,0,0,1,16.85,8.425" fill="#d4e157"/>
    </clipPath>
    <clipPath id="clip-path-13">
      <rect id="Rectángulo_401261" data-name="Rectángulo 401261" width="16.849" height="16.849" fill="#d4e157"/>
    </clipPath>
    <clipPath id="clip-path-14">
      <path id="Trazado_873513" data-name="Trazado 873513" d="M16.849,8.425A8.425,8.425,0,1,1,8.425,0a8.425,8.425,0,0,1,8.425,8.425" fill="#d4e157"/>
    </clipPath>
    <clipPath id="clip-path-15">
      <rect id="Rectángulo_401263" data-name="Rectángulo 401263" width="16.85" height="16.85" fill="#d4e157"/>
    </clipPath>
    <clipPath id="clip-path-21">
      <rect id="Rectángulo_401273" data-name="Rectángulo 401273" width="16.849" height="16.85" fill="#d4e157"/>
    </clipPath>
    <clipPath id="clip-path-22">
      <path id="Trazado_873519" data-name="Trazado 873519" d="M16.849,8.425A8.425,8.425,0,1,1,8.425,0a8.424,8.424,0,0,1,8.425,8.425" fill="#d4e157"/>
    </clipPath>
    <clipPath id="clip-path-24">
      <path id="Trazado_873521" data-name="Trazado 873521" d="M16.85,8.425A8.425,8.425,0,1,1,8.425,0,8.424,8.424,0,0,1,16.85,8.425" fill="#d4e157"/>
    </clipPath>
  </defs>
  <g id="Grupo_1120602" data-name="Grupo 1120602" transform="translate(-180 -3568.323)">
    <g id="Grupo_1101088" data-name="Grupo 1101088" transform="translate(180 3568.757)">
      <g id="Grupo_1099379" data-name="Grupo 1099379" transform="translate(0 0)">
        <rect id="Rectángulo_401103" data-name="Rectángulo 401103" width="127" height="127" transform="translate(0 -0.434)" fill="none"/>
        <path id="Trazado_873425" data-name="Trazado 873425" d="M52.647,0A52.647,52.647,0,1,1,0,52.647,52.647,52.647,0,0,1,52.647,0Z" transform="translate(15.677 19.149)" fill="#b9bfe2"/>
        <g id="Enmascarar_grupo_1100032" data-name="Enmascarar grupo 1100032" transform="translate(0 0)" clip-path="url(#clip-path)">
          <g id="Grupo_1101051" data-name="Grupo 1101051" transform="translate(157.109 -30.031) rotate(90)" style="isolation: isolate">
            <g id="Grupo_1099913" data-name="Grupo 1099913" transform="translate(0 0)" clip-path="url(#clip-path-3)" style="isolation: isolate">
              <g id="Grupo_1099912" data-name="Grupo 1099912">
                <g id="Grupo_1099911" data-name="Grupo 1099911" clip-path="url(#clip-path-3)">
                  <g id="Grupo_1099780" data-name="Grupo 1099780" transform="translate(51.22 85.896)" style="isolation: isolate">
                    <g id="Grupo_1099779" data-name="Grupo 1099779" transform="translate(0 0)">
                      <g id="Grupo_1099778" data-name="Grupo 1099778" transform="translate(0 0)" clip-path="url(#clip-path-5)">
                        <g id="Grupo_1099777" data-name="Grupo 1099777" transform="translate(0 0)">
                          <g id="Grupo_1099776" data-name="Grupo 1099776" clip-path="url(#clip-path-6)">
                            <rect id="Rectángulo_401246" data-name="Rectángulo 401246" width="21.418" height="21.419" transform="translate(-5.189 15.062) rotate(-70.991)" fill="#d4e157"/>
                          </g>
                        </g>
                      </g>
                    </g>
                  </g>
                  <g id="Grupo_1099785" data-name="Grupo 1099785" transform="translate(51.22 102.745)" style="isolation: isolate">
                    <g id="Grupo_1099784" data-name="Grupo 1099784">
                      <g id="Grupo_1099783" data-name="Grupo 1099783" clip-path="url(#clip-path-5)">
                        <g id="Grupo_1099782" data-name="Grupo 1099782" transform="translate(0)">
                          <g id="Grupo_1099781" data-name="Grupo 1099781" clip-path="url(#clip-path-6)">
                            <rect id="Rectángulo_401248" data-name="Rectángulo 401248" width="21.418" height="21.419" transform="translate(-5.189 15.062) rotate(-70.991)" fill="#d4e157"/>
                          </g>
                        </g>
                      </g>
                    </g>
                  </g>
                  <g id="Grupo_1099790" data-name="Grupo 1099790" transform="translate(51.22 119.647)" style="isolation: isolate">
                    <g id="Grupo_1099789" data-name="Grupo 1099789" transform="translate(0 0)">
                      <g id="Grupo_1099788" data-name="Grupo 1099788" transform="translate(0 0)" clip-path="url(#clip-path-5)">
                        <g id="Grupo_1099787" data-name="Grupo 1099787" transform="translate(0 0)">
                          <g id="Grupo_1099786" data-name="Grupo 1099786" clip-path="url(#clip-path-6)">
                            <rect id="Rectángulo_401250" data-name="Rectángulo 401250" width="21.418" height="21.419" transform="translate(-5.189 15.062) rotate(-70.991)" fill="#d4e157"/>
                          </g>
                        </g>
                      </g>
                    </g>
                  </g>
                  <g id="Grupo_1099795" data-name="Grupo 1099795" transform="translate(51.22 136.496)" style="isolation: isolate">
                    <g id="Grupo_1099794" data-name="Grupo 1099794" transform="translate(0 0)">
                      <g id="Grupo_1099793" data-name="Grupo 1099793" transform="translate(0 0)" clip-path="url(#clip-path-5)">
                        <g id="Grupo_1099792" data-name="Grupo 1099792" transform="translate(0 0)">
                          <g id="Grupo_1099791" data-name="Grupo 1099791" clip-path="url(#clip-path-6)">
                            <rect id="Rectángulo_401252" data-name="Rectángulo 401252" width="21.418" height="21.419" transform="translate(-5.189 15.062) rotate(-70.991)" fill="#d4e157"/>
                          </g>
                        </g>
                      </g>
                    </g>
                  </g>
                  <g id="Grupo_1099815" data-name="Grupo 1099815" transform="translate(34.37 85.896)" style="isolation: isolate">
                    <g id="Grupo_1099814" data-name="Grupo 1099814" transform="translate(0 0)">
                      <g id="Grupo_1099813" data-name="Grupo 1099813" transform="translate(0 0)" clip-path="url(#clip-path-13)">
                        <g id="Grupo_1099812" data-name="Grupo 1099812" transform="translate(0 0)">
                          <g id="Grupo_1099811" data-name="Grupo 1099811" clip-path="url(#clip-path-14)">
                            <rect id="Rectángulo_401260" data-name="Rectángulo 401260" width="21.418" height="21.418" transform="translate(-5.189 15.062) rotate(-70.991)" fill="#d4e157"/>
                          </g>
                        </g>
                      </g>
                    </g>
                  </g>
                  <g id="Grupo_1099820" data-name="Grupo 1099820" transform="translate(51.22 68.499)" style="isolation: isolate">
                    <g id="Grupo_1099819" data-name="Grupo 1099819" transform="translate(0 0)">
                      <g id="Grupo_1099818" data-name="Grupo 1099818" transform="translate(0 0)" clip-path="url(#clip-path-15)">
                        <g id="Grupo_1099817" data-name="Grupo 1099817" transform="translate(0 0)">
                          <g id="Grupo_1099816" data-name="Grupo 1099816" clip-path="url(#clip-path-6)">
                            <rect id="Rectángulo_401262" data-name="Rectángulo 401262" width="21.419" height="21.419" transform="matrix(0.326, -0.945, 0.945, 0.326, -5.189, 15.062)" fill="#d4e157"/>
                          </g>
                        </g>
                      </g>
                    </g>
                  </g>
                  <g id="Grupo_1099825" data-name="Grupo 1099825" transform="translate(51.22 51.557)" style="isolation: isolate">
                    <g id="Grupo_1099824" data-name="Grupo 1099824" transform="translate(0 0)">
                      <g id="Grupo_1099823" data-name="Grupo 1099823" transform="translate(0 0)" clip-path="url(#clip-path-5)">
                        <g id="Grupo_1099822" data-name="Grupo 1099822" transform="translate(0 0)">
                          <g id="Grupo_1099821" data-name="Grupo 1099821" clip-path="url(#clip-path-6)">
                            <rect id="Rectángulo_401264" data-name="Rectángulo 401264" width="21.418" height="21.419" transform="translate(-5.189 15.062) rotate(-70.991)" fill="#d4e157"/>
                          </g>
                        </g>
                      </g>
                    </g>
                  </g>
                  <g id="Grupo_1099830" data-name="Grupo 1099830" transform="translate(51.22 34.397)" style="isolation: isolate">
                    <g id="Grupo_1099829" data-name="Grupo 1099829" transform="translate(0 0)">
                      <g id="Grupo_1099828" data-name="Grupo 1099828" transform="translate(0 0)" clip-path="url(#clip-path-15)">
                        <g id="Grupo_1099827" data-name="Grupo 1099827" transform="translate(0 0)">
                          <g id="Grupo_1099826" data-name="Grupo 1099826" clip-path="url(#clip-path-6)">
                            <rect id="Rectángulo_401266" data-name="Rectángulo 401266" width="21.419" height="21.419" transform="translate(-5.189 15.062) rotate(-70.991)" fill="#d4e157"/>
                          </g>
                        </g>
                      </g>
                    </g>
                  </g>
                  <g id="Grupo_1099845" data-name="Grupo 1099845" transform="translate(34.37 68.499)" style="isolation: isolate">
                    <g id="Grupo_1099844" data-name="Grupo 1099844" transform="translate(0 0)">
                      <g id="Grupo_1099843" data-name="Grupo 1099843" transform="translate(0 0)" clip-path="url(#clip-path-21)">
                        <g id="Grupo_1099842" data-name="Grupo 1099842" transform="translate(0 0)">
                          <g id="Grupo_1099841" data-name="Grupo 1099841" clip-path="url(#clip-path-22)">
                            <rect id="Rectángulo_401272" data-name="Rectángulo 401272" width="21.419" height="21.418" transform="translate(-5.189 15.062) rotate(-70.991)" fill="#d4e157"/>
                          </g>
                        </g>
                      </g>
                    </g>
                  </g>
                  <g id="Grupo_1099855" data-name="Grupo 1099855" transform="translate(33.983 102.745)" style="isolation: isolate">
                    <g id="Grupo_1099854" data-name="Grupo 1099854">
                      <g id="Grupo_1099853" data-name="Grupo 1099853" clip-path="url(#clip-path-13)">
                        <g id="Grupo_1099852" data-name="Grupo 1099852" transform="translate(0)">
                          <g id="Grupo_1099851" data-name="Grupo 1099851" transform="translate(0)" clip-path="url(#clip-path-24)">
                            <rect id="Rectángulo_401276" data-name="Rectángulo 401276" width="21.418" height="21.419" transform="translate(-5.189 15.062) rotate(-70.991)" fill="#d4e157"/>
                          </g>
                        </g>
                      </g>
                    </g>
                  </g>
                  <g id="Grupo_1099870" data-name="Grupo 1099870" transform="translate(33.983 119.647)" style="isolation: isolate">
                    <g id="Grupo_1099869" data-name="Grupo 1099869" transform="translate(0 0)">
                      <g id="Grupo_1099868" data-name="Grupo 1099868" transform="translate(0 0)" clip-path="url(#clip-path-13)">
                        <g id="Grupo_1099867" data-name="Grupo 1099867" transform="translate(0 0)">
                          <g id="Grupo_1099866" data-name="Grupo 1099866" transform="translate(0)" clip-path="url(#clip-path-6)">
                            <rect id="Rectángulo_401282" data-name="Rectángulo 401282" width="21.418" height="21.419" transform="translate(-5.189 15.062) rotate(-70.991)" fill="#d4e157"/>
                          </g>
                        </g>
                      </g>
                    </g>
                  </g>
                  <g id="Grupo_1099885" data-name="Grupo 1099885" transform="translate(33.983 136.496)" style="isolation: isolate">
                    <g id="Grupo_1099884" data-name="Grupo 1099884" transform="translate(0 0)">
                      <g id="Grupo_1099883" data-name="Grupo 1099883" transform="translate(0 0)" clip-path="url(#clip-path-13)">
                        <g id="Grupo_1099882" data-name="Grupo 1099882" transform="translate(0 0)">
                          <g id="Grupo_1099881" data-name="Grupo 1099881" transform="translate(0)" clip-path="url(#clip-path-24)">
                            <rect id="Rectángulo_401288" data-name="Rectángulo 401288" width="21.418" height="21.419" transform="translate(-5.189 15.062) rotate(-70.991)" fill="#d4e157"/>
                          </g>
                        </g>
                      </g>
                    </g>
                  </g>
                  <g id="Grupo_1099900" data-name="Grupo 1099900" transform="translate(34.37 51.634)" style="isolation: isolate">
                    <g id="Grupo_1099899" data-name="Grupo 1099899" transform="translate(0 0)">
                      <g id="Grupo_1099898" data-name="Grupo 1099898" transform="translate(0 0)" clip-path="url(#clip-path-21)">
                        <g id="Grupo_1099897" data-name="Grupo 1099897" transform="translate(0 0)">
                          <g id="Grupo_1099896" data-name="Grupo 1099896" clip-path="url(#clip-path-22)">
                            <rect id="Rectángulo_401294" data-name="Rectángulo 401294" width="21.419" height="21.418" transform="translate(-5.189 15.062) rotate(-70.991)" fill="#d4e157"/>
                          </g>
                        </g>
                      </g>
                    </g>
                  </g>
                  <g id="Grupo_1099910" data-name="Grupo 1099910" transform="translate(33.983 34.397)" style="isolation: isolate">
                    <g id="Grupo_1099909" data-name="Grupo 1099909" transform="translate(0 0)">
                      <g id="Grupo_1099908" data-name="Grupo 1099908" transform="translate(0 0)" clip-path="url(#clip-path-21)">
                        <g id="Grupo_1099907" data-name="Grupo 1099907" transform="translate(0 0)">
                          <g id="Grupo_1099906" data-name="Grupo 1099906" transform="translate(0)" clip-path="url(#clip-path-6)">
                            <rect id="Rectángulo_401298" data-name="Rectángulo 401298" width="21.419" height="21.419" transform="matrix(0.326, -0.945, 0.945, 0.326, -5.189, 15.062)" fill="#d4e157"/>
                          </g>
                        </g>
                      </g>
                    </g>
                  </g>
                </g>
              </g>
            </g>
          </g>
        </g>
        <circle id="Elipse_11503" data-name="Elipse 11503" cx="55" cy="55" r="55" transform="translate(8 8.566)" fill="#f3f9ff"/>
      </g>
    </g>
    <g id="Grupo_1101089" data-name="Grupo 1101089" transform="translate(206.707 3595.464)">
      <g id="Grupo_1099389" data-name="Grupo 1099389" transform="translate(-0.717 1.203)">
        <rect id="Rectángulo_401104" data-name="Rectángulo 401104" width="72.434" height="69.594" transform="translate(0.293 -0.141)" fill="none"/>
      </g>
      <g id="Grupo_1120594" data-name="Grupo 1120594" transform="translate(-4.029 -3.615)">
        <path id="Trazado_907834" data-name="Trazado 907834" d="M29.738,16.688h7.357a2.578,2.578,0,0,0,2.575-2.575V6.756a2.578,2.578,0,0,0-2.575-2.575H29.738a2.578,2.578,0,0,0-2.575,2.575v7.357A2.578,2.578,0,0,0,29.738,16.688Zm0-9.931h7.357v7.357H29.738Z" transform="translate(6.632)" fill="#474d41"/>
        <path id="Trazado_907835" data-name="Trazado 907835" d="M56.562,27.341c-8.262.263-8.261,12.244,0,12.505,8.264-.262,8.262-12.244,0-12.505Zm0,9.931a3.678,3.678,0,1,1,3.678-3.678,3.678,3.678,0,0,1-3.678,3.678Z" transform="translate(13.279 6.635)" fill="#474d41"/>
        <path id="Trazado_907836" data-name="Trazado 907836" d="M16.093,38.534a2.738,2.738,0,0,0,.122-2.682l-3.5-6.991a2.772,2.772,0,0,0-4.928,0l-3.5,6.991A2.772,2.772,0,0,0,6.759,39.84H13.75a2.736,2.736,0,0,0,2.343-1.306ZM6.759,37.265a.168.168,0,0,1-.153-.085A.171.171,0,0,1,6.6,37l3.5-6.991c.029-.107.284-.145.322,0l3.5,6.99c.058.074-.027.29-.162.263Z" transform="translate(0 6.64)" fill="#474d41"/>
        <path id="Trazado_907837" data-name="Trazado 907837" d="M37.465,52.192a2.576,2.576,0,0,0-2.23-1.29H31.584a2.576,2.576,0,0,0-2.229,1.287L27.53,55.35a2.586,2.586,0,0,0,0,2.575l1.824,3.158a2.576,2.576,0,0,0,2.23,1.29h3.651a2.576,2.576,0,0,0,2.229-1.287l1.826-3.161a2.586,2.586,0,0,0,0-2.575ZM35.235,59.8h-3.65L29.76,56.638l1.824-3.161h3.65l1.826,3.161Z" transform="translate(6.639 13.385)" fill="#474d41"/>
        <path id="Trazado_907838" data-name="Trazado 907838" d="M40.15,12.067a28.5,28.5,0,0,1,16.4,16.415,1.288,1.288,0,1,0,2.407-.919,31.087,31.087,0,0,0-17.879-17.9,1.288,1.288,0,1,0-.923,2.4Z" transform="translate(10.116 1.546)" fill="#474d41"/>
        <path id="Trazado_907839" data-name="Trazado 907839" d="M10.227,29.205a1.289,1.289,0,0,0,1.663-.74A28.5,28.5,0,0,1,28.3,12.069a1.287,1.287,0,1,0-.918-2.405,31.076,31.076,0,0,0-17.9,17.878,1.287,1.287,0,0,0,.741,1.663Z" transform="translate(1.543 1.546)" fill="#474d41"/>
        <path id="Trazado_907840" data-name="Trazado 907840" d="M28.288,56.73a28.509,28.509,0,0,1-16.4-16.414,1.288,1.288,0,1,0-2.406.918,31.088,31.088,0,0,0,17.879,17.9,1.288,1.288,0,1,0,.923-2.4Z" transform="translate(1.543 10.114)" fill="#474d41"/>
        <path id="Trazado_907841" data-name="Trazado 907841" d="M58.215,39.587a1.287,1.287,0,0,0-1.663.741A28.5,28.5,0,0,1,40.138,56.722a1.288,1.288,0,1,0,.918,2.406,31.079,31.079,0,0,0,17.9-17.878,1.287,1.287,0,0,0-.741-1.663Z" transform="translate(10.111 10.118)" fill="#474d41"/>
        <path id="Trazado_907842" data-name="Trazado 907842" d="M27.1,42.674a1.287,1.287,0,1,0,0,2.575h5.416v2.064a1.288,1.288,0,1,0,2.575,0V45.248c8.756.684,8.923-12.169,0-11.512V27.373h5.416a1.287,1.287,0,1,0,0-2.575H35.091V22.735a1.287,1.287,0,1,0-2.575,0V24.8h-.947a5.756,5.756,0,1,0,0,11.513h.947v6.363Zm7.991-6.363c5.492-.582,5.488,6.946,0,6.363Zm-3.521-2.575a3.181,3.181,0,1,1,0-6.363h.947v6.363Z" transform="translate(6.245 4.946)" fill="#474d41"/>
        <path id="Trazado_907843" data-name="Trazado 907843" d="M48.377,48.134a1.287,1.287,0,0,0,1.8-.26A19.174,19.174,0,0,0,54.026,36.3c.2-15.663-18.487-25.018-30.882-15.462A1.287,1.287,0,1,0,24.686,22.9,16.739,16.739,0,0,1,48.116,46.332a1.286,1.286,0,0,0,.26,1.8Z" transform="translate(5.333 3.668)" fill="#474d41"/>
        <path id="Trazado_907844" data-name="Trazado 907844" d="M22.664,22.86a1.286,1.286,0,0,0-1.8.26,19.177,19.177,0,0,0-3.848,11.572C16.809,50.356,35.5,59.711,47.9,50.154a1.287,1.287,0,0,0-1.541-2.061A16.739,16.739,0,0,1,22.924,24.662a1.286,1.286,0,0,0-.26-1.8Z" transform="translate(3.724 5.278)" fill="#474d41"/>
      </g>
    </g>
  </g>
</svg>
