<svg xmlns="http://www.w3.org/2000/svg" xmlns:xlink="http://www.w3.org/1999/xlink" width="99" height="99" viewBox="0 0 99 99">
  <defs>
    <clipPath id="clip-path">
      <rect id="Rectángulo_401273" data-name="Rectángulo 401273" width="15.047" height="15.048" fill="#eef3bc"/>
    </clipPath>
    <clipPath id="clip-path-2">
      <path id="Trazado_873519" data-name="Trazado 873519" d="M15.047,7.524A7.524,7.524,0,1,1,7.524,0a7.524,7.524,0,0,1,7.524,7.524" fill="#eef3bc"/>
    </clipPath>
  </defs>
  <g id="Grupo_1120618" data-name="Grupo 1120618" transform="translate(8416 10546)">
    <rect id="Rectángulo_409541" data-name="Rectángulo 409541" width="99" height="99" rx="49.5" transform="translate(-8416 -10546)" fill="#f3f9ff"/>
    <g id="Grupo_1119773" data-name="Grupo 1119773" transform="translate(-9363.627 -19681.033)">
      <g id="Grupo_1099855" data-name="Grupo 1099855" transform="translate(948.664 9139)">
        <g id="Grupo_1099808" data-name="Grupo 1099808">
          <g id="Grupo_1101062" data-name="Grupo 1101062" transform="translate(-307.943 -6779.151)">
            <g id="Grupo_1101056" data-name="Grupo 1101056" transform="translate(330.953 6828.445) rotate(90)" opacity="0.998" style="isolation: isolate">
              <g id="Grupo_1099844" data-name="Grupo 1099844" transform="translate(0 0)">
                <g id="Grupo_1099843" data-name="Grupo 1099843" transform="translate(0 0)" clip-path="url(#clip-path)">
                  <g id="Grupo_1099842" data-name="Grupo 1099842" transform="translate(0 0)">
                    <g id="Grupo_1099841" data-name="Grupo 1099841" clip-path="url(#clip-path-2)">
                      <rect id="Rectángulo_401272" data-name="Rectángulo 401272" width="19.128" height="19.128" transform="translate(-4.634 13.451) rotate(-70.991)" fill="#eef3bc"/>
                    </g>
                  </g>
                </g>
              </g>
            </g>
            <g id="Grupo_1101057" data-name="Grupo 1101057" transform="translate(330.953 6843.492) rotate(90)" opacity="0.998" style="isolation: isolate">
              <g id="Grupo_1099844-2" data-name="Grupo 1099844" transform="translate(0 0)">
                <g id="Grupo_1099843-2" data-name="Grupo 1099843" transform="translate(0 0)" clip-path="url(#clip-path)">
                  <g id="Grupo_1099842-2" data-name="Grupo 1099842" transform="translate(0 0)">
                    <g id="Grupo_1099841-2" data-name="Grupo 1099841" clip-path="url(#clip-path-2)">
                      <rect id="Rectángulo_401272-2" data-name="Rectángulo 401272" width="19.128" height="19.128" transform="translate(-4.634 13.451) rotate(-70.991)" fill="#eef3bc"/>
                    </g>
                  </g>
                </g>
              </g>
            </g>
            <g id="Grupo_1101058" data-name="Grupo 1101058" transform="translate(330.953 6858.54) rotate(90)" opacity="0.998" style="isolation: isolate">
              <g id="Grupo_1099844-3" data-name="Grupo 1099844" transform="translate(0 0)">
                <g id="Grupo_1099843-3" data-name="Grupo 1099843" transform="translate(0 0)" clip-path="url(#clip-path)">
                  <g id="Grupo_1099842-3" data-name="Grupo 1099842" transform="translate(0 0)">
                    <g id="Grupo_1099841-3" data-name="Grupo 1099841" clip-path="url(#clip-path-2)">
                      <rect id="Rectángulo_401272-3" data-name="Rectángulo 401272" width="19.128" height="19.128" transform="translate(-4.634 13.451) rotate(-70.991)" fill="#eef3bc"/>
                    </g>
                  </g>
                </g>
              </g>
            </g>
            <g id="Grupo_1101059" data-name="Grupo 1101059" transform="translate(346 6858.676) rotate(90)" opacity="0.998" style="isolation: isolate">
              <g id="Grupo_1099844-4" data-name="Grupo 1099844" transform="translate(0 0)">
                <g id="Grupo_1099843-4" data-name="Grupo 1099843" transform="translate(0 0)" clip-path="url(#clip-path)">
                  <g id="Grupo_1099842-4" data-name="Grupo 1099842" transform="translate(0 0)">
                    <g id="Grupo_1099841-4" data-name="Grupo 1099841" clip-path="url(#clip-path-2)">
                      <rect id="Rectángulo_401272-4" data-name="Rectángulo 401272" width="19.128" height="19.128" transform="translate(-4.634 13.451) rotate(-70.991)" fill="#eef3bc"/>
                    </g>
                  </g>
                </g>
              </g>
            </g>
            <g id="Grupo_1101060" data-name="Grupo 1101060" transform="translate(346 6843.492) rotate(90)" opacity="0.998" style="isolation: isolate">
              <g id="Grupo_1099844-5" data-name="Grupo 1099844" transform="translate(0 0)">
                <g id="Grupo_1099843-5" data-name="Grupo 1099843" transform="translate(0 0)" clip-path="url(#clip-path)">
                  <g id="Grupo_1099842-5" data-name="Grupo 1099842" transform="translate(0 0)">
                    <g id="Grupo_1099841-5" data-name="Grupo 1099841" clip-path="url(#clip-path-2)">
                      <rect id="Rectángulo_401272-5" data-name="Rectángulo 401272" width="19.128" height="19.128" transform="translate(-4.634 13.451) rotate(-70.991)" fill="#eef3bc"/>
                    </g>
                  </g>
                </g>
              </g>
            </g>
            <g id="Grupo_1101061" data-name="Grupo 1101061" transform="translate(361.047 6858.676) rotate(90)" opacity="0.998" style="isolation: isolate">
              <g id="Grupo_1099844-6" data-name="Grupo 1099844" transform="translate(0 0)">
                <g id="Grupo_1099843-6" data-name="Grupo 1099843" transform="translate(0 0)" clip-path="url(#clip-path)">
                  <g id="Grupo_1099842-6" data-name="Grupo 1099842" transform="translate(0 0)">
                    <g id="Grupo_1099841-6" data-name="Grupo 1099841" clip-path="url(#clip-path-2)">
                      <rect id="Rectángulo_401272-6" data-name="Rectángulo 401272" width="19.128" height="19.128" transform="translate(-4.634 13.451) rotate(-70.991)" fill="#eef3bc"/>
                    </g>
                  </g>
                </g>
              </g>
            </g>
          </g>
          <g id="Grupo_1099776" data-name="Grupo 1099776" transform="translate(20.038 16.035)">
            <g id="Grupo_1099618" data-name="Grupo 1099618" transform="translate(0 0)">
              <rect id="Rectángulo_401104" data-name="Rectángulo 401104" width="57.823" height="58.52" transform="translate(0)" fill="none"/>
            </g>
            <g id="Grupo_1119760" data-name="Grupo 1119760" transform="translate(0 -5.47)">
              <path id="Trazado_906831" data-name="Trazado 906831" d="M121.263,88.708a2.827,2.827,0,1,0-2.256-1.128l-4.639,6.483a2.816,2.816,0,0,0-2.8.617l-3.092-1.755a2.823,2.823,0,1,0-5.52,0L99.863,94.68a2.819,2.819,0,1,0,.838,1.472l3.092-1.755a2.816,2.816,0,0,0,3.844,0l3.092,1.755a2.824,2.824,0,1,0,5.016-1.1l4.639-6.483A2.815,2.815,0,0,0,121.263,88.708Zm0-3.953a1.129,1.129,0,1,1-1.129,1.129A1.131,1.131,0,0,1,121.263,84.755ZM97.941,97.875a1.129,1.129,0,1,1,1.129-1.129A1.131,1.131,0,0,1,97.941,97.875Zm7.774-4.414a1.129,1.129,0,1,1,1.129-1.129A1.131,1.131,0,0,1,105.715,93.461Zm7.774,4.414a1.129,1.129,0,1,1,1.129-1.129A1.131,1.131,0,0,1,113.489,97.875Z" transform="translate(-84.376 -67.863)" fill="#4c5066"/>
              <path id="Trazado_906832" data-name="Trazado 906832" d="M47.3,78.158H2.4a.7.7,0,0,1-.7-.7V42.512a.7.7,0,0,1,.7-.7H6.389a.847.847,0,1,0,0-1.694H2.4a2.4,2.4,0,0,0-2.4,2.4V77.457a2.4,2.4,0,0,0,2.4,2.4h5.84v1.864a1.928,1.928,0,0,0,1.926,1.926h8.479L14.65,91.435a.847.847,0,1,0,1.508.772l4.387-8.565h9.365L34.3,92.207a.847.847,0,1,0,1.508-.772l-3.991-7.792h8.479a1.928,1.928,0,0,0,1.926-1.926V79.852H47.3a.847.847,0,1,0,0-1.694Zm-6.775,3.558a.232.232,0,0,1-.232.232H10.162a.232.232,0,0,1-.232-.232V79.852H40.523Z" transform="translate(0 -29.768)" fill="#4c5066"/>
              <path id="Trazado_906833" data-name="Trazado 906833" d="M79.918,12.042H118.2a.7.7,0,0,1,.7.7V20.8a.847.847,0,0,0,1.694,0V12.744a2.4,2.4,0,0,0-2.4-2.4H100.069V8.683a2.127,2.127,0,0,0-2.125-2.125H92.791a2.128,2.128,0,0,0-2.125,2.125v1.665H79.918a.847.847,0,1,0,0,1.694ZM92.36,8.683a.432.432,0,0,1,.431-.431h5.152a.432.432,0,0,1,.431.431v1.665H92.361V8.683Z" transform="translate(-70.141)" fill="#4c5066"/>
              <path id="Trazado_906834" data-name="Trazado 906834" d="M98.249,267.576a.847.847,0,0,0-.847.847v7.485a.847.847,0,0,0,.847.847h3.436a.847.847,0,0,0,.847-.847v-7.485a.847.847,0,0,0-.847-.847Zm2.589,7.485H99.1v-5.79h1.742Z" transform="translate(-86.402 -231.54)" fill="#4c5066"/>
              <path id="Trazado_906835" data-name="Trazado 906835" d="M167.084,229.248a.847.847,0,0,0-.847.847v11.813a.847.847,0,0,0,.847.847h3.436a.847.847,0,0,0,.847-.847V230.1a.847.847,0,0,0-.847-.847Zm2.589,11.813h-1.742V230.942h1.742Z" transform="translate(-147.463 -197.54)" fill="#4c5066"/>
              <path id="Trazado_906836" data-name="Trazado 906836" d="M235.92,267.576a.847.847,0,0,0-.847.847v7.485a.847.847,0,0,0,.847.847h3.436a.847.847,0,0,0,.847-.847v-7.485a.847.847,0,0,0-.847-.847Zm2.589,7.485h-1.742v-5.79h1.742Z" transform="translate(-208.525 -231.54)" fill="#4c5066"/>
              <path id="Trazado_906837" data-name="Trazado 906837" d="M304.756,311.832a.847.847,0,0,0-.847.847v2.487a.847.847,0,0,0,.847.847h3.436a.847.847,0,1,0,0-1.694H305.6v-1.639A.847.847,0,0,0,304.756,311.832Z" transform="translate(-269.587 -270.798)" fill="#4c5066"/>
              <path id="Trazado_906838" data-name="Trazado 906838" d="M319.548,171.527l-4.859-8.417a11.076,11.076,0,1,0-10.952,3.126,11.131,11.131,0,0,0,2.883.382,10.932,10.932,0,0,0,2.493-.288l4.858,8.417a3.22,3.22,0,1,0,5.577-3.22ZM304.175,164.6a9.377,9.377,0,1,1,7.115-.937A9.316,9.316,0,0,1,304.175,164.6Zm13.348,9.859a1.527,1.527,0,0,1-2.084-.558l-4.674-8.1a11.118,11.118,0,0,0,2.641-1.527l4.676,8.1a1.524,1.524,0,0,1-.558,2.084Z" transform="translate(-262.157 -122.341)" fill="#4c5066"/>
              <path id="Trazado_906839" data-name="Trazado 906839" d="M338.026,181.673a8.016,8.016,0,0,0-.4-5.807.847.847,0,1,0-1.532.722,6.344,6.344,0,1,1-1.913-2.363.847.847,0,1,0,1.022-1.351,8.044,8.044,0,1,0,2.824,8.8Z" transform="translate(-285.901 -146.085)" fill="#4c5066"/>
            </g>
          </g>
        </g>
      </g>
    </g>
  </g>
</svg>
