<svg xmlns="http://www.w3.org/2000/svg" xmlns:xlink="http://www.w3.org/1999/xlink" width="189.993" height="331.81" viewBox="0 0 189.993 331.81">
  <defs>
    <clipPath id="clip-path">
      <rect id="Rectángulo_410208" data-name="Rectángulo 410208" width="189.993" height="264.699" fill="none"/>
    </clipPath>
  </defs>
  <g id="Grupo_1120606" data-name="Grupo 1120606" transform="translate(-1020 -1764)">
    <g id="Grupo_1120587" data-name="Grupo 1120587" transform="translate(1020 1764)">
      <g id="Grupo_1120586" data-name="Grupo 1120586" clip-path="url(#clip-path)">
        <path id="Trazado_907720" data-name="Trazado 907720" d="M235.078,81.375H151.522a6.516,6.516,0,0,1-6.516-6.516v-61.8h96.588v61.8a6.516,6.516,0,0,1-6.516,6.516" transform="translate(-54.344 -4.893)" fill="#fff"/>
        <path id="Trazado_907721" data-name="Trazado 907721" d="M235.078,81.375H151.522a6.516,6.516,0,0,1-6.516-6.516v-61.8h96.588v61.8A6.516,6.516,0,0,1,235.078,81.375Z" transform="translate(-54.344 -4.893)" fill="none" stroke="#ff95fb" stroke-linecap="round" stroke-linejoin="round" stroke-width="1.5"/>
        <rect id="Rectángulo_410207" data-name="Rectángulo 410207" width="4.392" height="4.392" transform="translate(115.816 33.146)" fill="#bac36a"/>
        <line id="Línea_3536" data-name="Línea 3536" x1="10.243" transform="translate(102.072 34.147)" fill="none" stroke="#303030" stroke-linecap="round" stroke-linejoin="round" stroke-width="1.5"/>
        <line id="Línea_3537" data-name="Línea 3537" x1="15.443" transform="translate(96.873 36.711)" fill="none" stroke="#303030" stroke-linecap="round" stroke-linejoin="round" stroke-width="1.5"/>
        <path id="Trazado_907722" data-name="Trazado 907722" d="M241.595,8.444H145.007V4.95a4.2,4.2,0,0,1,4.2-4.2H237.4a4.2,4.2,0,0,1,4.2,4.2Z" transform="translate(-54.345 -0.281)" fill="#fff"/>
        <path id="Trazado_907723" data-name="Trazado 907723" d="M241.595,8.444H145.007V4.95a4.2,4.2,0,0,1,4.2-4.2H237.4a4.2,4.2,0,0,1,4.2,4.2Z" transform="translate(-54.345 -0.281)" fill="none" stroke="#ff95fb" stroke-linecap="round" stroke-linejoin="round" stroke-width="1.5"/>
        <path id="Trazado_907724" data-name="Trazado 907724" d="M290.707,5.921a1.639,1.639,0,1,1-1.639-1.639,1.639,1.639,0,0,1,1.639,1.639" transform="translate(-107.721 -1.605)" fill="#bac36a"/>
        <path id="Trazado_907725" data-name="Trazado 907725" d="M280.714,5.921a1.639,1.639,0,1,1-1.639-1.639,1.639,1.639,0,0,1,1.639,1.639" transform="translate(-103.976 -1.605)" fill="#f6c3ff"/>
        <path id="Trazado_907726" data-name="Trazado 907726" d="M270.722,5.921a1.639,1.639,0,1,1-1.639-1.639,1.639,1.639,0,0,1,1.639,1.639" transform="translate(-100.231 -1.605)" fill="#303030"/>
        <path id="Trazado_907727" data-name="Trazado 907727" d="M225.965,65,212.6,79.391,211.1,81a24.794,24.794,0,0,1-5.258-24.49l2.026.85Z" transform="translate(-76.68 -21.18)" fill="#fff"/>
        <path id="Trazado_907728" data-name="Trazado 907728" d="M225.965,65,212.6,79.391,211.1,81a24.794,24.794,0,0,1-5.258-24.49l2.026.85Z" transform="translate(-76.68 -21.18)" fill="none" stroke="#303030" stroke-linecap="round" stroke-linejoin="round" stroke-width="1.5"/>
        <path id="Trazado_907729" data-name="Trazado 907729" d="M249.206,82.711a24.674,24.674,0,0,1-29.067-1.194l1.494-1.613,15.3-16.508,18.84-12.271,1.838-1.2a25.054,25.054,0,0,1-8.409,32.787" transform="translate(-82.502 -18.71)" fill="#f6c3ff"/>
        <path id="Trazado_907730" data-name="Trazado 907730" d="M259.024,38.283l-1.832,1.2L240.2,50.575l-8.941-18.219-.969-1.976a24.829,24.829,0,0,1,28.735,7.9" transform="translate(-86.306 -10.739)" fill="#303030"/>
        <path id="Trazado_907731" data-name="Trazado 907731" d="M223.667,48.015,208.08,41.443l-2.026-.857a23.265,23.265,0,0,1,9.2-9.735l.963,1.969Z" transform="translate(-77.223 -11.562)" fill="#bac36a"/>
      </g>
    </g>
    <g id="Grupo_1120605" data-name="Grupo 1120605">
      <g id="Grupo_1120588" data-name="Grupo 1120588" transform="translate(1020 1764)" clip-path="url(#clip-path)">
        <path id="Trazado_907732" data-name="Trazado 907732" d="M107.928,254.717H219.484a7.63,7.63,0,0,0,7.63-7.629V179.112H100.3v67.976a7.629,7.629,0,0,0,7.629,7.629" transform="translate(-37.589 -67.126)" fill="#fff"/>
        <path id="Trazado_907733" data-name="Trazado 907733" d="M107.928,254.717H219.484a7.63,7.63,0,0,0,7.63-7.629V179.112H100.3v67.976A7.629,7.629,0,0,0,107.928,254.717Z" transform="translate(-37.589 -67.126)" fill="none" stroke="#ff95fb" stroke-linecap="round" stroke-linejoin="round" stroke-width="1.5"/>
        <path id="Trazado_907734" data-name="Trazado 907734" d="M227.113,174.5H100.3v-3.494a4.2,4.2,0,0,1,4.2-4.2H222.914a4.2,4.2,0,0,1,4.2,4.2Z" transform="translate(-37.589 -62.514)" fill="#fff"/>
        <path id="Trazado_907735" data-name="Trazado 907735" d="M227.113,174.5H100.3v-3.494a4.2,4.2,0,0,1,4.2-4.2H222.914a4.2,4.2,0,0,1,4.2,4.2Z" transform="translate(-37.589 -62.514)" fill="none" stroke="#ff95fb" stroke-linecap="round" stroke-linejoin="round" stroke-width="1.5"/>
        <path id="Trazado_907736" data-name="Trazado 907736" d="M294.344,171.977a1.639,1.639,0,1,1-1.639-1.639,1.638,1.638,0,0,1,1.639,1.639" transform="translate(-109.084 -63.838)" fill="#bac36a"/>
        <path id="Trazado_907737" data-name="Trazado 907737" d="M284.352,171.977a1.639,1.639,0,1,1-1.639-1.639,1.638,1.638,0,0,1,1.639,1.639" transform="translate(-105.339 -63.838)" fill="#f6c3ff"/>
        <path id="Trazado_907738" data-name="Trazado 907738" d="M274.36,171.977a1.639,1.639,0,1,1-1.639-1.639,1.638,1.638,0,0,1,1.639,1.639" transform="translate(-101.594 -63.838)" fill="#303030"/>
        <line id="Línea_3538" data-name="Línea 3538" x2="100.531" transform="translate(72.325 173.393)" fill="none" stroke="#303030" stroke-linecap="round" stroke-linejoin="round" stroke-width="1.5"/>
        <line id="Línea_3539" data-name="Línea 3539" x2="96.79" transform="translate(74.195 167.817)" fill="none" stroke="#ff95fb" stroke-linecap="round" stroke-linejoin="round" stroke-width="0.5"/>
        <line id="Línea_3540" data-name="Línea 3540" x2="96.79" transform="translate(74.195 162.241)" fill="none" stroke="#ff95fb" stroke-linecap="round" stroke-linejoin="round" stroke-width="0.5"/>
        <line id="Línea_3541" data-name="Línea 3541" x2="96.79" transform="translate(74.195 156.665)" fill="none" stroke="#ff95fb" stroke-linecap="round" stroke-linejoin="round" stroke-width="0.5"/>
        <line id="Línea_3542" data-name="Línea 3542" x2="96.79" transform="translate(74.195 151.088)" fill="none" stroke="#ff95fb" stroke-linecap="round" stroke-linejoin="round" stroke-width="0.5"/>
        <line id="Línea_3543" data-name="Línea 3543" x2="96.79" transform="translate(74.195 145.512)" fill="none" stroke="#ff95fb" stroke-linecap="round" stroke-linejoin="round" stroke-width="0.5"/>
        <line id="Línea_3544" data-name="Línea 3544" x2="96.79" transform="translate(74.195 139.936)" fill="none" stroke="#ff95fb" stroke-linecap="round" stroke-linejoin="round" stroke-width="0.5"/>
        <line id="Línea_3545" data-name="Línea 3545" x2="96.79" transform="translate(74.195 134.359)" fill="none" stroke="#ff95fb" stroke-linecap="round" stroke-linejoin="round" stroke-width="0.5"/>
        <line id="Línea_3546" data-name="Línea 3546" x2="96.79" transform="translate(74.195 128.783)" fill="none" stroke="#ff95fb" stroke-linecap="round" stroke-linejoin="round" stroke-width="0.5"/>
        <line id="Línea_3547" data-name="Línea 3547" x2="96.79" transform="translate(74.195 123.207)" fill="none" stroke="#ff95fb" stroke-linecap="round" stroke-linejoin="round" stroke-width="0.5"/>
        <rect id="Rectángulo_410209" data-name="Rectángulo 410209" width="9.673" height="13.804" transform="translate(79.641 159.335)" fill="#f6c3ff"/>
        <rect id="Rectángulo_410210" data-name="Rectángulo 410210" width="9.673" height="19.4" transform="translate(79.641 139.936)" fill="#bac36a"/>
        <rect id="Rectángulo_410211" data-name="Rectángulo 410211" width="9.673" height="7.675" transform="translate(94.887 165.464)" fill="#f6c3ff"/>
        <rect id="Rectángulo_410212" data-name="Rectángulo 410212" width="9.673" height="17.164" transform="translate(94.887 148.3)" fill="#bac36a"/>
        <rect id="Rectángulo_410213" data-name="Rectángulo 410213" width="9.673" height="19.568" transform="translate(110.132 153.57)" fill="#f6c3ff"/>
        <rect id="Rectángulo_410214" data-name="Rectángulo 410214" width="9.673" height="24.788" transform="translate(110.132 128.783)" fill="#bac36a"/>
        <rect id="Rectángulo_410215" data-name="Rectángulo 410215" width="9.673" height="3.132" transform="translate(125.377 170.007)" fill="#f6c3ff"/>
        <rect id="Rectángulo_410216" data-name="Rectángulo 410216" width="9.673" height="5.364" transform="translate(125.377 164.642)" fill="#bac36a"/>
        <rect id="Rectángulo_410217" data-name="Rectángulo 410217" width="9.673" height="13.804" transform="translate(140.622 159.335)" fill="#f6c3ff"/>
        <rect id="Rectángulo_410218" data-name="Rectángulo 410218" width="9.673" height="5.764" transform="translate(140.622 153.57)" fill="#bac36a"/>
        <rect id="Rectángulo_410219" data-name="Rectángulo 410219" width="9.673" height="8.497" transform="translate(155.868 164.642)" fill="#f6c3ff"/>
        <rect id="Rectángulo_410220" data-name="Rectángulo 410220" width="9.673" height="19.13" transform="translate(155.868 145.512)" fill="#bac36a"/>
        <path id="Trazado_907739" data-name="Trazado 907739" d="M136.455,285.013h-8.478a.6.6,0,0,1-.6-.6v-.133a.6.6,0,0,1,.6-.6h8.478a.6.6,0,0,1,.6.6v.133a.6.6,0,0,1-.6.6" transform="translate(-47.738 -106.317)" fill="#ff95fb"/>
        <path id="Trazado_907740" data-name="Trazado 907740" d="M160.838,285.013H152.36a.6.6,0,0,1-.6-.6v-.133a.6.6,0,0,1,.6-.6h8.478a.6.6,0,0,1,.6.6v.133a.6.6,0,0,1-.6.6" transform="translate(-56.876 -106.317)" fill="#ff95fb"/>
        <path id="Trazado_907741" data-name="Trazado 907741" d="M185.222,285.013h-8.478a.6.6,0,0,1-.6-.6v-.133a.6.6,0,0,1,.6-.6h8.478a.6.6,0,0,1,.6.6v.133a.6.6,0,0,1-.6.6" transform="translate(-66.015 -106.317)" fill="#ff95fb"/>
        <path id="Trazado_907742" data-name="Trazado 907742" d="M209.605,285.013h-8.478a.6.6,0,0,1-.6-.6v-.133a.6.6,0,0,1,.6-.6h8.478a.6.6,0,0,1,.6.6v.133a.6.6,0,0,1-.6.6" transform="translate(-75.153 -106.317)" fill="#ff95fb"/>
        <path id="Trazado_907743" data-name="Trazado 907743" d="M233.988,285.013h-8.477a.6.6,0,0,1-.6-.6v-.133a.6.6,0,0,1,.6-.6h8.477a.6.6,0,0,1,.6.6v.133a.6.6,0,0,1-.6.6" transform="translate(-84.291 -106.317)" fill="#ff95fb"/>
        <path id="Trazado_907744" data-name="Trazado 907744" d="M258.372,285.013h-8.478a.6.6,0,0,1-.6-.6v-.133a.6.6,0,0,1,.6-.6h8.478a.6.6,0,0,1,.6.6v.133a.6.6,0,0,1-.6.6" transform="translate(-93.429 -106.317)" fill="#ff95fb"/>
        <path id="Trazado_907745" data-name="Trazado 907745" d="M285.863,209.048a1.121,1.121,0,1,0-1.121-1.121,1.121,1.121,0,0,0,1.121,1.121m3.376,5.6-1.163-4.225a.907.907,0,0,0-.875-.667h-2.677a.908.908,0,0,0-.875.667l-1.162,4.225a.464.464,0,1,0,.894.246l.872-3.171v10.293a.661.661,0,1,0,1.322,0v-5.683a.288.288,0,0,1,.576,0v5.683a.661.661,0,0,0,1.322,0V211.719l.872,3.171a.464.464,0,0,0,.894-.246" transform="translate(-105.862 -77.505)" fill="#bac36a"/>
        <path id="Trazado_907746" data-name="Trazado 907746" d="M285.863,242.534a1.121,1.121,0,1,0-1.121-1.12,1.121,1.121,0,0,0,1.121,1.12m3.376,5.6-1.163-4.226a.907.907,0,0,0-.875-.667h-2.677a.908.908,0,0,0-.875.667l-1.162,4.225a.464.464,0,1,0,.894.246l.872-3.171V255.5a.661.661,0,0,0,1.322,0v-5.683a.288.288,0,1,1,.576,0V255.5a.661.661,0,0,0,1.322,0V245.206l.872,3.171a.464.464,0,1,0,.894-.246" transform="translate(-105.862 -90.055)" fill="#f6c3ff"/>
      </g>
      <g id="Grupo_1120604" data-name="Grupo 1120604" transform="translate(5528 11700)">
        <path id="Trazado_907747" data-name="Trazado 907747" d="M85.688,327.255c-1.563-3.774-2.487-5.276-1.848-8.857,2.056-11.526,6.956-37.085,9.09-52.976a429.127,429.127,0,0,0,2.723-84.3H51.323c-3.174,22.421-13.719,27.355,14.609,35.053,0,0,1.173,34.063,1.332,42.659s-5.173,12.077-4.655,34.478c.186,8.086.445,31.847.445,31.847-4.405,14.359,26.763,12.065,22.634,2.093" transform="translate(-4517.511 -9978.495)" fill="#d48983"/>
        <path id="Trazado_907748" data-name="Trazado 907748" d="M127.9,381.657c-.225-4.346-2.015-6.232-8.389-7.913a33.138,33.138,0,0,1-9.455-3.824,85.125,85.125,0,0,1-8.276-5.85" transform="translate(-4528.701 -10015.706)" fill="none" stroke="#303030" stroke-linecap="round" stroke-linejoin="round" stroke-width="1.5"/>
        <path id="Trazado_907749" data-name="Trazado 907749" d="M111.353,372.606a33.12,33.12,0,0,1-9.455-3.824A126.944,126.944,0,0,1,89.53,359.67c-2.052-1.713-7.156-1.441-9.629,2.137a4.514,4.514,0,0,0-2.656-.526,5.353,5.353,0,0,0-2.262,1.272c-1.269,1.017-3.129,3.235-6.088,3.13-2.935-.1-2.806-4.449-2.806-4.449l-.033-2.748c-1.5-.158-2.036,1.314-2.158,2.441-.288,2.685-.568,3.537-1.238,7.173-.484,2.636-1.679,5.822-.413,11.818.48,3.283,3.784,3.887,8.888,3.887h43.6c2.843,0,5.057-2.3,5.006-3.285-.225-4.346-2.015-6.232-8.388-7.913" transform="translate(-4520.546 -10014.567)" fill="#bac36a"/>
        <path id="Trazado_907750" data-name="Trazado 907750" d="M105.481,377.691c1.927-2.481,6.041-4.833,9.664-3.624" transform="translate(-4529.455 -10017.674)" fill="none" stroke="#303030" stroke-linecap="round" stroke-linejoin="round" stroke-width="1.5"/>
        <path id="Trazado_907751" data-name="Trazado 907751" d="M108.934,370.005a9.86,9.86,0,0,0-3.86,4.084" transform="translate(-4529.372 -10016.913)" fill="none" stroke="#303030" stroke-linecap="round" stroke-linejoin="round" stroke-width="1.5"/>
        <path id="Trazado_907752" data-name="Trazado 907752" d="M109.447,371.412c-2.218-.1-5.355.543-10.651,1.435" transform="translate(-4528.095 -10017.197)" fill="none" stroke="#303030" stroke-linecap="round" stroke-linejoin="round" stroke-width="1.5"/>
        <path id="Trazado_907753" data-name="Trazado 907753" d="M103.484,366.339a8.88,8.88,0,0,0-3.709,3.836" transform="translate(-4528.294 -10016.167)" fill="none" stroke="#303030" stroke-linecap="round" stroke-linejoin="round" stroke-width="1.5"/>
        <path id="Trazado_907754" data-name="Trazado 907754" d="M103.958,367.746c-2.218-.1-5.355.543-10.651,1.435" transform="translate(-4526.979 -10016.452)" fill="none" stroke="#303030" stroke-linecap="round" stroke-linejoin="round" stroke-width="1.5"/>
        <path id="Trazado_907755" data-name="Trazado 907755" d="M98.049,362.086c-1.724.942-2.783,2.612-3.953,4.552" transform="translate(-4527.14 -10015.303)" fill="none" stroke="#303030" stroke-linecap="round" stroke-linejoin="round" stroke-width="1.5"/>
        <path id="Trazado_907756" data-name="Trazado 907756" d="M98.468,364.08c-2.219-.1-5.356.543-10.651,1.435" transform="translate(-4525.862 -10015.706)" fill="none" stroke="#303030" stroke-linecap="round" stroke-linejoin="round" stroke-width="1.5"/>
        <path id="Trazado_907757" data-name="Trazado 907757" d="M63.327,372.16a5.361,5.361,0,0,0,1.925,1.7,7.034,7.034,0,0,0,5.253.46c2.712-.843,4.8-3.3,7.612-3.707,2.045-.3,4.066.562,5.921,1.471,3.429,1.678,8.809,4.809,9.5,5.872s1.259,4.384,1.805,7.587" transform="translate(-4520.881 -10017.025)" fill="none" stroke="#303030" stroke-linecap="round" stroke-linejoin="round" stroke-width="1.5"/>
        <path id="Trazado_907758" data-name="Trazado 907758" d="M117.918,392.576c-2.528.681-16.494.585-16.494.585H72.881c-5.313,0-8.141-.169-9.5-2.044-.8-1.106-1.239-2.883-1.009-5.724,2.207,1.948,1.643,2.5,10.722,2.5s31.235.07,36.048,0c3.351-.049,8.56.4,10.723-1.9.793,1.058,1.9,5.543-1.952,6.582" transform="translate(-4520.675 -10020.043)" fill="#fff"/>
        <path id="Trazado_907759" data-name="Trazado 907759" d="M117.918,392.576c-2.528.681-16.494.585-16.494.585H72.881c-5.313,0-8.141-.169-9.5-2.044-.8-1.106-1.239-2.883-1.009-5.724,2.207,1.948,1.643,2.5,10.722,2.5s31.235.07,36.048,0c3.351-.049,8.56.4,10.723-1.9C120.662,387.051,121.773,391.536,117.918,392.576Z" transform="translate(-4520.675 -10020.043)" fill="none" stroke="#303030" stroke-linecap="round" stroke-linejoin="round" stroke-width="1.5"/>
        <path id="Trazado_907760" data-name="Trazado 907760" d="M79.841,181.037H33.029c-2.965,22.1-2.916,28.617-2.849,55.039.033,13.186-.451,22.709-2.226,32.588-3.038,16.911-5.123,20.8-5.253,37.232-.041,5.3-.566,28.062-.414,32.493,10.882,16.615,17.908.166,17.908.166s2.716-16.07,4.228-24.125c3.4-18.1,4.742-29.518,8.354-40.2,6.961-20.6,12.7-59.506,12.7-59.506s16.158-13.753,14.368-33.683" transform="translate(-4512.527 -9978.478)" fill="#d48983"/>
        <path id="Trazado_907761" data-name="Trazado 907761" d="M15.568,386.533c-.935,3.033-2.724,6.373-3.147,9.518s-.472,6.127,2,8.119a10.635,10.635,0,0,0,4.625,1.9,28.033,28.033,0,0,0,14.717-.674,10.955,10.955,0,0,0,4.344-2.929c1.955-2.14,1.89-5.213,2.005-8.109.1-2.62-.238-5.944-.273-8.566-.042-3.081.12-5.215.264-7.631.239-3.993,1.133-7.322-.906-7.9-.519,1.584-1.093,3.821-1.876,4.29-.828.5-1.232-2.617-2.788-4.322a10,10,0,0,0-5.653-2.917c-3.43-.4-6.037-.094-8.445,1.78-2.237,1.741-2.123,4.157-2.4,6.693-.538,4.948-1.068,6.217-2.468,10.745" transform="translate(-4510.481 -10016.335)" fill="#bac36a"/>
        <path id="Trazado_907762" data-name="Trazado 907762" d="M20.1,395.65a25.583,25.583,0,0,1,15.245.342" transform="translate(-4512.088 -10021.926)" fill="none" stroke="#303030" stroke-linecap="round" stroke-linejoin="round" stroke-width="1.5"/>
        <path id="Trazado_907763" data-name="Trazado 907763" d="M20.1,392.32c3.434-1.77,8.393-3.1,15.451-3.156" transform="translate(-4512.088 -10020.811)" fill="none" stroke="#303030" stroke-linecap="round" stroke-linejoin="round" stroke-width="1.5"/>
        <path id="Trazado_907764" data-name="Trazado 907764" d="M21.077,388.5c2.878.53,9.447,1.25,14.468,3.685" transform="translate(-4512.287 -10020.675)" fill="none" stroke="#303030" stroke-linecap="round" stroke-linejoin="round" stroke-width="1.5"/>
        <path id="Trazado_907765" data-name="Trazado 907765" d="M21.426,385.41c3.181-1.784,7.77-3.134,14.293-3.222" transform="translate(-4512.358 -10019.392)" fill="none" stroke="#303030" stroke-linecap="round" stroke-linejoin="round" stroke-width="1.5"/>
        <path id="Trazado_907766" data-name="Trazado 907766" d="M22.348,381.6c2.657.517,8.724,1.208,13.354,3.621" transform="translate(-4512.545 -10019.272)" fill="none" stroke="#303030" stroke-linecap="round" stroke-linejoin="round" stroke-width="1.5"/>
        <path id="Trazado_907767" data-name="Trazado 907767" d="M22.588,378.588c2.979-1.8,7.272-3.162,13.367-3.276" transform="translate(-4512.595 -10017.992)" fill="none" stroke="#303030" stroke-linecap="round" stroke-linejoin="round" stroke-width="1.5"/>
        <path id="Trazado_907768" data-name="Trazado 907768" d="M23.466,374.792c2.481.507,8.148,1.175,12.465,3.57" transform="translate(-4512.773 -10017.886)" fill="none" stroke="#303030" stroke-linecap="round" stroke-linejoin="round" stroke-width="1.5"/>
        <path id="Trazado_907769" data-name="Trazado 907769" d="M46.5,377.033s-1.913,2.387-2.391,3.218c-.975,1.7-.757,3.69-.711,5.645a23.075,23.075,0,0,1-.218,5.845,29.877,29.877,0,0,0-.852,3.248,11.24,11.24,0,0,0,.506,4.033c.551,2.195.723,3.146,1.275,5.34" transform="translate(-4516.6 -10018.342)" fill="none" stroke="#303030" stroke-linecap="round" stroke-linejoin="round" stroke-width="1.5"/>
        <path id="Trazado_907770" data-name="Trazado 907770" d="M16.93,387.98l-.163,4.963a17.569,17.569,0,0,1-.211,2.58A19.827,19.827,0,0,1,15.444,399c-1,2.638-1.884,5.43-1.58,8.237" transform="translate(-4510.808 -10020.569)" fill="none" stroke="#303030" stroke-linecap="round" stroke-linejoin="round" stroke-width="1.5"/>
        <path id="Trazado_907771" data-name="Trazado 907771" d="M40.152,410.576c-.128,1.592-1.788,5.85-10.518,7.12-6.936,1.009-12.737-.379-15.706-2.843-2.046-1.709-2.24-5.9-1.786-10.367l.052-.017c-.182,2.494.163,4.768,2.174,6.391A10.586,10.586,0,0,0,19,412.767a28.014,28.014,0,0,0,14.712-.673,10.925,10.925,0,0,0,4.343-2.931c1.959-2.143,1.894-5.215,2-8.108q.023-.48.019-.987a69.531,69.531,0,0,1,.079,10.508" transform="translate(-4510.429 -10023.028)" fill="#fff"/>
        <path id="Trazado_907772" data-name="Trazado 907772" d="M40.152,410.576c-.128,1.592-1.788,5.85-10.518,7.12-6.936,1.009-12.737-.379-15.706-2.843-2.046-1.709-2.24-5.9-1.786-10.367l.052-.017c-.182,2.494.163,4.768,2.174,6.391A10.586,10.586,0,0,0,19,412.767a28.014,28.014,0,0,0,14.712-.673,10.925,10.925,0,0,0,4.343-2.931c1.959-2.143,1.894-5.215,2-8.108q.023-.48.019-.987A69.531,69.531,0,0,1,40.152,410.576Z" transform="translate(-4510.429 -10023.028)" fill="none" stroke="#303030" stroke-linecap="round" stroke-linejoin="round" stroke-width="1.5"/>
        <path id="Trazado_907773" data-name="Trazado 907773" d="M31.389,175.507c-1.843,9.838-2.392,22.19-2.8,26.694-.768,8.4-.829,43.766-2.239,55.423s-2.947,16.886-4.2,24.68c-1.027,6.394-.169,30.727-.169,30.727s3.945,4.259,12.756,4.864,10.3-3.66,10.3-3.66,3.589-19.365,5.58-27.59,7.274-25.816,10.207-39.3c.114,9.5.488,12.077-1.133,17.8a77.026,77.026,0,0,0-3.074,23.9c.206,10.875.455,16.8.455,16.8s3.336,3.23,10.4,3.516a45.282,45.282,0,0,0,13.771-1.86s5.482-26.261,7.727-36.277c1.045-4.666,2.963-17.588,3.381-34.6.708-28.862.472-45.689-.58-61.121Z" transform="translate(-4512.402 -9977.354)" fill="#bac36a"/>
        <path id="Trazado_907774" data-name="Trazado 907774" d="M82.281,178.42q.327,10.442-.12,20.892c-.21,4.877-.417,7.71-1.917,12.279-.9,2.755-3.488,7.02-4.48,9.734-1.005,2.748-2.808,13.04-4.521,22.314" transform="translate(-4522.49 -9977.945)" fill="none" stroke="#303030" stroke-linecap="round" stroke-linejoin="round" stroke-width="1.5"/>
        <path id="Trazado_907775" data-name="Trazado 907775" d="M45.8,340.778l.58-2.951c1.063.244,1.63,2.074,1.2,3.335a40.352,40.352,0,0,0-1.254,4.011c-.145.589-.55,2.523-.7,3.111a4.024,4.024,0,0,1-2.2,2.679c-3.366,1.749-9.974,2.16-13.27,1.635-5.187-.828-7.636-2.05-8.874-3.511a4.416,4.416,0,0,1-.885-1.5,7.768,7.768,0,0,1,.122-3.538c.264-2.089-.547-3.56-.744-4.636a3.965,3.965,0,0,1,.213-2.4,1.862,1.862,0,0,1,1.332-1.013l.085,2.843s2.647,5.076,11.567,4.984c10.7-.109,12.816-3.044,12.816-3.044" transform="translate(-4512.006 -10009.995)" fill="#303030"/>
        <path id="Trazado_907776" data-name="Trazado 907776" d="M90.293,336.018l.6-2.861c1.063.244,1.611,2,1.185,3.261a40.357,40.357,0,0,0-1.254,4.011c-.145.589-.55,2.523-.7,3.111a4.02,4.02,0,0,1-2.2,2.679c-3.366,1.749-11.152,1.461-14.448.935-5.187-.828-7.439-2.756-8.677-4.217a4.435,4.435,0,0,1-.884-1.5,7.759,7.759,0,0,1,.122-3.538,14.7,14.7,0,0,0-.584-5.035,3.971,3.971,0,0,1,.213-2.4,3.489,3.489,0,0,1,1.628-1.4l.088,3.129s1.255,3.338,10.058,4.784c5.388.885,14.845-.952,14.845-.952" transform="translate(-4520.889 -10008.585)" fill="#303030"/>
        <path id="Trazado_907777" data-name="Trazado 907777" d="M35.548,350.6c-3.009.666-11.608-1.282-14.774-6.588" transform="translate(-4512.226 -10011.626)" fill="none" stroke="#00826f" stroke-linecap="round" stroke-linejoin="round" stroke-width="1.5"/>
        <path id="Trazado_907778" data-name="Trazado 907778" d="M93.613,341.907c-3.347,3.437-12.12,4.239-17.852,3.36" transform="translate(-4523.41 -10011.197)" fill="none" stroke="#00826f" stroke-linecap="round" stroke-linejoin="round" stroke-width="1.5"/>
        <path id="Trazado_907779" data-name="Trazado 907779" d="M174.937,67.076c-1.263.552-2.086,1.894-3.217,3.268-1.385,1.682-3.629,4.742-5.34,6.7-.937,1.073-1.247,1.58-1.529,1.487-.6-.2-.254-1.776-.072-2.426a8.661,8.661,0,0,0,.546-3.044c-.064-.748-.779-1.717-1.637-1.482a1.221,1.221,0,0,0-.527.347,11.508,11.508,0,0,0-1.6,3.064q-.814,1.715-1.492,3.489A50.507,50.507,0,0,1,158,83.423c-.856,1.694-2.283,3.717-3.5,4.395-6.23,3.476-16.829,7.81-16.829,7.81s-24.9-7.8-33.369-7.916l.881,22.065s26.649,4.377,30.5,4.817,5.908-.406,10.494-3.733c5.882-4.266,14.348-11.924,16.176-13.283,2.975-2.213,6.486-3.962,9.79-5.959,1.4-.843,2.716-1.812,4.051-2.746,1.133-.792,2.663-1.753,2.5-3.346a2.038,2.038,0,0,0-.209-.7,2.085,2.085,0,0,0-1.914-1.191,2.053,2.053,0,0,0-1.758-3.694,2.547,2.547,0,0,0,.415-3.463c-1.013-1.439-2.929-.21-2.977-.274,0,0,2.367-3.544,2.857-4.256a10.69,10.69,0,0,0,1.8-3.126,1.441,1.441,0,0,0-1.968-1.744" transform="translate(-4529.215 -9955.271)" fill="#d48983"/>
        <path id="Trazado_907780" data-name="Trazado 907780" d="M190.166,82.688a23.2,23.2,0,0,1-3.411,1.93c-1.216.558-2.242.907-2.84.156a2.045,2.045,0,0,1,.257-2.6,26.045,26.045,0,0,1,4.2-3.6" transform="translate(-4545.334 -9957.635)" fill="none" stroke="#303030" stroke-linecap="round" stroke-linejoin="round" stroke-width="1.5"/>
        <path id="Trazado_907781" data-name="Trazado 907781" d="M192.354,87.88a23.2,23.2,0,0,1-3.411,1.93c-1.216.558-2.242.907-2.84.156a2.045,2.045,0,0,1,.257-2.6,26.044,26.044,0,0,1,4.2-3.6" transform="translate(-4545.779 -9958.69)" fill="none" stroke="#303030" stroke-linecap="round" stroke-linejoin="round" stroke-width="1.5"/>
        <path id="Trazado_907782" data-name="Trazado 907782" d="M191.2,94.986c-1.216.558-2.242.907-2.839.156a2.044,2.044,0,0,1,.256-2.6,26.046,26.046,0,0,1,4.2-3.6" transform="translate(-4546.239 -9959.742)" fill="none" stroke="#303030" stroke-linecap="round" stroke-linejoin="round" stroke-width="1.5"/>
        <path id="Trazado_907783" data-name="Trazado 907783" d="M182.672,85.721c.235,3.456-2.012,5.76-3.9,7.422" transform="translate(-4544.362 -9959.091)" fill="none" stroke="#303030" stroke-linecap="round" stroke-linejoin="round" stroke-width="1.5"/>
        <path id="Trazado_907784" data-name="Trazado 907784" d="M154.646,97.788l7.8-3.549A12.792,12.792,0,0,0,165,101.2a16.233,16.233,0,0,0,4.9,4.866l-6.5,5.217s-8.99-4.453-8.751-13.491" transform="translate(-4539.454 -9960.823)" fill="#fff"/>
        <path id="Trazado_907785" data-name="Trazado 907785" d="M154.646,97.788l7.8-3.549A12.792,12.792,0,0,0,165,101.2a16.233,16.233,0,0,0,4.9,4.866l-6.5,5.217S154.406,106.826,154.646,97.788Z" transform="translate(-4539.454 -9960.823)" fill="none" stroke="#303030" stroke-linecap="round" stroke-linejoin="round" stroke-width="1.5"/>
        <path id="Trazado_907786" data-name="Trazado 907786" d="M101.557,91.044a67.239,67.239,0,0,1,16.918,3.328c8.141,2.414,17.667,5.383,17.667,5.383,7.759-4.083,9.266-5.439,10.229-4.371a17.884,17.884,0,0,0,2.587,7.536,25.117,25.117,0,0,0,5.618,6.882c.932,1.28-6.809,5.752-11.2,8.536-3.326,2.108-5.714,2.235-10.38,1.753-3.754-.388-29.736-4.84-29.736-4.84s-2.416-15.073-1.706-24.206" transform="translate(-4528.63 -9960.174)" fill="#f6c3ff"/>
        <path id="Trazado_907787" data-name="Trazado 907787" d="M144.06,101.978a15.26,15.26,0,0,0-3.7,5.687" transform="translate(-4536.549 -9962.396)" fill="none" stroke="#303030" stroke-linecap="round" stroke-linejoin="round" stroke-width="1.5"/>
        <path id="Trazado_907788" data-name="Trazado 907788" d="M157.847,96.491a17.879,17.879,0,0,0,2.588,7.536,25.107,25.107,0,0,0,5.618,6.882" transform="translate(-4540.106 -9961.281)" fill="none" stroke="#303030" stroke-linecap="round" stroke-linejoin="round" stroke-width="1.5"/>
        <path id="Trazado_907789" data-name="Trazado 907789" d="M48.331,48.736c.406,8.043,7.765,16.473,16.186,16.048S79.235,55.241,78.828,47.2,71.266,32.978,62.845,33.4s-14.92,7.29-14.513,15.334" transform="translate(-4517.827 -9948.444)" fill="#303030"/>
        <path id="Trazado_907790" data-name="Trazado 907790" d="M68.882,33.814c2.846-.567,5.775-1.137,8.63-.61a11.477,11.477,0,0,1,9.381,10.737,18.477,18.477,0,0,0-3.644-4.89,7.065,7.065,0,0,1,1.762,4.428,5.354,5.354,0,0,1-1.956,4.265,19.085,19.085,0,0,0-3.393-5.806A8.261,8.261,0,0,0,76.947,39.8a4.449,4.449,0,0,0-3.382-.2,1.494,1.494,0,0,1-.734.174,1.165,1.165,0,0,1-.534-.286,10.312,10.312,0,0,1-3.151-4.347" transform="translate(-4522.01 -9948.365)" fill="#303030"/>
        <path id="Trazado_907791" data-name="Trazado 907791" d="M46.476,58.459a4.039,4.039,0,0,1,4.023-3.34,6.542,6.542,0,0,1,4.82,2.149c.92.968,2.705-.2.778-3.305,1-2.43,1.952-8.674.648-10.817,9.5.945,16.1-.163,18.62-.96a15.794,15.794,0,0,1,3.562,7.655,40.2,40.2,0,0,1,.228,5.943c.014,1.866.057,5.129.31,7.16.47,3.764.692,6.206-.962,8.118s-5.477,2.335-6.466,2.412l.019.014.92,5.56,3.9,1.175s-3.8,7.443-11.976,7.653a19.259,19.259,0,0,1-14.17-5.225l5.71-2.775.733-9.859a6.644,6.644,0,0,1-2.2-4.46c-.156-1.741-.339-3.769-.339-3.769a5.979,5.979,0,0,1-5.269.651c-1.676-.566-3.129-2.287-2.886-3.981" transform="translate(-4517.448 -9950.235)" fill="#d48983"/>
        <path id="Trazado_907792" data-name="Trazado 907792" d="M78.146,55.958A2.407,2.407,0,0,1,80.3,54.295c1.024-.153,2.517-.009,2.887,1.412-.282,1.475-3.518,2.136-5.045.251" transform="translate(-4523.895 -9952.688)" fill="#fff"/>
        <path id="Trazado_907793" data-name="Trazado 907793" d="M83.129,56.327a1.31,1.31,0,0,1-1.713.678,1.287,1.287,0,0,1-.75-1.669,1.308,1.308,0,0,1,1.713-.678,1.288,1.288,0,0,1,.75,1.669" transform="translate(-4524.389 -9952.751)" fill="#303030"/>
        <path id="Trazado_907794" data-name="Trazado 907794" d="M80.537,55.5l1.326.525-1.458.194Z" transform="translate(-4524.354 -9952.942)" fill="#fff"/>
        <path id="Trazado_907795" data-name="Trazado 907795" d="M83.339,55.453a2.907,2.907,0,0,0-2.933-1.028,2.96,2.96,0,0,0-2.259,1.559" transform="translate(-4523.895 -9952.715)" fill="none" stroke="#303030" stroke-linecap="round" stroke-linejoin="round" stroke-width="1.5"/>
        <path id="Trazado_907796" data-name="Trazado 907796" d="M78.617,48.307a6.693,6.693,0,0,1,5.364,1.22" transform="translate(-4523.99 -9951.461)" fill="none" stroke="#303030" stroke-linecap="round" stroke-linejoin="round" stroke-width="1.5"/>
        <path id="Trazado_907797" data-name="Trazado 907797" d="M65.116,56.695a2.407,2.407,0,0,1,2.148-1.676c1.023-.159,2.516-.024,2.895,1.395-.273,1.477-3.505,2.156-5.043.281" transform="translate(-4521.245 -9952.834)" fill="#fff"/>
        <path id="Trazado_907798" data-name="Trazado 907798" d="M70.1,57.036a1.309,1.309,0,0,1-1.709.688,1.289,1.289,0,0,1-.761-1.665,1.311,1.311,0,0,1,1.71-.688,1.289,1.289,0,0,1,.76,1.665" transform="translate(-4521.738 -9952.896)" fill="#303030"/>
        <path id="Trazado_907799" data-name="Trazado 907799" d="M67.5,56.224l1.329.517-1.456.2Z" transform="translate(-4521.704 -9953.091)" fill="#fff"/>
        <path id="Trazado_907800" data-name="Trazado 907800" d="M70.305,56.159a2.907,2.907,0,0,0-2.939-1.01,2.961,2.961,0,0,0-2.25,1.572" transform="translate(-4521.245 -9952.861)" fill="none" stroke="#303030" stroke-linecap="round" stroke-linejoin="round" stroke-width="1.5"/>
        <path id="Trazado_907801" data-name="Trazado 907801" d="M61.917,52.69a6.645,6.645,0,0,1,5.239-3.162" transform="translate(-4520.594 -9951.729)" fill="none" stroke="#303030" stroke-linecap="round" stroke-linejoin="round" stroke-width="1.5"/>
        <path id="Trazado_907802" data-name="Trazado 907802" d="M75.516,52.909a12.513,12.513,0,0,0,3.453,5.616c1.251,1.275,1.1,3.8-2.172,3.8" transform="translate(-4523.36 -9952.417)" fill="none" stroke="#303030" stroke-linecap="round" stroke-linejoin="round" stroke-width="1.5"/>
        <path id="Trazado_907803" data-name="Trazado 907803" d="M71.3,68.043a6.337,6.337,0,0,0,5.826.938" transform="translate(-4522.503 -9955.495)" fill="none" stroke="#303030" stroke-linecap="round" stroke-linejoin="round" stroke-width="1.5"/>
        <path id="Trazado_907804" data-name="Trazado 907804" d="M49.176,62.086a3.39,3.39,0,0,1,2.485-.5,3.233,3.233,0,0,1,2.439,1.87" transform="translate(-4518.002 -9954.172)" fill="none" stroke="#303030" stroke-linecap="round" stroke-linejoin="round" stroke-width="1.5"/>
        <path id="Trazado_907805" data-name="Trazado 907805" d="M51.569,63.267a2.5,2.5,0,0,1,2.457-.443" transform="translate(-4518.489 -9954.401)" fill="none" stroke="#303030" stroke-linecap="round" stroke-linejoin="round" stroke-width="1.5"/>
        <path id="Trazado_907806" data-name="Trazado 907806" d="M75.888,80.937c-3.766.007-8.033-.694-10.607-2.127.738,1.58,3.914,4.024,11.042,4.759Z" transform="translate(-4521.278 -9957.686)" fill="#303030"/>
        <path id="Trazado_907807" data-name="Trazado 907807" d="M71.419,41.731a8.607,8.607,0,0,1,7.574,6.852c.1.5.871.29.768-.211a9.41,9.41,0,0,0-8.342-7.437c-.51-.048-.507.749,0,.8" transform="translate(-4522.449 -9949.979)" fill="#303030"/>
        <path id="Trazado_907808" data-name="Trazado 907808" d="M79.665,42.937a17.669,17.669,0,0,1,3.235,5.93,3.7,3.7,0,0,0,.629-1.728A9.621,9.621,0,0,0,82.5,41.227a7.706,7.706,0,0,0-2.989-3.146,5.55,5.55,0,0,0-4.251-.52,2.058,2.058,0,0,0-1.336,1c-.546,1.213,1.312,1.817,2.145,2.07a8.108,8.108,0,0,1,3.591,2.309" transform="translate(-4523.017 -9949.25)" fill="#303030"/>
        <path id="Trazado_907809" data-name="Trazado 907809" d="M91.227,162.106c3.578-4.742-.481-26.788.1-48.282C91.759,98,84.914,92.777,84.914,92.777l-13.5-4.088c.339,6.823-17.436,5.521-20.166,1.638L34.525,97.169c-2.951,1.682-4.032,5.18-3.367,16.688.59,10.212,2.164,19.848,1.785,30.011-.217,5.811-2.677,16.192.814,18.942,11.492,6.911,42.636,13.364,57.47-.7" transform="translate(-4514.299 -9959.694)" fill="#fff"/>
        <path id="Trazado_907810" data-name="Trazado 907810" d="M91.227,162.106c3.578-4.742-.481-26.788.1-48.282C91.759,98,84.914,92.777,84.914,92.777l-13.5-4.088c.339,6.823-17.436,5.521-20.166,1.638L34.525,97.169c-2.951,1.682-4.032,5.18-3.367,16.688.59,10.212,2.164,19.848,1.785,30.011-.217,5.811-2.677,16.192.814,18.942C45.249,169.721,76.393,176.173,91.227,162.106Z" transform="translate(-4514.299 -9959.694)" fill="none" stroke="#303030" stroke-linecap="round" stroke-linejoin="round" stroke-width="1.5"/>
        <path id="Trazado_907811" data-name="Trazado 907811" d="M53.066,85.577A11.717,11.717,0,0,0,48.924,87.1c-1.4,1.061-4,3.391-4,3.391L34.316,94.053s-6.288,9.593-5.531,15.975,2.123,18.52,2.278,22.412a165.253,165.253,0,0,1-.612,20.515c-.786,7.448-1.729,21.429-1.729,21.429s8.143,4.333,29.425,3.483c-.864-21.632-1.66-44.671-2.34-58.541S52.644,90.47,52.644,90.47Z" transform="translate(-4513.842 -9959.062)" fill="#f6c3ff"/>
        <path id="Trazado_907812" data-name="Trazado 907812" d="M47.276,93.971a28.1,28.1,0,0,0-1.134,12.208c.064.421.568.494.878.357,2-.887,4.809-1.827,6.817-.437a5.449,5.449,0,0,1,1.952,4.029c.075.758,1.271.766,1.195,0a7.538,7.538,0,0,0-1.578-4.2,5.325,5.325,0,0,0-4.6-1.682,13.731,13.731,0,0,0-4.389,1.26l.877.357a26.767,26.767,0,0,1,1.134-11.572.6.6,0,0,0-1.152-.318" transform="translate(-4517.334 -9960.683)" fill="#303030"/>
        <path id="Trazado_907813" data-name="Trazado 907813" d="M79.142,84.784l.484,2.928a46.676,46.676,0,0,1,5.793,5.452c2.013,2.46,5.833,5.612,6.37,19.051s2.5,62.536,2.5,62.536,9.911-3.3,11.356-8.194c-.33-8.259-1.053-26.37-1.437-35.978s-.632-14.265-1.034-22.235c-.336-6.666-1.471-12.817-6.147-18.574l-7.9-.635c-3.79-2.586-5.937-4.124-9.985-4.352" transform="translate(-4524.097 -9958.899)" fill="#f6c3ff"/>
        <path id="Trazado_907814" data-name="Trazado 907814" d="M111.571,170.779c-.33-8.259-1.053-26.37-1.437-35.978s-.632-14.265-1.034-22.236a47.684,47.684,0,0,0-.805-7.026" transform="translate(-4530.027 -9963.121)" fill="none" stroke="#303030" stroke-linecap="round" stroke-linejoin="round" stroke-width="1.5"/>
        <path id="Trazado_907815" data-name="Trazado 907815" d="M93.931,92c3.343,2.713,6.691,6.08,7.589,7.839-2.66-.929-6.255,2.39-6.06,7.283" transform="translate(-4527.105 -9960.367)" fill="none" stroke="#303030" stroke-linecap="round" stroke-linejoin="round" stroke-width="1.5"/>
        <path id="Trazado_907816" data-name="Trazado 907816" d="M61.856,153.37a3.325,3.325,0,0,0-1.955-1.306,18.1,18.1,0,0,0-4.6-.672c-.781-.029-1.561-.017-2.343-.027-.527-.006-1.195-.183-.779-.819a11.7,11.7,0,0,1,3.144-2.931,6.374,6.374,0,0,0,2.4-2.336c.533-1.2-.34-1.928-1.356-1.664-3.406.883-6.553,3.455-9.319,5.629-3.007,2.362-6.374,5-10.451,4.135-6.749-1.431-14.861-10.059-14.859-10.068.245-1.74,5.849-14.614,6.633-16.491,0,0,2.95-17.691-2.2-27.152-12.1,3.508-15.307,17.6-16.6,21.954s-5.011,15.991-5.872,19.464c-1.64,6.627-1.154,10.592,5.477,14.715,5.1,3.172,17.606,8.8,24.609,10.079a18.383,18.383,0,0,0,7.165-.019c2.987-.648,5.314-2.9,8.3-3.494,1.15-.229,2.044-.466,3.209-.6,2.261-.266,3.759-.071,4.761-1.056a1.479,1.479,0,0,0-.13-2.3,2.767,2.767,0,0,0,2.686-.625,1.343,1.343,0,0,0-.317-2.306,2.612,2.612,0,0,0,1.7-.151,1.357,1.357,0,0,0,.684-1.96" transform="translate(-4508.593 -9961.927)" fill="#d48983"/>
        <path id="Trazado_907817" data-name="Trazado 907817" d="M63.147,168.9a13.02,13.02,0,0,1,8.575.567" transform="translate(-4520.844 -9975.916)" fill="none" stroke="#303030" stroke-linecap="round" stroke-linejoin="round" stroke-width="1.5"/>
        <path id="Trazado_907818" data-name="Trazado 907818" d="M62.444,173.214c3.061-.806,4.9-.8,6.766.034" transform="translate(-4520.701 -9976.764)" fill="none" stroke="#303030" stroke-linecap="round" stroke-linejoin="round" stroke-width="1.5"/>
        <path id="Trazado_907819" data-name="Trazado 907819" d="M20,153.6a6.651,6.651,0,0,1,5.219.625" transform="translate(-4512.068 -9972.841)" fill="none" stroke="#303030" stroke-linecap="round" stroke-linejoin="round" stroke-width="1.5"/>
        <path id="Trazado_907820" data-name="Trazado 907820" d="M25.271,174.232l5.395,2.117a15.447,15.447,0,0,1,2.195-7.737c2.262-3.459,4.507-4.243,4.507-4.243l-5.623-3.784s-7.487,4.631-6.473,13.647" transform="translate(-4513.121 -9974.317)" fill="#fff"/>
        <path id="Trazado_907821" data-name="Trazado 907821" d="M25.271,174.232l5.395,2.117a15.447,15.447,0,0,1,2.195-7.737c2.262-3.459,4.507-4.243,4.507-4.243l-5.623-3.784S24.257,165.216,25.271,174.232Z" transform="translate(-4513.121 -9974.317)" fill="none" stroke="#303030" stroke-linecap="round" stroke-linejoin="round" stroke-width="1.5"/>
        <path id="Trazado_907822" data-name="Trazado 907822" d="M28.474,96.217c-13.44,4.594-13.806,6.155-18.4,17.454S1.045,138.9.288,142.513c-1.3,6.19,1.985,9.93,5.58,12.45a112.462,112.462,0,0,0,11.793,7.163,3.178,3.178,0,0,0,3.457-.607A14.87,14.87,0,0,1,23,153.536a12.36,12.36,0,0,1,5.384-5.3s.4-1.207-1.77-2.982-3.833-3.216-3.833-3.216l6.573-15.194s6.985-18.432-.877-30.63" transform="translate(-4508 -9961.225)" fill="#f6c3ff"/>
        <path id="Trazado_907823" data-name="Trazado 907823" d="M28.594,144.777l6.573-15.194s3.381-9.848,2.383-19.917" transform="translate(-4513.816 -9963.961)" fill="none" stroke="#303030" stroke-linecap="round" stroke-linejoin="round" stroke-width="1.5"/>
        <path id="Trazado_907824" data-name="Trazado 907824" d="M26.5,174.8a14.863,14.863,0,0,1,1.878-7.984,12.361,12.361,0,0,1,5.383-5.3" transform="translate(-4513.386 -9974.508)" fill="none" stroke="#303030" stroke-linecap="round" stroke-linejoin="round" stroke-width="1.5"/>
        <path id="Trazado_907825" data-name="Trazado 907825" d="M12.821,150.372a14.84,14.84,0,0,1,12.566,2.592" transform="translate(-4510.608 -9972.148)" fill="none" stroke="#303030" stroke-linecap="round" stroke-linejoin="round" stroke-width="1.5"/>
      </g>
    </g>
    <rect id="Rectángulo_410222" data-name="Rectángulo 410222" width="189.993" height="264.699" transform="translate(1020 1764)" fill="none"/>
  </g>
</svg>
