<svg id="img-02" xmlns="http://www.w3.org/2000/svg" xmlns:xlink="http://www.w3.org/1999/xlink" width="190.277" height="332.031" viewBox="0 0 190.277 332.031">
  <defs>
    <clipPath id="clip-path">
      <rect id="Rectángulo_410231" data-name="Rectángulo 410231" width="189.994" height="264.699" transform="translate(0.002 0.281)" fill="none"/>
    </clipPath>
    <clipPath id="clip-path-2">
      <rect id="Rectángulo_410249" data-name="Rectángulo 410249" width="190.277" height="332.031" fill="none"/>
    </clipPath>
  </defs>
  <g id="Grupo_1120624" data-name="Grupo 1120624">
    <g id="Grupo_1120623" data-name="Grupo 1120623" clip-path="url(#clip-path)">
      <path id="Trazado_907917" data-name="Trazado 907917" d="M180.736,76.763H97.18a6.516,6.516,0,0,1-6.516-6.516V8.447h96.588v61.8a6.516,6.516,0,0,1-6.516,6.516" fill="#fff"/>
      <path id="Trazado_907918" data-name="Trazado 907918" d="M180.736,76.763H97.18a6.516,6.516,0,0,1-6.516-6.516V8.447h96.588v61.8A6.516,6.516,0,0,1,180.736,76.763Z" fill="none" stroke="#2e4a82" stroke-linecap="round" stroke-linejoin="round" stroke-width="1.5"/>
      <rect id="Rectángulo_410230" data-name="Rectángulo 410230" width="4.392" height="4.392" transform="translate(115.818 33.427)" fill="#bac36a"/>
      <line id="Línea_3548" data-name="Línea 3548" x1="10.243" transform="translate(102.074 34.428)" fill="none" stroke="#2e4a82" stroke-linecap="round" stroke-linejoin="round" stroke-width="1.5"/>
      <line id="Línea_3549" data-name="Línea 3549" x1="15.443" transform="translate(96.875 36.992)" fill="none" stroke="#2e4a82" stroke-linecap="round" stroke-linejoin="round" stroke-width="1.5"/>
      <path id="Trazado_907919" data-name="Trazado 907919" d="M187.252,8.444H90.664V4.95a4.2,4.2,0,0,1,4.2-4.2h88.193a4.2,4.2,0,0,1,4.2,4.2Z" fill="#fff"/>
      <path id="Trazado_907920" data-name="Trazado 907920" d="M187.252,8.444H90.664V4.95a4.2,4.2,0,0,1,4.2-4.2h88.193a4.2,4.2,0,0,1,4.2,4.2Z" fill="none" stroke="#2e4a82" stroke-linecap="round" stroke-linejoin="round" stroke-width="1.5"/>
      <path id="Trazado_907921" data-name="Trazado 907921" d="M182.988,4.6a1.639,1.639,0,1,1-1.639-1.639A1.639,1.639,0,0,1,182.988,4.6Z" fill="#bac36a"/>
      <path id="Trazado_907922" data-name="Trazado 907922" d="M176.74,4.6A1.639,1.639,0,1,1,175.1,2.958,1.639,1.639,0,0,1,176.74,4.6Z" fill="#3f7ad8"/>
      <path id="Trazado_907923" data-name="Trazado 907923" d="M170.493,4.6a1.639,1.639,0,1,1-1.639-1.639A1.639,1.639,0,0,1,170.493,4.6Z" fill="#303030"/>
      <path id="Trazado_907924" data-name="Trazado 907924" d="M149.287,44.1,135.922,58.492l-1.5,1.609a24.794,24.794,0,0,1-5.258-24.49l2.026.85Z" fill="#fff"/>
      <path id="Trazado_907925" data-name="Trazado 907925" d="M149.287,44.1,135.922,58.492l-1.5,1.609a24.794,24.794,0,0,1-5.258-24.49l2.026.85Z" fill="none" stroke="#2e4a82" stroke-linecap="round" stroke-linejoin="round" stroke-width="1.5"/>
      <path id="Trazado_907926" data-name="Trazado 907926" d="M166.706,64.282a24.673,24.673,0,0,1-29.067-1.194l1.494-1.613,15.3-16.508L173.273,32.7l1.838-1.2A25.054,25.054,0,0,1,166.7,64.283" fill="#3f7ad8"/>
      <path id="Trazado_907927" data-name="Trazado 907927" d="M172.72,27.825l-1.832,1.2L153.9,40.117,144.955,21.9l-.969-1.976a24.828,24.828,0,0,1,28.735,7.9" fill="#303030"/>
      <path id="Trazado_907928" data-name="Trazado 907928" d="M146.446,36.734l-15.587-6.572-2.026-.857a23.261,23.261,0,0,1,9.2-9.735L139,21.539Z" fill="#bac36a"/>
    </g>
  </g>
  <g id="Grupo_1120626" data-name="Grupo 1120626">
    <g id="Grupo_1120625" data-name="Grupo 1120625" clip-path="url(#clip-path-2)">
      <path id="Trazado_907929" data-name="Trazado 907929" d="M70.341,187.872H181.9a7.63,7.63,0,0,0,7.63-7.629V112.267H62.713v67.976a7.629,7.629,0,0,0,7.629,7.629" fill="#fff"/>
      <path id="Trazado_907930" data-name="Trazado 907930" d="M70.341,187.872H181.9a7.63,7.63,0,0,0,7.63-7.629V112.267H62.713v67.976A7.629,7.629,0,0,0,70.341,187.872Z" fill="none" stroke="#62ba45" stroke-linecap="round" stroke-linejoin="round" stroke-width="1.5"/>
      <path id="Trazado_907931" data-name="Trazado 907931" d="M189.526,112.267H62.713v-3.494a4.2,4.2,0,0,1,4.2-4.2H185.327a4.2,4.2,0,0,1,4.2,4.2Z" fill="#fff"/>
      <path id="Trazado_907932" data-name="Trazado 907932" d="M189.526,112.267H62.713v-3.494a4.2,4.2,0,0,1,4.2-4.2H185.327a4.2,4.2,0,0,1,4.2,4.2Z" fill="none" stroke="#62ba45" stroke-linecap="round" stroke-linejoin="round" stroke-width="1.5"/>
      <path id="Trazado_907933" data-name="Trazado 907933" d="M185.262,108.42a1.639,1.639,0,1,1-1.639-1.639,1.639,1.639,0,0,1,1.639,1.639Z" fill="#bac36a"/>
      <path id="Trazado_907934" data-name="Trazado 907934" d="M179.015,108.42a1.639,1.639,0,1,1-1.639-1.639,1.639,1.639,0,0,1,1.639,1.639Z" fill="#3f7ad8"/>
      <path id="Trazado_907935" data-name="Trazado 907935" d="M172.768,108.42a1.639,1.639,0,1,1-1.639-1.639,1.639,1.639,0,0,1,1.639,1.639Z" fill="#303030"/>
      <line id="Línea_3550" data-name="Línea 3550" x2="100.531" transform="translate(72.327 173.674)" fill="none" stroke="#62ba45" stroke-linecap="round" stroke-linejoin="round" stroke-width="1.5"/>
      <line id="Línea_3551" data-name="Línea 3551" x2="96.79" transform="translate(74.197 168.098)" fill="none" stroke="#62ba45" stroke-linecap="round" stroke-linejoin="round" stroke-width="0.5"/>
      <line id="Línea_3552" data-name="Línea 3552" x2="96.79" transform="translate(74.197 162.522)" fill="none" stroke="#62ba45" stroke-linecap="round" stroke-linejoin="round" stroke-width="0.5"/>
      <line id="Línea_3553" data-name="Línea 3553" x2="96.79" transform="translate(74.197 156.946)" fill="none" stroke="#62ba45" stroke-linecap="round" stroke-linejoin="round" stroke-width="0.5"/>
      <line id="Línea_3554" data-name="Línea 3554" x2="96.79" transform="translate(74.197 151.369)" fill="none" stroke="#62ba45" stroke-linecap="round" stroke-linejoin="round" stroke-width="0.5"/>
      <line id="Línea_3555" data-name="Línea 3555" x2="96.79" transform="translate(74.197 145.793)" fill="none" stroke="#62ba45" stroke-linecap="round" stroke-linejoin="round" stroke-width="0.5"/>
      <line id="Línea_3556" data-name="Línea 3556" x2="96.79" transform="translate(74.197 140.217)" fill="none" stroke="#62ba45" stroke-linecap="round" stroke-linejoin="round" stroke-width="0.5"/>
      <line id="Línea_3557" data-name="Línea 3557" x2="96.79" transform="translate(74.197 134.64)" fill="none" stroke="#62ba45" stroke-linecap="round" stroke-linejoin="round" stroke-width="0.5"/>
      <line id="Línea_3558" data-name="Línea 3558" x2="96.79" transform="translate(74.197 129.064)" fill="none" stroke="#62ba45" stroke-linecap="round" stroke-linejoin="round" stroke-width="0.5"/>
      <line id="Línea_3559" data-name="Línea 3559" x2="96.79" transform="translate(74.197 123.488)" fill="none" stroke="#62ba45" stroke-linecap="round" stroke-linejoin="round" stroke-width="0.5"/>
      <rect id="Rectángulo_410232" data-name="Rectángulo 410232" width="9.673" height="13.804" transform="translate(79.643 159.616)" fill="#3f7ad8"/>
      <rect id="Rectángulo_410233" data-name="Rectángulo 410233" width="9.673" height="19.4" transform="translate(79.643 140.217)" fill="#bac36a"/>
      <rect id="Rectángulo_410234" data-name="Rectángulo 410234" width="9.673" height="7.675" transform="translate(94.889 165.745)" fill="#3f7ad8"/>
      <rect id="Rectángulo_410235" data-name="Rectángulo 410235" width="9.673" height="17.164" transform="translate(94.889 148.581)" fill="#bac36a"/>
      <rect id="Rectángulo_410236" data-name="Rectángulo 410236" width="9.673" height="19.568" transform="translate(110.134 153.851)" fill="#3f7ad8"/>
      <rect id="Rectángulo_410237" data-name="Rectángulo 410237" width="9.673" height="24.788" transform="translate(110.134 129.064)" fill="#bac36a"/>
      <rect id="Rectángulo_410238" data-name="Rectángulo 410238" width="9.673" height="3.132" transform="translate(125.379 170.288)" fill="#3f7ad8"/>
      <rect id="Rectángulo_410239" data-name="Rectángulo 410239" width="9.673" height="5.364" transform="translate(125.379 164.923)" fill="#bac36a"/>
      <rect id="Rectángulo_410240" data-name="Rectángulo 410240" width="9.673" height="13.804" transform="translate(140.624 159.616)" fill="#3f7ad8"/>
      <rect id="Rectángulo_410241" data-name="Rectángulo 410241" width="9.673" height="5.764" transform="translate(140.624 153.851)" fill="#bac36a"/>
      <rect id="Rectángulo_410242" data-name="Rectángulo 410242" width="9.673" height="8.497" transform="translate(155.87 164.923)" fill="#3f7ad8"/>
      <rect id="Rectángulo_410243" data-name="Rectángulo 410243" width="9.673" height="19.13" transform="translate(155.87 145.793)" fill="#bac36a"/>
      <rect id="Rectángulo_410244" data-name="Rectángulo 410244" width="9.678" height="1.333" rx="0.6" transform="translate(79.641 177.644)" fill="#607c51"/>
      <rect id="Rectángulo_410245" data-name="Rectángulo 410245" width="9.678" height="1.333" rx="0.6" transform="translate(94.886 177.644)" fill="#607c51"/>
      <rect id="Rectángulo_410246" data-name="Rectángulo 410246" width="9.678" height="1.333" rx="0.6" transform="translate(110.131 177.644)" fill="#607c51"/>
      <rect id="Rectángulo_410247" data-name="Rectángulo 410247" width="9.678" height="1.333" rx="0.6" transform="translate(125.376 177.644)" fill="#607c51"/>
      <rect id="Rectángulo_410248" data-name="Rectángulo 410248" width="9.677" height="1.333" rx="0.6" transform="translate(140.622 177.644)" fill="#607c51"/>
      <path id="Trazado_907936" data-name="Trazado 907936" d="M164.945,178.977h-8.478a.6.6,0,0,1-.6-.6v-.133a.6.6,0,0,1,.6-.6h8.478a.6.6,0,0,1,.6.6v.133a.6.6,0,0,1-.6.6" fill="#607c51"/>
      <path id="Trazado_907937" data-name="Trazado 907937" d="M180,131.824a1.121,1.121,0,1,0-1.121-1.121A1.121,1.121,0,0,0,180,131.824m3.376,5.6-1.163-4.225a.907.907,0,0,0-.875-.667h-2.677a.907.907,0,0,0-.875.667l-1.162,4.225a.464.464,0,1,0,.884.282c0-.012.007-.024.01-.036l.872-3.171v10.293a.661.661,0,0,0,1.322,0v-5.688a.288.288,0,0,1,.576,0v5.683a.661.661,0,0,0,1.322,0v-10.3l.872,3.171a.464.464,0,0,0,.894-.246" fill="#bac36a"/>
      <path id="Trazado_907938" data-name="Trazado 907938" d="M180,152.76a1.121,1.121,0,1,0-1.121-1.121h0A1.121,1.121,0,0,0,180,152.76m3.376,5.6-1.163-4.226a.907.907,0,0,0-.875-.667h-2.677a.907.907,0,0,0-.875.667l-1.162,4.225a.464.464,0,1,0,.884.282c0-.012.007-.024.01-.036l.872-3.171v10.292a.661.661,0,0,0,1.322,0v-5.683a.288.288,0,0,1,.576,0v5.687a.661.661,0,0,0,1.322,0V155.432l.872,3.171a.464.464,0,0,0,.9-.21c0-.012-.006-.024-.01-.036" fill="#3f7ad8"/>
      <path id="Trazado_907939" data-name="Trazado 907939" d="M76.179,285.041c-1.563-3.774-2.487-5.276-1.848-8.857,2.056-11.526,6.956-37.085,9.09-52.976a429.079,429.079,0,0,0,2.723-84.3H41.814c-3.174,22.421-13.719,27.355,14.609,35.053,0,0,1.173,34.063,1.332,42.659S52.582,228.7,53.1,251.1c.186,8.086.445,31.847.445,31.847-4.4,14.359,26.763,12.065,22.634,2.093" fill="#d48983"/>
      <path id="Trazado_907940" data-name="Trazado 907940" d="M107.2,302.232c-.225-4.346-2.015-6.232-8.389-7.913a33.128,33.128,0,0,1-9.455-3.824,85.122,85.122,0,0,1-8.276-5.85" fill="none" stroke="#303030" stroke-linecap="round" stroke-linejoin="round" stroke-width="1.5"/>
      <path id="Trazado_907941" data-name="Trazado 907941" d="M98.809,294.32a33.129,33.129,0,0,1-9.455-3.824,126.993,126.993,0,0,1-12.368-9.112c-2.052-1.713-7.156-1.441-9.629,2.137a4.512,4.512,0,0,0-2.656-.526,5.352,5.352,0,0,0-2.262,1.272c-1.269,1.017-3.129,3.235-6.088,3.13-2.935-.1-2.806-4.449-2.806-4.449l-.033-2.748c-1.5-.158-2.036,1.314-2.158,2.441-.288,2.685-.568,3.537-1.238,7.173-.484,2.636-1.679,5.822-.413,11.818.48,3.283,3.784,3.887,8.888,3.887h43.6c2.843,0,5.057-2.3,5.006-3.285-.225-4.346-2.015-6.232-8.388-7.913" fill="#bac36a"/>
      <path id="Trazado_907942" data-name="Trazado 907942" d="M84.028,296.3c1.927-2.481,6.041-4.833,9.664-3.624" fill="none" stroke="#303030" stroke-linecap="round" stroke-linejoin="round" stroke-width="1.5"/>
      <path id="Trazado_907943" data-name="Trazado 907943" d="M87.564,289.373a9.855,9.855,0,0,0-3.86,4.084" fill="none" stroke="#303030" stroke-linecap="round" stroke-linejoin="round" stroke-width="1.5"/>
      <path id="Trazado_907944" data-name="Trazado 907944" d="M89.354,290.5c-2.218-.1-5.355.543-10.651,1.435" fill="none" stroke="#303030" stroke-linecap="round" stroke-linejoin="round" stroke-width="1.5"/>
      <path id="Trazado_907945" data-name="Trazado 907945" d="M83.192,286.453a8.88,8.88,0,0,0-3.709,3.836" fill="none" stroke="#303030" stroke-linecap="round" stroke-linejoin="round" stroke-width="1.5"/>
      <path id="Trazado_907946" data-name="Trazado 907946" d="M84.981,287.575c-2.218-.1-5.355.543-10.651,1.435" fill="none" stroke="#303030" stroke-linecap="round" stroke-linejoin="round" stroke-width="1.5"/>
      <path id="Trazado_907947" data-name="Trazado 907947" d="M78.911,283.065c-1.724.942-2.783,2.612-3.953,4.552" fill="none" stroke="#303030" stroke-linecap="round" stroke-linejoin="round" stroke-width="1.5"/>
      <path id="Trazado_907948" data-name="Trazado 907948" d="M80.608,284.655c-2.219-.1-5.356.543-10.651,1.435" fill="none" stroke="#303030" stroke-linecap="round" stroke-linejoin="round" stroke-width="1.5"/>
      <path id="Trazado_907949" data-name="Trazado 907949" d="M50.448,291.416a5.356,5.356,0,0,0,1.925,1.7,7.031,7.031,0,0,0,5.253.46c2.712-.843,4.8-3.3,7.612-3.707,2.045-.3,4.066.562,5.921,1.471,3.429,1.678,8.809,4.809,9.5,5.872s1.259,4.384,1.805,7.587" fill="none" stroke="#303030" stroke-linecap="round" stroke-linejoin="round" stroke-width="1.5"/>
      <path id="Trazado_907950" data-name="Trazado 907950" d="M105.245,308.814c-2.528.681-16.494.585-16.494.585H60.208c-5.313,0-8.141-.169-9.5-2.044-.8-1.106-1.239-2.883-1.009-5.724,2.207,1.948,1.643,2.5,10.722,2.5s31.235.07,36.048,0c3.351-.049,8.56.4,10.723-1.9.793,1.058,1.9,5.543-1.952,6.582" fill="#fff"/>
      <path id="Trazado_907951" data-name="Trazado 907951" d="M105.245,308.814c-2.528.681-16.494.585-16.494.585H60.208c-5.313,0-8.141-.169-9.5-2.044-.8-1.106-1.239-2.883-1.009-5.724,2.207,1.948,1.643,2.5,10.722,2.5s31.235.07,36.048,0c3.351-.049,8.56.4,10.723-1.9C107.989,303.289,109.1,307.774,105.245,308.814Z" fill="none" stroke="#303030" stroke-linecap="round" stroke-linejoin="round" stroke-width="1.5"/>
      <path id="Trazado_907952" data-name="Trazado 907952" d="M75.316,138.841H28.5c-2.965,22.1-2.916,28.617-2.849,55.039.033,13.186-.451,22.709-2.226,32.588-3.038,16.911-5.123,20.8-5.253,37.232-.041,5.3-.566,28.062-.414,32.493,10.882,16.615,17.908.166,17.908.166s2.716-16.07,4.228-24.125c3.4-18.1,4.742-29.518,8.354-40.2,6.961-20.6,12.7-59.506,12.7-59.506S77.11,158.775,75.32,138.845" fill="#d48983"/>
      <path id="Trazado_907953" data-name="Trazado 907953" d="M13.089,306.479c-.935,3.033-2.724,6.373-3.147,9.518s-.472,6.127,2,8.119a10.636,10.636,0,0,0,4.625,1.9,28.035,28.035,0,0,0,14.717-.674,10.961,10.961,0,0,0,4.344-2.929c1.955-2.14,1.89-5.213,2.005-8.109.1-2.62-.238-5.944-.273-8.566-.042-3.081.12-5.215.264-7.631.239-3.993,1.133-7.322-.906-7.9-.519,1.584-1.093,3.821-1.876,4.29-.828.5-1.232-2.617-2.788-4.322a10,10,0,0,0-5.653-2.917c-3.43-.4-6.037-.094-8.445,1.78-2.237,1.741-2.123,4.157-2.4,6.693-.538,4.948-1.068,6.217-2.468,10.745" fill="#bac36a"/>
      <path id="Trazado_907954" data-name="Trazado 907954" d="M16.014,310.006a25.586,25.586,0,0,1,15.245.342" fill="none" stroke="#303030" stroke-linecap="round" stroke-linejoin="round" stroke-width="1.5"/>
      <path id="Trazado_907955" data-name="Trazado 907955" d="M16.014,307.791c3.434-1.77,8.393-3.1,15.451-3.156" fill="none" stroke="#303030" stroke-linecap="round" stroke-linejoin="round" stroke-width="1.5"/>
      <path id="Trazado_907956" data-name="Trazado 907956" d="M16.792,304.107c2.878.53,9.447,1.25,14.468,3.685" fill="none" stroke="#303030" stroke-linecap="round" stroke-linejoin="round" stroke-width="1.5"/>
      <path id="Trazado_907957" data-name="Trazado 907957" d="M17.07,302.3c3.181-1.784,7.77-3.134,14.293-3.222" fill="none" stroke="#303030" stroke-linecap="round" stroke-linejoin="round" stroke-width="1.5"/>
      <path id="Trazado_907958" data-name="Trazado 907958" d="M17.805,298.609c2.657.517,8.724,1.208,13.354,3.621" fill="none" stroke="#303030" stroke-linecap="round" stroke-linejoin="round" stroke-width="1.5"/>
      <path id="Trazado_907959" data-name="Trazado 907959" d="M18,296.877c2.979-1.8,7.272-3.162,13.367-3.276" fill="none" stroke="#303030" stroke-linecap="round" stroke-linejoin="round" stroke-width="1.5"/>
      <path id="Trazado_907960" data-name="Trazado 907960" d="M18.695,293.188c2.481.507,8.148,1.175,12.465,3.57" fill="none" stroke="#303030" stroke-linecap="round" stroke-linejoin="round" stroke-width="1.5"/>
      <path id="Trazado_907961" data-name="Trazado 907961" d="M37.9,294.973s-1.913,2.387-2.391,3.218c-.975,1.7-.757,3.69-.711,5.645a23.068,23.068,0,0,1-.218,5.845,29.823,29.823,0,0,0-.852,3.248,11.243,11.243,0,0,0,.506,4.033c.551,2.2.723,3.146,1.275,5.34" fill="none" stroke="#303030" stroke-linecap="round" stroke-linejoin="round" stroke-width="1.5"/>
      <path id="Trazado_907962" data-name="Trazado 907962" d="M14.124,303.692l-.163,4.963a17.557,17.557,0,0,1-.211,2.58,19.8,19.8,0,0,1-1.112,3.477c-1,2.638-1.884,5.43-1.58,8.237" fill="none" stroke="#303030" stroke-linecap="round" stroke-linejoin="round" stroke-width="1.5"/>
      <path id="Trazado_907963" data-name="Trazado 907963" d="M37.725,323.829c-.128,1.592-1.788,5.85-10.518,7.12-6.936,1.009-12.737-.379-15.706-2.843-2.046-1.709-2.24-5.9-1.786-10.367l.052-.017c-.182,2.494.163,4.768,2.174,6.391a10.588,10.588,0,0,0,4.632,1.907,28.016,28.016,0,0,0,14.712-.673,10.917,10.917,0,0,0,4.343-2.931c1.959-2.143,1.894-5.215,2-8.108.015-.32.022-.649.019-.987a69.547,69.547,0,0,1,.079,10.508" fill="#fff"/>
      <path id="Trazado_907964" data-name="Trazado 907964" d="M37.725,323.829c-.128,1.592-1.788,5.85-10.518,7.12-6.936,1.009-12.737-.379-15.706-2.843-2.046-1.709-2.24-5.9-1.786-10.367l.052-.017c-.182,2.494.163,4.768,2.174,6.391a10.588,10.588,0,0,0,4.632,1.907,28.016,28.016,0,0,0,14.712-.673,10.917,10.917,0,0,0,4.343-2.931c1.959-2.143,1.894-5.215,2-8.108.015-.32.022-.649.019-.987A69.546,69.546,0,0,1,37.725,323.829Z" fill="none" stroke="#303030" stroke-linecap="round" stroke-linejoin="round" stroke-width="1.5"/>
      <path id="Trazado_907965" data-name="Trazado 907965" d="M26.989,134.435c-1.843,9.838-2.392,22.19-2.8,26.694-.768,8.4-.829,43.766-2.239,55.423s-2.947,16.886-4.2,24.68c-1.027,6.394-.169,30.727-.169,30.727s3.945,4.259,12.756,4.864,10.3-3.66,10.3-3.66,3.589-19.365,5.58-27.59,7.274-25.816,10.207-39.3c.114,9.5.488,12.077-1.133,17.8a77.016,77.016,0,0,0-3.074,23.9c.206,10.875.455,16.8.455,16.8s3.336,3.23,10.4,3.516a45.281,45.281,0,0,0,13.771-1.86s5.482-26.261,7.727-36.277c1.045-4.666,2.963-17.588,3.381-34.6.708-28.862.472-45.689-.58-61.121Z" fill="#bac36a"/>
      <path id="Trazado_907966" data-name="Trazado 907966" d="M67.793,136.756q.327,10.441-.12,20.892c-.21,4.877-.417,7.71-1.917,12.279-.9,2.755-3.488,7.02-4.48,9.734-1.005,2.748-2.808,13.04-4.521,22.314" fill="none" stroke="#303030" stroke-linecap="round" stroke-linejoin="round" stroke-width="1.5"/>
      <path id="Trazado_907967" data-name="Trazado 907967" d="M41.8,267.064l.58-2.951c1.063.244,1.63,2.074,1.2,3.335a40.4,40.4,0,0,0-1.254,4.011c-.145.589-.55,2.523-.7,3.111a4.024,4.024,0,0,1-2.2,2.679c-3.366,1.749-9.974,2.16-13.27,1.635-5.187-.828-7.636-2.05-8.874-3.511a4.413,4.413,0,0,1-.885-1.5,7.776,7.776,0,0,1,.122-3.538c.264-2.089-.547-3.56-.744-4.636a3.964,3.964,0,0,1,.213-2.4,1.864,1.864,0,0,1,1.332-1.013l.085,2.843s2.647,5.076,11.567,4.984c10.7-.109,12.816-3.044,12.816-3.044" fill="#303030"/>
      <path id="Trazado_907968" data-name="Trazado 907968" d="M77.406,263.714l.6-2.861c1.063.244,1.611,2,1.185,3.261a40.406,40.406,0,0,0-1.254,4.011c-.145.589-.55,2.523-.7,3.111a4.021,4.021,0,0,1-2.2,2.679c-3.366,1.749-11.152,1.461-14.448.935-5.187-.828-7.439-2.756-8.677-4.217a4.446,4.446,0,0,1-.884-1.5,7.749,7.749,0,0,1,.122-3.538,14.7,14.7,0,0,0-.584-5.035,3.972,3.972,0,0,1,.213-2.4,3.492,3.492,0,0,1,1.628-1.4l.088,3.129s1.255,3.338,10.058,4.784c5.388.885,14.845-.952,14.845-.952" fill="#303030"/>
      <path id="Trazado_907969" data-name="Trazado 907969" d="M31.324,275.255c-3.009.666-11.608-1.282-14.774-6.588" fill="none" stroke="#00826f" stroke-linecap="round" stroke-linejoin="round" stroke-width="1.5"/>
      <path id="Trazado_907970" data-name="Trazado 907970" d="M78.205,266.991c-3.347,3.437-12.12,4.239-17.852,3.36" fill="none" stroke="#00826f" stroke-linecap="round" stroke-linejoin="round" stroke-width="1.5"/>
      <path id="Trazado_907971" data-name="Trazado 907971" d="M153.724,48.086c-1.263.552-2.086,1.894-3.217,3.268-1.385,1.682-3.629,4.742-5.34,6.7-.937,1.073-1.247,1.58-1.529,1.487-.6-.2-.254-1.776-.072-2.426a8.668,8.668,0,0,0,.546-3.044c-.064-.748-.779-1.717-1.637-1.482a1.214,1.214,0,0,0-.527.347,11.5,11.5,0,0,0-1.6,3.064q-.815,1.715-1.492,3.489a50.533,50.533,0,0,1-2.069,4.944c-.856,1.694-2.283,3.717-3.5,4.4-6.23,3.476-16.829,7.81-16.829,7.81s-24.9-7.8-33.369-7.916l.881,22.065s26.649,4.377,30.5,4.817,5.908-.406,10.494-3.733c5.882-4.266,14.348-11.924,16.176-13.283,2.975-2.213,6.486-3.962,9.79-5.959,1.4-.843,2.716-1.812,4.051-2.746,1.133-.792,2.663-1.753,2.5-3.346a2.047,2.047,0,0,0-.209-.7,2.086,2.086,0,0,0-1.914-1.191,2.053,2.053,0,0,0-1.758-3.694,2.547,2.547,0,0,0,.415-3.463c-1.013-1.439-2.929-.21-2.977-.274,0,0,2.367-3.544,2.857-4.256a10.705,10.705,0,0,0,1.8-3.126,1.441,1.441,0,0,0-1.968-1.744" fill="#d48983"/>
      <path id="Trazado_907972" data-name="Trazado 907972" d="M152.834,61.335a23.283,23.283,0,0,1-3.411,1.93c-1.216.558-2.242.907-2.84.156a2.046,2.046,0,0,1,.257-2.6,26.038,26.038,0,0,1,4.2-3.6" fill="none" stroke="#303030" stroke-linecap="round" stroke-linejoin="round" stroke-width="1.5"/>
      <path id="Trazado_907973" data-name="Trazado 907973" d="M154.577,65.471a23.283,23.283,0,0,1-3.411,1.93c-1.216.558-2.242.907-2.84.156a2.046,2.046,0,0,1,.257-2.6,26.037,26.037,0,0,1,4.2-3.6" fill="none" stroke="#303030" stroke-linecap="round" stroke-linejoin="round" stroke-width="1.5"/>
      <path id="Trazado_907974" data-name="Trazado 907974" d="M152.963,71.525c-1.216.558-2.242.907-2.839.156a2.044,2.044,0,0,1,.256-2.6,26.036,26.036,0,0,1,4.2-3.6" fill="none" stroke="#303030" stroke-linecap="round" stroke-linejoin="round" stroke-width="1.5"/>
      <path id="Trazado_907975" data-name="Trazado 907975" d="M146.312,62.911c.235,3.456-2.012,5.76-3.9,7.422" fill="none" stroke="#303030" stroke-linecap="round" stroke-linejoin="round" stroke-width="1.5"/>
      <path id="Trazado_907976" data-name="Trazado 907976" d="M123.194,73.246l7.8-3.549a12.786,12.786,0,0,0,2.554,6.961,16.232,16.232,0,0,0,4.9,4.866l-6.5,5.217s-8.99-4.453-8.751-13.491" fill="#fff"/>
      <path id="Trazado_907977" data-name="Trazado 907977" d="M123.194,73.246l7.8-3.549a12.786,12.786,0,0,0,2.554,6.961,16.232,16.232,0,0,0,4.9,4.866l-6.5,5.217S122.954,82.284,123.194,73.246Z" fill="none" stroke="#303030" stroke-linecap="round" stroke-linejoin="round" stroke-width="1.5"/>
      <path id="Trazado_907978" data-name="Trazado 907978" d="M80.929,67.151a67.24,67.24,0,0,1,16.918,3.328c8.141,2.414,17.667,5.383,17.667,5.383,7.759-4.083,9.266-5.439,10.229-4.371a17.885,17.885,0,0,0,2.587,7.536,25.108,25.108,0,0,0,5.618,6.882c.932,1.28-6.809,5.752-11.2,8.536-3.326,2.108-5.714,2.235-10.38,1.753-3.754-.388-29.736-4.84-29.736-4.84s-2.416-15.073-1.706-24.206" fill="#3f7ad8"/>
      <path id="Trazado_907979" data-name="Trazado 907979" d="M115.513,75.863a15.268,15.268,0,0,0-3.7,5.687" fill="none" stroke="#303030" stroke-linecap="round" stroke-linejoin="round" stroke-width="1.5"/>
      <path id="Trazado_907980" data-name="Trazado 907980" d="M125.743,71.491a17.873,17.873,0,0,0,2.588,7.536,25.109,25.109,0,0,0,5.618,6.882" fill="none" stroke="#303030" stroke-linecap="round" stroke-linejoin="round" stroke-width="1.5"/>
      <path id="Trazado_907981" data-name="Trazado 907981" d="M38.506,36.573c.406,8.043,7.765,16.473,16.186,16.048S69.41,43.078,69,35.037s-7.562-14.222-15.983-13.8S38.1,28.527,38.507,36.571" fill="#303030"/>
      <path id="Trazado_907982" data-name="Trazado 907982" d="M54.874,21.73c2.846-.567,5.775-1.137,8.63-.61a11.477,11.477,0,0,1,9.381,10.737,18.465,18.465,0,0,0-3.644-4.89A7.067,7.067,0,0,1,71,31.4a5.355,5.355,0,0,1-1.956,4.265,19.067,19.067,0,0,0-3.393-5.806,8.253,8.253,0,0,0-2.715-2.138,4.449,4.449,0,0,0-3.382-.2,1.489,1.489,0,0,1-.734.174,1.169,1.169,0,0,1-.534-.286,10.306,10.306,0,0,1-3.151-4.347" fill="#303030"/>
      <path id="Trazado_907983" data-name="Trazado 907983" d="M37.03,44.505a4.039,4.039,0,0,1,4.023-3.34,6.545,6.545,0,0,1,4.82,2.149c.92.968,2.7-.2.778-3.305,1-2.43,1.952-8.674.648-10.817,9.5.945,16.1-.163,18.62-.96a15.8,15.8,0,0,1,3.562,7.655,40.131,40.131,0,0,1,.228,5.943c.014,1.866.057,5.129.31,7.16.47,3.764.692,6.206-.962,8.118s-5.477,2.335-6.466,2.412l.019.014.92,5.56,3.9,1.175s-3.8,7.443-11.976,7.653A19.26,19.26,0,0,1,41.284,68.7l5.71-2.775.733-9.859a6.644,6.644,0,0,1-2.2-4.46c-.156-1.741-.339-3.769-.339-3.769a5.979,5.979,0,0,1-5.269.651c-1.676-.566-3.129-2.287-2.886-3.981" fill="#d48983"/>
      <path id="Trazado_907984" data-name="Trazado 907984" d="M62.253,39.551a2.406,2.406,0,0,1,2.154-1.663c1.024-.153,2.517-.009,2.887,1.412-.282,1.475-3.518,2.136-5.045.251" fill="#fff"/>
      <path id="Trazado_907985" data-name="Trazado 907985" d="M66.742,39.857a1.31,1.31,0,0,1-1.713.678,1.287,1.287,0,0,1-.755-1.656l0-.013a1.308,1.308,0,0,1,1.713-.678,1.288,1.288,0,0,1,.754,1.658l0,.011" fill="#303030"/>
      <path id="Trazado_907986" data-name="Trazado 907986" d="M64.185,38.839l1.326.525-1.458.194Z" fill="#fff"/>
      <path id="Trazado_907987" data-name="Trazado 907987" d="M67.446,39.019a2.907,2.907,0,0,0-2.933-1.028,2.961,2.961,0,0,0-2.259,1.559" fill="none" stroke="#303030" stroke-linecap="round" stroke-linejoin="round" stroke-width="1.5"/>
      <path id="Trazado_907988" data-name="Trazado 907988" d="M62.629,33.127a6.692,6.692,0,0,1,5.364,1.22" fill="none" stroke="#303030" stroke-linecap="round" stroke-linejoin="round" stroke-width="1.5"/>
      <path id="Trazado_907989" data-name="Trazado 907989" d="M51.873,40.142a2.407,2.407,0,0,1,2.148-1.676c1.023-.159,2.516-.024,2.9,1.4-.273,1.477-3.505,2.156-5.043.281" fill="#fff"/>
      <path id="Trazado_907990" data-name="Trazado 907990" d="M56.364,40.421a1.31,1.31,0,0,1-1.709.688,1.289,1.289,0,0,1-.765-1.655l0-.01a1.311,1.311,0,0,1,1.71-.688,1.289,1.289,0,0,1,.764,1.655l0,.01" fill="#303030"/>
      <path id="Trazado_907991" data-name="Trazado 907991" d="M53.8,39.414l1.329.517-1.456.2Z" fill="#fff"/>
      <path id="Trazado_907992" data-name="Trazado 907992" d="M57.062,39.579a2.907,2.907,0,0,0-2.939-1.01,2.962,2.962,0,0,0-2.25,1.572" fill="none" stroke="#303030" stroke-linecap="round" stroke-linejoin="round" stroke-width="1.5"/>
      <path id="Trazado_907993" data-name="Trazado 907993" d="M49.325,37.243a6.644,6.644,0,0,1,5.239-3.162" fill="none" stroke="#303030" stroke-linecap="round" stroke-linejoin="round" stroke-width="1.5"/>
      <path id="Trazado_907994" data-name="Trazado 907994" d="M60.158,36.773a12.515,12.515,0,0,0,3.453,5.616c1.251,1.275,1.1,3.8-2.172,3.8" fill="none" stroke="#303030" stroke-linecap="round" stroke-linejoin="round" stroke-width="1.5"/>
      <path id="Trazado_907995" data-name="Trazado 907995" d="M56.8,48.829a6.336,6.336,0,0,0,5.826.938" fill="none" stroke="#303030" stroke-linecap="round" stroke-linejoin="round" stroke-width="1.5"/>
      <path id="Trazado_907996" data-name="Trazado 907996" d="M39.176,44.195a3.389,3.389,0,0,1,2.485-.5,3.232,3.232,0,0,1,2.439,1.87" fill="none" stroke="#303030" stroke-linecap="round" stroke-linejoin="round" stroke-width="1.5"/>
      <path id="Trazado_907997" data-name="Trazado 907997" d="M41.082,45.147a2.5,2.5,0,0,1,2.457-.443" fill="none" stroke="#303030" stroke-linecap="round" stroke-linejoin="round" stroke-width="1.5"/>
      <path id="Trazado_907998" data-name="Trazado 907998" d="M62.612,59.533c-3.766.007-8.033-.694-10.607-2.127.738,1.58,3.914,4.024,11.042,4.759Z" fill="#303030"/>
      <path id="Trazado_907999" data-name="Trazado 907999" d="M56.972,28.034a8.607,8.607,0,0,1,7.574,6.852c.1.5.871.29.768-.211a9.41,9.41,0,0,0-8.342-7.437c-.51-.048-.507.749,0,.8" fill="#303030"/>
      <path id="Trazado_908000" data-name="Trazado 908000" d="M64.65,29.968a17.665,17.665,0,0,1,3.235,5.93,3.7,3.7,0,0,0,.629-1.728,9.619,9.619,0,0,0-1.029-5.912A7.708,7.708,0,0,0,64.5,25.112a5.552,5.552,0,0,0-4.251-.52,2.058,2.058,0,0,0-1.336,1c-.546,1.213,1.312,1.817,2.145,2.07a8.1,8.1,0,0,1,3.591,2.309" fill="#303030"/>
      <path id="Trazado_908001" data-name="Trazado 908001" d="M84.93,138.693c3.578-4.742-.481-26.788.1-48.282.432-15.824-6.413-21.047-6.413-21.047l-13.5-4.088c.339,6.823-17.436,5.521-20.166,1.638L28.228,73.756c-2.951,1.682-4.032,5.18-3.367,16.688.59,10.212,2.164,19.848,1.785,30.011-.217,5.811-2.677,16.192.814,18.942,11.492,6.911,42.636,13.364,57.47-.7" fill="#fff"/>
      <path id="Trazado_908002" data-name="Trazado 908002" d="M84.93,138.693c3.578-4.742-.481-26.788.1-48.282.432-15.824-6.413-21.047-6.413-21.047l-13.5-4.088c.339,6.823-17.436,5.521-20.166,1.638L28.228,73.756c-2.951,1.682-4.032,5.18-3.367,16.688.59,10.212,2.164,19.848,1.785,30.011-.217,5.811-2.677,16.192.814,18.942C38.952,146.308,70.1,152.76,84.93,138.693Z" fill="none" stroke="#303030" stroke-linecap="round" stroke-linejoin="round" stroke-width="1.5"/>
      <path id="Trazado_908003" data-name="Trazado 908003" d="M47.226,62.8a11.73,11.73,0,0,0-4.142,1.523c-1.4,1.061-4,3.391-4,3.391L28.476,71.273s-6.288,9.593-5.531,15.975,2.123,18.52,2.278,22.412a165.28,165.28,0,0,1-.612,20.515c-.786,7.448-1.729,21.429-1.729,21.429s8.143,4.333,29.425,3.483c-.864-21.632-1.66-44.671-2.34-58.541S46.8,67.69,46.8,67.69Z" fill="#3f7ad8"/>
      <path id="Trazado_908004" data-name="Trazado 908004" d="M37.944,69.57A28.1,28.1,0,0,0,36.81,81.778c.064.421.568.494.878.357,2-.887,4.809-1.827,6.817-.437a5.446,5.446,0,0,1,1.952,4.029c.075.758,1.271.766,1.195,0a7.541,7.541,0,0,0-1.578-4.2,5.325,5.325,0,0,0-4.6-1.682,13.727,13.727,0,0,0-4.389,1.26l.877.357A26.78,26.78,0,0,1,39.1,69.89a.6.6,0,0,0-1.152-.318" fill="#303030"/>
      <path id="Trazado_908005" data-name="Trazado 908005" d="M63.047,62.166l.484,2.928a46.6,46.6,0,0,1,5.793,5.452c2.013,2.46,5.833,5.612,6.37,19.051s2.5,62.536,2.5,62.536,9.911-3.3,11.356-8.194c-.33-8.259-1.053-26.37-1.437-35.978S87.481,93.7,87.079,85.726c-.336-6.666-1.471-12.817-6.147-18.574l-7.9-.635c-3.79-2.586-5.937-4.124-9.985-4.352" fill="#3f7ad8"/>
      <path id="Trazado_908006" data-name="Trazado 908006" d="M89.546,143.939c-.33-8.259-1.053-26.37-1.437-35.978S87.477,93.7,87.075,85.725A47.656,47.656,0,0,0,86.27,78.7" fill="none" stroke="#303030" stroke-linecap="round" stroke-linejoin="round" stroke-width="1.5"/>
      <path id="Trazado_908007" data-name="Trazado 908007" d="M74.828,67.914c3.343,2.713,6.691,6.08,7.589,7.839-2.66-.929-6.255,2.39-6.06,7.283" fill="none" stroke="#303030" stroke-linecap="round" stroke-linejoin="round" stroke-width="1.5"/>
      <path id="Trazado_908008" data-name="Trazado 908008" d="M61.265,127.725a3.326,3.326,0,0,0-1.955-1.306,18.075,18.075,0,0,0-4.6-.672c-.781-.029-1.561-.017-2.343-.027-.527-.006-1.195-.183-.779-.819a11.689,11.689,0,0,1,3.144-2.931,6.369,6.369,0,0,0,2.4-2.336c.533-1.2-.34-1.928-1.356-1.664-3.406.883-6.553,3.455-9.319,5.629-3.007,2.362-6.374,5-10.451,4.135-6.749-1.431-14.861-10.059-14.859-10.068.245-1.74,5.849-14.614,6.633-16.491,0,0,2.95-17.691-2.2-27.152-12.1,3.508-15.307,17.6-16.6,21.954s-5.011,15.991-5.872,19.464c-1.64,6.627-1.154,10.592,5.477,14.715,5.1,3.172,17.606,8.8,24.609,10.079a18.381,18.381,0,0,0,7.165-.019c2.987-.648,5.314-2.9,8.3-3.494,1.15-.229,2.044-.466,3.209-.6,2.261-.266,3.759-.071,4.761-1.056a1.48,1.48,0,0,0-.13-2.3,2.769,2.769,0,0,0,2.686-.625,1.343,1.343,0,0,0-.317-2.306,2.617,2.617,0,0,0,1.7-.151,1.357,1.357,0,0,0,.785-1.751,1.437,1.437,0,0,0-.1-.209" fill="#d48983"/>
      <path id="Trazado_908009" data-name="Trazado 908009" d="M50.305,129.265a13.02,13.02,0,0,1,8.575.567" fill="none" stroke="#303030" stroke-linecap="round" stroke-linejoin="round" stroke-width="1.5"/>
      <path id="Trazado_908010" data-name="Trazado 908010" d="M49.745,132.732c3.061-.806,4.9-.8,6.766.034" fill="none" stroke="#303030" stroke-linecap="round" stroke-linejoin="round" stroke-width="1.5"/>
      <path id="Trazado_908011" data-name="Trazado 908011" d="M15.934,117.04a6.652,6.652,0,0,1,5.219.625" fill="none" stroke="#303030" stroke-linecap="round" stroke-linejoin="round" stroke-width="1.5"/>
      <path id="Trazado_908012" data-name="Trazado 908012" d="M20.152,136.2l5.4,2.117a15.449,15.449,0,0,1,2.195-7.737c2.262-3.459,4.507-4.243,4.507-4.243l-5.623-3.784s-7.487,4.631-6.473,13.647" fill="#fff"/>
      <path id="Trazado_908013" data-name="Trazado 908013" d="M20.152,136.2l5.4,2.117a15.449,15.449,0,0,1,2.195-7.737c2.262-3.459,4.507-4.243,4.507-4.243l-5.623-3.784S19.138,127.18,20.152,136.2Z" fill="none" stroke="#303030" stroke-linecap="round" stroke-linejoin="round" stroke-width="1.5"/>
      <path id="Trazado_908014" data-name="Trazado 908014" d="M28.476,71.274c-13.44,4.594-13.806,6.155-18.4,17.454S1.047,113.957.29,117.57c-1.3,6.19,1.985,9.93,5.58,12.45a112.441,112.441,0,0,0,11.793,7.163,3.178,3.178,0,0,0,3.457-.607A14.876,14.876,0,0,1,23,128.593a12.361,12.361,0,0,1,5.384-5.3s.4-1.207-1.77-2.982-3.833-3.216-3.833-3.216L29.356,101.9s6.985-18.432-.877-30.63" fill="#3f7ad8"/>
      <path id="Trazado_908015" data-name="Trazado 908015" d="M22.78,117.1,29.353,101.9s3.381-9.848,2.383-19.917" fill="none" stroke="#303030" stroke-linecap="round" stroke-linejoin="round" stroke-width="1.5"/>
      <path id="Trazado_908016" data-name="Trazado 908016" d="M21.116,136.573a14.87,14.87,0,0,1,1.878-7.984,12.364,12.364,0,0,1,5.383-5.3" fill="none" stroke="#303030" stroke-linecap="round" stroke-linejoin="round" stroke-width="1.5"/>
      <path id="Trazado_908017" data-name="Trazado 908017" d="M10.215,114.5A14.838,14.838,0,0,1,22.781,117.1" fill="none" stroke="#303030" stroke-linecap="round" stroke-linejoin="round" stroke-width="1.5"/>
    </g>
  </g>
</svg>
