<svg xmlns="http://www.w3.org/2000/svg" xmlns:xlink="http://www.w3.org/1999/xlink" width="1030" height="462" viewBox="0 0 1030 462">
  <defs>
    <linearGradient id="linear-gradient" x1="0.5" x2="0.5" y2="1" gradientUnits="objectBoundingBox">
      <stop offset="0" stop-color="#fef2e2"/>
      <stop offset="1" stop-color="#ffe0d1"/>
    </linearGradient>
    <clipPath id="clip-path">
      <path id="Trazado_608976" data-name="Trazado 608976" d="M16,0h998a16,16,0,0,1,16,16V446a16,16,0,0,1-16,16H16A16,16,0,0,1,0,446V16A16,16,0,0,1,16,0Z" transform="translate(284.668 1119)" fill="url(#linear-gradient)"/>
    </clipPath>
    <linearGradient id="linear-gradient-2" x1="0.5" x2="0.5" y2="1" gradientUnits="objectBoundingBox">
      <stop offset="0" stop-color="#fbe3ff"/>
      <stop offset="1" stop-color="#e5e9fe"/>
    </linearGradient>
    <clipPath id="clip-path-2">
      <rect id="Rectángulo_409694" data-name="Rectángulo 409694" width="630.351" height="428.879" fill="none"/>
    </clipPath>
    <clipPath id="clip-path-5">
      <rect id="Rectángulo_409682" data-name="Rectángulo 409682" width="45.76" height="73.255" fill="none"/>
    </clipPath>
    <clipPath id="clip-path-6">
      <rect id="Rectángulo_409683" data-name="Rectángulo 409683" width="43.394" height="93.237" fill="none"/>
    </clipPath>
    <clipPath id="clip-path-8">
      <rect id="Rectángulo_409685" data-name="Rectángulo 409685" width="27.338" height="13.449" fill="none"/>
    </clipPath>
    <clipPath id="clip-path-9">
      <rect id="Rectángulo_409686" data-name="Rectángulo 409686" width="39.878" height="106.792" fill="none"/>
    </clipPath>
    <clipPath id="clip-path-10">
      <rect id="Rectángulo_409687" data-name="Rectángulo 409687" width="39.347" height="45.46" fill="none"/>
    </clipPath>
    <clipPath id="clip-path-11">
      <rect id="Rectángulo_409688" data-name="Rectángulo 409688" width="97.025" height="67.867" fill="none"/>
    </clipPath>
    <clipPath id="clip-path-13">
      <rect id="Rectángulo_409690" data-name="Rectángulo 409690" width="40.333" height="107.747" fill="none"/>
    </clipPath>
    <clipPath id="clip-path-14">
      <rect id="Rectángulo_409691" data-name="Rectángulo 409691" width="39.796" height="45.866" fill="none"/>
    </clipPath>
    <clipPath id="clip-path-15">
      <rect id="Rectángulo_409692" data-name="Rectángulo 409692" width="98.133" height="68.473" fill="none"/>
    </clipPath>
  </defs>
  <g id="Grupo_1120624" data-name="Grupo 1120624" transform="translate(-285.711 -9749)">
    <g id="Enmascarar_grupo_1098656" data-name="Enmascarar grupo 1098656" transform="translate(1600.379 11330) rotate(180)" clip-path="url(#clip-path)">
      <rect id="Rectángulo_400937" data-name="Rectángulo 400937" width="1079" height="484" transform="translate(264.668 1107)" fill="url(#linear-gradient-2)"/>
    </g>
    <g id="Grupo_1119946" data-name="Grupo 1119946" transform="translate(484.824 9765.561)">
      <g id="Grupo_1119945" data-name="Grupo 1119945" clip-path="url(#clip-path-2)">
        <g id="Grupo_1119911" data-name="Grupo 1119911">
          <g id="Grupo_1119910" data-name="Grupo 1119910" clip-path="url(#clip-path-2)">
            <path id="Trazado_907024" data-name="Trazado 907024" d="M163.083,288.772c32.867,18.976,32.867,49.743,0,68.72s-86.159,18.976-119.026,0-32.867-49.743,0-68.72,86.159-18.976,119.026,0" transform="translate(3.091 43.725)" fill="#edcbf3"/>
            <path id="Trazado_907025" data-name="Trazado 907025" d="M523.605,300.974c32.5,18.808,32.5,49.3,0,68.111s-85.186,18.808-117.683,0-32.5-49.3,0-68.111,85.185-18.808,117.683,0" transform="translate(60.767 45.688)" fill="#edcbf3"/>
          </g>
        </g>
        <g id="Grupo_1119919" data-name="Grupo 1119919">
          <g id="Grupo_1119918" data-name="Grupo 1119918" clip-path="url(#clip-path-2)">
            <path id="Trazado_907026" data-name="Trazado 907026" d="M487.131,286.085s-3.837-19.1.7-36.356,14.233-30.242,25.656-34.961,24.368,3.031,14.214,14.511-30,26.257-31.319,57.34Z" transform="translate(77.342 33.981)" fill="#d4e157"/>
            <g id="Grupo_1119914" data-name="Grupo 1119914" transform="translate(562.958 247.344)" opacity="0.15">
              <g id="Grupo_1119913" data-name="Grupo 1119913">
                <g id="Grupo_1119912" data-name="Grupo 1119912" clip-path="url(#clip-path-5)">
                  <path id="Trazado_907027" data-name="Trazado 907027" d="M487.131,286.085s-3.837-19.1.7-36.356,14.233-30.242,25.656-34.961,24.368,3.031,14.214,14.511-30,26.257-31.319,57.34Z" transform="translate(-485.616 -213.363)"/>
                </g>
              </g>
            </g>
            <path id="Trazado_907028" data-name="Trazado 907028" d="M488.661,279.476a.587.587,0,0,1-.136,0,.658.658,0,0,1-.607-.706c2.546-34.537,21.991-54.9,31.919-60.844a.659.659,0,0,1,.675,1.133c-9.725,5.821-28.776,25.813-31.282,59.809a.659.659,0,0,1-.569.605" transform="translate(77.708 34.694)" fill="#fff"/>
            <path id="Trazado_907029" data-name="Trazado 907029" d="M496.953,300.281a27.186,27.186,0,0,0-2.47-9.118c-1.376-3.081-3.914-5.788-4.711-9.115-.642-2.674.45-6.05,2-8.242,1.6-2.263,3.958-4.079,4.826-6.716.889-2.7.02-5.632.136-8.47A12.1,12.1,0,0,1,508.965,247c2.922.038,5.713,1.127,8.531,1.9a13.908,13.908,0,0,0,8.7.012,60.171,60.171,0,0,1,9.392-2.875c5.475-1.043,12.728-.526,15.723,4.919a7.113,7.113,0,0,1,1,4.41c-.01.065-.021.129-.034.192-.829,4.242-5.671,6.008-8.518,8.559-.778.7-2.1,1.728-2.228,2.865s1.071,2.41,1.718,3.312c1.659,2.312,3.819,4.431,4.526,7.279,1.011,4.07-1.66,8.691-4.776,11.106a22.325,22.325,0,0,1-10.474,3.988c-1.854.279-3.889.51-5.2,1.856A5.938,5.938,0,0,0,526,299.092c.109,1.63.569,3.219.726,4.846a14.479,14.479,0,0,1-6.63,13.16,17.015,17.015,0,0,1-12.256,2.222c-3.451-.645-6.957-3.987-8.227-7.237a44.775,44.775,0,0,1-2.664-11.8" transform="translate(77.974 39.116)" fill="#d4e157"/>
            <path id="Trazado_907030" data-name="Trazado 907030" d="M498.753,308.784l-.051,0a.618.618,0,0,1-.648-.588c-2-38.966,34.041-56.344,43.07-58.558a.621.621,0,0,1,.294,1.206c-8.831,2.165-44.088,19.164-42.13,57.29a.618.618,0,0,1-.536.646" transform="translate(79.31 39.757)" fill="#fff"/>
            <path id="Trazado_907031" data-name="Trazado 907031" d="M533.764,273.823a.6.6,0,0,1-.364-.065c-.126-.065-12.8-6.462-28,1.05a.621.621,0,0,1-.548-1.114c15.782-7.8,28.982-1.106,29.114-1.038a.621.621,0,0,1-.205,1.166" transform="translate(80.351 42.989)" fill="#fff"/>
            <path id="Trazado_907032" data-name="Trazado 907032" d="M57.917,271.916c1.406-8.977.847-24.412-6.088-40.637C44.407,213.917,33.26,201.488,22.3,203.417c-10.21,1.8-9.767,15.4,3.121,31.8,9.043,11.513,19.381,24.537,22.269,39.909l4.338,21.328Z" transform="translate(2.412 32.366)" fill="#d4e157"/>
            <g id="Grupo_1119917" data-name="Grupo 1119917" transform="translate(17.558 235.587)" opacity="0.15">
              <g id="Grupo_1119916" data-name="Grupo 1119916">
                <g id="Grupo_1119915" data-name="Grupo 1119915" clip-path="url(#clip-path-6)">
                  <path id="Trazado_907033" data-name="Trazado 907033" d="M57.917,271.916c1.406-8.977.847-24.412-6.088-40.637C44.407,213.917,33.26,201.488,22.3,203.417c-10.21,1.8-9.767,15.4,3.121,31.8,9.043,11.513,19.381,24.537,22.269,39.909l4.338,21.328Z" transform="translate(-15.145 -203.221)"/>
                </g>
              </g>
            </g>
            <path id="Trazado_907034" data-name="Trazado 907034" d="M53.984,277.627a.642.642,0,0,1-.489-.553c-3.007-26.546-15.542-55.688-29.159-67.783a.644.644,0,1,1,.856-.963c13.827,12.285,26.544,41.775,29.582,68.6a.643.643,0,0,1-.789.7" transform="translate(3.841 33.153)" fill="#fff"/>
            <path id="Trazado_907035" data-name="Trazado 907035" d="M49.023,312.988c-.718.241-1.479.373-2.324.638a46.539,46.539,0,0,1-11.231,2.256c-7.482.44-15.366-1.181-21.365-5.873-1.236-.967-2.487-2.4-2.087-3.911.3-1.145,1.432-1.839,2.467-2.415l14.942-8.313-18.283,1.425a8.525,8.525,0,0,1-3.572-.23,7.425,7.425,0,0,1-3.52-3.451,27.743,27.743,0,0,1-2.979-7.087c-.364-1.375-.551-3.036.459-4.038a4.306,4.306,0,0,1,1.818-.911,89.645,89.645,0,0,1,19.421-3.755c-6.305-2.452-13.137-2.763-19.8-3.283a3.655,3.655,0,0,1-1.391-.294c-1.053-.533-1.332-1.887-1.436-3.063-.684-7.7,1.291-15.571,2.069-23.227.252-2.485.533-2.393,2.825-2.074,10.307,1.432,19.892,4.19,29.921,6.767A5.465,5.465,0,0,1,38,253.677a5.092,5.092,0,0,1,.6,3.91,35.19,35.19,0,0,1-3.335,10.85,29.066,29.066,0,0,0,6.981-8.853,3.93,3.93,0,0,1,1.713-2.072,3.465,3.465,0,0,1,3.027.7c13.365,8.443,13.5,25.005,10.84,38.872q-.2,1.026-.415,2.05a22.407,22.407,0,0,1-2.851,7.962,24.276,24.276,0,0,1-3.7,4.827,4.9,4.9,0,0,1-1.842,1.067" transform="translate(0 39.055)" fill="#d4e157"/>
            <path id="Trazado_907036" data-name="Trazado 907036" d="M46.725,313.873a.644.644,0,0,1-.414-.546C44.462,292.1,20.227,259.089,9.565,252.5a.644.644,0,1,1,.678-1.1c10.837,6.7,35.473,40.253,37.35,61.813a.643.643,0,0,1-.868.658" transform="translate(1.475 40.024)" fill="#fff"/>
          </g>
        </g>
        <g id="Grupo_1119933" data-name="Grupo 1119933">
          <g id="Grupo_1119932" data-name="Grupo 1119932" clip-path="url(#clip-path-2)">
            <path id="Trazado_907037" data-name="Trazado 907037" d="M361.819,84.374c-2.2-1.334-5.152-2.127-7.3-3.131-1.61-.754-3.742-1.367-4.362-3.236a8.927,8.927,0,0,1-.32-2.459,7.228,7.228,0,0,0-.4-2.441,9.588,9.588,0,0,1-.751-1.76,5.9,5.9,0,0,1,.316-2.32,3.69,3.69,0,0,0-.192-2.179,4.651,4.651,0,0,1,1-4.629,5.927,5.927,0,0,0,.883-.98c.474-.792.281-1.807.519-2.7,1.064-3.983,8.008-.789,10.169.468.619.362,3.683,2.055,5.05,2.875a22.7,22.7,0,0,1,2.1-6.462c1.862-3.984,6.43-4.71,6.128-2.12A37.505,37.505,0,0,0,374,61.9a38.341,38.341,0,0,0,.973,7,58.957,58.957,0,0,0,3.557,11.415c2.846,6.712,16.9,26.349,16.9,26.349,7-3.973,28.417-16.677,36.95-21.852,9.339-5.665,20.28-3.741,20.28-3.741l-17.492,26.8s-26.787,14.327-35.3,18.952c-6.981,3.791-12.522,5.267-17.479-4.281-7.685-14.8-16.814-35.157-20.571-38.17" transform="translate(55.515 8.247)" fill="#ffa8a7"/>
            <path id="Trazado_907038" data-name="Trazado 907038" d="M363.771,61.221c2.148.992,2.578,2.553,2.11,5.765-.278,1.9-.154,5.5,1.738,7.177a4.967,4.967,0,0,1-2.553-1.511c-.854-1.131-1.108-1.28-1.724-.773a3.6,3.6,0,0,1-1.535.645,2.5,2.5,0,0,1-.144,2.982c-1.2,1.526-5.68,1-9.1-1.355,0,0,5.713,2.6,7.329.882s-1.237-4.483-3.5-5.418c0,0,5.568,2.091,6.682.318s-1.077-3.5-4.35-4.785c0,0,4.639,1.46,5.654-.05,1.235-1.837-.061-3.152-.605-3.875" transform="translate(56.151 9.75)" fill="#f28f8f"/>
            <path id="Trazado_907039" data-name="Trazado 907039" d="M443.165,76.614h8.157a27.286,27.286,0,0,0,27.253-27.32,31.37,31.37,0,0,0-31.331-31.408,28.688,28.688,0,0,0-21.07,8.9l-.533,42.8s10.508,7.026,17.525,7.026" transform="translate(67.789 2.849)" fill="#263238"/>
            <path id="Trazado_907040" data-name="Trazado 907040" d="M457.552,22.683l-1.278-8.46a4.152,4.152,0,0,0-3.685,4.741,4.487,4.487,0,0,0,4.963,3.719" transform="translate(72.074 2.265)" fill="#263238"/>
            <path id="Trazado_907041" data-name="Trazado 907041" d="M473.364,32.173c-4.561,4.074-8.436.886-12.5-3.686s-6.777-8.8-2.216-12.872a11.077,11.077,0,0,1,14.717,16.559" transform="translate(72.668 2.039)" fill="#263238"/>
            <path id="Trazado_907042" data-name="Trazado 907042" d="M504.66,306.686c-1.058,2.219-.5,4.977-.591,10.976a100.6,100.6,0,0,1-.48,11.838c-.188,1.4-.642,2.687-.939,4.055a4.936,4.936,0,0,1-1.577,2.808,3.009,3.009,0,0,1-2.691.76,2.883,2.883,0,0,1-1.711-1.458,22.6,22.6,0,0,1-1.542-4.136c-1.129,10.044-12.005,16.994-5.374,19.484a18.508,18.508,0,0,0,14.413-.784,12.592,12.592,0,0,0,4.65-3.931c2.552-4.459,2.267-8.706,2.3-12.546.078-8.48,1.476-12.862,2.156-17.1.824-5.134-7.014-10.734-8.617-9.964" transform="translate(77.662 48.833)" fill="#263238"/>
            <path id="Trazado_907043" data-name="Trazado 907043" d="M445.608,305.831a.919.919,0,0,1,.687.845c.19,1.129.412,3.241.793,5.168.507,2.567,1.05,6.26.631,8.319s-3.2,4.061-8.412,5.54c-3.14.891-8.747,3.609-11.311,5.944-3.143,2.861-9.861,5.247-14.4,5.382-5.323.158-10.873-1.268-12.155-5.112-.538-1.615,2.105-3.376,8.921-6.648,0,0,3.443-1.817,5.4-3.048,9.842-6.2,13.2-9.72,16.065-16.043Z" transform="translate(63.925 48.708)" fill="#263238"/>
            <path id="Trazado_907044" data-name="Trazado 907044" d="M426.884,337.083c3.136-3.394,3.737-6.669,3.311-12.969s-5.381-61.207-6.659-74.953c-2.143-23.091.179-88.7,2.1-104.714l59.878,4.751c4.457,11.182,7.73,24.95,7.027,46.549-.534,16.474-.169,61.158-.169,61.158s7.492,6.571,12.84,19.541c4.726,11.459,10.155,51.047,10.155,51.047a35.624,35.624,0,0,0,1.8,5.02,9.749,9.749,0,0,1,2.211,5.779,97.094,97.094,0,0,1-2.174,20.36c-.747,3.46-2.9,5.686-6.347,7.059a5.431,5.431,0,0,1-2.409.4,1.8,1.8,0,0,1-1.165-.435c-.581-.585-.05-1.971.06-2.665a26.458,26.458,0,0,0,.31-3.383c.067-2.225,0-4.938-.146-7.157a73.021,73.021,0,0,0-2.381-14.754s-.473-1.133-1.193-2.853c0,0-26.635-53.9-34.2-67.037-6.017-10.311-10-50.324-14.257-72.2l-6.238,52.285s2.166,9.44,2.994,16.663c1.114,9.7-5.736,47.712-7.786,61.228a27.467,27.467,0,0,0-.092,7.571c-.723,5.858-5.109,7.662-9.645,10.977-2.256,1.648-12.173,7.682-18.162,8.9-4.871.988-6.731-.907-7.409-2.281,6.073-3.594,14.615-10.488,17.751-13.882" transform="translate(65.16 23.005)" fill="#ffa8a7"/>
            <path id="Trazado_907045" data-name="Trazado 907045" d="M472.609,129.768s5.4,6.615,13.811,23.263c5.646,11.18,6,52.205,6,52.205s-4.913,11.2-35.9,9.348l-2.307-13.919-1.981,13.592q-1.144-.106-2.331-.233c-26.707-2.876-31.7-8.924-31.7-8.924s1.927-47.627,7.736-74.664c9.033,6.381,35.829,7.895,46.67-.669" transform="translate(66.605 20.667)" fill="#455a64"/>
            <path id="Trazado_907046" data-name="Trazado 907046" d="M452.879,195.164l-5.926-23.06s-11.451-1.229-20.361-7.8c0,0,1.836,8.435,17.6,10.923l6.778,22.637-.07,10.892Z" transform="translate(67.941 26.168)" fill="#263238"/>
            <path id="Trazado_907047" data-name="Trazado 907047" d="M471.547,197.268c11.025-2.635,15.405-7.182,15.405-7.182v.007l.352,5.432s-4.913,11.2-35.9,9.348l-1.024-6.178a67.576,67.576,0,0,0,21.166-1.428" transform="translate(71.73 30.274)" fill="#37474f"/>
            <path id="Trazado_907048" data-name="Trazado 907048" d="M418.2,195.57s.1-2.207.3-5.959a71.782,71.782,0,0,0,16.838,6.164,109.394,109.394,0,0,0,17.828,2.546l-.933,6.406q-1.144-.106-2.33-.233c-26.708-2.876-31.7-8.924-31.7-8.924" transform="translate(66.605 30.198)" fill="#37474f"/>
            <path id="Trazado_907049" data-name="Trazado 907049" d="M420.007,98.189c5.976-9.257,17.893-18.069,21.761-21.137l20.373.156c2.81.144,6.959.489,8.463.728a13.488,13.488,0,0,1,3.856,1.28c4.688,2.509,5.169,7.152,5.325,12.665.181,6.047.209,8.7-1.454,18.693L475.3,123.3l-.466,1.955c-.082.336-.153.672-.235,1.018a20.9,20.9,0,0,0,1.792,14.469c5.151,9.86,10.312,17.529,12.029,25.81a21.246,21.246,0,0,1-6.845-4.717c-3.319-3.189-5.319-4.67-7.977-8.43-6.437,12.466-40.848,23.033-51.663,3.835,0,0,3.306-16.559,3.864-22.116-.84-4.806-3.344-13.137-3.406-14.975-6.851-6.177-6.74-15.222-2.386-21.958" transform="translate(66.406 12.272)" fill="#bfc9ff"/>
            <g id="Grupo_1119922" data-name="Grupo 1119922" transform="translate(499.659 125.099)" opacity="0.1">
              <g id="Grupo_1119921" data-name="Grupo 1119921">
                <g id="Grupo_1119920" data-name="Grupo 1119920" clip-path="url(#clip-path-8)">
                  <path id="Trazado_907050" data-name="Trazado 907050" d="M431.014,114.214s7.387,6.553,16.464,3.972a15.243,15.243,0,0,0,10.873-10.273s.287,10.231-11.129,12.974c-11.019,2.648-16.208-6.673-16.208-6.673" transform="translate(-431.014 -107.912)"/>
                </g>
              </g>
            </g>
            <path id="Trazado_907051" data-name="Trazado 907051" d="M421.727,56.132c1.022,15.319,4.587,19.5,8.507,20.608,2.614.742,7.3.425,11.961-.349V85.6s-5.382,5.658-4.98,9.877,8.46,4.7,14.507.567a45.986,45.986,0,0,0,8.939-8.092,3.277,3.277,0,0,0,.772-2.119V64.16s2.555,2.715,7.078-.392,4.9-8.874,2.142-12.144c-1.967-2.322-6.971-2.485-9.374,1.123-1.348,2.649-1.533,5.308-3.044,4.207-4.034-2.91-1.5-11.515-6.37-14.785-.01,0-5.467-3.545-7.316-4.188-8.689-3.008-14.251-1.543-16.067-7.495-6.1,2.352-7.884,8.741-6.755,25.646" transform="translate(67.116 4.855)" fill="#ffa8a7"/>
            <path id="Trazado_907052" data-name="Trazado 907052" d="M436.943,50.589a2.063,2.063,0,1,0,2.167-2.046,2.1,2.1,0,0,0-2.167,2.046" transform="translate(69.589 7.731)" fill="#263238"/>
            <path id="Trazado_907053" data-name="Trazado 907053" d="M423.966,50.108a1.978,1.978,0,0,0,1.84,2.113,1.866,1.866,0,0,0,2.043-1.929,1.945,1.945,0,1,0-3.882-.184" transform="translate(67.522 7.673)" fill="#263238"/>
            <path id="Trazado_907054" data-name="Trazado 907054" d="M433.222,48.177l-.34,12.912L426.1,58.983Z" transform="translate(67.863 7.673)" fill="#f28f8f"/>
            <path id="Trazado_907055" data-name="Trazado 907055" d="M439.343,71.123c4.923-.647,15.054-3.565,16.633-7.579a10.394,10.394,0,0,1-3.552,5.123c-3.027,2.6-13.081,5.53-13.081,5.53Z" transform="translate(69.972 10.12)" fill="#f28f8f"/>
            <path id="Trazado_907056" data-name="Trazado 907056" d="M438.331,44.518l4.824,2.11a2.771,2.771,0,0,0-1.411-3.56,2.563,2.563,0,0,0-3.413,1.45" transform="translate(69.811 6.825)" fill="#263238"/>
            <path id="Trazado_907057" data-name="Trazado 907057" d="M442.929,59.021l-9.485,3.307a4.9,4.9,0,0,0,6.284,3.236,5.048,5.048,0,0,0,3.2-6.543" transform="translate(69.032 9.4)" fill="#b16668"/>
            <path id="Trazado_907058" data-name="Trazado 907058" d="M441.21,61.174a4.282,4.282,0,0,0-4.275,4.244,5.652,5.652,0,0,0,2.237-.2,4.956,4.956,0,0,0,3.387-3.808,4.237,4.237,0,0,0-1.349-.239" transform="translate(69.588 9.743)" fill="#f28f8f"/>
            <path id="Trazado_907059" data-name="Trazado 907059" d="M433.071,21.967c-11.31,1.37-17.817,9.935-17.817,24.46H425.7A9.724,9.724,0,0,0,435.324,38l.384,8.43a7.735,7.735,0,0,0,7.7-7.072l.119-1.374a9.164,9.164,0,0,0,9.126,8.445h.925l1.07-15.113Z" transform="translate(66.135 3.499)" fill="#263238"/>
            <path id="Trazado_907060" data-name="Trazado 907060" d="M449.1,242.55c0-38.593-23.407-83.427-52.281-100.137-13.243-7.665-25.641-8.488-34.852-2.971l-22.113,12.984,6.326,13.119a78.184,78.184,0,0,0-1.642,16.488c0,38.593,23.407,83.426,52.281,100.137a54.552,54.552,0,0,0,6.02,3.009l5.971,12.609L430.741,285.1l-.008-.017c11.237-6.315,18.371-21.24,18.371-42.532" transform="translate(54.127 21.641)" fill="#bfc9ff"/>
            <path id="Trazado_907061" data-name="Trazado 907061" d="M324.315,193.072c0,38.673,23.455,83.6,52.388,100.346s52.391-1.029,52.391-39.7-23.457-83.6-52.391-100.346-52.388,1.029-52.388,39.7" transform="translate(51.652 23.423)" fill="#bfc9ff"/>
            <g id="Grupo_1119925" data-name="Grupo 1119925" transform="translate(463.351 212.397)" opacity="0.1">
              <g id="Grupo_1119924" data-name="Grupo 1119924">
                <g id="Grupo_1119923" data-name="Grupo 1119923" clip-path="url(#clip-path-9)">
                  <path id="Trazado_907062" data-name="Trazado 907062" d="M438.981,245.007c-.053.438-.108.874-.168,1.305-.124.9-.257,1.8-.41,2.667q-.376,2.161-.878,4.178c-.2.9-.444,1.779-.714,2.641-.125.425-.261.851-.4,1.267s-.281.842-.415,1.247c-.29.822-.6,1.616-.917,2.4-.154.378-.318.755-.482,1.133-.357.8-.723,1.586-1.129,2.35-.116.232-.241.474-.366.706-.607,1.122-1.254,2.2-1.939,3.211-.116.174-.232.339-.347.512-.087.116-.174.242-.261.358a30.07,30.07,0,0,1-5.76,6.122c-.163.136-.328.262-.492.387-.31.242-.618.465-.927.677-.376.262-.752.512-1.138.755-.337.213-.694.425-1.042.619l.01.02L399.694,290.01c8.944-5.562,15.109-16.792,16.875-32.451a84.751,84.751,0,0,0,.521-9.6c0-17.013-4.544-35.245-12.1-51.746l22.442-12.991c7.575,16.511,12.138,34.763,12.138,51.8a83.6,83.6,0,0,1-.541,9.543l.012-.007c-.019.155-.041.3-.059.458" transform="translate(-399.694 -183.217)"/>
                </g>
              </g>
            </g>
            <g id="Grupo_1119928" data-name="Grupo 1119928" transform="translate(463.351 273.729)" opacity="0.1">
              <g id="Grupo_1119927" data-name="Grupo 1119927">
                <g id="Grupo_1119926" data-name="Grupo 1119926" clip-path="url(#clip-path-10)">
                  <path id="Trazado_907063" data-name="Trazado 907063" d="M439.041,236.123c-.174,1.519-.386,3-.636,4.43s-.541,2.834-.879,4.179c-.221.9-.463,1.779-.714,2.64-.125.425-.26.852-.4,1.267s-.279.842-.415,1.249c-.289.822-.6,1.615-.916,2.4-.155.377-.319.755-.483,1.131-.357.8-.723,1.586-1.128,2.351-.116.232-.241.473-.367.706-.607,1.121-1.254,2.2-1.939,3.211q-.289.449-.607.871a30.13,30.13,0,0,1-5.76,6.122c-.163.136-.328.261-.492.387-.308.241-.618.464-.926.677-.377.261-.754.512-1.138.755-.339.212-.7.425-1.042.619l.009.019-21.516,12.448c8.944-5.561,15.11-16.791,16.875-32.45Z" transform="translate(-399.694 -236.123)"/>
                </g>
              </g>
            </g>
            <g id="Grupo_1119931" data-name="Grupo 1119931" transform="translate(394.065 157.521)" opacity="0.4">
              <g id="Grupo_1119930" data-name="Grupo 1119930">
                <g id="Grupo_1119929" data-name="Grupo 1119929" clip-path="url(#clip-path-11)">
                  <path id="Trazado_907064" data-name="Trazado 907064" d="M436.952,190.756l-22.442,12.99c-9.6-21-24.093-39.22-40.293-48.593-13.111-7.593-25.105-8.1-34.29-2.766l22.036-12.942c9.2-5.523,21.6-4.7,34.851,2.969,16.122,9.334,30.547,27.45,40.137,48.342" transform="translate(-339.927 -135.88)" fill="#fff"/>
                </g>
              </g>
            </g>
            <path id="Trazado_907065" data-name="Trazado 907065" d="M340.163,201.681l16.34-9.5a2.415,2.415,0,0,1,2.433.238l-16.342,9.5a2.408,2.408,0,0,0-2.431-.238" transform="translate(54.176 30.572)" fill="#c71e57"/>
            <path id="Trazado_907066" data-name="Trazado 907066" d="M393.182,225.773l-16.341,9.5a2.4,2.4,0,0,0,1-2.2l16.341-9.5a2.4,2.4,0,0,1-1,2.2" transform="translate(60.018 35.607)" fill="#c71e57"/>
            <path id="Trazado_907067" data-name="Trazado 907067" d="M377.728,225.724l16.341-9.5-.024,8.514-16.341,9.5Z" transform="translate(60.155 34.437)" fill="#ae1a44"/>
            <path id="Trazado_907068" data-name="Trazado 907068" d="M342.261,201.854l16.341-9.5,37.7,21.769-16.341,9.5Z" transform="translate(54.51 30.636)" fill="#ae1a44"/>
            <path id="Trazado_907069" data-name="Trazado 907069" d="M374.784,220.632l16.341-9.5a7.518,7.518,0,0,1,3.408,5.9l-16.341,9.5a7.517,7.517,0,0,0-3.408-5.9" transform="translate(59.69 33.626)" fill="#c71e57"/>
            <path id="Trazado_907070" data-name="Trazado 907070" d="M380.439,222.382a7.517,7.517,0,0,1,3.408,5.9l-.024,8.514c-.006,2.177-1.543,3.054-3.43,1.964l-37.7-21.768a7.518,7.518,0,0,1-3.409-5.912l.024-8.514c.007-2.169,1.543-3.044,3.431-1.954Z" transform="translate(54.035 31.876)" fill="#d73577"/>
            <path id="Trazado_907071" data-name="Trazado 907071" d="M409.513,169.746a26.574,26.574,0,0,0-6.333.6c-4.31.794-8.456,1.342-12.7-.235-2.448-.911-5.338-2.9-5.793-5.733-.439-2.737,2.63-3.747,4.551-4.772a54.641,54.641,0,0,1,8.186-3.666,26.026,26.026,0,0,1,14.762-.752c2.518.595,5.889,1.4,8.371.228,1.683-.8,3.321-1.756,4.978-2.613l12.947-6.688,17.834-9.214,8.211-35.365s1.908-14.527,9.989-23.861c6.139.551,12.124,2.665,13.5,6.461s.417,9.005-1.287,16.93-10.554,33.655-13.995,42.8c-1.579,4.2-2.359,5.966-7.909,8.385q-12.369,5.4-24.791,10.668-6.437,2.735-12.892,5.429c-2.715,1.129-5.453,2.423-8.435,2.563-3.111.147-6.112-.989-9.2-1.167" transform="translate(61.261 12.371)" fill="#ffa8a7"/>
          </g>
        </g>
        <g id="Grupo_1119944" data-name="Grupo 1119944">
          <g id="Grupo_1119943" data-name="Grupo 1119943" clip-path="url(#clip-path-2)">
            <path id="Trazado_907072" data-name="Trazado 907072" d="M120.1,93.294s22.921,14.186,24.969,15.328,6.254,5.178,10.566-.14c3.455-4.263,27.072-40.574,27.072-40.574l-12.514-6.033-22,27L115.03,65.281Z" transform="translate(18.32 9.854)" fill="#ffa8a7"/>
            <path id="Trazado_907073" data-name="Trazado 907073" d="M122.377,67.522c7.447,5.851,20.123,15.316,20.123,15.316a33.912,33.912,0,0,1-9.647,19.129l-12.939-7.979L103.858,61.445s8.419-1.858,18.519,6.077" transform="translate(16.541 9.756)" fill="#37474f"/>
            <path id="Trazado_907074" data-name="Trazado 907074" d="M128.708,153.232c0-38.939,23.675-84.172,52.876-101.032,13.4-7.733,25.934-8.565,35.252-3L239.2,62.3l-6.4,13.236a78.668,78.668,0,0,1,1.661,16.635c0,38.939-23.675,84.173-52.879,101.033a55.5,55.5,0,0,1-6.088,3.036l-6.039,12.721-22.177-12.8.008-.017c-11.365-6.369-18.581-21.429-18.581-42.911" transform="translate(20.499 7.264)" fill="#bfc9ff"/>
            <path id="Trazado_907075" data-name="Trazado 907075" d="M254.3,103.311c0,39.019-23.723,84.347-52.988,101.242s-52.988-1.038-52.988-40.057,23.723-84.347,52.988-101.242S254.3,64.291,254.3,103.311" transform="translate(23.623 9.061)" fill="#bfc9ff"/>
            <g id="Grupo_1119936" data-name="Grupo 1119936" transform="translate(149.209 108.238)" opacity="0.1">
              <g id="Grupo_1119935" data-name="Grupo 1119935">
                <g id="Grupo_1119934" data-name="Grupo 1119934" clip-path="url(#clip-path-13)">
                  <path id="Trazado_907076" data-name="Trazado 907076" d="M129.306,155.71c.053.443.109.881.17,1.317.125.911.26,1.813.414,2.691q.381,2.182.888,4.216c.205.908.45,1.8.722,2.664.128.429.263.859.4,1.279s.284.849.42,1.259c.293.829.605,1.63.927,2.419.157.381.322.762.488,1.142.362.81.731,1.6,1.142,2.372.117.234.243.478.371.713.614,1.131,1.268,2.214,1.961,3.239.117.176.234.342.351.517.088.117.176.245.263.362a30.423,30.423,0,0,0,5.826,6.178c.166.136.332.263.5.39.312.245.625.468.937.683.38.264.762.518,1.152.762.341.214.7.43,1.054.625l-.01.02,21.763,12.559c-9.047-5.612-15.283-16.941-17.069-32.741a85.145,85.145,0,0,1-.526-9.69c0-17.165,4.6-35.56,12.237-52.209l-22.7-13.107c-7.662,16.659-12.277,35.074-12.277,52.259a84.234,84.234,0,0,0,.547,9.628l-.01-.006c.017.155.041.306.059.461" transform="translate(-128.71 -93.368)"/>
                </g>
              </g>
            </g>
            <g id="Grupo_1119939" data-name="Grupo 1119939" transform="translate(149.746 170.119)" opacity="0.1">
              <g id="Grupo_1119938" data-name="Grupo 1119938">
                <g id="Grupo_1119937" data-name="Grupo 1119937" clip-path="url(#clip-path-14)">
                  <path id="Trazado_907077" data-name="Trazado 907077" d="M129.173,146.747c.176,1.533.391,3.026.645,4.469s.546,2.86.888,4.216c.224.908.468,1.8.722,2.664.126.43.263.859.4,1.279s.283.849.42,1.259c.292.829.605,1.63.926,2.421.157.38.322.76.488,1.141.362.81.733,1.6,1.142,2.372.117.234.245.479.371.713.616,1.131,1.269,2.214,1.961,3.239q.294.454.614.879a30.423,30.423,0,0,0,5.826,6.178c.166.136.332.263.5.39.313.245.625.468.938.684.38.263.76.517,1.151.76.342.214.7.43,1.054.625l-.009.02,21.762,12.559c-9.047-5.612-15.283-16.941-17.068-32.741Z" transform="translate(-129.173 -146.747)"/>
                </g>
              </g>
            </g>
            <g id="Grupo_1119942" data-name="Grupo 1119942" transform="translate(161.486 52.872)" opacity="0.4">
              <g id="Grupo_1119941" data-name="Grupo 1119941">
                <g id="Grupo_1119940" data-name="Grupo 1119940" clip-path="url(#clip-path-15)">
                  <path id="Trazado_907078" data-name="Trazado 907078" d="M139.3,100.975,162,114.08c9.71-21.186,24.368-39.571,40.753-49.028,13.262-7.66,25.393-8.168,34.683-2.79L215.145,49.2c-9.31-5.571-21.85-4.743-35.249,3C163.589,61.617,149,79.9,139.3,100.975" transform="translate(-139.3 -45.608)" fill="#fff"/>
                </g>
              </g>
            </g>
            <path id="Trazado_907079" data-name="Trazado 907079" d="M200.518,161.431l-16.341-9.5a2.591,2.591,0,0,1-1.08-2.373l16.341,9.5a2.591,2.591,0,0,0,1.08,2.373" transform="translate(29.161 23.82)" fill="#6c5ed5"/>
            <path id="Trazado_907080" data-name="Trazado 907080" d="M212.681,102.7l16.341,9.5a2.61,2.61,0,0,0-2.633.256l-16.341-9.5a2.611,2.611,0,0,1,2.633-.257" transform="translate(33.453 16.317)" fill="#6c5ed5"/>
            <path id="Trazado_907081" data-name="Trazado 907081" d="M199.445,161.381l-16.341-9.5-.048-16.908,16.341,9.5Z" transform="translate(29.154 21.497)" fill="#5e57bb"/>
            <path id="Trazado_907082" data-name="Trazado 907082" d="M213.7,120.879l-16.341-9.5,14.715-8.5,16.341,9.5Z" transform="translate(31.432 16.386)" fill="#5e57bb"/>
            <path id="Trazado_907083" data-name="Trazado 907083" d="M184.587,152.345l-16.341-9.5a2.588,2.588,0,0,1-1.079-2.373l16.34,9.5a2.591,2.591,0,0,0,1.08,2.373" transform="translate(26.624 22.373)" fill="#6c5ed5"/>
            <path id="Trazado_907084" data-name="Trazado 907084" d="M196.745,93.618l16.341,9.5a2.608,2.608,0,0,0-2.633.257l-16.341-9.5a2.611,2.611,0,0,1,2.633-.257" transform="translate(30.915 14.87)" fill="#5e57bb"/>
            <path id="Trazado_907085" data-name="Trazado 907085" d="M183.512,151.428l-16.341-9.5-.03-10.6,16.341,9.5Z" transform="translate(26.62 20.917)" fill="#5e57bb"/>
            <path id="Trazado_907086" data-name="Trazado 907086" d="M186.664,136.486l-16.341-9.5,14.706-8.49,16.341,9.5Z" transform="translate(27.126 18.873)" fill="#5e57bb"/>
            <path id="Trazado_907087" data-name="Trazado 907087" d="M199.357,130.318l-16.341-9.5-.048-16.908,16.341,9.5Z" transform="translate(29.14 16.55)" fill="#6c5ed5"/>
            <path id="Trazado_907088" data-name="Trazado 907088" d="M202.491,108.631l-16.341-9.5,9.23-5.328,16.341,9.5Z" transform="translate(29.647 14.94)" fill="#6c5ed5"/>
            <path id="Trazado_907089" data-name="Trazado 907089" d="M183.482,141.708l-16.341-9.5a8.133,8.133,0,0,1,3.689-6.389l16.341,9.5a8.132,8.132,0,0,0-3.689,6.389" transform="translate(26.62 20.039)" fill="#6c5ed5"/>
            <path id="Trazado_907090" data-name="Trazado 907090" d="M212.5,102.067c2.043-1.179,3.706-.231,3.713,2.117l.048,16.908,14.715-8.5c2.043-1.178,3.706-.231,3.712,2.117l.03,10.6a8.134,8.134,0,0,1-3.688,6.39l-14.715,8.494.048,16.909a8.133,8.133,0,0,1-3.689,6.389l-9.229,5.329c-2.044,1.179-3.706.23-3.713-2.117l-.048-16.907-14.708,8.49c-2.043,1.179-3.706.232-3.713-2.117l-.029-10.6a8.138,8.138,0,0,1,3.688-6.391l14.708-8.489-.049-16.909a8.134,8.134,0,0,1,3.689-6.388Z" transform="translate(28.865 16.175)" fill="#7e72ed"/>
            <path id="Trazado_907091" data-name="Trazado 907091" d="M199.309,114.287l-16.341-9.5a8.132,8.132,0,0,1,3.689-6.389L203,107.9a8.131,8.131,0,0,0-3.689,6.388" transform="translate(29.14 15.672)" fill="#5e57bb"/>
            <path id="Trazado_907092" data-name="Trazado 907092" d="M68.8,335.51c-.414,1.641-1.286,6.291-9.93,6.291s-13.605-3.543-15.3-7.936-.725-7.649-.567-11.478-2.691-6.273-3.32-8.342C38.756,311,41.3,306.8,41.3,306.8Z" transform="translate(6.288 48.862)" fill="#263238"/>
            <path id="Trazado_907093" data-name="Trazado 907093" d="M143.1,307.828c.319.235.509,2.929-.4,4.164-.627.85-6.429,5.061-13.588,4.184a33.063,33.063,0,0,1-14.741-5.149c-4.185-2.468-7.075-2.825-11.334-2.811-4.124.013-7.172-.791-7.525-1.861-.619-1.878-.664-3.081.24-3.055Z" transform="translate(15.139 48.305)" fill="#263238"/>
            <path id="Trazado_907094" data-name="Trazado 907094" d="M43.661,303.163c-.147,4.45,13.457,8.312,13.125,2.652l4.69-16.427-15.211-1.613Z" transform="translate(6.953 45.833)" fill="#ffa8a7"/>
            <path id="Trazado_907095" data-name="Trazado 907095" d="M98.624,295.6c4.268,3.067,8.212,3.447,13.23.927l2.527-26.889H95.914Z" transform="translate(15.276 42.944)" fill="#ffa8a7"/>
            <path id="Trazado_907096" data-name="Trazado 907096" d="M67.181,138.045c-3.536,32.447-9.828,97.987-9.828,97.987s-5.566,8.487-7.638,24.139c-2.561,19.327-5.1,59.67-5.1,59.67a17.865,17.865,0,0,0,15.045,1.542s21.691-59.223,25.7-78.252c3.5-16.606,9.7-50.712,9.7-50.712l7.755,46.413a72.576,72.576,0,0,0-2.5,22.621c.373,8.939,4.571,42.761,4.571,42.761,1.251,3.7,12.853,3.44,16.588,1.06,0,0,5.941-56.863,6.725-66.253,1.032-12.352,2.941-100.975,2.941-100.975Z" transform="translate(7.106 21.986)" fill="#37474f"/>
            <path id="Trazado_907097" data-name="Trazado 907097" d="M88.137,188.755l4.33-19.958s9.676-2.208,16.588-7.752c0,0-2.534,6.368-13.132,11.241l-4.421,18.7,3.8,41.011Z" transform="translate(14.037 25.649)" fill="#263238"/>
            <path id="Trazado_907098" data-name="Trazado 907098" d="M57.394,303.966l.489-1.713c.568.565.479,1.05.5,2.59.014,1.207.019,2.382.165,3.992a36.073,36.073,0,0,0,1.151,6.232c1.116,4.738,2.376,6.634,5.708,12.488.791,1.389,2.7,3.7,3.262,5.194s.735,4.236-1.034,5.284c-5.057,2.991-12.86,2.175-17.812-.152a10.6,10.6,0,0,1-6.217-9.636c-.007-1.208.25-2.4.3-3.611a17.136,17.136,0,0,0-2.048-7.929,22.79,22.79,0,0,1-1.828-4.427c-.665-2.8.655-5.621,1.749-8.132.944-2.17,2.047-5.065,2.787-4.732-.041.276-.291,1.9-.291,1.9.769,1.174,3.18,2.594,6.061,3.157,1.861.363,6.858.926,7.065-.5" transform="translate(6.346 47.682)" fill="#455a64"/>
            <path id="Trazado_907099" data-name="Trazado 907099" d="M112.555,288.069c.661.017,1.332.519,2.5,2.228a20.593,20.593,0,0,0,6.114,5.864c4.354,3.063,11.229,6.151,18.3,8.8,3.852,1.441,4.585,4.222,3.311,6.714-1.994,2-8.79,6.654-19.952,3.253-6.927-2.11-9.362-5.664-14.31-6.291-3.5-.444-9.572.517-13.146-2.375-1.126-2.7-.224-5.417.136-9.172.349-3.659,1.559-9.746,2.749-9.511l.207,1.985c.952,4.341,10.942,4.769,13.769,1.931Z" transform="translate(15.102 45.799)" fill="#455a64"/>
            <path id="Trazado_907100" data-name="Trazado 907100" d="M89.539,60.286c-9.483,0-16.36.526-22.491,1.842-4.792,1.028-6.31,9.084-6.628,14.444-1.032,17.448,6.708,49.87,6.708,49.87l-3.586,30.083c8.132,8.7,44.494,13.235,65.268.488,0,0,.559-59.287,0-69.283-.983-17.591-8.521-26.019-15.009-26.515,0,0-14.779-.93-24.262-.93" transform="translate(9.608 9.601)" fill="#bfc9ff"/>
            <path id="Trazado_907101" data-name="Trazado 907101" d="M79.113,14.245s-4.97.692-6.792,4.438c-1.585,3.258-1.011,11.123,1.1,19.694s4.1,13.736,5.344,16.107a6.545,6.545,0,0,0,3.794,3.04l-.248-10.171-.367-7.087s4.549-6.211,5.049-11.3c.643-6.552-.736-9.234-.736-9.234Z" transform="translate(11.374 2.269)" fill="#37474f"/>
            <path id="Trazado_907102" data-name="Trazado 907102" d="M84.977,25.352A18.992,18.992,0,1,0,103.907,6.3a18.991,18.991,0,0,0-18.93,19.053" transform="translate(13.534 1.003)" fill="#37474f"/>
            <path id="Trazado_907103" data-name="Trazado 907103" d="M82.6,39.107c-1.709,1.483-3.1-2.354-4.539-3.849s-6.124-3.53-8.443,1.4c-2.363,5.02,2.147,11.84,5.649,13.464C80.4,52.5,82.7,47.325,82.7,47.325l.546,21.392c8.776,13.3,29.179,10.6,20.669.836l-.041-6.969s5.756.854,8.56.412c4.667-.737,7.106-4.258,8.507-9.317,2.249-8.125,2.192-20.485-.932-36.262-5.228-4.042-22.395-4.668-33.364,2.285.8,13.992-2.336,17.923-4.045,19.406" transform="translate(10.984 2.295)" fill="#ffa8a7"/>
            <path id="Trazado_907104" data-name="Trazado 907104" d="M122.362,7.244a.862.862,0,0,0-.679-.524,1.115,1.115,0,0,0-.639.278,30.029,30.029,0,0,1-4.157,2.8,14.986,14.986,0,0,0,.072-5.672c-.206-1.151-.532-3.815-1.956-4.1-.849-.169-1.587.539-2.219,1.13C107.077,6.5,99.627,4.025,92.75,4.244,87,4.427,80.062,6.768,77.466,12.359c-1.187,2.557-1.392,5.254.956,7.022A16.188,16.188,0,0,0,85.431,22c11.455,1.994,26.876,5.919,35.345-4.76a10,10,0,0,0,2.309-5.282,8.425,8.425,0,0,0-.69-4.643c-.01-.022-.022-.045-.034-.067" transform="translate(12.2 0)" fill="#263238"/>
            <path id="Trazado_907105" data-name="Trazado 907105" d="M101.709,57.2S91.279,55.13,87.628,53.2a12.006,12.006,0,0,1-5.053-4.967,16.428,16.428,0,0,0,2.881,5.869c2.676,3.4,16.262,5.862,16.262,5.862Z" transform="translate(13.151 7.682)" fill="#f28f8f"/>
            <path id="Trazado_907106" data-name="Trazado 907106" d="M97.322,33.846a2.091,2.091,0,1,1-2.1-2.169,2.125,2.125,0,0,1,2.1,2.169" transform="translate(14.835 5.045)" fill="#263238"/>
            <path id="Trazado_907107" data-name="Trazado 907107" d="M95.469,26.943l-4.461,2.481a2.679,2.679,0,0,1,1.031-3.561,2.49,2.49,0,0,1,3.43,1.08" transform="translate(14.446 4.069)" fill="#263238"/>
            <path id="Trazado_907108" data-name="Trazado 907108" d="M95.832,43.244,106.5,47.208a5.591,5.591,0,0,1-7.227,3.555,5.96,5.96,0,0,1-3.442-7.519" transform="translate(15.211 6.887)" fill="#b16668"/>
            <path id="Trazado_907109" data-name="Trazado 907109" d="M113.358,28.77l-4.084-3.125a2.467,2.467,0,0,1,3.539-.554,2.7,2.7,0,0,1,.545,3.68" transform="translate(17.404 3.914)" fill="#263238"/>
            <path id="Trazado_907110" data-name="Trazado 907110" d="M112.3,33.285a2.091,2.091,0,1,1-2.1-2.17,2.123,2.123,0,0,1,2.1,2.17" transform="translate(17.221 4.956)" fill="#263238"/>
            <path id="Trazado_907111" data-name="Trazado 907111" d="M102.546,31.308l.727,12.558,6.551-2.256Z" transform="translate(16.332 4.986)" fill="#f28f8f"/>
            <path id="Trazado_907112" data-name="Trazado 907112" d="M99.25,50.34a5.407,5.407,0,0,0,3.062.2,4.836,4.836,0,0,0-6.652-4.287,5.819,5.819,0,0,0,3.59,4.085" transform="translate(15.235 7.31)" fill="#f28f8f"/>
            <path id="Trazado_907113" data-name="Trazado 907113" d="M78.007,145.4c-5.133-1.72-7.145-2.737-9.592-10.487C61.9,114.29,56.009,97.285,54.76,86.945c-2.416-19.992,5.62-21.816,11.688-24L74.8,83.225l12.279,44.2c9.878,4.445,26.052,7.73,37.624,11.324a30.242,30.242,0,0,0,7.751.748c4.037-.392,6.52-.867,8.773-.471-.227,1.651-.313,3.217-.435,4.693a67.068,67.068,0,0,0,11.771-1.079c8.415-1.568,11.428,1.225,4.513,9.685-3.908,4.781-11.578,6.629-22.767,5.443a111.533,111.533,0,0,1-17.114-3.581c-14.636-3.933-31.126-6.079-39.184-8.779" transform="translate(8.651 10.025)" fill="#ffa8a7"/>
            <path id="Trazado_907114" data-name="Trazado 907114" d="M68.263,61.875C55.946,63.228,50.777,74.092,53.341,86.8c1.815,9,5.371,21.42,8.25,30.479,0,0,15-.146,22.2-7.034-2.712-8.9-3.157-10.775-5.552-19.209-.908-16.932-4.41-25.148-9.978-29.162" transform="translate(8.393 9.855)" fill="#37474f"/>
            <path id="Trazado_907115" data-name="Trazado 907115" d="M166.048,58.73c1.363-1.131,2.907-2.308,4.666-3.552,0,0,5,.468,11.076,5.287,3.85,3.051,15.44,2.833,13.787-2.5-2.324-7.5-10.425-10.235-14.079-11.023-6.033-1.3-16.787,3.926-15.45,11.786" transform="translate(26.427 7.445)" fill="#ffa8a7"/>
          </g>
        </g>
      </g>
    </g>
    <path id="Trazado_611088" data-name="Trazado 611088" d="M7.627,0H206.763c4.212,0,7.627,4.029,7.627,9V28c0,4.971-3.414,9-7.627,9H7.627C3.415,37,0,32.971,0,28V9C0,4.029,3.415,0,7.627,0Z" transform="translate(323.711 9868)" fill="#4c5066"/>
    <path id="Trazado_907921" data-name="Trazado 907921" d="M25.269,12.065a4.364,4.364,0,0,1-1.428,3.017,4.867,4.867,0,0,1-3.312,1.083,4.713,4.713,0,0,1-2.544-.685,4.5,4.5,0,0,1-1.7-1.947,7.024,7.024,0,0,1-.623-2.93V9.476a7.075,7.075,0,0,1,.606-3.013A4.567,4.567,0,0,1,18.01,4.454a4.851,4.851,0,0,1,2.619-.706,4.672,4.672,0,0,1,3.221,1.083A4.527,4.527,0,0,1,25.269,7.9H23.177a2.985,2.985,0,0,0-.76-1.88,2.51,2.51,0,0,0-1.789-.577,2.452,2.452,0,0,0-2.1,1,5,5,0,0,0-.751,2.937v1.072a5.308,5.308,0,0,0,.7,2.991,2.328,2.328,0,0,0,2.054,1.03,2.715,2.715,0,0,0,1.859-.556,2.9,2.9,0,0,0,.789-1.851Zm11.1,0a4.364,4.364,0,0,1-1.428,3.017,4.867,4.867,0,0,1-3.312,1.083,4.713,4.713,0,0,1-2.544-.685,4.5,4.5,0,0,1-1.7-1.947,7.024,7.024,0,0,1-.623-2.93V9.476a7.075,7.075,0,0,1,.606-3.013,4.567,4.567,0,0,1,1.739-2.009,4.851,4.851,0,0,1,2.619-.706,4.672,4.672,0,0,1,3.221,1.083A4.527,4.527,0,0,1,36.367,7.9H34.275a2.985,2.985,0,0,0-.76-1.88,2.51,2.51,0,0,0-1.789-.577,2.452,2.452,0,0,0-2.1,1,5,5,0,0,0-.751,2.937v1.072a5.308,5.308,0,0,0,.7,2.991,2.328,2.328,0,0,0,2.054,1.03,2.715,2.715,0,0,0,1.859-.556,2.9,2.9,0,0,0,.789-1.851Zm8.94-1.461H40.343v3.719h5.8V16h-7.9V3.914h7.844V5.607H40.343V8.944h4.964Zm14.452,1a5.348,5.348,0,0,1-.946,3.324,3.287,3.287,0,0,1-4.906.27v4.258H51.889V7.019h1.859l.083.913a2.963,2.963,0,0,1,2.416-1.079,3.062,3.062,0,0,1,2.577,1.224,5.49,5.49,0,0,1,.934,3.4Zm-2.009-.174a3.746,3.746,0,0,0-.535-2.133A1.741,1.741,0,0,0,55.683,8.5a1.856,1.856,0,0,0-1.776,1.021V13.51A1.873,1.873,0,0,0,55.7,14.556a1.739,1.739,0,0,0,1.507-.776A4.124,4.124,0,0,0,57.75,11.426Zm3.337,0a5.3,5.3,0,0,1,.523-2.378,3.819,3.819,0,0,1,1.469-1.627,4.14,4.14,0,0,1,2.175-.569A3.923,3.923,0,0,1,68.2,8.023a4.6,4.6,0,0,1,1.224,3.1l.008.473a5.343,5.343,0,0,1-.51,2.374,3.773,3.773,0,0,1-1.461,1.619,4.17,4.17,0,0,1-2.2.573A3.9,3.9,0,0,1,62.228,14.9a4.848,4.848,0,0,1-1.141-3.374ZM63.1,11.6a3.619,3.619,0,0,0,.573,2.171,1.862,1.862,0,0,0,1.594.784,1.842,1.842,0,0,0,1.59-.8,4,4,0,0,0,.569-2.333,3.572,3.572,0,0,0-.585-2.158,1.973,1.973,0,0,0-3.158-.012A3.922,3.922,0,0,0,63.1,11.6ZM76.177,13.56a.914.914,0,0,0-.444-.822,4.723,4.723,0,0,0-1.473-.5,7.574,7.574,0,0,1-1.718-.548,2.293,2.293,0,0,1-1.511-2.117,2.391,2.391,0,0,1,.979-1.942,3.872,3.872,0,0,1,2.49-.78,4.029,4.029,0,0,1,2.6.8,2.529,2.529,0,0,1,.992,2.067H76.078a1.243,1.243,0,0,0-.432-.967A1.654,1.654,0,0,0,74.5,8.363a1.787,1.787,0,0,0-1.083.307A.968.968,0,0,0,73,9.492a.818.818,0,0,0,.39.722,5.365,5.365,0,0,0,1.577.519,7.466,7.466,0,0,1,1.864.623,2.639,2.639,0,0,1,1,.867,2.212,2.212,0,0,1,.328,1.229,2.34,2.34,0,0,1-1,1.963,4.283,4.283,0,0,1-2.631.751,4.644,4.644,0,0,1-1.967-.4,3.238,3.238,0,0,1-1.345-1.1,2.594,2.594,0,0,1-.481-1.5h1.959a1.421,1.421,0,0,0,.54,1.1,2.1,2.1,0,0,0,1.32.386,2.04,2.04,0,0,0,1.212-.3A.938.938,0,0,0,76.177,13.56ZM82.063,16H80.046V7.019h2.017ZM79.921,4.686a1.071,1.071,0,0,1,.295-.772,1.113,1.113,0,0,1,.843-.307,1.127,1.127,0,0,1,.847.307,1.062,1.062,0,0,1,.3.772,1.038,1.038,0,0,1-.3.76,1.136,1.136,0,0,1-.847.3,1.122,1.122,0,0,1-.843-.3A1.046,1.046,0,0,1,79.921,4.686Zm6.865.149V7.019h1.585V8.513H86.786v5.014a1.1,1.1,0,0,0,.2.743.943.943,0,0,0,.726.228,3.107,3.107,0,0,0,.706-.083v1.561a4.968,4.968,0,0,1-1.328.191q-2.324,0-2.324-2.565V8.513H83.291V7.019h1.478V4.835ZM92.057,16H90.04V7.019h2.017ZM89.915,4.686a1.071,1.071,0,0,1,.295-.772,1.113,1.113,0,0,1,.843-.307,1.127,1.127,0,0,1,.847.307,1.062,1.062,0,0,1,.3.772,1.038,1.038,0,0,1-.3.76,1.136,1.136,0,0,1-.847.3,1.122,1.122,0,0,1-.843-.3A1.046,1.046,0,0,1,89.915,4.686Zm7.5,8.757,1.9-6.425H101.4L98.291,16H96.539L93.4,7.019h2.092Zm4.74-2.017a5.3,5.3,0,0,1,.523-2.378,3.819,3.819,0,0,1,1.469-1.627,4.14,4.14,0,0,1,2.175-.569,3.923,3.923,0,0,1,2.951,1.17,4.6,4.6,0,0,1,1.224,3.1l.008.473a5.343,5.343,0,0,1-.51,2.374,3.773,3.773,0,0,1-1.461,1.619,4.17,4.17,0,0,1-2.2.573A3.9,3.9,0,0,1,103.3,14.9a4.848,4.848,0,0,1-1.141-3.374Zm2.017.174a3.619,3.619,0,0,0,.573,2.171,1.862,1.862,0,0,0,1.594.784,1.842,1.842,0,0,0,1.59-.8,4,4,0,0,0,.569-2.333,3.572,3.572,0,0,0-.585-2.158,1.973,1.973,0,0,0-3.158-.012A3.922,3.922,0,0,0,104.176,11.6Z" transform="translate(367.711 9875)" fill="#fff"/>
    <path id="Trazado_907116" data-name="Trazado 907116" d="M7.627,0H206.763c4.212,0,7.627,4.029,7.627,9V28c0,4.971-3.414,9-7.627,9H7.627C3.415,37,0,32.971,0,28V9C0,4.029,3.415,0,7.627,0Z" transform="translate(1063.711 9950)" fill="#4c5066"/>
    <path id="Trazado_907922" data-name="Trazado 907922" d="M22.745,12.065a4.364,4.364,0,0,1-1.428,3.017,4.867,4.867,0,0,1-3.312,1.083,4.713,4.713,0,0,1-2.544-.685,4.5,4.5,0,0,1-1.7-1.947,7.024,7.024,0,0,1-.623-2.93V9.476a7.075,7.075,0,0,1,.606-3.013,4.567,4.567,0,0,1,1.739-2.009,4.851,4.851,0,0,1,2.619-.706,4.672,4.672,0,0,1,3.221,1.083A4.527,4.527,0,0,1,22.745,7.9H20.654a2.985,2.985,0,0,0-.76-1.88,2.51,2.51,0,0,0-1.789-.577,2.452,2.452,0,0,0-2.1,1A5,5,0,0,0,15.25,9.38v1.072a5.308,5.308,0,0,0,.7,2.991,2.328,2.328,0,0,0,2.054,1.03,2.715,2.715,0,0,0,1.859-.556,2.9,2.9,0,0,0,.789-1.851Zm11.1,0a4.364,4.364,0,0,1-1.428,3.017A4.867,4.867,0,0,1,29.1,16.166a4.713,4.713,0,0,1-2.544-.685,4.5,4.5,0,0,1-1.7-1.947,7.024,7.024,0,0,1-.623-2.93V9.476a7.075,7.075,0,0,1,.606-3.013,4.567,4.567,0,0,1,1.739-2.009A4.851,4.851,0,0,1,29.2,3.748a4.672,4.672,0,0,1,3.221,1.083A4.527,4.527,0,0,1,33.844,7.9H31.752a2.985,2.985,0,0,0-.76-1.88A2.51,2.51,0,0,0,29.2,5.441a2.452,2.452,0,0,0-2.1,1,5,5,0,0,0-.751,2.937v1.072a5.308,5.308,0,0,0,.7,2.991,2.328,2.328,0,0,0,2.054,1.03,2.715,2.715,0,0,0,1.859-.556,2.9,2.9,0,0,0,.789-1.851Zm8.94-1.461H37.82v3.719h5.8V16h-7.9V3.914h7.844V5.607H37.82V8.944h4.964Zm8.458-3.586L51.3,8.056a3.229,3.229,0,0,1,2.615-1.2q2.806,0,2.855,3.212V16H54.753V10.181a1.85,1.85,0,0,0-.369-1.266A1.554,1.554,0,0,0,53.176,8.5a1.944,1.944,0,0,0-1.818,1.1V16H49.341V7.019ZM62.78,16.166a4.173,4.173,0,0,1-3.109-1.208,4.381,4.381,0,0,1-1.191-3.217v-.249A5.389,5.389,0,0,1,59,9.09a3.949,3.949,0,0,1,1.457-1.648,3.851,3.851,0,0,1,2.092-.589,3.525,3.525,0,0,1,2.835,1.17,4.949,4.949,0,0,1,1,3.312v.813H60.514a2.7,2.7,0,0,0,.743,1.76,2.23,2.23,0,0,0,1.639.647,2.731,2.731,0,0,0,2.258-1.121l1.087,1.038a3.631,3.631,0,0,1-1.44,1.249A4.509,4.509,0,0,1,62.78,16.166Zm-.241-7.695a1.7,1.7,0,0,0-1.341.581,3.012,3.012,0,0,0-.652,1.619H64.39v-.149a2.452,2.452,0,0,0-.54-1.531A1.686,1.686,0,0,0,62.539,8.471Zm5.055,2.972A5.253,5.253,0,0,1,68.578,8.1a3.157,3.157,0,0,1,2.611-1.249A2.958,2.958,0,0,1,73.6,7.923l.091-.9h1.818v8.708a3.619,3.619,0,0,1-1.1,2.789,4.189,4.189,0,0,1-2.968,1.021,4.783,4.783,0,0,1-1.93-.411,3.429,3.429,0,0,1-1.432-1.075l.955-1.212a2.883,2.883,0,0,0,2.291,1.1,2.228,2.228,0,0,0,1.585-.544,2.084,2.084,0,0,0,.581-1.6v-.606a2.97,2.97,0,0,1-2.324.971,3.15,3.15,0,0,1-2.577-1.253A5.423,5.423,0,0,1,67.594,11.443Zm2.009.174a3.616,3.616,0,0,0,.552,2.129,1.775,1.775,0,0,0,1.531.776,1.941,1.941,0,0,0,1.81-1.046V9.525A1.913,1.913,0,0,0,71.7,8.5a1.782,1.782,0,0,0-1.548.789A4.049,4.049,0,0,0,69.6,11.617ZM82.951,16a3.113,3.113,0,0,1-.232-.838,3.393,3.393,0,0,1-4.565.232,2.47,2.47,0,0,1-.855-1.909,2.55,2.55,0,0,1,1.067-2.2,5.169,5.169,0,0,1,3.051-.768h1.237V9.924a1.573,1.573,0,0,0-.39-1.116,1.547,1.547,0,0,0-1.187-.419,1.777,1.777,0,0,0-1.129.344,1.066,1.066,0,0,0-.44.876H77.489a2.239,2.239,0,0,1,.49-1.382,3.263,3.263,0,0,1,1.332-1.009,4.68,4.68,0,0,1,1.88-.365,3.769,3.769,0,0,1,2.515.793,2.827,2.827,0,0,1,.963,2.229v4.051a4.591,4.591,0,0,0,.34,1.934V16Zm-2.216-1.453a2.294,2.294,0,0,0,1.125-.291,1.941,1.941,0,0,0,.793-.78V11.783H81.565a2.973,2.973,0,0,0-1.685.39,1.264,1.264,0,0,0-.564,1.1,1.179,1.179,0,0,0,.386.926A1.5,1.5,0,0,0,80.735,14.547Zm8.575-9.712V7.019h1.585V8.513H89.309v5.014a1.1,1.1,0,0,0,.2.743.943.943,0,0,0,.726.228,3.107,3.107,0,0,0,.706-.083v1.561a4.968,4.968,0,0,1-1.328.191q-2.324,0-2.324-2.565V8.513H85.815V7.019h1.478V4.835ZM94.58,16H92.563V7.019H94.58ZM92.439,4.686a1.071,1.071,0,0,1,.295-.772,1.113,1.113,0,0,1,.843-.307,1.127,1.127,0,0,1,.847.307,1.062,1.062,0,0,1,.3.772,1.038,1.038,0,0,1-.3.76,1.136,1.136,0,0,1-.847.3,1.122,1.122,0,0,1-.843-.3A1.046,1.046,0,0,1,92.439,4.686Zm7.5,8.757,1.9-6.425h2.083L100.814,16H99.063L95.925,7.019h2.092Zm4.74-2.017a5.3,5.3,0,0,1,.523-2.378,3.819,3.819,0,0,1,1.469-1.627,4.14,4.14,0,0,1,2.175-.569,3.923,3.923,0,0,1,2.951,1.17,4.6,4.6,0,0,1,1.224,3.1l.008.473a5.343,5.343,0,0,1-.51,2.374,3.773,3.773,0,0,1-1.461,1.619,4.17,4.17,0,0,1-2.2.573,3.9,3.9,0,0,1-3.042-1.266,4.848,4.848,0,0,1-1.141-3.374Zm2.017.174a3.619,3.619,0,0,0,.573,2.171,1.862,1.862,0,0,0,1.594.784,1.842,1.842,0,0,0,1.59-.8,4,4,0,0,0,.569-2.333,3.572,3.572,0,0,0-.585-2.158,1.973,1.973,0,0,0-3.158-.012A3.922,3.922,0,0,0,106.7,11.6Z" transform="translate(1107.711 9957)" fill="#fff"/>
  </g>
</svg>
