<svg xmlns="http://www.w3.org/2000/svg" xmlns:xlink="http://www.w3.org/1999/xlink" width="291" height="190.747" viewBox="0 0 291 190.747">
  <defs>
    <clipPath id="clip-path">
      <rect id="Rectángulo_410206" data-name="Rectángulo 410206" width="257.806" height="190.747" fill="none"/>
    </clipPath>
    <clipPath id="clip-path-3">
      <rect id="Rectángulo_410187" data-name="Rectángulo 410187" width="34.594" height="34.595" fill="none"/>
    </clipPath>
    <clipPath id="clip-path-4">
      <rect id="Rectángulo_410189" data-name="Rectángulo 410189" width="257.806" height="29.464" fill="none"/>
    </clipPath>
    <clipPath id="clip-path-5">
      <rect id="Rectángulo_410203" data-name="Rectángulo 410203" width="36.152" height="16.688" fill="none"/>
    </clipPath>
    <clipPath id="clip-path-6">
      <rect id="Rectángulo_410204" data-name="Rectángulo 410204" width="4.16" height="9.556" fill="none"/>
    </clipPath>
  </defs>
  <g id="Grupo_1118954" data-name="Grupo 1118954" transform="translate(-915.289 -1354.274)">
    <rect id="Rectángulo_409117" data-name="Rectángulo 409117" width="291" height="184" transform="translate(915.289 1358)" fill="none"/>
    <g id="Grupo_1120585" data-name="Grupo 1120585" transform="translate(915.578 1354.274)">
      <g id="Grupo_1120584" data-name="Grupo 1120584" clip-path="url(#clip-path)">
        <g id="Grupo_1120583" data-name="Grupo 1120583">
          <g id="Grupo_1120582" data-name="Grupo 1120582" clip-path="url(#clip-path)">
            <path id="Trazado_907619" data-name="Trazado 907619" d="M56.117,77.165A15.867,15.867,0,1,0,73.4,91.48,15.867,15.867,0,0,0,56.117,77.165" transform="translate(-30.017 -55.453)" fill="#7b1fa2"/>
            <g id="Grupo_1120572" data-name="Grupo 1120572" transform="translate(10.286 20.213)" opacity="0.1">
              <g id="Grupo_1120571" data-name="Grupo 1120571">
                <g id="Grupo_1120570" data-name="Grupo 1120570" clip-path="url(#clip-path-3)">
                  <path id="Trazado_907620" data-name="Trazado 907620" d="M52.321,72.08a17.3,17.3,0,1,0,18.837,15.6,17.3,17.3,0,0,0-18.837-15.6m2.962,31.548A14.391,14.391,0,1,1,68.266,87.955a14.391,14.391,0,0,1-12.983,15.673" transform="translate(-36.641 -72.003)" fill="#272525"/>
                </g>
              </g>
            </g>
            <path id="Trazado_907621" data-name="Trazado 907621" d="M47.609,65.768a19.07,19.07,0,1,0,20.769,17.2,19.07,19.07,0,0,0-20.769-17.2m3.266,34.784A15.867,15.867,0,1,1,65.189,83.271a15.867,15.867,0,0,1-14.314,17.281" transform="translate(-21.808 -47.245)" fill="#bfc9ff"/>
            <path id="Trazado_907622" data-name="Trazado 907622" d="M78.6,116.054c-.205-.118-.266-.4-.333-.648a1.009,1.009,0,0,1,.824-1.3c.956-.2,2.009.446,2.923.786a5.5,5.5,0,0,0,2.43.3,3.474,3.474,0,0,0,2.181-.877,2.193,2.193,0,0,0,.687-1.861,1.818,1.818,0,0,0-.819-1.538,4.247,4.247,0,0,0-2.368-.27l-.725.064a6.485,6.485,0,0,1-4.2-.763,3.933,3.933,0,0,1-1.7-3.134A4.011,4.011,0,0,1,78.6,103.45a5.874,5.874,0,0,1,3.766-1.494,6.746,6.746,0,0,1,2.1.159c1.5.344,4.027,1.313,3.641,2.811-.439,1.708-3.207-.467-4.141-.775a4.7,4.7,0,0,0-1.888-.177,2.955,2.955,0,0,0-1.939.832,2.118,2.118,0,0,0-.611,1.735,1.5,1.5,0,0,0,.9,1.355,8.761,8.761,0,0,0,3.391.2,6.481,6.481,0,0,1,4.107.795,4.09,4.09,0,0,1,1.554,3.186,4.429,4.429,0,0,1-1.1,3.539,5.382,5.382,0,0,1-3.656,1.612,9.576,9.576,0,0,1-1.688-.019,11.424,11.424,0,0,1-4.441-1.152" transform="translate(-55.733 -73.318)" fill="#fff"/>
            <path id="Trazado_907623" data-name="Trazado 907623" d="M95.383,114.131l-.02,0a1.078,1.078,0,0,1-1.089-1.056l-1.71-19.487a1.078,1.078,0,0,1,.888-1.23l.02,0a1.078,1.078,0,0,1,1.089,1.056l1.71,19.487a1.078,1.078,0,0,1-.888,1.23" transform="translate(-66.576 -66.429)" fill="#fff"/>
            <path id="Trazado_907624" data-name="Trazado 907624" d="M768.245,58.385l-25.681-5.2a1.5,1.5,0,0,1-1.107-1.806l7.343-36.25a1.5,1.5,0,0,1,1.722-1.232L776.2,19.1a1.5,1.5,0,0,1,1.107,1.806l-7.343,36.25a1.5,1.5,0,0,1-1.722,1.233" transform="translate(-533.293 -9.974)" fill="#353a85"/>
            <path id="Trazado_907625" data-name="Trazado 907625" d="M775.362,75.4l-6.722-1.377a.8.8,0,0,1-.591-.969l1.439-7.022a.8.8,0,0,1,.924-.658l6.722,1.377a.8.8,0,0,1,.591.969l-1.439,7.022a.8.8,0,0,1-.924.658" transform="translate(-552.431 -47.011)" fill="#babcbe"/>
            <path id="Trazado_907626" data-name="Trazado 907626" d="M819.557,84.355l-6.725-1.362a.8.8,0,0,1-.593-.967L813.662,75a.8.8,0,0,1,.923-.661L821.31,75.7a.8.8,0,0,1,.593.967L820.479,83.7a.8.8,0,0,1-.923.66" transform="translate(-584.216 -53.461)" fill="#babcbe"/>
            <path id="Trazado_907627" data-name="Trazado 907627" d="M767.1,116.323l-6.725-1.362a.8.8,0,0,1-.593-.967l1.423-7.025a.8.8,0,0,1,.923-.66l6.725,1.362a.8.8,0,0,1,.593.967l-1.423,7.026a.8.8,0,0,1-.923.66" transform="translate(-546.486 -76.455)" fill="#babcbe"/>
            <path id="Trazado_907628" data-name="Trazado 907628" d="M811.269,125.27l-6.725-1.362a.8.8,0,0,1-.593-.967l1.423-7.025a.8.8,0,0,1,.923-.66l6.725,1.362a.8.8,0,0,1,.593.967l-1.423,7.026a.8.8,0,0,1-.923.66" transform="translate(-578.255 -82.89)" fill="#d67086"/>
            <path id="Trazado_907629" data-name="Trazado 907629" d="M778.779,75.594l1.909.387a.4.4,0,0,1,.272.184.435.435,0,0,1,.057.329.4.4,0,0,1-.175.27.42.42,0,0,1-.323.052l-1.91-.387-.429,2.119a.5.5,0,0,1-.172.307.361.361,0,0,1-.309.067.365.365,0,0,1-.249-.192.477.477,0,0,1-.054-.34l.429-2.119-1.9-.385a.429.429,0,0,1-.28-.174.394.394,0,0,1-.058-.318.424.424,0,0,1,.186-.274.407.407,0,0,1,.321-.07l1.9.385.428-2.113a.483.483,0,0,1,.177-.305.37.37,0,0,1,.309-.067.36.36,0,0,1,.259.182.5.5,0,0,1,.039.349Z" transform="translate(-557.859 -52.465)" fill="#353a85"/>
            <path id="Trazado_907630" data-name="Trazado 907630" d="M820.934,90.132a.211.211,0,0,1-.151-.1.3.3,0,0,1-.021-.207l.121-.6a.238.238,0,0,1,.095-.157.226.226,0,0,1,.178-.029l4.362.884a.277.277,0,0,1,.177.1.222.222,0,0,1,.034.183l-.121.6a.264.264,0,0,1-.116.168.248.248,0,0,1-.2.045Z" transform="translate(-590.352 -64.037)" fill="#353a85"/>
            <path id="Trazado_907631" data-name="Trazado 907631" d="M813.564,125.264a.21.21,0,0,1-.151-.1.3.3,0,0,1-.021-.207l.121-.6a.238.238,0,0,1,.095-.157.226.226,0,0,1,.178-.029l4.362.884a.277.277,0,0,1,.177.1.222.222,0,0,1,.034.183l-.121.6a.264.264,0,0,1-.116.168.248.248,0,0,1-.2.045Z" transform="translate(-585.052 -89.307)" fill="#353a85"/>
            <path id="Trazado_907632" data-name="Trazado 907632" d="M811.981,133.082a.209.209,0,0,1-.151-.1.3.3,0,0,1-.021-.207l.121-.6a.237.237,0,0,1,.095-.157.226.226,0,0,1,.178-.029l4.362.884a.277.277,0,0,1,.177.1.222.222,0,0,1,.034.183l-.121.6a.265.265,0,0,1-.116.168.248.248,0,0,1-.2.045Z" transform="translate(-583.913 -94.931)" fill="#353a85"/>
            <path id="Trazado_907633" data-name="Trazado 907633" d="M768.539,120.981a.21.21,0,0,1-.151-.1.3.3,0,0,1-.021-.207l.121-.6a.237.237,0,0,1,.095-.157.226.226,0,0,1,.178-.029l4.362.884a.277.277,0,0,1,.177.1.222.222,0,0,1,.034.183l-.121.6a.263.263,0,0,1-.116.168.247.247,0,0,1-.2.046Z" transform="translate(-552.666 -86.227)" fill="#353a85"/>
            <path id="Trazado_907634" data-name="Trazado 907634" d="M777.32,116.951a.579.579,0,1,1-.443-.723.6.6,0,0,1,.443.723" transform="translate(-558.288 -83.593)" fill="#353a85"/>
            <path id="Trazado_907635" data-name="Trazado 907635" d="M775.288,126.984a.579.579,0,1,1-.443-.723.6.6,0,0,1,.443.723" transform="translate(-556.827 -90.81)" fill="#353a85"/>
            <rect id="Rectángulo_410188" data-name="Rectángulo 410188" width="5.542" height="23.612" transform="translate(216.768 13.905) rotate(-78.548)" fill="#fff"/>
            <g id="Grupo_1120575" data-name="Grupo 1120575" transform="translate(0 161.284)" opacity="0.5">
              <g id="Grupo_1120574" data-name="Grupo 1120574">
                <g id="Grupo_1120573" data-name="Grupo 1120573" clip-path="url(#clip-path-4)">
                  <path id="Trazado_907636" data-name="Trazado 907636" d="M118.276,574.542a202.045,202.045,0,0,0-22.636,1.084c-2.842.329-5.624,1.052-8.472,1.343-5.689.582-11.276,1.669-16.985,2.171-4.6.4-9.214.642-13.8,1.154a46.73,46.73,0,0,1-13.321-.424,85.789,85.789,0,0,1-9.433-1.861,37.215,37.215,0,0,0-10.863-1.783c-5.159.039-10.184.043-15.121,1.906a14.748,14.748,0,0,0-5.171,3.1c-3.013,3.142-3.421,10.982-.412,14.24,5.067,5.485,15.881,7.637,22.984,7.738,7.783.111,15.344-.489,23.138-.843,7.243-.328,14.467-.8,21.722-.779,14.817.034,29.635,0,44.425-1.029,13.9-.967,27.826-.635,41.752-.635,14.28,0,28.464.117,42.642,2.09,6.177.86,12.471,1.161,18.679,1.764,5.56.54,10.9-.01,16.441-.509a38.061,38.061,0,0,0,13.494-3.76c3.344-1.662,9.306-6.825,10.331-10.792,2.875-11.122-40.517-10.854-47.18-10.83-7.453.028-14.965.283-22.413-.012a50.953,50.953,0,0,1-9.277-1.459c-3.045-.7-6.114-.518-9.2-.81-12.879-1.218-25.786-1.04-38.706-1.04-4.2,0-8.411-.038-12.617-.025" transform="translate(0 -574.54)" fill="#eed5d5"/>
                </g>
              </g>
            </g>
            <rect id="Rectángulo_410190" data-name="Rectángulo 410190" width="70.107" height="34.601" transform="translate(52.069 17.91) rotate(-10.192)" fill="#bfc9ff"/>
            <path id="Trazado_907637" data-name="Trazado 907637" d="M302.365,61.4c1.52,8.454-1.8,16.126-7.426,17.136s-11.41-5.023-12.93-13.477,1.8-16.126,7.426-17.136,11.41,5.023,12.93,13.477" transform="translate(-202.58 -34.392)" fill="#bfc9ff"/>
            <path id="Trazado_907638" data-name="Trazado 907638" d="M257.573,25.356,191.708,37.142l-.239.043,5.464,31.533,66.079-11.88ZM201.49,66.808a4.336,4.336,0,0,1-3.5-3.226L194.97,47.807c-.84-6.055,2.014-9.351,4.01-10.877l22.086-3.953a11.3,11.3,0,0,0-3.183,4.377,20.406,20.406,0,0,0-1.059,11.57A20.405,20.405,0,0,0,221.845,59.4a12.647,12.647,0,0,0,2.639,2.128l-5.565,1,.2,1.109Zm29.667-6.479-2.723.49c-4.5-.226-8.841-5.321-10.072-12.171C217,41.094,219.936,34.222,224.9,33.33s10.1,4.528,11.462,12.082c1.232,6.85-1.064,13.139-5.2,14.917M240.8,58.6l-5.69,1.023a12.637,12.637,0,0,0,1.732-2.913,20.406,20.406,0,0,0,1.059-11.57,20.407,20.407,0,0,0-5.023-10.476,11.3,11.3,0,0,0-4.5-2.99l20.43-3.656c1.708.219,7.417,1.5,9.063,8.9l2.594,15.467a4.257,4.257,0,0,1-2.319,4.242L241,59.705Z" transform="translate(-137.72 -18.238)" fill="#353a85"/>
            <rect id="Rectángulo_410191" data-name="Rectángulo 410191" width="13.234" height="2.048" transform="translate(62.331 32.385) rotate(-10.112)" fill="#7b1fa2"/>
            <rect id="Rectángulo_410192" data-name="Rectángulo 410192" width="13.234" height="2.048" transform="translate(103.981 24.957) rotate(-10.112)" fill="#7b1fa2"/>
            <path id="Trazado_907639" data-name="Trazado 907639" d="M346.53,614.559l3.529,2.5,1.177,1.912a13.688,13.688,0,0,1-2.059.735,61.323,61.323,0,0,1-6.47-.735v-3.382Z" transform="translate(-246.503 -442.041)" fill="#292949"/>
            <path id="Trazado_907640" data-name="Trazado 907640" d="M299.859,618.989l1.912,1.912s1.617,2.647.882,2.647-4.706.441-5,0-2.5-1.912-2.794-2.206-.158-2.873-.158-2.873Z" transform="translate(-211.95 -444.854)" fill="#292949"/>
            <path id="Trazado_907641" data-name="Trazado 907641" d="M293.377,420.445l-2.5,25.146-4.265,26.469h-5.147l-.588-27.646S276.7,421.7,276.254,414.2Z" transform="translate(-198.705 -297.924)" fill="#babcbe"/>
            <path id="Trazado_907642" data-name="Trazado 907642" d="M339.958,407.882l-4.411,50.586h-5.294l-1.618-25.881L325.6,409.673l11.568-13.555Z" transform="translate(-234.195 -284.921)" fill="#babcbe"/>
            <path id="Trazado_907643" data-name="Trazado 907643" d="M304.991,288.218c-.827-2.928-1.481-5.9-2.041-8.89-.488-2.607-.681-5.414-1.833-7.844s-3.327-4.272-5.006-6.339a6.652,6.652,0,0,0-2.528-2.2,6.768,6.768,0,0,0-2.305-.334l-7.1-.2a5.839,5.839,0,0,0-2.548.307,5.717,5.717,0,0,0-2.429,2.879c-1.488,2.9-1.763,6.122-1.9,9.4,0,.031.683,8.836-.857,15.8-1.533,6.935-.99,25.4.479,24.626a20.348,20.348,0,0,1,5.974-1.833,59.12,59.12,0,0,1,8.8-.932l5.191.393h3.133c1.88.2,1.726.838,3.658.707,1.237-.084,2.086-22.809,1.315-25.541" transform="translate(-198.182 -188.735)" fill="#7b1fa2"/>
            <path id="Trazado_907644" data-name="Trazado 907644" d="M306.056,231.988l-3.954-.172a19.734,19.734,0,0,1,.039-3.152c-1.114-.323-2.408-.83-2.662-1.961a3.268,3.268,0,0,1,0-1.09l.523-4.5a4,4,0,0,1,.38-1.509,3.352,3.352,0,0,1,2.274-1.4,8.154,8.154,0,0,1,6.681,1.24,3.574,3.574,0,0,1,1.195,1.407,4.844,4.844,0,0,1-.005,2.833l-.531,2.6c-.2,1-.515,2.138-1.442,2.559-.493.224-1.09.2-1.53.515-.775.556-.6,1.745-.972,2.624" transform="translate(-215.378 -156.786)" fill="#b97262"/>
            <path id="Trazado_907645" data-name="Trazado 907645" d="M300,193.791a3.879,3.879,0,0,1-.893-.246c-.955-.415-1.624-1.249-2.637-1.639a9.285,9.285,0,0,0-6.637.173c-1.928.811-4.558,1.123-6.284,2.212a5.26,5.26,0,0,0-1.7,1.874,7.924,7.924,0,0,0,.442,8.369,11.333,11.333,0,0,0,1.317,1.484,8.491,8.491,0,0,0,3.459,2.438c-.033-1.143-1.273-4.686-.448-5.67,1.094-1.305,3.241-1.272,4.779-1.128,1.833.172,3.342-.417,5.171-.325.931.047,1.984.234,2.7-.366a16.213,16.213,0,0,0,2.985-3.861,2.441,2.441,0,0,0-.509-2.559,2.7,2.7,0,0,0-1.743-.756" transform="translate(-202.015 -137.652)" fill="#292949"/>
            <path id="Trazado_907646" data-name="Trazado 907646" d="M255.064,203.165l-12.678-3.529,1.7-19.133-4.321-.463-4.938,20.213,2.282,4.739,11.3,6.217,4.783-7.561Z" transform="translate(-168.905 -129.499)" fill="#7b1fa2"/>
            <path id="Trazado_907647" data-name="Trazado 907647" d="M252.013,165.847l-.7-3.128,2.315-2.469,3.7,4.321-1.389,1.7Z" transform="translate(-180.766 -115.265)" fill="#b97262"/>
            <path id="Trazado_907648" data-name="Trazado 907648" d="M324.433,293.491a3.107,3.107,0,0,0-.233-1.189c-.7-1.689-8.041-22.841-8.041-22.841a20.289,20.289,0,0,1-.434-2.06l-2.353-.147.387,2.4,1.1.946s4.513,23.294,4.539,23.7l3.346,4.138Z" transform="translate(-225.403 -192.23)" fill="#fff"/>
            <path id="Trazado_907649" data-name="Trazado 907649" d="M372.634,406.69l-2.691,1.6-.89,1.805.568.379,1.027-.735-1.358,3.64,1.353,1.283,3.367-3.245,1.217-4.118Z" transform="translate(-265.453 -292.525)" fill="#b97262"/>
            <path id="Trazado_907650" data-name="Trazado 907650" d="M343.052,265.064l-3.24-.926,11.713,22.327-1.342,18.559,4.227,1.25,4.226-21.073Z" transform="translate(-244.42 -189.99)" fill="#7b1fa2"/>
            <path id="Trazado_907651" data-name="Trazado 907651" d="M473.308,0,438.659,9.755l8.376,8.478c-9.291,9.447-20.907,21.309-21.217,21.869-.518.937-9.533-17.493-9.533-17.493L391.944,49.5l-8.886-11.756L363.626,59.463,381.768,47.1l9.8,12.783,21.879-22.226,9.329,19.067L455.3,26.6l9,9.112Z" transform="translate(-261.55)" fill="#7b1fa2"/>
            <path id="Trazado_907652" data-name="Trazado 907652" d="M575.565,120.607l33.115-29.68-1.86-2.19Z" transform="translate(-413.993 -63.827)" fill="#353a85"/>
            <path id="Trazado_907653" data-name="Trazado 907653" d="M464.492,155.341l22.969-19.954-1.235-2.5Z" transform="translate(-334.101 -95.585)" fill="#353a85"/>
            <path id="Trazado_907654" data-name="Trazado 907654" d="M383.53,167.326l-18.041,12.441,19.1-10.858Z" transform="translate(-262.89 -120.355)" fill="#353a85"/>
            <path id="Trazado_907655" data-name="Trazado 907655" d="M406.963,188.314l-.95-4.919,2.937-3.356,1.538,1.4-.708,3.478.762.842-.829,3.556s-2.76-1.067-2.75-1" transform="translate(-292.038 -129.499)" fill="#efbfa5"/>
            <path id="Trazado_907656" data-name="Trazado 907656" d="M531.82,152.643l.361-5.132L528.03,144.3l-1.741,2.276,1.875,3.348-.669,1.741,1.84,2.764Z" transform="translate(-378.55 -103.79)" fill="#efbfa5"/>
            <path id="Trazado_907657" data-name="Trazado 907657" d="M427.962,374.956l-.336,29.038,3.095,37.381h4.207l5.035-34.487,5.758-34.546Z" transform="translate(-307.584 -267.819)" fill="#353a85"/>
            <path id="Trazado_907658" data-name="Trazado 907658" d="M436.064,618.75l-4.55,2.275-2.275-2.275,2.275-2.275h4.55Z" transform="translate(-308.744 -443.419)" fill="#292949"/>
            <path id="Trazado_907659" data-name="Trazado 907659" d="M486.082,374.956l.083,16.8-2.838,49.619H479.12l-7.038-32.927-3.758-36.106Z" transform="translate(-336.857 -267.819)" fill="#353a85"/>
            <path id="Trazado_907660" data-name="Trazado 907660" d="M506.869,618.75l4.55,2.275,2.275-2.275-2.275-2.275h-4.55Z" transform="translate(-364.582 -443.419)" fill="#292949"/>
            <path id="Trazado_907661" data-name="Trazado 907661" d="M453.106,303.107c.09,2.665.032,6.231-1.09,6.364a1.106,1.106,0,0,1-.6-.158c-1.951-.948-3.342-2.288-5.266-3.2a23.763,23.763,0,0,0-6.546-1.809,68.091,68.091,0,0,0-10.1-.884c-2.889-.026-5.893,1.292-8.625,2.017a9.54,9.54,0,0,0-2.78,1.646c-1.29.888-1.855,1.239-1.68-.574.287-2.959.585-5.917.949-8.867a109.4,109.4,0,0,1,3.387-17.453c.639-2.176,1.376-4.322,2.112-6.468l2.691-7.837a9.8,9.8,0,0,1,6.291-6.67c2.848-.981,6.384-1.25,9.154.124,3.079,1.527,4.543,6.73,6.039,9.511,1.311,2.437,2.963,9.082,3.453,11.709.591,3.162,1.136,6.309,1.565,9.447a96.826,96.826,0,0,1,.908,10.387c.011.381.088,1.446.131,2.719" transform="translate(-299.504 -185.853)" fill="#353a85"/>
            <path id="Trazado_907662" data-name="Trazado 907662" d="M457.7,263.393l-5.686.054s-6.1,21.323-6.326,25c-.22,3.608-1.762,18.236-1.762,18.236s6.3.149,13.552,1.032c7.093,1.518,7.689.62,7.689.62s-3.828-15.375-3.955-19.792c-.13-4.518-.708-19.441-.708-19.441Z" transform="translate(-319.311 -189.454)" fill="#fff"/>
            <path id="Trazado_907663" data-name="Trazado 907663" d="M476.39,264.634h-2.8a.789.789,0,0,0-.627,1.268l1.149,1.506-3.058,28.2,3.763,3.7,2.587-4.392-.706-27.511.455-1.79a.789.789,0,0,0-.765-.984" transform="translate(-338.821 -190.346)" fill="#bfc9ff"/>
            <path id="Trazado_907664" data-name="Trazado 907664" d="M469.72,229.913a.674.674,0,0,0,.233.133,1.287,1.287,0,0,0,.553.015l2.256-.267c-.248-2.3,1.1-2.824,2.411-4.306,1.33-1.5.92-3.527.846-5.365a3.914,3.914,0,0,0-.263-1.5,3.287,3.287,0,0,0-2.122-1.532,8,8,0,0,0-6.625.729,3.5,3.5,0,0,0-1.271,1.289,4.75,4.75,0,0,0-.2,2.772,9.347,9.347,0,0,0,1.42,4.054c.756,1.127,2.2,1.667,2.363,3.019a1.53,1.53,0,0,0,.4.961" transform="translate(-334.775 -155.863)" fill="#efbfa5"/>
            <path id="Trazado_907665" data-name="Trazado 907665" d="M466.164,190.862a5.23,5.23,0,0,0-1.589-1.671c-1.492-.91-3.57-.994-5.178-1.618-2.261-.878-3.411-.086-5.546.6a3.625,3.625,0,0,0-2.287,1.32c-.25.447-.287,1-.539,1.443a4.193,4.193,0,0,1-1.475,1.233,2.061,2.061,0,0,0-.906,1.732c-.047,1.482,1.073,3.888,2.45,4.492a2.954,2.954,0,0,0,.877.22,3.276,3.276,0,0,0,1.811,2.113,3.939,3.939,0,0,0-.257-1.74,1.616,1.616,0,0,1-.029-.45,12.861,12.861,0,0,0,2.82-.889c1.572-.686,4.634-1.417,6.266-.607,1.291.641.895,2.685.829,3.978a3.532,3.532,0,0,0,.034.994c.106.449.446.7.513,1.157a6.182,6.182,0,0,0,2.293-2.635,10.036,10.036,0,0,0,.8-1.541,9.432,9.432,0,0,0-.888-8.13" transform="translate(-322.702 -134.639)" fill="#292949"/>
            <path id="Trazado_907666" data-name="Trazado 907666" d="M410.576,221.333l-13.525-.193,1.312-14.5L394,205.058l-5.256,17.474,2.466,5.271,15.1,4.413Z" transform="translate(-279.62 -147.495)" fill="#353a85"/>
            <path id="Trazado_907667" data-name="Trazado 907667" d="M499.493,195.475l14.435-4.254-5.343-18.046,4.4-3.158,10.628,20.891-2.939,7.234-13.791,7.118Z" transform="translate(-359.276 -122.29)" fill="#353a85"/>
            <path id="Trazado_907668" data-name="Trazado 907668" d="M821.274,158.774l.629-5.345-5.808-2.481-1.08,2.469,2.735,4.019.663,2.445Z" transform="translate(-586.226 -108.574)" fill="#efbfa5"/>
            <path id="Trazado_907669" data-name="Trazado 907669" d="M713.179,293.82l-7.03,10.791-4.576,8.74,1.674,3.388,6.088-1.7Z" transform="translate(-504.629 -211.339)" fill="#babcbe"/>
            <path id="Trazado_907670" data-name="Trazado 907670" d="M728.587,423.715v5.464L721.3,452.857l1.821,24.589-4.554.911L711.283,448.3l.279-8.842,3.364-18.033Z" transform="translate(-511.613 -303.126)" fill="#7b1fa2"/>
            <path id="Trazado_907671" data-name="Trazado 907671" d="M730.46,620.959l-3.476,3.679,1,1.865,7.172-3.443-1.321-2.726Z" transform="translate(-522.907 -446.196)" fill="#292949"/>
            <path id="Trazado_907672" data-name="Trazado 907672" d="M767.653,628.544l-4.285,2.694.506,2.057,7.8-1.542-.6-2.969Z" transform="translate(-549.077 -452.1)" fill="#292949"/>
            <path id="Trazado_907673" data-name="Trazado 907673" d="M710.157,282.7,721,278.4s3.852,9.568,8.231,24.894-2.034,34.836-2.034,34.836-24.831-5.9-29.789-6.875l6.219-28.016Z" transform="translate(-501.63 -200.252)" fill="#babcbe"/>
            <path id="Trazado_907674" data-name="Trazado 907674" d="M752.335,440.953l7.32,50.088h3.328l2.1-27.321,4.554-27.321Z" transform="translate(-541.141 -313.895)" fill="#7b1fa2"/>
            <path id="Trazado_907675" data-name="Trazado 907675" d="M741.434,237.2c2.951.217,5.711-2.206,8.615-1.6a5.621,5.621,0,0,1,3.956,3.954,4.731,4.731,0,0,1,.1,2.714,4.524,4.524,0,0,1-.856,1.534,6.425,6.425,0,0,1-1.773,1.5,11.591,11.591,0,0,0,1.263,1.676l-4.083,1.564-.9-2.346a6.193,6.193,0,0,1-1.217-.185,7.046,7.046,0,0,1-4.959-5.238,13.676,13.676,0,0,1-.145-3.569" transform="translate(-533.266 -169.39)" fill="#efbfa5"/>
            <path id="Trazado_907676" data-name="Trazado 907676" d="M728.044,224.637l9.125-1.084,1.771,6.971,2.577-2.045-1.328-11.406-12.878-.277-5.576,3.271.236,3.278,4.986,3.356Z" transform="translate(-519.131 -155.937)" fill="#292949"/>
            <path id="Trazado_907677" data-name="Trazado 907677" d="M730.861,275.479l10.839-4.3s3.852,9.568,8.231,24.894S747.9,330.91,747.9,330.91s-22.212-10.975-27.171-11.949l3.6-22.941Z" transform="translate(-518.406 -195.054)" fill="#fff"/>
            <path id="Trazado_907678" data-name="Trazado 907678" d="M768.592,295.1c-4.379-15.327-8.171-24.91-8.171-24.91l-10.9,4.316-.017.055c.24.626.491,1.249.709,1.884a43.592,43.592,0,0,1,1.883,7.7,78.576,78.576,0,0,1,.61,13.987,91.192,91.192,0,0,1-1.393,13.3,90,90,0,0,1-4.869,16.935c10.081,2.048,21.946,4.47,21.946,4.47s4.582-22.416.2-37.743" transform="translate(-536.903 -194.339)" fill="#babcbe"/>
            <path id="Trazado_907679" data-name="Trazado 907679" d="M792.976,202.544l10.79-6.689-2.006-18.362,4.783-1.852,7.87,20.985-1.543,3.395-14.79,14.273Z" transform="translate(-570.373 -126.336)" fill="#babcbe"/>
            <path id="Trazado_907680" data-name="Trazado 907680" d="M701.076,311.025l1.08-12.807h-5.246l-4.012,17.59,2.777,5.4,4.466-2.183Z" transform="translate(-498.389 -214.503)" fill="#babcbe"/>
            <path id="Trazado_907681" data-name="Trazado 907681" d="M709.387,283.984v-4.321l3.24-1.234,2.932,2.315v2.006l-2.16,1.234Z" transform="translate(-510.25 -200.269)" fill="#efbfa5"/>
            <path id="Trazado_907682" data-name="Trazado 907682" d="M84,197.037l.623-5.226,4.088-2.358,1.181,2.815-1.952,3.2v2.623Z" transform="translate(-60.421 -136.27)" fill="#efbfa5"/>
            <path id="Trazado_907683" data-name="Trazado 907683" d="M172.184,620.623l-3.658-3.378a7.2,7.2,0,0,0-3.093-.9,1.751,1.751,0,0,0-1.539.722,1.771,1.771,0,0,0-.166,1.629,2.2,2.2,0,0,0,.318.515h0l0,0c.109.136.228.266.347.393.076.081.159.168.248.259a21.01,21.01,0,0,0,2.528,2.459c.739.443,2.363,1.625,4.283.3l-.022-.019a1.851,1.851,0,0,0,.753-1.975" transform="translate(-117.676 -443.325)" fill="#292949"/>
            <path id="Trazado_907684" data-name="Trazado 907684" d="M165.284,525.969l-.3,4.24-1.449,20.64,1.449,2.4s.3,1.92-1.92,1.772c-.659-.044-2.993-3.012-2.993-3.012l.337-1.36-1.642-15.5.015-4.5-.786-5Z" transform="translate(-113.646 -378.093)" fill="#efbfa5"/>
            <path id="Trazado_907685" data-name="Trazado 907685" d="M94.823,612.582A1.892,1.892,0,0,0,93,612.8a1.916,1.916,0,0,0-.719,1.616,3.492,3.492,0,0,0,.377,1.158c.883,1.915,3.361,6.243,6.2,5.45a2.135,2.135,0,0,0,1.4-2.63c-.365-1.623-3.165-5.1-5.441-5.816" transform="translate(-66.371 -440.525)" fill="#292949"/>
            <path id="Trazado_907686" data-name="Trazado 907686" d="M111,513.938l-.495,6.1L98.524,541.62s1.723,3.009.63,3.271a3.943,3.943,0,0,1-4.3-4.048c1.26-4.115,6.213-18.09,6.213-18.09l2.319-3.606-.034-6.777Z" transform="translate(-68.225 -368.538)" fill="#efbfa5"/>
            <path id="Trazado_907687" data-name="Trazado 907687" d="M104.13,322.746a32.745,32.745,0,0,1,1.072-8.178c2.156-6.135,2.571-9.158,2.571-14.152s-2.215-20.826-2.215-20.826l7.7-4.62,9.226.259,5.123,1.69s1.085,19.92,1.393,26.34c.22,4.582.538,8.55.957,13.858a120.512,120.512,0,0,1-.64,25.089s-.405,4.31-.587,4.688c-.024.128-.037.2-.037.2H108.1v-7.4q-1.024-3.561-1.954-7.15a50.446,50.446,0,0,1-2.016-9.8" transform="translate(-74.891 -197.781)" fill="#292949"/>
            <path id="Trazado_907688" data-name="Trazado 907688" d="M107.69,276.47l-3.5,2.634s2.664,18.235,2.806,21.417-3.959,15.9-3.959,15.9l16.986,2.215s2.5-13.58,3.217-20.326-9.558-23.192-9.558-23.192Z" transform="translate(-74.111 -197.886)" fill="#bfc9ff"/>
            <path id="Trazado_907689" data-name="Trazado 907689" d="M171.827,276.907l3.467,1.645s-.488,20.271.4,25.419c.542,3.138,2.651,13.3,2.651,13.3l-5.485,1.877s-3.377-12.712-4.048-19.459.06-23.523.06-23.523Z" transform="translate(-121.22 -198.643)" fill="#bfc9ff"/>
            <path id="Trazado_907690" data-name="Trazado 907690" d="M168.632,233.7c.45,1.742-.583,3.462-1.487,4.931-.369.6-.942,1.435-.465,2.12a1.734,1.734,0,0,0,2.442.04,3.563,3.563,0,0,0,.79-1.489c.787-2.4,1.886-5.759,1.671-8.28-.172-2.022-2.652-5.612-5.206-4.328a2.657,2.657,0,0,0-1.015,1.1,2.082,2.082,0,0,0-.329.82c-.12,1.171,1.009,1.472,1.75,2.1a5.912,5.912,0,0,1,1.85,2.982" transform="translate(-118.698 -162.863)" fill="#292949"/>
            <path id="Trazado_907691" data-name="Trazado 907691" d="M147.148,244.027a5.323,5.323,0,0,0,3.895-2.845,9.556,9.556,0,0,0,.915-4.7c-.1-5.36-7.207-5.658-9.971-1.806-2.408,3.357.2,9.979,5.16,9.348" transform="translate(-101.476 -166.932)" fill="#efbfa5"/>
            <path id="Trazado_907692" data-name="Trazado 907692" d="M130.35,221.684c-.059.649-.389,1.337-.48,2-.168,1.227.107,2.82-.342,3.942a7.562,7.562,0,0,1-3.686-1.806c-.943-.874-.773-2.172-.984-3.459a16.564,16.564,0,0,1-.375-3.59,8.568,8.568,0,0,1,12.746-7.223c2.193,1.125,3.152,3.984,1.539,5.863-1.735,2.021-5.259,1.144-7.337,2.644a3.546,3.546,0,0,0-1.081,1.625" transform="translate(-89.53 -151.407)" fill="#292949"/>
            <path id="Trazado_907693" data-name="Trazado 907693" d="M153.494,269.6q-.13.6-.259,1.2c-.04.183-.025.707-.182.832a.421.421,0,0,1-.312.042,16.084,16.084,0,0,1-3.037-.565,9.677,9.677,0,0,1,.318-1.38,5.233,5.233,0,0,1,.383-1.321,4.976,4.976,0,0,0,1.5.675q.8.226,1.605.426l-.02.093" transform="translate(-107.679 -193.062)" fill="#efbfa5"/>
            <path id="Trazado_907694" data-name="Trazado 907694" d="M80.129,229.2l-13.534.983,3.031-19.734-4.94.027-7.248,20.687,2.517,6.517,15.774,1.458Z" transform="translate(-41.314 -151.376)" fill="#bfc9ff"/>
            <path id="Trazado_907695" data-name="Trazado 907695" d="M187.381,281.821l3.467,1.645,8.487,21.139L209,308.117l-3.649,2.526-10.025-.176-7.1-12.5Z" transform="translate(-134.78 -202.708)" fill="#bfc9ff"/>
            <path id="Trazado_907696" data-name="Trazado 907696" d="M640.377,144.539l.6-3.792-3.714-1.79-3.106,3.885,2.787,2.545Z" transform="translate(-456.137 -99.949)" fill="#b97262"/>
            <path id="Trazado_907697" data-name="Trazado 907697" d="M636.883,192.176,642,175.754l-4.041-18.766,4.888-1.249,5.9,20.3L642.64,199.1l-4.645-6.72Z" transform="translate(-458.098 -112.02)" fill="#d67086"/>
            <path id="Trazado_907698" data-name="Trazado 907698" d="M663.29,589.763l.013-.019-.015,0-.736-9.642-4.769,1.023,2.364,8.4-1.217,2.554s-.465,1.281-.031,1.149a23.259,23.259,0,0,0,2.464-.8c.125-.119,1.428-1.956,1.824-2.517Z" transform="translate(-473.132 -417.254)" fill="#b97262"/>
            <path id="Trazado_907699" data-name="Trazado 907699" d="M600.407,584.984l.751,6.564-1.247,1.733.131,1.142,3.343-1.105,1.5-.75.1-9.263Z" transform="translate(-431.504 -419.56)" fill="#b97262"/>
            <path id="Trazado_907700" data-name="Trazado 907700" d="M621.836,398.121l2.347,18.562,1.454,6.923L632,449.187l5.8-1.19-2.684-27.984,1.312-17.8.517-4.676,1.426-5.639Z" transform="translate(-447.275 -281.885)" fill="#3b3387"/>
            <path id="Trazado_907701" data-name="Trazado 907701" d="M579.7,397.181l.937,18.9,4.765,31.549,5.708-.653.178-18.669,3.092-34.9-6.528-2.723-5.223-1.427Z" transform="translate(-416.965 -279.98)" fill="#3b3387"/>
            <path id="Trazado_907702" data-name="Trazado 907702" d="M593.051,611.22l-4.411,4.408.339,1.7,3.568-.408,4.668-3.425.008-2.458-.477-.379s-4.322,2.663-4.623,2.553.929-1.986.929-1.986" transform="translate(-423.398 -439.232)" fill="#292949"/>
            <path id="Trazado_907703" data-name="Trazado 907703" d="M656.983,613.041l-2.238,2.4-1.354,1.076.553,1.846,1.981.346,5.219-3.172-.479-2.27-.492-.523a26.066,26.066,0,0,1-3.963,2.662c-.543.276.773-2.362.773-2.362" transform="translate(-469.972 -440.734)" fill="#292949"/>
            <path id="Trazado_907704" data-name="Trazado 907704" d="M563.693,281.908l-4.154,2.154-11.795,10.524.236,5.393,15.006-6.437Z" transform="translate(-393.983 -202.771)" fill="#d67086"/>
            <path id="Trazado_907705" data-name="Trazado 907705" d="M581.555,278.667s2.011-2.387,9.623-2.387,13.3,24.109,13.01,28.436.778,14.079.778,14.079l-17.81-4.468s-10.051.019-12.493,2.406,4.752-17.037,4.9-21.513-.447-14.315,2-16.553" transform="translate(-412.982 -198.723)" fill="#d67086"/>
            <path id="Trazado_907706" data-name="Trazado 907706" d="M613.866,278.216l.7.031-2.255,19.211-3.921-8.151-.718-8.762.718-1.293Z" transform="translate(-437.086 -200.116)" fill="#fff"/>
            <path id="Trazado_907707" data-name="Trazado 907707" d="M593.493,237.281c-.47-5.823,7.043-6.845,10.389-2.939,2.183,2.548,1.578,7.356-1.1,9.531a3.314,3.314,0,0,0,.114.326,10.757,10.757,0,0,1,.485,1.466,16.728,16.728,0,0,1-3.162.911.44.44,0,0,1-.335-.016c-.181-.12-.221-.69-.283-.884l-.219-.689a5.74,5.74,0,0,1-4.413-2.7,10.657,10.657,0,0,1-1.476-5.006" transform="translate(-426.874 -166.882)" fill="#b97262"/>
            <path id="Trazado_907708" data-name="Trazado 907708" d="M579.639,227.225a2.9,2.9,0,0,1,1.2,1.1,2.315,2.315,0,0,1,.437.858c.254,1.258-.912,1.7-1.632,2.451A6.418,6.418,0,0,0,578,235.045c-.291,1.933.99,3.7,2.108,5.2.394.53,1.051,1.287.823,2.012s-1.341,1.124-2.018,1.092a6.431,6.431,0,0,0-1.838-.161c-.634.159-1.319.768-1.831.346-.142-.117-.23-.3-.387-.395-.53-.324-1.1.577-1.708.449-.371-.079-.558-.511-.611-.894a2.538,2.538,0,0,0-.262-1.118,3.743,3.743,0,0,0-.758-.629,1.733,1.733,0,0,1-.518-1.784c.36-1.16,1.838-1.615,2.271-2.748a3.738,3.738,0,0,0,.029-1.883,3.287,3.287,0,0,1,.1-1.874c.33-.706,1.14-.964,1.425-1.754a11.787,11.787,0,0,1,.412-1.421,7.621,7.621,0,0,1,1.556-1.7,2.74,2.74,0,0,1,2.853-.558" transform="translate(-410.657 -163.305)" fill="#292949"/>
            <path id="Trazado_907709" data-name="Trazado 907709" d="M601.648,220.876c.759,1.653.718,3.816,2.126,4.947s3.469.565,5.148-.076c.276-.106,3.811-1.347,3.867-1.395,1.808-1.53-.124-2.582-.333-3.86-.3-1.836,2.572-1.549,1.937-3.151-.361.088-.709-.248-.821-.611a5.969,5.969,0,0,1-.111-1.131,2.546,2.546,0,0,0-1.632-2.078c-1.729-.609-3.749.84-5.377-.015-1.009-.531-1.448-1.747-2.225-2.594-1.5-1.637-3.787-1.119-5.742-1.3a8.237,8.237,0,0,0-5.63,1.148c-2.206,1.436-2.917,4.631-1,6.51,2.454,2.41,7.05.1,9.228,2.686a4.009,4.009,0,0,1,.57.919" transform="translate(-424.91 -150.724)" fill="#292949"/>
            <path id="Trazado_907710" data-name="Trazado 907710" d="M634.963,322.608l-4.1-10.655h0a2.929,2.929,0,0,0-5.649.389l-.279.019V323.4l.649-.863.718.954h.137l.718-.954.717.954h.138l.718-.954.717.954h.138l.717-.954.718.954h.137l.718-.954.717.954h.138l.717-.954.718.954h.137Z" transform="translate(-449.503 -222.953)" fill="#babcbe"/>
            <path id="Trazado_907711" data-name="Trazado 907711" d="M581.2,309.966H566.83a2.93,2.93,0,0,0-2.929,2.9c0,.012,0,.023,0,.035s0,.023,0,.035v47.435h11.324a3.545,3.545,0,0,0,4.965,0,3.937,3.937,0,0,0,1.006-3.186l.062-44.284a2.931,2.931,0,0,1,2.931-2.931Z" transform="translate(-405.602 -222.953)" fill="#f7f7f7"/>
            <path id="Trazado_907712" data-name="Trazado 907712" d="M567.739,478.418a3.55,3.55,0,0,1,.134-.958h-.134l-13.076,2.029.677.931a3.761,3.761,0,0,0,3.041,1.549h12.907a3.551,3.551,0,0,1-3.551-3.551" transform="translate(-398.959 -343.428)" fill="#babcbe"/>
            <rect id="Rectángulo_410193" data-name="Rectángulo 410193" width="14.211" height="0.512" transform="translate(159.82 98.685)" fill="#d2cfca"/>
            <rect id="Rectángulo_410194" data-name="Rectángulo 410194" width="14.211" height="0.512" transform="translate(159.82 101.689)" fill="#d2cfca"/>
            <rect id="Rectángulo_410195" data-name="Rectángulo 410195" width="14.211" height="0.512" transform="translate(159.82 104.693)" fill="#d2cfca"/>
            <rect id="Rectángulo_410196" data-name="Rectángulo 410196" width="14.211" height="0.512" transform="translate(159.82 107.697)" fill="#d2cfca"/>
            <rect id="Rectángulo_410197" data-name="Rectángulo 410197" width="14.211" height="0.512" transform="translate(159.82 110.701)" fill="#d2cfca"/>
            <rect id="Rectángulo_410198" data-name="Rectángulo 410198" width="14.211" height="0.512" transform="translate(159.82 113.705)" fill="#d2cfca"/>
            <rect id="Rectángulo_410199" data-name="Rectángulo 410199" width="14.211" height="0.512" transform="translate(159.82 117.106)" fill="#d2cfca"/>
            <rect id="Rectángulo_410200" data-name="Rectángulo 410200" width="14.211" height="0.512" transform="translate(159.82 120.507)" fill="#d2cfca"/>
            <rect id="Rectángulo_410201" data-name="Rectángulo 410201" width="14.211" height="0.512" transform="translate(159.82 123.909)" fill="#d2cfca"/>
            <rect id="Rectángulo_410202" data-name="Rectángulo 410202" width="14.211" height="0.512" transform="translate(159.82 95.387)" fill="#d2cfca"/>
            <path id="Trazado_907713" data-name="Trazado 907713" d="M545.68,327.071l11.618,8.706-1.849,3.983L544.629,335.1Z" transform="translate(-391.741 -235.256)" fill="#d67086"/>
            <path id="Trazado_907714" data-name="Trazado 907714" d="M585.7,359.459s2.106.587,2.106.395v.908l1.339,1.216-1.229,1.995-3.551-1.637Z" transform="translate(-420.325 -258.552)" fill="#b97262"/>
            <path id="Trazado_907715" data-name="Trazado 907715" d="M147.854,276.183a3.667,3.667,0,0,1-.827-1.015,3.532,3.532,0,0,1-.421-2.092.613.613,0,0,1,.617-.561.575.575,0,0,1,.557.6,2.461,2.461,0,0,0,.622,1.954,2.715,2.715,0,0,1,.36-.334c.476-.367,1.212-.847,1.793-.463a1.132,1.132,0,0,1-.006,1.777,2.108,2.108,0,0,1-1.47.673,1.089,1.089,0,0,0,1.257.905c.435-.024,1.453-.269,1.641-.745.122-.309-.14-1.023-.176-1.366a13.3,13.3,0,0,1,.015-2.873,15.366,15.366,0,0,1,1.8-5.554,23.9,23.9,0,0,1,9.487-9.139q.32-.179.644-.351A23.869,23.869,0,0,1,172,254.955a8.278,8.278,0,0,1,1.416-3.049,7.212,7.212,0,0,1,6.678-2.868,27.958,27.958,0,0,0-1.5,6.18,18.251,18.251,0,0,1,8.23,4.086l.143.127,3.246-.6s3.176,5.522,3.1,7.55c0,0-2.066,1.8-3.387,2.7a17.614,17.614,0,0,1-3.143,8.261q-.178.259-.365.515l2.364,4.468s-3.073,3.118-5.167,3.48l-2.732-2.579a25.784,25.784,0,0,1-2.71,1.654,29.764,29.764,0,0,1-3.407,1.541l.6,3.747c-1.476,1.527-5.783,2.314-5.783,2.314l-2.363-4.465c-5.868.224-11.057-2.146-13.872-7.464a14.825,14.825,0,0,1-.637-1.367,4.177,4.177,0,0,1-2.667.061,3.131,3.131,0,0,1-1.6-1.233,2.717,2.717,0,0,1-.6-1.833" transform="translate(-105.436 -179.074)" fill="#d67086"/>
            <path id="Trazado_907716" data-name="Trazado 907716" d="M199.08,276.443l.238,1.927a25.925,25.925,0,0,0-10.615,5.617l-1.767-.521s3.29-6.2,12.143-7.022" transform="translate(-134.46 -198.84)" fill="#fff"/>
            <g id="Grupo_1120578" data-name="Grupo 1120578" transform="translate(47.946 92.167)" opacity="0.03">
              <g id="Grupo_1120577" data-name="Grupo 1120577">
                <g id="Grupo_1120576" data-name="Grupo 1120576" clip-path="url(#clip-path-5)">
                  <path id="Trazado_907717" data-name="Trazado 907717" d="M171.368,338.022c3.835,2.767,8.767,3.529,13.466,3.139a30.826,30.826,0,0,0,10.288-2.6c4.68-2.16,8.287-5.775,11.428-9.709.138-.173.271-.349.4-.526a18.566,18.566,0,0,1-2.756,6,24.069,24.069,0,0,1-8.61,7.538c-9.7,5.131-20.26,4.193-24.786-4.259.185.146.378.283.569.421" transform="translate(-170.799 -328.324)"/>
                </g>
              </g>
            </g>
            <g id="Grupo_1120581" data-name="Grupo 1120581" transform="translate(81.642 80.454)" opacity="0.03">
              <g id="Grupo_1120580" data-name="Grupo 1120580">
                <g id="Grupo_1120579" data-name="Grupo 1120579" clip-path="url(#clip-path-6)">
                  <path id="Trazado_907718" data-name="Trazado 907718" d="M290.834,286.6s4.427,4.906,2.856,9.556l1.3-.969s-.461-6-4.161-8.587" transform="translate(-290.834 -286.6)"/>
                </g>
              </g>
            </g>
            <path id="Trazado_907719" data-name="Trazado 907719" d="M247.47,374.462l-2.42-.412,1.364-3.59,2.913-.632,1.729,1.856Z" transform="translate(-176.26 -266.011)" fill="#efbfa5"/>
          </g>
        </g>
      </g>
    </g>
  </g>
</svg>
